<?xml version="1.0" encoding="utf-8"?>
<!-- Generator: Adobe Illustrator 22.0.1, SVG Export Plug-In . SVG Version: 6.00 Build 0)  -->
<svg version="1.1" id="Laag_1" xmlns="http://www.w3.org/2000/svg" xmlns:xlink="http://www.w3.org/1999/xlink" x="0px" y="0px"
	 viewBox="0 0 1280 300" style="enable-background:new 0 0 1280 300;" xml:space="preserve">
<style type="text/css">
	.st0{fill:#E51A2F;}
</style>
<path class="st0" d="M560.3,273c-43.3,0-78.5-35.2-78.5-78.5s35.2-78.5,78.5-78.5c43.3,0,78.5,35.2,78.5,78.5S603.6,273,560.3,273z
	 M560.3,131.9c-34.5,0-62.6,28.1-62.6,62.6s28.1,62.6,62.6,62.6c34.5,0,62.6-28.1,62.6-62.6S594.8,131.9,560.3,131.9z"/>
<path class="st0" d="M727.7,273c-54.4,0-98.7-44.3-98.7-98.7s44.3-98.7,98.7-98.7c54.5,0,98.7,44.3,98.7,98.7S782.1,273,727.7,273z
	 M727.7,91.4c-45.7,0-82.9,37.2-82.9,82.9s37.2,82.9,82.9,82.9c45.7,0,82.9-37.2,82.9-82.9S773.4,91.4,727.7,91.4z"/>
<circle class="st0" cx="722" cy="184.2" r="15.3"/>
<circle class="st0" cx="560.3" cy="199.5" r="15.3"/>
<path class="st0" d="M827.1,87.5c-2.4,0-4.7-1.1-6.3-3.1c-20.7-26.9-47.2-41.4-78.7-43c-24-1.3-42.1,5.7-42.3,5.7
	c-4.1,1.6-8.7-0.4-10.3-4.5c-1.6-4.1,0.4-8.7,4.5-10.3c0.8-0.3,21-8.1,48.2-6.8c25.2,1.2,61.6,10.7,91.2,49.2
	c2.7,3.5,2,8.5-1.5,11.1C830.5,87,828.8,87.5,827.1,87.5z"/>
</svg>
