<?xml version="1.0" encoding="utf-8"?>
<!-- Generator: Adobe Illustrator 22.0.1, SVG Export Plug-In . SVG Version: 6.00 Build 0)  -->
<svg version="1.1" id="Laag_1" xmlns="http://www.w3.org/2000/svg" xmlns:xlink="http://www.w3.org/1999/xlink" x="0px" y="0px"
	 viewBox="0 0 1280 1024" style="enable-background:new 0 0 1280 1024;" xml:space="preserve">
<style type="text/css">
	.st0{fill:#E51A2F;}
	.st1{fill:#FFFFFF;}
</style>
<path class="st0" d="M423.5,723.6c-99.6,0-180.7-81.1-180.7-180.7s81.1-180.7,180.7-180.7s180.7,81.1,180.7,180.7
	S523.1,723.6,423.5,723.6z M423.5,398.8c-79.5,0-144.1,64.7-144.1,144.1S344,687,423.5,687s144.1-64.7,144.1-144.1
	S503,398.8,423.5,398.8z"/>
<path class="st0" d="M808.9,723.6c-125.4,0-227.4-102-227.4-227.4s102-227.4,227.4-227.4c125.4,0,227.4,102,227.4,227.4
	S934.2,723.6,808.9,723.6z M808.9,305.4C703.6,305.4,618,391,618,496.2S703.6,687,808.9,687c105.2,0,190.8-85.6,190.8-190.8
	S914.1,305.4,808.9,305.4z"/>
<circle class="st0" cx="795.9" cy="519.2" r="35.1"/>
<circle class="st0" cx="423.5" cy="554.3" r="35.1"/>
<path class="st0" d="M1037.7,296.4c-5.5,0-10.9-2.5-14.5-7.1c-47.6-61.9-108.6-95.2-181.3-99.1c-55.2-2.9-97,13-97.4,13.2
	c-9.4,3.7-20-1-23.6-10.4c-3.7-9.4,0.9-20,10.3-23.6c1.9-0.8,48.4-18.7,111-15.7c58.1,2.8,141.7,24.7,210,113.4
	c6.2,8,4.7,19.5-3.3,25.6C1045.5,295.2,1041.6,296.4,1037.7,296.4z"/>
</svg>
