<?xml version="1.0" encoding="utf-8"?>
<!-- Generator: Adobe Illustrator 22.0.1, SVG Export Plug-In . SVG Version: 6.00 Build 0)  -->
<svg version="1.1" id="Laag_1" xmlns="http://www.w3.org/2000/svg" xmlns:xlink="http://www.w3.org/1999/xlink" x="0px" y="0px"
	 viewBox="0 0 1280 1024" style="enable-background:new 0 0 1280 1024;" xml:space="preserve">
<style type="text/css">
	.st0{fill:#E51A2F;}
	.st1{fill:#FFFFFF;}
</style>
<rect class="st0" width="1280" height="1024"/>
<path class="st1" d="M509.2,481.5c-60.3,0-109.4-49.1-109.4-109.4s49.1-109.4,109.4-109.4s109.4,49.1,109.4,109.4
	S569.5,481.5,509.2,481.5z M509.2,284.9c-48.1,0-87.2,39.1-87.2,87.2s39.1,87.2,87.2,87.2s87.2-39.1,87.2-87.2
	S557.3,284.9,509.2,284.9z"/>
<path class="st1" d="M742.4,481.5c-75.9,0-137.6-61.7-137.6-137.6s61.7-137.6,137.6-137.6c75.9,0,137.6,61.7,137.6,137.6
	S818.3,481.5,742.4,481.5z M742.4,228.4c-63.7,0-115.5,51.8-115.5,115.5s51.8,115.5,115.5,115.5c63.7,0,115.5-51.8,115.5-115.5
	S806.1,228.4,742.4,228.4z"/>
<circle class="st1" cx="734.6" cy="357.8" r="21.3"/>
<circle class="st1" cx="509.2" cy="379" r="21.3"/>
<path class="st1" d="M880.9,223c-3.3,0-6.6-1.5-8.8-4.3c-28.8-37.5-65.7-57.6-109.7-60c-33.4-1.8-58.7,7.9-59,8
	c-5.7,2.2-12.1-0.6-14.3-6.3c-2.2-5.7,0.6-12.1,6.2-14.3c1.2-0.5,29.3-11.3,67.2-9.5c35.2,1.7,85.8,14.9,127.1,68.6
	c3.7,4.8,2.8,11.8-2,15.5C885.7,222.2,883.3,223,880.9,223z"/>
</svg>
