<?xml version="1.0" encoding="utf-8"?>
<!-- Generator: Adobe Illustrator 22.0.1, SVG Export Plug-In . SVG Version: 6.00 Build 0)  -->
<svg version="1.1" id="Laag_1" xmlns="http://www.w3.org/2000/svg" xmlns:xlink="http://www.w3.org/1999/xlink" x="0px" y="0px"
	 viewBox="0 0 1280 1024" style="enable-background:new 0 0 1280 1024;" xml:space="preserve">
<style type="text/css">
	.st0{fill:#E51A2F;}
	.st1{fill:#FFFFFF;}
</style>
<path class="st0" d="M520.2,492.5c-60.3,0-109.4-49.1-109.4-109.4s49.1-109.4,109.4-109.4s109.4,49.1,109.4,109.4
	S580.5,492.5,520.2,492.5z M520.2,295.9c-48.1,0-87.2,39.1-87.2,87.2s39.1,87.2,87.2,87.2s87.2-39.1,87.2-87.2
	S568.3,295.9,520.2,295.9z"/>
<path class="st0" d="M753.4,492.5c-75.9,0-137.6-61.7-137.6-137.6s61.7-137.6,137.6-137.6c75.9,0,137.6,61.7,137.6,137.6
	S829.3,492.5,753.4,492.5z M753.4,239.4c-63.7,0-115.5,51.8-115.5,115.5s51.8,115.5,115.5,115.5c63.7,0,115.5-51.8,115.5-115.5
	S817.1,239.4,753.4,239.4z"/>
<circle class="st0" cx="745.6" cy="368.8" r="21.3"/>
<circle class="st0" cx="520.2" cy="390" r="21.3"/>
<path class="st0" d="M891.9,234c-3.3,0-6.6-1.5-8.8-4.3c-28.8-37.5-65.7-57.6-109.7-60c-33.4-1.8-58.7,7.9-59,8
	c-5.7,2.2-12.1-0.6-14.3-6.3c-2.2-5.7,0.6-12.1,6.2-14.3c1.2-0.5,29.3-11.3,67.2-9.5c35.2,1.7,85.8,14.9,127.1,68.6
	c3.7,4.8,2.8,11.8-2,15.5C896.7,233.2,894.3,234,891.9,234z"/>
</svg>
