<?xml version="1.0" encoding="utf-8"?>
<!-- Generator: Adobe Illustrator 22.0.1, SVG Export Plug-In . SVG Version: 6.00 Build 0)  -->
<svg version="1.1" id="Laag_1" xmlns="http://www.w3.org/2000/svg" xmlns:xlink="http://www.w3.org/1999/xlink" x="0px" y="0px"
	 viewBox="0 0 1024 768" style="enable-background:new 0 0 1024 768;" xml:space="preserve">
<style type="text/css">
	.st0{fill:#E51A2F;}
	.st1{fill:#E4222F;}
	.st2{fill:#FF982F;}
	.st3{fill:none;stroke:#E51A2F;stroke-width:0.5;stroke-miterlimit:10;}
	.st4{opacity:0.8;fill:#E4222F;}
	.st5{fill:none;stroke:#CECECE;stroke-width:3;stroke-miterlimit:10;}
	.st6{fill:#E51A2F;stroke:#000000;stroke-width:0.5;stroke-miterlimit:10;}
	.st7{opacity:0.8;fill:none;stroke:#000000;stroke-width:3;stroke-miterlimit:10;}
	.st8{font-family:'Raleway-Light';}
	.st9{font-size:30px;}
</style>
<path class="st0" d="M691.1,199.3h-4.2c-0.1,0-0.2,0.1-0.3,0.2c-0.1,0.1-0.1,0.3-0.1,0.5v11.3c0,0.2,0,0.3,0.1,0.5
	c0.1,0.1,0.2,0.2,0.3,0.2c0.1,0,0.2-0.1,0.3-0.2c0.1-0.1,0.1-0.3,0.1-0.5V206h3.2c0.1,0,0.2-0.1,0.3-0.2c0.1-0.1,0.1-0.3,0.1-0.5
	s0-0.3-0.1-0.5c-0.1-0.1-0.2-0.2-0.3-0.2h-3.2v-4.2h3.7c0.1,0,0.2-0.1,0.3-0.2c0.1-0.1,0.1-0.3,0.1-0.4c0-0.2,0-0.3-0.1-0.5
	C691.3,199.4,691.2,199.3,691.1,199.3z"/>
<path class="st0" d="M693.4,199.3c-0.1,0-0.2,0.1-0.3,0.2c-0.1,0.1-0.1,0.3-0.1,0.5v11.2c0,0.2,0,0.4,0.1,0.5
	c0.1,0.1,0.2,0.2,0.3,0.2c0.1,0,0.2-0.1,0.3-0.2c0.1-0.1,0.1-0.3,0.1-0.5V200c0-0.2,0-0.3-0.1-0.5
	C693.6,199.4,693.5,199.3,693.4,199.3z"/>
<path class="st0" d="M700.3,210.6h-3.6v-10.6c0-0.2,0-0.3-0.1-0.5c-0.1-0.1-0.2-0.2-0.3-0.2c-0.1,0-0.2,0.1-0.3,0.2
	c-0.1,0.1-0.1,0.3-0.1,0.5v11.3c0,0.2,0,0.3,0.1,0.5c0.1,0.1,0.2,0.2,0.3,0.2h4.1c0.1,0,0.2-0.1,0.3-0.2c0.1-0.1,0.1-0.3,0.1-0.5
	c0-0.2,0-0.3-0.1-0.5C700.5,210.6,700.4,210.6,700.3,210.6z"/>
<path class="st0" d="M709,199.3C709,199.3,709,199.3,709,199.3c-0.2,0-0.3,0.1-0.4,0.3l-3,6.8l-2.9-6.8c0-0.1-0.1-0.2-0.2-0.2
	c-0.2-0.1-0.4-0.1-0.5,0.1c-0.1,0.1-0.1,0.3-0.1,0.5v11.3c0,0.2,0,0.3,0.1,0.5c0.1,0.1,0.2,0.2,0.3,0.2c0.1,0,0.2-0.1,0.3-0.2
	c0.1-0.1,0.1-0.3,0.1-0.5v-9.3l2.6,6c0.1,0.2,0.2,0.3,0.3,0.3l0,0c0.1,0,0.2-0.1,0.3-0.3l2.6-6v9.3c0,0.2,0,0.3,0.1,0.5
	c0.1,0.1,0.2,0.2,0.3,0.2c0.1,0,0.2-0.1,0.3-0.2c0.1-0.1,0.1-0.3,0.1-0.5v-11.3c0-0.2,0-0.3-0.1-0.5
	C709.2,199.4,709.1,199.3,709,199.3z"/>
<path class="st0" d="M717.2,209.8l-2.5-5.1l2.4-3.6c0.2-0.2,0.2-0.5,0.2-0.8c0-0.3-0.1-0.5-0.2-0.8c-0.1-0.2-0.3-0.4-0.5-0.4
	c-0.2,0-0.4,0.1-0.6,0.4l-3.5,5.4v-4.5c0-0.3-0.1-0.6-0.2-0.9c-0.1-0.2-0.3-0.3-0.6-0.3c-0.2,0-0.4,0.1-0.6,0.3
	c-0.2,0.2-0.2,0.5-0.2,0.8v10.2c0,0.3,0.1,0.6,0.2,0.8c0.1,0.2,0.3,0.3,0.6,0.3c0.2,0,0.4-0.1,0.6-0.3c0.1-0.2,0.2-0.5,0.2-0.9v-2.7
	l1-1.5l2.4,4.9c0.1,0.1,0.2,0.3,0.3,0.3c0.1,0.1,0.2,0.1,0.3,0.1c0.2,0,0.4-0.1,0.6-0.3c0.2-0.2,0.3-0.5,0.3-0.9c0-0.1,0-0.3,0-0.4
	C717.3,210.1,717.3,209.9,717.2,209.8z"/>
<path class="st0" d="M722.2,200c-0.1-0.2-0.2-0.4-0.3-0.6c-0.1-0.1-0.3-0.2-0.4-0.2c0,0,0,0,0,0c-0.2,0-0.3,0-0.5,0.2
	c-0.1,0.1-0.2,0.3-0.3,0.6l-2.8,10.5c0,0.1,0,0.3,0,0.4c0,0.3,0.1,0.6,0.2,0.8c0.1,0.2,0.3,0.3,0.5,0.3c0.1,0,0.3-0.1,0.4-0.2
	c0.1-0.1,0.2-0.3,0.3-0.6l0.6-2.1h3.3l0.6,2.1c0.1,0.2,0.2,0.4,0.3,0.6c0.1,0.1,0.3,0.2,0.4,0.2c0.2,0,0.4-0.1,0.5-0.3
	c0.1-0.2,0.2-0.5,0.2-0.8c0-0.1,0-0.3-0.1-0.5L722.2,200z M722.5,206.8h-2.1l1-3.7L722.5,206.8z"/>
<path class="st0" d="M733.5,199.6c-0.2-0.2-0.3-0.3-0.5-0.3c-0.1,0-0.2,0-0.3,0.1c-0.1,0.1-0.2,0.2-0.3,0.4l-2.5,5.8l-2.4-5.8
	c-0.1-0.2-0.2-0.3-0.3-0.4c-0.1-0.1-0.2-0.1-0.4-0.1c-0.2,0-0.4,0.1-0.6,0.3c-0.2,0.2-0.2,0.5-0.2,0.8v10.2c0,0.3,0.1,0.6,0.2,0.8
	c0.1,0.2,0.3,0.3,0.5,0.3c0.2,0,0.4-0.1,0.5-0.3c0.1-0.2,0.2-0.5,0.2-0.9v-6.9l1.8,4.3c0.1,0.2,0.2,0.3,0.3,0.4
	c0.1,0.1,0.2,0.1,0.3,0.1c0.1,0,0.2,0,0.3-0.1c0.1-0.1,0.2-0.2,0.3-0.4l1.8-4.1v6.7c0,0.3,0.1,0.6,0.2,0.9c0.1,0.2,0.3,0.3,0.6,0.3
	c0.2,0,0.4-0.1,0.6-0.3c0.1-0.2,0.2-0.5,0.2-0.8v-10.2C733.7,200.1,733.6,199.8,733.5,199.6L733.5,199.6z"/>
<path class="st0" d="M739.9,201.6c0.2,0,0.4-0.1,0.6-0.3c0.1-0.2,0.2-0.5,0.2-0.8c0-0.3-0.1-0.6-0.2-0.8c-0.1-0.2-0.3-0.3-0.5-0.3
	H736c-0.2,0-0.4,0.1-0.5,0.3c-0.1,0.2-0.2,0.5-0.2,0.8v10.2c0,0.3,0.1,0.6,0.2,0.8c0.1,0.2,0.3,0.3,0.5,0.3h3.8
	c0.2,0,0.4-0.1,0.5-0.3c0.1-0.2,0.2-0.5,0.2-0.8c0-0.3-0.1-0.6-0.2-0.8l0,0c-0.1-0.2-0.3-0.3-0.5-0.3h-3v-3h2.5
	c0.2,0,0.4-0.1,0.5-0.3c0.1-0.2,0.2-0.5,0.2-0.8c0-0.3-0.1-0.6-0.2-0.8c-0.1-0.2-0.3-0.3-0.5-0.3h-2.5v-2.8H739.9z"/>
<path class="st0" d="M748.4,210.3c-0.1-0.2-0.2-0.3-0.3-0.4c-0.1-0.1-0.1-0.2-0.2-0.3c0-0.2-0.1-0.4-0.1-0.7c0-0.2,0-0.4,0-0.6
	c0-0.8-0.3-1.5-0.7-2.1c0.3-0.3,0.5-0.8,0.7-1.3c0.2-0.6,0.3-1.2,0.3-1.8c0-0.7-0.1-1.4-0.3-2c-0.2-0.6-0.5-1.1-0.9-1.4
	c-0.4-0.3-0.7-0.5-1.2-0.5h-3.3c-0.2,0-0.4,0.1-0.5,0.3c-0.1,0.2-0.2,0.5-0.2,0.8v10.2c0,0.3,0.1,0.6,0.3,0.9
	c0.2,0.2,0.4,0.3,0.6,0.3c0.2,0,0.4-0.1,0.5-0.3c0.1-0.2,0.2-0.5,0.2-0.9v-3.3h2.1c0.3,0,0.6,0.1,0.7,0.3c0.2,0.2,0.2,0.5,0.2,0.9
	c0,1.5,0.3,2.5,0.9,3c0.2,0.1,0.3,0.2,0.5,0.2c0.3,0,0.5-0.1,0.6-0.4c0.1-0.2,0.2-0.4,0.2-0.7C748.5,210.7,748.5,210.5,748.4,210.3
	L748.4,210.3z M746.5,203.3c0,0.4,0,0.7-0.1,1c-0.1,0.3-0.2,0.6-0.3,0.8c-0.1,0.2-0.2,0.3-0.3,0.3h-2.4v-3.8h2.4
	c0.1,0,0.2,0.1,0.4,0.2c0.1,0.2,0.2,0.4,0.3,0.6C746.5,202.7,746.5,202.9,746.5,203.3z"/>
<path class="st0" d="M753.3,200c-0.1-0.2-0.2-0.4-0.3-0.6c-0.1-0.1-0.3-0.2-0.4-0.2c0,0,0,0,0,0c-0.2,0-0.3,0-0.5,0.2
	c-0.1,0.1-0.2,0.3-0.3,0.6l-2.8,10.5c0,0.1,0,0.3,0,0.4c0,0.3,0.1,0.6,0.2,0.8c0.1,0.2,0.3,0.3,0.5,0.3c0.1,0,0.3-0.1,0.4-0.2
	c0.1-0.1,0.2-0.3,0.3-0.6l0.6-2.1h3.3l0.6,2.1c0.1,0.2,0.2,0.4,0.3,0.6c0.1,0.1,0.3,0.2,0.4,0.2c0.2,0,0.4-0.1,0.5-0.3
	c0.1-0.2,0.2-0.5,0.2-0.8c0-0.1,0-0.3-0.1-0.5L753.3,200z M753.5,206.8h-2.1l1-3.7L753.5,206.8z"/>
<path class="st0" d="M760.6,200c-0.1-0.2-0.2-0.4-0.3-0.6c-0.1-0.1-0.3-0.2-0.4-0.2c0,0,0,0,0,0c-0.2,0-0.3,0-0.5,0.2
	c-0.1,0.1-0.2,0.3-0.3,0.6l-2.8,10.5c0,0.1,0,0.3,0,0.4c0,0.3,0.1,0.6,0.2,0.8c0.1,0.2,0.3,0.3,0.5,0.3c0.1,0,0.3-0.1,0.4-0.2
	c0.1-0.1,0.2-0.3,0.3-0.6l0.6-2.1h3.3l0.6,2.1c0.1,0.2,0.2,0.4,0.3,0.6c0.1,0.1,0.3,0.2,0.4,0.2c0.2,0,0.4-0.1,0.5-0.3
	c0.1-0.2,0.2-0.5,0.2-0.8c0-0.1,0-0.3-0.1-0.5L760.6,200z M760.8,206.8h-2.1l1-3.7L760.8,206.8z"/>
<path class="st0" d="M770.6,202.4c-0.3-0.9-0.7-1.7-1.2-2.3c-0.5-0.6-1.2-0.8-1.9-0.8h-2.7c-0.2,0-0.4,0.1-0.5,0.3
	c-0.1,0.2-0.2,0.5-0.2,0.8v10.2c0,0.3,0.1,0.6,0.2,0.8c0.1,0.2,0.3,0.3,0.5,0.3h2.7c0.7,0,1.4-0.3,1.9-0.8c0.5-0.6,0.9-1.3,1.2-2.3
	c0.3-0.9,0.4-2,0.4-3.2C771.1,204.4,770.9,203.3,770.6,202.4z M769.4,205.6c0,1.2-0.2,2.1-0.5,2.9c-0.3,0.7-0.8,1.1-1.5,1.1h-1.8v-8
	h1.8c0.6,0,1.1,0.4,1.5,1.1C769.3,203.4,769.4,204.4,769.4,205.6z"/>
<path class="st0" d="M753.1,183.6l-6.8-3c-1.2-0.5-2.1-2.3-2.1-4.3v-3.5c0-2,0.8-3.8,2.1-4.3l6.8-3c1.8-0.8,3.5,1.4,3.5,4.3v9.5
	C756.6,182.2,754.8,184.3,753.1,183.6z"/>
<path class="st0" d="M714.5,156.1c-5.7,0-10.4-7.5-10.4-16.7c0-9.2,4.7-16.7,10.4-16.7c5.7,0,10.4,7.5,10.4,16.7
	C724.9,148.6,720.2,156.1,714.5,156.1z M714.5,126c-4.6,0-8.3,6-8.3,13.3s3.7,13.3,8.3,13.3c4.6,0,8.3-6,8.3-13.3S719,126,714.5,126
	z"/>
<path class="st0" d="M736.7,156.1c-7.2,0-13.1-9.4-13.1-21c0-11.6,5.9-21,13.1-21c7.2,0,13.1,9.4,13.1,21
	C749.8,146.6,743.9,156.1,736.7,156.1z M736.7,117.4c-6.1,0-11,7.9-11,17.6s4.9,17.6,11,17.6c6.1,0,11-7.9,11-17.6
	S742.7,117.4,736.7,117.4z"/>
<ellipse class="st0" cx="735.9" cy="137.2" rx="2" ry="3.2"/>
<ellipse class="st0" cx="714.5" cy="140.4" rx="2" ry="3.2"/>
<path class="st0" d="M749.8,116.6c-0.3,0-0.6-0.2-0.8-0.7c-2.7-5.7-6.3-8.8-10.4-9.2c-3.2-0.3-5.6,1.2-5.6,1.2
	c-0.5,0.3-1.2-0.1-1.4-1s0.1-1.8,0.6-2.2c0.1-0.1,2.8-1.7,6.4-1.5c3.3,0.3,8.2,2.3,12.1,10.5c0.4,0.7,0.3,1.8-0.2,2.4
	C750.3,116.5,750.1,116.6,749.8,116.6z"/>
<path class="st1" d="M733.8,189.3h-14.9c-4.4,0-7.9-3.5-7.9-7.9v-13.7c0-4.4,3.5-7.9,7.9-7.9h14.9c4.4,0,7.9,3.5,7.9,7.9v13.7
	C741.7,185.7,738.1,189.3,733.8,189.3z"/>
<path class="st0" d="M802.2,203.6H797c-0.1,0-0.3,0-0.4,0.1c-0.1,0.1-0.2,0.1-0.2,0.2v5.4c0,0.1,0.1,0.2,0.2,0.2
	c0.1,0.1,0.2,0.1,0.4,0.1c0.1,0,0.3,0,0.4-0.1c0.1-0.1,0.2-0.1,0.2-0.2v-2.5h4.1c0.1,0,0.3,0,0.4-0.1c0.1-0.1,0.2-0.1,0.2-0.2
	s-0.1-0.2-0.2-0.2c-0.1-0.1-0.2-0.1-0.4-0.1h-4.1v-2h4.7c0.1,0,0.3,0,0.4-0.1c0.1-0.1,0.2-0.1,0.2-0.2c0-0.1-0.1-0.2-0.2-0.2
	C802.5,203.6,802.4,203.6,802.2,203.6z"/>
<path class="st0" d="M805.2,203.6c-0.2,0-0.3,0-0.4,0.1c-0.1,0.1-0.2,0.1-0.2,0.2v5.4c0,0.1,0.1,0.2,0.2,0.2
	c0.1,0.1,0.2,0.1,0.4,0.1c0.1,0,0.3,0,0.4-0.1c0.1-0.1,0.2-0.1,0.2-0.2v-5.4c0-0.1-0.1-0.2-0.2-0.2
	C805.4,203.6,805.3,203.6,805.2,203.6z"/>
<path class="st0" d="M813.9,209h-4.6v-5.1c0-0.1-0.1-0.2-0.2-0.2c-0.1-0.1-0.2-0.1-0.4-0.1c-0.2,0-0.3,0-0.4,0.1
	c-0.1,0.1-0.2,0.1-0.2,0.2v5.4c0,0.1,0.1,0.2,0.1,0.2c0.1,0.1,0.2,0.1,0.4,0.1h5.1c0.1,0,0.3,0,0.4-0.1c0.1-0.1,0.2-0.1,0.2-0.2
	c0-0.1-0.1-0.2-0.2-0.2C814.2,209,814,209,813.9,209z"/>
<path class="st0" d="M824.8,203.6C824.8,203.6,824.8,203.6,824.8,203.6c-0.2,0-0.3,0-0.5,0.1l-3.7,3.2l-3.7-3.2c0,0-0.1-0.1-0.2-0.1
	c-0.3-0.1-0.5,0-0.6,0.1c-0.1,0.1-0.1,0.1-0.1,0.2v5.4c0,0.1,0,0.2,0.1,0.2c0.1,0.1,0.2,0.1,0.4,0.1c0.1,0,0.3,0,0.4-0.1
	c0.1-0.1,0.2-0.1,0.2-0.2v-4.5l3.2,2.9c0.1,0.1,0.2,0.1,0.4,0.1l0,0c0.2,0,0.3,0,0.4-0.1l3.2-2.9v4.5c0,0.1,0.1,0.2,0.2,0.2
	c0.1,0.1,0.2,0.1,0.4,0.1c0.1,0,0.3,0,0.4-0.1c0.1-0.1,0.2-0.1,0.2-0.2v-5.4c0-0.1-0.1-0.2-0.2-0.2
	C825,203.6,824.9,203.6,824.8,203.6z"/>
<path class="st0" d="M835.1,208.7l-3.2-2.4l3.1-1.7c0.2-0.1,0.3-0.2,0.3-0.4c0-0.1-0.1-0.3-0.3-0.4c-0.2-0.1-0.4-0.2-0.6-0.2
	c-0.3,0-0.5,0.1-0.8,0.2l-4.5,2.6v-2.2c0-0.2-0.1-0.3-0.3-0.4c-0.2-0.1-0.4-0.2-0.7-0.2c-0.3,0-0.5,0.1-0.7,0.2
	c-0.2,0.1-0.3,0.2-0.3,0.4v4.9c0,0.2,0.1,0.3,0.3,0.4c0.2,0.1,0.4,0.2,0.7,0.2c0.3,0,0.5-0.1,0.7-0.2c0.2-0.1,0.3-0.2,0.3-0.4v-1.3
	l1.3-0.7l3.1,2.4c0.1,0.1,0.2,0.1,0.3,0.2c0.1,0,0.3,0.1,0.4,0.1c0.3,0,0.5-0.1,0.7-0.2c0.2-0.1,0.3-0.3,0.3-0.4
	c0-0.1,0-0.1-0.1-0.2C835.3,208.8,835.2,208.7,835.1,208.7z"/>
<path class="st0" d="M841.5,204c-0.1-0.1-0.2-0.2-0.4-0.3c-0.2-0.1-0.3-0.1-0.5-0.1c0,0,0,0,0,0c-0.2,0-0.4,0-0.6,0.1
	c-0.2,0.1-0.3,0.2-0.4,0.3l-3.6,5c0,0.1,0,0.1,0,0.2c0,0.1,0.1,0.3,0.2,0.4c0.1,0.1,0.4,0.1,0.6,0.1c0.2,0,0.4,0,0.5-0.1
	c0.2-0.1,0.3-0.2,0.3-0.3l0.7-1h4.2l0.7,1c0.1,0.1,0.2,0.2,0.4,0.3c0.2,0.1,0.3,0.1,0.5,0.1c0.2,0,0.4-0.1,0.6-0.2
	c0.2-0.1,0.3-0.2,0.3-0.4c0-0.1,0-0.1-0.1-0.2L841.5,204z M841.8,207.2h-2.6l1.3-1.8L841.8,207.2z"/>
<path class="st0" d="M855.6,203.8c-0.2-0.1-0.4-0.2-0.7-0.2c-0.1,0-0.3,0-0.4,0.1c-0.1,0-0.3,0.1-0.3,0.2l-3.1,2.8l-3.1-2.8
	c-0.1-0.1-0.2-0.1-0.4-0.2c-0.2,0-0.3-0.1-0.5-0.1c-0.3,0-0.5,0.1-0.7,0.2c-0.2,0.1-0.3,0.2-0.3,0.4v4.9c0,0.2,0.1,0.3,0.3,0.4
	c0.2,0.1,0.4,0.2,0.7,0.2c0.3,0,0.5-0.1,0.7-0.2c0.2-0.1,0.3-0.2,0.3-0.4v-3.3l2.2,2.1c0.1,0.1,0.2,0.1,0.4,0.2
	c0.1,0,0.3,0.1,0.4,0.1c0.2,0,0.3,0,0.4-0.1c0.1,0,0.3-0.1,0.4-0.2l2.2-2v3.2c0,0.2,0.1,0.3,0.3,0.4c0.2,0.1,0.4,0.2,0.7,0.2
	c0.3,0,0.5-0.1,0.7-0.2c0.2-0.1,0.3-0.2,0.3-0.4v-4.9C855.9,204,855.8,203.9,855.6,203.8L855.6,203.8z"/>
<path class="st0" d="M863.7,204.7c0.3,0,0.5,0,0.7-0.1c0.2-0.1,0.3-0.2,0.3-0.4c0-0.2-0.1-0.3-0.3-0.4c-0.2-0.1-0.4-0.2-0.7-0.2
	h-4.8c-0.3,0-0.5,0.1-0.7,0.2c-0.2,0.1-0.3,0.2-0.3,0.4v4.9c0,0.2,0.1,0.3,0.3,0.4c0.2,0.1,0.4,0.2,0.7,0.2h4.8
	c0.3,0,0.5-0.1,0.7-0.1c0.2-0.1,0.3-0.2,0.3-0.4c0-0.1-0.1-0.3-0.3-0.4l0,0c-0.2-0.1-0.4-0.2-0.7-0.2h-3.8v-1.4h3.2
	c0.3,0,0.5,0,0.7-0.1c0.2-0.1,0.3-0.2,0.3-0.4c0-0.2-0.1-0.3-0.3-0.4c-0.2-0.1-0.4-0.2-0.7-0.2h-3.2v-1.3H863.7z"/>
<path class="st0" d="M874.5,208.9c-0.1-0.1-0.2-0.1-0.3-0.2c-0.1,0-0.2-0.1-0.2-0.1c0-0.1-0.1-0.2-0.1-0.4c0-0.1,0-0.2,0-0.3
	c-0.1-0.4-0.4-0.7-0.9-1c0.4-0.2,0.7-0.4,0.9-0.6c0.3-0.3,0.4-0.6,0.4-0.8c0-0.4-0.1-0.7-0.4-1c-0.3-0.3-0.6-0.5-1.1-0.7
	c-0.5-0.2-0.9-0.2-1.5-0.2h-4.1c-0.3,0-0.5,0.1-0.7,0.2c-0.2,0.1-0.3,0.2-0.3,0.4v4.9c0,0.2,0.1,0.3,0.3,0.4
	c0.2,0.1,0.5,0.2,0.8,0.2c0.3,0,0.5-0.1,0.6-0.2c0.2-0.1,0.2-0.2,0.2-0.4v-1.6h2.6c0.4,0,0.7,0.1,0.9,0.2c0.2,0.1,0.3,0.3,0.3,0.4
	c0,0.7,0.4,1.2,1.1,1.5c0.2,0.1,0.4,0.1,0.7,0.1c0.3,0,0.6-0.1,0.7-0.2c0.1-0.1,0.2-0.2,0.2-0.3C874.6,209.1,874.5,209,874.5,208.9
	L874.5,208.9z M872.1,205.5c0,0.2-0.1,0.3-0.2,0.5c-0.1,0.2-0.2,0.3-0.4,0.4c-0.1,0.1-0.3,0.1-0.4,0.1h-3.1v-1.8h3.1
	c0.2,0,0.3,0,0.4,0.1c0.2,0.1,0.3,0.2,0.4,0.3C872.1,205.2,872.1,205.4,872.1,205.5z"/>
<path class="st0" d="M880.6,204c-0.1-0.1-0.2-0.2-0.4-0.3c-0.2-0.1-0.3-0.1-0.5-0.1c0,0,0,0,0,0c-0.2,0-0.4,0-0.6,0.1
	c-0.2,0.1-0.3,0.2-0.4,0.3l-3.6,5c0,0.1,0,0.1,0,0.2c0,0.1,0.1,0.3,0.2,0.4c0.1,0.1,0.4,0.1,0.6,0.1c0.2,0,0.4,0,0.5-0.1
	c0.2-0.1,0.3-0.2,0.3-0.3l0.7-1h4.2l0.7,1c0.1,0.1,0.2,0.2,0.4,0.3c0.2,0.1,0.3,0.1,0.5,0.1c0.2,0,0.4-0.1,0.6-0.2
	c0.2-0.1,0.3-0.2,0.3-0.4c0-0.1,0-0.1-0.1-0.2L880.6,204z M880.9,207.2h-2.6l1.3-1.8L880.9,207.2z"/>
<path class="st0" d="M889.8,204c-0.1-0.1-0.2-0.2-0.4-0.3c-0.2-0.1-0.3-0.1-0.5-0.1c0,0,0,0,0,0c-0.2,0-0.4,0-0.6,0.1
	c-0.2,0.1-0.3,0.2-0.4,0.3l-3.6,5c0,0.1,0,0.1,0,0.2c0,0.1,0.1,0.3,0.2,0.4c0.1,0.1,0.4,0.1,0.6,0.1c0.2,0,0.4,0,0.5-0.1
	c0.2-0.1,0.3-0.2,0.3-0.3l0.7-1h4.2l0.7,1c0.1,0.1,0.2,0.2,0.4,0.3c0.2,0.1,0.3,0.1,0.5,0.1c0.2,0,0.4-0.1,0.6-0.2
	c0.2-0.1,0.3-0.2,0.3-0.4c0-0.1,0-0.1-0.1-0.2L889.8,204z M890.1,207.2h-2.6l1.3-1.8L890.1,207.2z"/>
<path class="st0" d="M902.5,205.1c-0.3-0.5-0.9-0.8-1.5-1.1c-0.7-0.3-1.5-0.4-2.4-0.4h-3.4c-0.3,0-0.5,0.1-0.7,0.2
	c-0.2,0.1-0.3,0.2-0.3,0.4v4.9c0,0.2,0.1,0.3,0.3,0.4c0.2,0.1,0.4,0.2,0.7,0.2h3.4c0.9,0,1.7-0.1,2.4-0.4c0.7-0.3,1.2-0.6,1.5-1.1
	c0.3-0.5,0.5-1,0.5-1.5S902.8,205.5,902.5,205.1z M900.9,206.6c0,0.6-0.2,1-0.6,1.4c-0.4,0.4-1,0.5-1.9,0.5h-2.3v-3.8h2.3
	c0.8,0,1.4,0.2,1.9,0.5C900.7,205.6,900.9,206.1,900.9,206.6z"/>
<path class="st0" d="M880.3,196.1l-8.6-1.4c-1.5-0.3-2.6-1.1-2.6-2.1v-1.7c0-1,1.1-1.8,2.6-2.1l8.6-1.4c2.2-0.4,4.4,0.7,4.4,2.1v4.5
	C884.8,195.4,882.6,196.4,880.3,196.1z"/>
<path class="st0" d="M831.7,182.9c-7.2,0-13.1-3.6-13.1-8c0-4.4,5.9-8,13.1-8c7.2,0,13.1,3.6,13.1,8
	C844.8,179.3,838.9,182.9,831.7,182.9z M831.7,168.5c-5.8,0-10.5,2.9-10.5,6.4c0,3.5,4.7,6.4,10.5,6.4s10.5-2.9,10.5-6.4
	C842.2,171.4,837.5,168.5,831.7,168.5z"/>
<path class="st0" d="M859.7,182.9c-9.1,0-16.5-4.5-16.5-10.1c0-5.5,7.4-10.1,16.5-10.1c9.1,0,16.5,4.5,16.5,10.1
	C876.2,178.4,868.8,182.9,859.7,182.9z M859.7,164.4c-7.6,0-13.8,3.8-13.8,8.4c0,4.7,6.2,8.4,13.8,8.4c7.6,0,13.8-3.8,13.8-8.4
	C873.5,168.2,867.3,164.4,859.7,164.4z"/>
<ellipse class="st0" cx="858.7" cy="173.9" rx="2.5" ry="1.6"/>
<ellipse class="st0" cx="831.7" cy="175.4" rx="2.5" ry="1.6"/>
<path class="st0" d="M876.3,164c-0.4,0-0.8-0.1-1.1-0.3c-3.5-2.7-7.9-4.2-13.2-4.4c-4-0.1-7,0.6-7.1,0.6c-0.7,0.2-1.4,0-1.7-0.5
	c-0.3-0.4,0.1-0.9,0.7-1c0.1,0,3.5-0.8,8.1-0.7c4.2,0.1,10.3,1.1,15.2,5c0.4,0.4,0.3,0.9-0.2,1.1C876.8,164,876.6,164,876.3,164z"/>
<path class="st1" d="M859.9,198.8h-26.4c-3.4,0-6.1-2.8-6.1-6.1v-1.8c0-3.4,2.8-6.1,6.1-6.1h26.4c3.4,0,6.1,2.8,6.1,6.1v1.8
	C866,196.1,863.2,198.8,859.9,198.8z"/>
<path class="st0" d="M152.7,217.2l-6.1,3.5c-0.2,0.1-0.3,0.2-0.3,0.4c-0.1,0.2,0,0.4,0.1,0.5l6,10.3c0.1,0.2,0.2,0.3,0.4,0.3
	c0.2,0,0.4,0,0.5-0.1c0.2-0.1,0.3-0.2,0.3-0.4c0.1-0.2,0-0.4-0.1-0.5l-2.8-4.8l4.7-2.7c0.2-0.1,0.3-0.2,0.3-0.4
	c0.1-0.2,0-0.3-0.1-0.5c-0.1-0.2-0.2-0.3-0.4-0.3c-0.2,0-0.4,0-0.5,0.1l-4.7,2.7l-2.2-3.8l5.5-3.2c0.2-0.1,0.3-0.2,0.3-0.4
	c0.1-0.2,0-0.3-0.1-0.5c-0.1-0.2-0.2-0.3-0.4-0.3C153,217.1,152.8,217.1,152.7,217.2z"/>
<path class="st0" d="M156.1,215.2c-0.2,0.1-0.3,0.3-0.4,0.4c-0.1,0.2,0,0.4,0.1,0.5l5.9,10.3c0.1,0.2,0.2,0.3,0.4,0.3
	c0.2,0,0.4,0,0.5-0.1c0.2-0.1,0.3-0.2,0.3-0.4c0.1-0.2,0-0.4,0-0.5l-5.9-10.3c-0.1-0.2-0.2-0.3-0.4-0.3
	C156.4,215.1,156.3,215.1,156.1,215.2z"/>
<path class="st0" d="M172.2,219.7l-5.3,3.1l-5.6-9.7c-0.1-0.2-0.2-0.3-0.4-0.3c-0.2,0-0.4,0-0.5,0.1c-0.2,0.1-0.3,0.3-0.4,0.4
	c-0.1,0.2,0,0.4,0.1,0.5l6,10.3c0.1,0.2,0.2,0.3,0.4,0.3c0.2,0,0.4,0,0.5-0.1l6-3.5c0.2-0.1,0.3-0.2,0.3-0.4c0.1-0.2,0-0.4-0.1-0.5
	c-0.1-0.2-0.2-0.3-0.4-0.3C172.6,219.5,172.4,219.6,172.2,219.7z"/>
<path class="st0" d="M178.9,202C178.9,202,178.9,202,178.9,202c-0.2,0.1-0.4,0.3-0.4,0.6l-0.8,8.7l-7.9-3.7c-0.1,0-0.2-0.1-0.4,0
	c-0.4,0-0.6,0.3-0.7,0.5c0,0.2,0,0.4,0.1,0.5l6,10.3c0.1,0.2,0.2,0.3,0.4,0.3c0.2,0,0.4,0,0.5-0.1c0.2-0.1,0.3-0.2,0.3-0.4
	c0.1-0.2,0-0.4-0.1-0.5l-4.9-8.5l6.9,3.3c0.2,0.1,0.4,0.1,0.6,0l0,0c0.2-0.1,0.3-0.3,0.3-0.5l0.6-7.6l4.9,8.5
	c0.1,0.2,0.2,0.3,0.4,0.3c0.2,0,0.4,0,0.6-0.1c0.2-0.1,0.3-0.2,0.3-0.4c0.1-0.2,0-0.4-0.1-0.5l-6-10.3c-0.1-0.2-0.2-0.3-0.4-0.3
	C179.2,201.9,179.1,201.9,178.9,202z"/>
<path class="st0" d="M196.6,204.7l-6.4-2.5l1.7-5.4c0.1-0.3,0.1-0.6-0.1-0.9c-0.1-0.3-0.4-0.4-0.7-0.5c-0.3-0.1-0.6-0.1-0.9,0.1
	c-0.3,0.2-0.5,0.5-0.7,0.9l-2.4,7.9l-2.4-4.1c-0.2-0.3-0.4-0.5-0.8-0.6c-0.3-0.1-0.7,0-1,0.2c-0.3,0.2-0.6,0.5-0.7,0.8
	c-0.1,0.3-0.1,0.7,0.1,1l5.4,9.3c0.2,0.3,0.4,0.5,0.8,0.6c0.3,0.1,0.7,0,1-0.2c0.3-0.2,0.6-0.5,0.7-0.8c0.1-0.3,0.1-0.7-0.1-1
	l-1.4-2.5l0.7-2.2l6.2,2.4c0.2,0.1,0.4,0.1,0.6,0.1c0.2,0,0.4-0.1,0.5-0.2c0.3-0.2,0.6-0.5,0.7-0.8c0.1-0.4,0.1-0.7-0.1-1
	c-0.1-0.1-0.2-0.2-0.3-0.3C196.9,204.8,196.7,204.7,196.6,204.7z"/>
<path class="st0" d="M198.8,191.4c-0.2-0.2-0.5-0.3-0.7-0.3c-0.3,0-0.5,0-0.7,0.2c0,0,0,0,0,0c-0.3,0.1-0.5,0.3-0.6,0.6
	c-0.1,0.2-0.2,0.5-0.1,0.8l1.4,12.1c0,0.1,0.1,0.3,0.1,0.4c0.2,0.3,0.4,0.5,0.7,0.5c0.3,0.1,0.6,0,0.9-0.2c0.2-0.1,0.4-0.3,0.5-0.5
	c0.1-0.2,0.1-0.5,0.1-0.7l-0.3-2.4l4.9-2.8l1.9,1.4c0.2,0.2,0.5,0.3,0.7,0.3c0.3,0,0.5,0,0.7-0.2c0.3-0.2,0.5-0.4,0.6-0.7
	c0.1-0.3,0.1-0.6-0.1-0.9c-0.1-0.1-0.2-0.3-0.3-0.4L198.8,191.4z M202.8,197.4l-3,1.8l-0.5-4.3L202.8,197.4z"/>
<path class="st0" d="M215.1,181.5c-0.3-0.1-0.7,0-1,0.2c-0.2,0.1-0.3,0.2-0.4,0.4c-0.1,0.2-0.2,0.4-0.2,0.6l-0.6,7.4l-6.6-3.2
	c-0.2-0.1-0.4-0.1-0.6-0.1c-0.2,0-0.4,0.1-0.6,0.2c-0.3,0.2-0.5,0.5-0.6,0.8c-0.1,0.3-0.1,0.7,0.1,1l5.4,9.3
	c0.2,0.3,0.4,0.5,0.7,0.6c0.3,0.1,0.6,0.1,0.9-0.1c0.3-0.2,0.5-0.4,0.6-0.8c0.1-0.3,0-0.6-0.2-1l-3.6-6.3l4.8,2.4
	c0.2,0.1,0.4,0.1,0.6,0.1c0.2,0,0.4-0.1,0.5-0.2c0.2-0.1,0.3-0.2,0.4-0.4c0.1-0.2,0.2-0.4,0.2-0.6l0.4-5.3l3.6,6.1
	c0.2,0.3,0.4,0.5,0.8,0.6c0.3,0.1,0.7,0,1-0.2s0.6-0.5,0.6-0.8c0.1-0.3,0-0.7-0.1-1l-5.4-9.3C215.7,181.8,215.4,181.6,215.1,181.5
	L215.1,181.5z"/>
<path class="st0" d="M225.5,177.8c0.3-0.2,0.5-0.4,0.6-0.7c0.1-0.3,0.1-0.6-0.1-0.9c-0.2-0.3-0.4-0.5-0.8-0.6c-0.3-0.1-0.7,0-1,0.2
	l-5.6,3.3c-0.3,0.2-0.5,0.4-0.6,0.8c-0.1,0.3-0.1,0.7,0.1,1l5.4,9.3c0.2,0.3,0.4,0.5,0.8,0.6c0.3,0.1,0.7,0,1-0.2l5.6-3.3
	c0.3-0.2,0.5-0.4,0.6-0.7c0.1-0.3,0.1-0.6-0.1-0.9c-0.2-0.3-0.4-0.5-0.7-0.5l0,0c-0.3-0.1-0.7,0-1,0.2l-4.4,2.6l-1.6-2.8l3.7-2.1
	c0.3-0.2,0.5-0.4,0.6-0.7c0.1-0.3,0.1-0.6-0.1-0.9c-0.2-0.3-0.4-0.5-0.8-0.6c-0.3-0.1-0.7,0-1,0.2l-3.7,2.1l-1.5-2.5L225.5,177.8z"
	/>
<path class="st0" d="M242.7,178.6c-0.2-0.1-0.4-0.2-0.6-0.2c-0.2,0-0.3,0-0.4-0.1c-0.1-0.1-0.3-0.3-0.5-0.6
	c-0.1-0.2-0.2-0.3-0.3-0.5c-0.5-0.7-1.2-1.2-2.2-1.3c0.3-0.5,0.4-1.1,0.4-1.8c0-0.7-0.2-1.3-0.5-1.9c-0.4-0.7-0.9-1.2-1.5-1.5
	c-0.6-0.4-1.3-0.5-2-0.5c-0.7,0-1.4,0.2-2,0.5l-4.8,2.8c-0.3,0.2-0.5,0.4-0.6,0.8c-0.1,0.3-0.1,0.7,0.1,1l5.4,9.3
	c0.2,0.3,0.5,0.5,0.9,0.6c0.4,0.1,0.7,0,1.1-0.2c0.3-0.2,0.5-0.4,0.5-0.7c0.1-0.3,0-0.6-0.2-0.9l-1.7-3l3-1.8
	c0.5-0.3,0.9-0.4,1.2-0.3c0.4,0.1,0.6,0.3,0.8,0.6c0.8,1.4,1.8,2.1,2.9,2.1c0.3,0,0.6-0.1,0.9-0.3c0.4-0.2,0.6-0.5,0.7-0.8
	c0-0.3,0-0.5-0.1-0.7C243,178.8,242.9,178.7,242.7,178.6L242.7,178.6z M236.2,173.7c0.2,0.3,0.3,0.7,0.4,1.1c0.1,0.4,0,0.7,0,1
	c-0.1,0.3-0.2,0.4-0.4,0.5l-3.6,2.1l-2-3.4l3.6-2.1c0.2-0.1,0.4-0.1,0.6-0.1c0.3,0,0.5,0.1,0.8,0.3
	C235.8,173.2,236,173.4,236.2,173.7z"/>
<path class="st0" d="M244.4,165c-0.2-0.2-0.5-0.3-0.7-0.3c-0.3,0-0.5,0-0.7,0.2c0,0,0,0,0,0c-0.3,0.1-0.5,0.3-0.6,0.6
	c-0.1,0.2-0.2,0.5-0.1,0.8l1.4,12.1c0,0.1,0.1,0.3,0.1,0.4c0.2,0.3,0.4,0.5,0.7,0.5c0.3,0.1,0.6,0,0.9-0.2c0.2-0.1,0.4-0.3,0.5-0.5
	c0.1-0.2,0.1-0.5,0.1-0.7l-0.3-2.4l4.9-2.8l1.9,1.4c0.2,0.2,0.5,0.3,0.7,0.3c0.3,0,0.5,0,0.7-0.2c0.3-0.2,0.5-0.4,0.6-0.7
	c0.1-0.3,0.1-0.6-0.1-0.9c-0.1-0.1-0.2-0.3-0.3-0.4L244.4,165z M248.4,171.1l-3,1.8l-0.5-4.3L248.4,171.1z"/>
<path class="st0" d="M255.1,158.8c-0.2-0.2-0.5-0.3-0.7-0.3c-0.3,0-0.5,0-0.7,0.2c0,0,0,0,0,0c-0.3,0.1-0.5,0.3-0.6,0.6
	c-0.1,0.2-0.2,0.5-0.1,0.8l1.4,12.1c0,0.1,0.1,0.3,0.1,0.4c0.2,0.3,0.4,0.5,0.7,0.5c0.3,0.1,0.6,0,0.9-0.2c0.2-0.1,0.4-0.3,0.5-0.5
	c0.1-0.2,0.1-0.5,0.1-0.7l-0.3-2.4l4.9-2.8l1.9,1.4c0.2,0.2,0.5,0.3,0.7,0.3c0.3,0,0.5,0,0.7-0.2c0.3-0.2,0.5-0.4,0.6-0.7
	c0.1-0.3,0.1-0.6-0.1-0.9c-0.1-0.1-0.2-0.3-0.3-0.4L255.1,158.8z M259.1,164.9l-3,1.8l-0.5-4.3L259.1,164.9z"/>
<path class="st0" d="M271.2,152.5c-0.9-0.6-1.9-1-3-1.1c-1.1-0.1-2.1,0.2-3.2,0.8l-4,2.3c-0.3,0.2-0.5,0.4-0.6,0.8
	c-0.1,0.3-0.1,0.7,0.1,1l5.4,9.3c0.2,0.3,0.4,0.5,0.8,0.6c0.3,0.1,0.7,0,1-0.2l4-2.3c1.1-0.6,1.8-1.4,2.3-2.4c0.5-1,0.7-2,0.6-3.1
	c-0.1-1.1-0.5-2.2-1.1-3.3C272.8,154,272.1,153.1,271.2,152.5z M271.1,156.4c0.6,1.1,0.9,2.1,0.8,3.1c-0.1,1-0.6,1.7-1.6,2.3
	l-2.7,1.5l-4.3-7.4l2.7-1.5c1-0.6,1.9-0.6,2.8-0.2C269.7,154.6,270.4,155.3,271.1,156.4z"/>
<path class="st0" d="M235.4,150.2l-11.6,3.1c-2.1,0.5-4.3-0.4-5.3-2.2l-1.9-3.2c-1.1-1.9-0.8-4.2,0.7-5.7l8.4-8.5
	c2.2-2.2,5.9-1.7,7.5,1l5,8.6C239.8,145.9,238.4,149.4,235.4,150.2z"/>
<path class="st0" d="M164.1,157.8c-8.4,4.9-19.3,2-24.1-6.4c-4.9-8.4-2-19.3,6.4-24.1c8.4-4.9,19.3-2,24.1,6.4
	S172.6,152.9,164.1,157.8z M148.2,130.3c-6.7,3.9-9,12.5-5.1,19.2s12.5,9,19.2,5.1s9-12.5,5.1-19.2S155,126.4,148.2,130.3z"/>
<path class="st0" d="M196.7,139c-10.6,6.1-24.2,2.5-30.4-8.1s-2.5-24.2,8.1-30.4c10.6-6.1,24.2-2.5,30.4,8.1S207.4,132.8,196.7,139z
	 M176.3,103.6c-8.9,5.1-12,16.6-6.8,25.5s16.6,12,25.5,6.8c8.9-5.1,12-16.6,6.8-25.5C196.6,101.5,185.2,98.4,176.3,103.6z"/>
<circle class="st0" cx="185.6" cy="122.3" r="3.4"/>
<circle class="st0" cx="155.9" cy="143.5" r="3.4"/>
<path class="st0" d="M195.2,91.6c-0.5,0.3-1,0.3-1.6,0.1c-7.1-2.9-13.8-2.7-20.2,0.5c-4.8,2.5-7.6,5.8-7.6,5.9
	c-0.6,0.8-1.7,0.9-2.5,0.3c-0.8-0.6-0.9-1.7-0.3-2.5c0.1-0.2,3.2-3.9,8.6-6.8c5.1-2.6,13.2-4.8,23.3-0.7c0.9,0.4,1.3,1.4,1,2.3
	C195.8,91.1,195.5,91.4,195.2,91.6z"/>
<path class="st1" d="M212.5,170.3l-26.8,15.5c-5.1,2.9-11.6,1.2-14.5-3.9l-5-8.7c-2.9-5.1-1.2-11.6,3.9-14.5l26.8-15.5
	c5.1-2.9,11.6-1.2,14.5,3.9l5,8.7C219.3,160.9,217.6,167.4,212.5,170.3z"/>
<path class="st0" d="M139.2,422h-7.1c-0.2,0-0.4,0.1-0.5,0.2c-0.1,0.1-0.2,0.3-0.2,0.5v11.9c0,0.2,0.1,0.4,0.2,0.5
	c0.1,0.1,0.3,0.2,0.5,0.2c0.2,0,0.4-0.1,0.5-0.2c0.1-0.1,0.2-0.3,0.2-0.5v-5.5h5.5c0.2,0,0.4-0.1,0.5-0.2c0.1-0.1,0.2-0.3,0.2-0.5
	s-0.1-0.4-0.2-0.5c-0.1-0.1-0.3-0.2-0.5-0.2h-5.5v-4.4h6.3c0.2,0,0.4-0.1,0.5-0.2c0.1-0.1,0.2-0.3,0.2-0.5c0-0.2-0.1-0.4-0.2-0.5
	C139.6,422.1,139.4,422,139.2,422z"/>
<path class="st0" d="M143.2,422c-0.2,0-0.4,0.1-0.5,0.2c-0.1,0.1-0.2,0.3-0.2,0.5v11.9c0,0.2,0.1,0.4,0.2,0.5
	c0.1,0.1,0.3,0.2,0.5,0.2c0.2,0,0.4-0.1,0.5-0.2c0.1-0.1,0.2-0.3,0.2-0.5v-11.9c0-0.2-0.1-0.4-0.2-0.5
	C143.5,422.1,143.4,422,143.2,422z"/>
<path class="st0" d="M154.9,433.9h-6.2v-11.2c0-0.2-0.1-0.4-0.2-0.5c-0.1-0.1-0.3-0.2-0.5-0.2c-0.2,0-0.4,0.1-0.5,0.2
	c-0.1,0.1-0.2,0.3-0.2,0.5v11.9c0,0.2,0.1,0.4,0.2,0.5c0.1,0.1,0.3,0.2,0.5,0.2h6.9c0.2,0,0.4-0.1,0.5-0.2c0.1-0.1,0.2-0.3,0.2-0.5
	c0-0.2-0.1-0.4-0.2-0.5C155.3,434,155.1,433.9,154.9,433.9z"/>
<path class="st0" d="M169.5,422C169.5,422,169.5,422,169.5,422c-0.3,0-0.5,0.1-0.6,0.3l-5,7.2l-5-7.2c-0.1-0.1-0.2-0.2-0.3-0.2
	c-0.3-0.1-0.6-0.1-0.8,0.1c-0.1,0.1-0.2,0.3-0.2,0.5v11.9c0,0.2,0.1,0.4,0.2,0.5c0.1,0.1,0.3,0.2,0.5,0.2c0.2,0,0.4-0.1,0.5-0.2
	c0.1-0.1,0.2-0.3,0.2-0.5v-9.9l4.3,6.3c0.2,0.2,0.3,0.3,0.5,0.3l0,0c0.2,0,0.4-0.1,0.6-0.3l4.3-6.3v9.8c0,0.2,0.1,0.4,0.2,0.5
	c0.1,0.1,0.3,0.2,0.5,0.2c0.2,0,0.4-0.1,0.5-0.2c0.1-0.1,0.2-0.3,0.2-0.5v-11.9c0-0.2-0.1-0.4-0.2-0.5
	C169.9,422.1,169.7,422,169.5,422z"/>
<path class="st0" d="M183.5,433.1l-4.3-5.4l4.1-3.8c0.3-0.2,0.4-0.5,0.4-0.8c0-0.3-0.1-0.6-0.3-0.8c-0.2-0.3-0.5-0.4-0.8-0.4
	c-0.4,0-0.7,0.2-1,0.5l-6,5.7v-4.8c0-0.4-0.1-0.7-0.4-0.9c-0.2-0.2-0.6-0.4-0.9-0.4c-0.4,0-0.7,0.1-1,0.4c-0.3,0.2-0.4,0.5-0.4,0.9
	V434c0,0.4,0.1,0.7,0.4,0.9c0.2,0.2,0.6,0.4,0.9,0.4c0.4,0,0.7-0.1,1-0.3c0.3-0.2,0.4-0.5,0.4-0.9v-2.9l1.7-1.6l4.1,5.2
	c0.1,0.2,0.3,0.3,0.4,0.4c0.2,0.1,0.4,0.1,0.5,0.1c0.4,0,0.7-0.1,1-0.4c0.3-0.2,0.4-0.6,0.4-0.9c0-0.1,0-0.3-0.1-0.4
	C183.7,433.4,183.6,433.2,183.5,433.1z"/>
<path class="st0" d="M192,422.7c-0.1-0.3-0.3-0.5-0.5-0.6c-0.2-0.1-0.5-0.2-0.7-0.2c0,0,0,0,0,0c-0.3,0-0.5,0-0.8,0.2
	c-0.2,0.1-0.4,0.4-0.5,0.6l-4.8,11.1c0,0.1-0.1,0.3-0.1,0.4c0,0.3,0.1,0.6,0.3,0.8c0.2,0.2,0.5,0.3,0.9,0.3c0.2,0,0.5-0.1,0.7-0.2
	c0.2-0.1,0.4-0.3,0.5-0.6l1-2.2h5.6l1,2.2c0.1,0.3,0.3,0.5,0.5,0.6c0.2,0.2,0.4,0.2,0.7,0.2c0.3,0,0.6-0.1,0.8-0.3
	c0.2-0.2,0.4-0.5,0.4-0.9c0-0.2,0-0.3-0.1-0.5L192,422.7z M192.5,429.9H189l1.7-3.9L192.5,429.9z"/>
<path class="st0" d="M211.1,422.3c-0.3-0.2-0.6-0.4-0.9-0.4c-0.2,0-0.4,0.1-0.6,0.2c-0.2,0.1-0.3,0.2-0.5,0.4l-4.2,6.1l-4.1-6.1
	c-0.1-0.2-0.3-0.3-0.5-0.4c-0.2-0.1-0.4-0.2-0.6-0.2c-0.4,0-0.7,0.1-0.9,0.4c-0.3,0.2-0.4,0.5-0.4,0.9V434c0,0.4,0.1,0.7,0.3,0.9
	c0.2,0.2,0.5,0.4,0.9,0.4c0.4,0,0.7-0.1,0.9-0.4c0.2-0.2,0.3-0.5,0.3-0.9v-7.3l3,4.5c0.1,0.2,0.3,0.3,0.5,0.4
	c0.2,0.1,0.4,0.1,0.6,0.1c0.2,0,0.4,0,0.6-0.1c0.2-0.1,0.3-0.2,0.5-0.4l3-4.4v7.1c0,0.4,0.1,0.7,0.4,0.9c0.2,0.2,0.6,0.3,1,0.3
	s0.7-0.1,1-0.4c0.2-0.2,0.4-0.5,0.4-0.9v-10.8C211.5,422.9,211.4,422.6,211.1,422.3L211.1,422.3z"/>
<path class="st0" d="M222,424.4c0.4,0,0.7-0.1,0.9-0.3c0.2-0.2,0.4-0.5,0.4-0.8c0-0.4-0.1-0.7-0.4-0.9c-0.2-0.2-0.6-0.3-0.9-0.3
	h-6.5c-0.4,0-0.7,0.1-0.9,0.4c-0.2,0.2-0.4,0.5-0.4,0.9V434c0,0.4,0.1,0.7,0.4,0.9c0.2,0.2,0.6,0.4,0.9,0.4h6.5
	c0.4,0,0.7-0.1,0.9-0.3c0.3-0.2,0.4-0.5,0.4-0.9c0-0.3-0.1-0.6-0.4-0.8l0,0c-0.2-0.2-0.6-0.4-0.9-0.4h-5.1v-3.2h4.3
	c0.4,0,0.7-0.1,0.9-0.3c0.2-0.2,0.4-0.5,0.4-0.8c0-0.4-0.1-0.7-0.4-0.9c-0.2-0.2-0.6-0.3-0.9-0.3h-4.3v-2.9H222z"/>
<path class="st0" d="M236.5,433.6c-0.1-0.2-0.3-0.3-0.4-0.4c-0.2-0.1-0.2-0.2-0.3-0.3c0-0.2-0.1-0.4-0.1-0.8c0-0.2,0-0.4-0.1-0.6
	c-0.1-0.9-0.5-1.6-1.2-2.2c0.5-0.3,0.9-0.8,1.2-1.3c0.4-0.6,0.5-1.2,0.5-1.9c0-0.8-0.2-1.5-0.5-2.1c-0.4-0.6-0.9-1.1-1.5-1.5
	c-0.6-0.4-1.3-0.5-2-0.5h-5.6c-0.4,0-0.7,0.1-0.9,0.4c-0.3,0.2-0.4,0.5-0.4,0.9V434c0,0.4,0.2,0.7,0.5,0.9c0.3,0.2,0.7,0.4,1.1,0.4
	c0.3,0,0.6-0.1,0.8-0.4c0.2-0.2,0.3-0.5,0.3-0.9v-3.5h3.5c0.5,0,0.9,0.1,1.2,0.4c0.3,0.2,0.4,0.6,0.4,1c0,1.6,0.5,2.7,1.5,3.2
	c0.3,0.1,0.6,0.2,0.9,0.2c0.4,0,0.8-0.1,1-0.4c0.2-0.2,0.3-0.4,0.3-0.7C236.6,434,236.6,433.8,236.5,433.6L236.5,433.6z
	 M233.3,426.2c0,0.4-0.1,0.8-0.2,1.1c-0.1,0.3-0.3,0.6-0.5,0.8c-0.2,0.2-0.4,0.3-0.6,0.3h-4.1v-4h4.1c0.2,0,0.4,0.1,0.6,0.2
	c0.2,0.2,0.4,0.4,0.5,0.7C233.2,425.5,233.3,425.8,233.3,426.2z"/>
<path class="st0" d="M244.7,422.7c-0.1-0.3-0.3-0.5-0.5-0.6c-0.2-0.1-0.5-0.2-0.7-0.2c0,0,0,0,0,0c-0.3,0-0.5,0-0.8,0.2
	c-0.2,0.1-0.4,0.4-0.5,0.6l-4.8,11.1c0,0.1-0.1,0.3-0.1,0.4c0,0.3,0.1,0.6,0.3,0.8c0.2,0.2,0.5,0.3,0.9,0.3c0.2,0,0.5-0.1,0.7-0.2
	c0.2-0.1,0.4-0.3,0.5-0.6l1-2.2h5.6l1,2.2c0.1,0.3,0.3,0.5,0.5,0.6c0.2,0.2,0.4,0.2,0.7,0.2c0.3,0,0.6-0.1,0.8-0.3
	c0.2-0.2,0.4-0.5,0.4-0.9c0-0.1,0-0.3-0.1-0.5L244.7,422.7z M245.2,429.9h-3.5l1.7-3.9L245.2,429.9z"/>
<path class="st0" d="M257.1,422.7c-0.1-0.3-0.3-0.5-0.5-0.6c-0.2-0.1-0.5-0.2-0.7-0.2c0,0,0,0,0,0c-0.3,0-0.5,0-0.8,0.2
	c-0.2,0.1-0.4,0.4-0.5,0.6l-4.8,11.1c0,0.1-0.1,0.3-0.1,0.4c0,0.3,0.1,0.6,0.3,0.8c0.2,0.2,0.5,0.3,0.9,0.3c0.2,0,0.5-0.1,0.7-0.2
	c0.2-0.1,0.4-0.3,0.5-0.6l1-2.2h5.6l1,2.2c0.1,0.3,0.3,0.5,0.5,0.6c0.2,0.2,0.4,0.2,0.7,0.2c0.3,0,0.6-0.1,0.8-0.3
	c0.2-0.2,0.4-0.5,0.4-0.9c0-0.1,0-0.3-0.1-0.5L257.1,422.7z M257.5,429.9H254l1.7-3.9L257.5,429.9z"/>
<path class="st0" d="M274.2,425.3c-0.5-1-1.2-1.8-2-2.4c-0.9-0.6-2-0.9-3.2-0.9h-4.6c-0.4,0-0.7,0.1-0.9,0.4
	c-0.3,0.2-0.4,0.5-0.4,0.9V434c0,0.4,0.1,0.7,0.4,0.9c0.2,0.2,0.6,0.4,0.9,0.4h4.6c1.2,0,2.3-0.3,3.2-0.9c0.9-0.6,1.6-1.4,2-2.4
	c0.5-1,0.7-2.1,0.7-3.4S274.7,426.3,274.2,425.3z M272.1,428.6c0,1.2-0.3,2.3-0.8,3.1c-0.6,0.8-1.4,1.2-2.5,1.2h-3.1v-8.5h3.1
	c1.1,0,1.9,0.4,2.5,1.2C271.9,426.4,272.1,427.4,272.1,428.6z"/>
<path class="st0" d="M244.4,405.3l-11.6-3.1c-2.1-0.6-3.5-2.4-3.5-4.6v-3.7c0-2.1,1.4-4,3.5-4.6l11.6-3.1c3-0.8,6,1.5,6,4.6v10
	C250.4,403.9,247.4,406.2,244.4,405.3z"/>
<path class="st0" d="M178.9,376.3c-9.7,0-17.7-7.9-17.7-17.7c0-9.7,7.9-17.7,17.7-17.7c9.7,0,17.7,7.9,17.7,17.7
	C196.5,368.4,188.6,376.3,178.9,376.3z M178.9,344.6c-7.8,0-14.1,6.3-14.1,14.1c0,7.8,6.3,14.1,14.1,14.1c7.8,0,14.1-6.3,14.1-14.1
	C193,350.9,186.7,344.6,178.9,344.6z"/>
<path class="st0" d="M216.6,376.3c-12.3,0-22.2-10-22.2-22.2c0-12.3,10-22.2,22.2-22.2c12.3,0,22.2,10,22.2,22.2
	C238.8,366.3,228.8,376.3,216.6,376.3z M216.6,335.4c-10.3,0-18.7,8.4-18.7,18.7c0,10.3,8.4,18.7,18.7,18.7
	c10.3,0,18.7-8.4,18.7-18.7C235.2,343.8,226.8,335.4,216.6,335.4z"/>
<circle class="st0" cx="215.3" cy="356.3" r="3.4"/>
<circle class="st0" cx="178.9" cy="359.8" r="3.4"/>
<path class="st0" d="M238.9,334.6c-0.5,0-1.1-0.2-1.4-0.7c-4.7-6-10.6-9.3-17.7-9.7c-5.4-0.3-9.5,1.3-9.5,1.3c-0.9,0.4-2-0.1-2.3-1
	s0.1-2,1-2.3c0.2-0.1,4.7-1.8,10.9-1.5c5.7,0.3,13.9,2.4,20.5,11.1c0.6,0.8,0.5,1.9-0.3,2.5C239.7,334.4,239.3,334.6,238.9,334.6z"
	/>
<path class="st1" d="M214.5,411.4h-30.9c-5.9,0-10.6-4.7-10.6-10.6v-10c0-5.9,4.7-10.6,10.6-10.6h30.9c5.9,0,10.6,4.7,10.6,10.6v10
	C225.1,406.6,220.3,411.4,214.5,411.4z"/>
<path class="st0" d="M139,649.6H132c-0.2,0-0.4,0.1-0.5,0.2c-0.1,0.1-0.2,0.3-0.2,0.5v11.9c0,0.2,0.1,0.4,0.2,0.5
	c0.1,0.1,0.3,0.2,0.5,0.2c0.2,0,0.4-0.1,0.5-0.2c0.1-0.1,0.2-0.3,0.2-0.5v-5.5h5.5c0.2,0,0.4-0.1,0.5-0.2c0.1-0.1,0.2-0.3,0.2-0.5
	s-0.1-0.4-0.2-0.5c-0.1-0.1-0.3-0.2-0.5-0.2h-5.5V651h6.3c0.2,0,0.4-0.1,0.5-0.2c0.1-0.1,0.2-0.3,0.2-0.5c0-0.2-0.1-0.4-0.2-0.5
	C139.4,649.7,139.2,649.6,139,649.6z"/>
<path class="st0" d="M143,649.6c-0.2,0-0.4,0.1-0.5,0.2c-0.1,0.1-0.2,0.3-0.2,0.5v11.9c0,0.2,0.1,0.4,0.2,0.5
	c0.1,0.1,0.3,0.2,0.5,0.2c0.2,0,0.4-0.1,0.5-0.2c0.1-0.1,0.2-0.3,0.2-0.5v-11.9c0-0.2-0.1-0.4-0.2-0.5
	C143.4,649.7,143.2,649.6,143,649.6z"/>
<path class="st0" d="M154.7,661.6h-6.2v-11.2c0-0.2-0.1-0.4-0.2-0.5c-0.1-0.1-0.3-0.2-0.5-0.2c-0.2,0-0.4,0.1-0.5,0.2
	c-0.1,0.1-0.2,0.3-0.2,0.5v11.9c0,0.2,0.1,0.4,0.2,0.5c0.1,0.1,0.3,0.2,0.5,0.2h6.9c0.2,0,0.4-0.1,0.5-0.2c0.1-0.1,0.2-0.3,0.2-0.5
	c0-0.2-0.1-0.4-0.2-0.5C155.1,661.6,154.9,661.6,154.7,661.6z"/>
<path class="st0" d="M169.4,649.6C169.4,649.6,169.4,649.6,169.4,649.6c-0.3,0-0.5,0.1-0.6,0.3l-5,7.2l-5-7.2
	c-0.1-0.1-0.2-0.2-0.3-0.2c-0.3-0.1-0.6-0.1-0.8,0.1c-0.1,0.1-0.2,0.3-0.2,0.5v11.9c0,0.2,0.1,0.4,0.2,0.5c0.1,0.1,0.3,0.2,0.5,0.2
	c0.2,0,0.4-0.1,0.5-0.2c0.1-0.1,0.2-0.3,0.2-0.5v-9.9l4.3,6.3c0.2,0.2,0.3,0.3,0.5,0.3l0,0c0.2,0,0.4-0.1,0.6-0.3l4.3-6.3v9.8
	c0,0.2,0.1,0.4,0.2,0.5c0.1,0.1,0.3,0.2,0.5,0.2c0.2,0,0.4-0.1,0.5-0.2c0.1-0.1,0.2-0.3,0.2-0.5v-11.9c0-0.2-0.1-0.4-0.2-0.5
	C169.7,649.7,169.5,649.6,169.4,649.6z"/>
<path class="st0" d="M183.3,660.8l-4.3-5.4l4.1-3.8c0.3-0.2,0.4-0.5,0.4-0.8c0-0.3-0.1-0.6-0.3-0.8c-0.2-0.3-0.5-0.4-0.8-0.4
	c-0.4,0-0.7,0.2-1,0.5l-6,5.7v-4.8c0-0.4-0.1-0.7-0.4-0.9c-0.2-0.2-0.6-0.4-0.9-0.4c-0.4,0-0.7,0.1-1,0.4c-0.3,0.2-0.4,0.5-0.4,0.9
	v10.7c0,0.4,0.1,0.7,0.4,0.9c0.2,0.2,0.6,0.4,0.9,0.4c0.4,0,0.7-0.1,1-0.3c0.3-0.2,0.4-0.5,0.4-0.9v-2.9l1.7-1.6l4.1,5.2
	c0.1,0.2,0.3,0.3,0.4,0.4c0.2,0.1,0.4,0.1,0.5,0.1c0.4,0,0.7-0.1,1-0.4c0.3-0.2,0.4-0.6,0.4-0.9c0-0.1,0-0.3-0.1-0.4
	C183.5,661,183.4,660.9,183.3,660.8z"/>
<path class="st0" d="M191.9,650.4c-0.1-0.3-0.3-0.5-0.5-0.6c-0.2-0.1-0.5-0.2-0.7-0.2c0,0,0,0,0,0c-0.3,0-0.5,0-0.8,0.2
	c-0.2,0.1-0.4,0.4-0.5,0.6l-4.8,11.1c0,0.1-0.1,0.3-0.1,0.4c0,0.3,0.1,0.6,0.3,0.8c0.2,0.2,0.5,0.3,0.9,0.3c0.2,0,0.5-0.1,0.7-0.2
	c0.2-0.1,0.4-0.3,0.5-0.6l1-2.2h5.6l1,2.2c0.1,0.3,0.3,0.5,0.5,0.6c0.2,0.2,0.4,0.2,0.7,0.2c0.3,0,0.6-0.1,0.8-0.3
	c0.2-0.2,0.4-0.5,0.4-0.9c0-0.2,0-0.3-0.1-0.5L191.9,650.4z M192.3,657.6h-3.5l1.7-3.9L192.3,657.6z"/>
<path class="st0" d="M210.9,650c-0.3-0.2-0.6-0.4-0.9-0.4c-0.2,0-0.4,0.1-0.6,0.2c-0.2,0.1-0.3,0.2-0.5,0.4l-4.2,6.1l-4.1-6.1
	c-0.1-0.2-0.3-0.3-0.5-0.4c-0.2-0.1-0.4-0.2-0.6-0.2c-0.4,0-0.7,0.1-0.9,0.4c-0.3,0.2-0.4,0.5-0.4,0.9v10.8c0,0.4,0.1,0.7,0.3,0.9
	c0.2,0.2,0.5,0.4,0.9,0.4c0.4,0,0.7-0.1,0.9-0.4c0.2-0.2,0.3-0.5,0.3-0.9v-7.3l3,4.5c0.1,0.2,0.3,0.3,0.5,0.4
	c0.2,0.1,0.4,0.1,0.6,0.1c0.2,0,0.4,0,0.6-0.1c0.2-0.1,0.3-0.2,0.5-0.4l3-4.4v7.1c0,0.4,0.1,0.7,0.4,0.9c0.2,0.2,0.6,0.3,1,0.3
	c0.4,0,0.7-0.1,1-0.4c0.2-0.2,0.4-0.5,0.4-0.9v-10.8C211.3,650.5,211.2,650.2,210.9,650L210.9,650z"/>
<path class="st0" d="M221.8,652c0.4,0,0.7-0.1,0.9-0.3c0.2-0.2,0.4-0.5,0.4-0.8c0-0.4-0.1-0.7-0.4-0.9c-0.2-0.2-0.6-0.3-0.9-0.3
	h-6.5c-0.4,0-0.7,0.1-0.9,0.4c-0.2,0.2-0.4,0.5-0.4,0.9v10.7c0,0.4,0.1,0.7,0.4,0.9c0.2,0.2,0.6,0.4,0.9,0.4h6.5
	c0.4,0,0.7-0.1,0.9-0.3c0.3-0.2,0.4-0.5,0.4-0.9c0-0.3-0.1-0.6-0.4-0.8l0,0c-0.2-0.2-0.6-0.4-0.9-0.4h-5.1v-3.2h4.3
	c0.4,0,0.7-0.1,0.9-0.3c0.2-0.2,0.4-0.5,0.4-0.8c0-0.4-0.1-0.7-0.4-0.9c-0.2-0.2-0.6-0.3-0.9-0.3h-4.3V652H221.8z"/>
<path class="st0" d="M236.3,661.3c-0.1-0.2-0.3-0.3-0.4-0.4c-0.2-0.1-0.2-0.2-0.3-0.3c0-0.2-0.1-0.4-0.1-0.8c0-0.2,0-0.4-0.1-0.6
	c-0.1-0.9-0.5-1.6-1.2-2.2c0.5-0.3,0.9-0.8,1.2-1.3c0.4-0.6,0.5-1.2,0.5-1.9c0-0.8-0.2-1.5-0.5-2.1c-0.4-0.6-0.9-1.1-1.5-1.5
	c-0.6-0.4-1.3-0.5-2-0.5h-5.6c-0.4,0-0.7,0.1-0.9,0.4c-0.3,0.2-0.4,0.5-0.4,0.9v10.7c0,0.4,0.2,0.7,0.5,0.9c0.3,0.2,0.7,0.4,1.1,0.4
	c0.3,0,0.6-0.1,0.8-0.4c0.2-0.2,0.3-0.5,0.3-0.9v-3.5h3.5c0.5,0,0.9,0.1,1.2,0.4c0.3,0.2,0.4,0.6,0.4,1c0,1.6,0.5,2.7,1.5,3.2
	c0.3,0.1,0.6,0.2,0.9,0.2c0.4,0,0.8-0.1,1-0.4c0.2-0.2,0.3-0.4,0.3-0.7C236.4,661.7,236.4,661.5,236.3,661.3L236.3,661.3z
	 M233.1,653.8c0,0.4-0.1,0.8-0.2,1.1c-0.1,0.3-0.3,0.6-0.5,0.8c-0.2,0.2-0.4,0.3-0.6,0.3h-4.1v-4h4.1c0.2,0,0.4,0.1,0.6,0.2
	c0.2,0.2,0.4,0.4,0.5,0.7C233,653.2,233.1,653.5,233.1,653.8z"/>
<path class="st0" d="M244.5,650.4c-0.1-0.3-0.3-0.5-0.5-0.6c-0.2-0.1-0.5-0.2-0.7-0.2c0,0,0,0,0,0c-0.3,0-0.5,0-0.8,0.2
	c-0.2,0.1-0.4,0.4-0.5,0.6l-4.8,11.1c0,0.1-0.1,0.3-0.1,0.4c0,0.3,0.1,0.6,0.3,0.8c0.2,0.2,0.5,0.3,0.9,0.3c0.2,0,0.5-0.1,0.7-0.2
	c0.2-0.1,0.4-0.3,0.5-0.6l1-2.2h5.6l1,2.2c0.1,0.3,0.3,0.5,0.5,0.6c0.2,0.2,0.4,0.2,0.7,0.2c0.3,0,0.6-0.1,0.8-0.3
	c0.2-0.2,0.4-0.5,0.4-0.9c0-0.1,0-0.3-0.1-0.5L244.5,650.4z M245,657.6h-3.5l1.7-3.9L245,657.6z"/>
<path class="st0" d="M256.9,650.4c-0.1-0.3-0.3-0.5-0.5-0.6c-0.2-0.1-0.5-0.2-0.7-0.2c0,0,0,0,0,0c-0.3,0-0.5,0-0.8,0.2
	c-0.2,0.1-0.4,0.4-0.5,0.6l-4.8,11.1c0,0.1-0.1,0.3-0.1,0.4c0,0.3,0.1,0.6,0.3,0.8c0.2,0.2,0.5,0.3,0.9,0.3c0.2,0,0.5-0.1,0.7-0.2
	c0.2-0.1,0.4-0.3,0.5-0.6l1-2.2h5.6l1,2.2c0.1,0.3,0.3,0.5,0.5,0.6c0.2,0.2,0.4,0.2,0.7,0.2c0.3,0,0.6-0.1,0.8-0.3
	c0.2-0.2,0.4-0.5,0.4-0.9c0-0.1,0-0.3-0.1-0.5L256.9,650.4z M257.4,657.6h-3.5l1.7-3.9L257.4,657.6z"/>
<path class="st0" d="M274,652.9c-0.5-1-1.2-1.8-2-2.4c-0.9-0.6-2-0.9-3.2-0.9h-4.6c-0.4,0-0.7,0.1-0.9,0.4c-0.3,0.2-0.4,0.5-0.4,0.9
	v10.7c0,0.4,0.1,0.7,0.4,0.9c0.2,0.2,0.6,0.4,0.9,0.4h4.6c1.2,0,2.3-0.3,3.2-0.9c0.9-0.6,1.6-1.4,2-2.4c0.5-1,0.7-2.1,0.7-3.4
	S274.5,653.9,274,652.9z M272,656.3c0,1.2-0.3,2.3-0.8,3.1c-0.6,0.8-1.4,1.2-2.5,1.2h-3.1V652h3.1c1.1,0,1.9,0.4,2.5,1.2
	C271.7,654,272,655,272,656.3z"/>
<path class="st0" d="M161,633l11.6-3.1c2.1-0.6,3.5-2.4,3.5-4.6v-3.7c0-2.1-1.4-4-3.5-4.6l-11.6-3.1c-3-0.8-6,1.5-6,4.6v10
	C155,631.6,158,633.8,161,633z"/>
<path class="st0" d="M208.9,586.3c0-9.7,7.9-17.7,17.7-17.7s17.7,7.9,17.7,17.7s-7.9,17.7-17.7,17.7S208.9,596,208.9,586.3z
	 M212.4,586.3c0,7.8,6.3,14.1,14.1,14.1c7.8,0,14.1-6.3,14.1-14.1s-6.3-14.1-14.1-14.1C218.8,572.2,212.4,578.5,212.4,586.3z"/>
<path class="st0" d="M166.6,581.7c0-12.3,10-22.2,22.2-22.2c12.3,0,22.2,10,22.2,22.2s-10,22.2-22.2,22.2
	C176.6,604,166.6,594,166.6,581.7z M170.2,581.7c0,10.3,8.4,18.7,18.7,18.7c10.3,0,18.7-8.4,18.7-18.7c0-10.3-8.4-18.7-18.7-18.7
	C178.6,563.1,170.2,571.5,170.2,581.7z"/>
<circle class="st0" cx="190.1" cy="584" r="3.4"/>
<circle class="st0" cx="226.5" cy="587.4" r="3.4"/>
<path class="st0" d="M166.5,562.2c0.5,0,1.1-0.2,1.4-0.7c4.7-6,10.6-9.3,17.7-9.7c5.4-0.3,9.5,1.3,9.5,1.3c0.9,0.4,2-0.1,2.3-1
	c0.4-0.9-0.1-2-1-2.3c-0.2-0.1-4.7-1.8-10.9-1.5c-5.7,0.3-13.9,2.4-20.5,11.1c-0.6,0.8-0.5,1.9,0.3,2.5
	C165.7,562.1,166.1,562.2,166.5,562.2z"/>
<path class="st1" d="M190.9,639h30.9c5.9,0,10.6-4.7,10.6-10.6v-10c0-5.9-4.7-10.6-10.6-10.6h-30.9c-5.9,0-10.6,4.7-10.6,10.6v10
	C180.3,634.3,185.1,639,190.9,639z"/>
<path class="st0" d="M442.3,382.8h-8.2c-0.2,0-0.4,0.1-0.6,0.2c-0.2,0.2-0.2,0.3-0.2,0.6v13.9c0,0.2,0.1,0.4,0.2,0.6
	c0.2,0.1,0.4,0.2,0.6,0.2c0.2,0,0.4-0.1,0.6-0.2c0.2-0.2,0.2-0.3,0.2-0.6v-6.4h6.4c0.2,0,0.4-0.1,0.6-0.2c0.2-0.1,0.2-0.3,0.2-0.6
	s-0.1-0.4-0.2-0.6c-0.2-0.1-0.4-0.2-0.6-0.2h-6.4v-5.2h7.4c0.2,0,0.4-0.1,0.6-0.2c0.2-0.2,0.2-0.3,0.2-0.5c0-0.2-0.1-0.4-0.2-0.6
	C442.8,382.8,442.6,382.8,442.3,382.8z"/>
<path class="st0" d="M447,382.8c-0.2,0-0.5,0.1-0.6,0.2c-0.2,0.2-0.3,0.4-0.3,0.6v13.9c0,0.2,0.1,0.4,0.2,0.6
	c0.2,0.1,0.4,0.2,0.6,0.2c0.2,0,0.4-0.1,0.6-0.2c0.2-0.2,0.3-0.3,0.3-0.6v-13.9c0-0.2-0.1-0.4-0.2-0.6
	C447.4,382.8,447.2,382.8,447,382.8z"/>
<path class="st0" d="M460.7,396.7h-7.2v-13.1c0-0.2-0.1-0.4-0.3-0.6c-0.2-0.1-0.4-0.2-0.6-0.2c-0.2,0-0.5,0.1-0.6,0.2
	c-0.2,0.2-0.3,0.3-0.3,0.6v13.9c0,0.2,0.1,0.4,0.2,0.6c0.2,0.1,0.4,0.2,0.6,0.2h8.1c0.2,0,0.4-0.1,0.6-0.2c0.2-0.2,0.2-0.3,0.2-0.6
	c0-0.2-0.1-0.4-0.2-0.6C461.1,396.8,460.9,396.7,460.7,396.7z"/>
<path class="st0" d="M477.8,382.8C477.8,382.8,477.8,382.8,477.8,382.8c-0.3,0-0.5,0.1-0.8,0.3l-5.9,8.4l-5.8-8.4
	c-0.1-0.1-0.2-0.2-0.3-0.3c-0.4-0.2-0.7-0.1-1,0.2c-0.2,0.2-0.2,0.3-0.2,0.6v13.9c0,0.2,0.1,0.4,0.2,0.6c0.1,0.2,0.3,0.2,0.6,0.2
	c0.2,0,0.4-0.1,0.6-0.2c0.2-0.2,0.2-0.3,0.2-0.6v-11.5l5.1,7.4c0.2,0.2,0.4,0.3,0.6,0.3l0,0c0.2,0,0.5-0.1,0.6-0.3l5.1-7.4v11.5
	c0,0.2,0.1,0.4,0.3,0.6c0.2,0.1,0.4,0.2,0.6,0.2c0.2,0,0.4-0.1,0.6-0.2c0.2-0.2,0.3-0.3,0.3-0.6v-13.9c0-0.2-0.1-0.4-0.2-0.6
	C478.2,382.8,478,382.8,477.8,382.8z"/>
<path class="st0" d="M494.1,395.8l-5-6.3l4.8-4.4c0.3-0.3,0.5-0.6,0.5-1c0-0.3-0.1-0.7-0.4-1c-0.3-0.3-0.6-0.5-1-0.5
	c-0.4,0-0.8,0.2-1.2,0.5l-7,6.6v-5.6c0-0.4-0.1-0.8-0.4-1.1c-0.3-0.3-0.7-0.4-1.1-0.4c-0.5,0-0.8,0.1-1.1,0.4
	c-0.3,0.3-0.5,0.6-0.5,1.1v12.6c0,0.4,0.1,0.8,0.4,1c0.3,0.3,0.7,0.4,1.1,0.4c0.5,0,0.8-0.1,1.1-0.4c0.3-0.3,0.4-0.6,0.4-1.1v-3.4
	l2-1.8l4.8,6.1c0.1,0.2,0.3,0.3,0.5,0.4c0.2,0.1,0.4,0.1,0.6,0.1c0.4,0,0.8-0.1,1.2-0.4c0.3-0.3,0.5-0.7,0.5-1.1
	c0-0.2,0-0.3-0.1-0.5C494.3,396.1,494.2,395.9,494.1,395.8z"/>
<path class="st0" d="M504.1,383.6c-0.1-0.3-0.3-0.5-0.6-0.7c-0.3-0.2-0.5-0.3-0.8-0.3c0,0,0,0,0,0c-0.3,0-0.6,0-0.9,0.2
	c-0.3,0.2-0.5,0.4-0.6,0.7l-5.6,13c0,0.2-0.1,0.3-0.1,0.5c0,0.4,0.1,0.7,0.3,0.9c0.2,0.2,0.6,0.3,1,0.3c0.3,0,0.6-0.1,0.8-0.3
	c0.2-0.2,0.4-0.4,0.5-0.7l1.1-2.6h6.6l1.1,2.5c0.1,0.3,0.3,0.5,0.6,0.7c0.2,0.2,0.5,0.3,0.8,0.3c0.4,0,0.7-0.1,1-0.4
	c0.3-0.3,0.4-0.6,0.4-1c0-0.2,0-0.4-0.1-0.6L504.1,383.6z M504.6,392.1h-4.1l2-4.6L504.6,392.1z"/>
<path class="st0" d="M526.4,383.2c-0.3-0.3-0.7-0.4-1.1-0.4c-0.2,0-0.5,0.1-0.7,0.2c-0.2,0.1-0.4,0.3-0.5,0.5l-5,7.1l-4.8-7.1
	c-0.1-0.2-0.3-0.4-0.6-0.5c-0.2-0.1-0.5-0.2-0.7-0.2c-0.4,0-0.8,0.1-1.1,0.4c-0.3,0.3-0.5,0.6-0.5,1v12.6c0,0.4,0.1,0.8,0.4,1
	c0.3,0.3,0.6,0.4,1,0.4c0.4,0,0.8-0.1,1.1-0.4c0.3-0.3,0.4-0.6,0.4-1.1v-8.5l3.5,5.3c0.2,0.2,0.3,0.3,0.6,0.5
	c0.2,0.1,0.4,0.2,0.6,0.2c0.2,0,0.5,0,0.7-0.2c0.2-0.1,0.4-0.3,0.6-0.5l3.5-5.1v8.3c0,0.4,0.1,0.8,0.4,1.1c0.3,0.3,0.7,0.4,1.1,0.4
	c0.5,0,0.8-0.1,1.1-0.4c0.3-0.3,0.4-0.6,0.4-1v-12.6C526.9,383.8,526.7,383.4,526.4,383.2L526.4,383.2z"/>
<path class="st0" d="M539.1,385.5c0.4,0,0.8-0.1,1.1-0.4c0.3-0.3,0.4-0.6,0.4-1c0-0.4-0.1-0.8-0.4-1c-0.3-0.3-0.7-0.4-1.1-0.4h-7.6
	c-0.4,0-0.8,0.1-1.1,0.4c-0.3,0.3-0.4,0.6-0.4,1v12.6c0,0.4,0.1,0.8,0.4,1c0.3,0.3,0.7,0.4,1.1,0.4h7.6c0.4,0,0.8-0.1,1.1-0.4
	c0.3-0.3,0.4-0.6,0.4-1c0-0.4-0.1-0.7-0.4-1l0,0c-0.3-0.3-0.7-0.4-1.1-0.4h-6v-3.7h5c0.4,0,0.8-0.1,1.1-0.4c0.3-0.3,0.4-0.6,0.4-1
	c0-0.4-0.1-0.8-0.4-1c-0.3-0.3-0.7-0.4-1.1-0.4h-5v-3.4H539.1z"/>
<path class="st0" d="M556,396.4c-0.1-0.2-0.3-0.4-0.5-0.5c-0.2-0.1-0.3-0.2-0.3-0.4c-0.1-0.2-0.1-0.5-0.2-0.9c0-0.2,0-0.5-0.1-0.7
	c-0.1-1-0.6-1.9-1.5-2.5c0.6-0.4,1.1-0.9,1.5-1.6c0.4-0.7,0.6-1.4,0.6-2.2c0-0.9-0.2-1.7-0.6-2.5c-0.4-0.7-1-1.3-1.7-1.7
	c-0.7-0.4-1.5-0.6-2.3-0.6h-6.5c-0.4,0-0.8,0.1-1.1,0.4c-0.3,0.3-0.4,0.6-0.4,1v12.6c0,0.4,0.2,0.8,0.5,1.1c0.3,0.3,0.8,0.4,1.2,0.4
	c0.4,0,0.7-0.1,1-0.4c0.2-0.3,0.4-0.6,0.4-1.1v-4.1h4.1c0.6,0,1.1,0.1,1.4,0.4c0.3,0.3,0.5,0.6,0.5,1.1c0,1.9,0.6,3.1,1.7,3.8
	c0.3,0.2,0.7,0.3,1.1,0.3c0.5,0,0.9-0.1,1.2-0.4c0.2-0.2,0.3-0.5,0.3-0.8C556.2,396.8,556.2,396.6,556,396.4L556,396.4z
	 M552.3,387.6c0,0.5-0.1,0.9-0.2,1.3c-0.2,0.4-0.4,0.7-0.6,0.9c-0.2,0.2-0.5,0.3-0.7,0.3H546v-4.7h4.8c0.2,0,0.5,0.1,0.7,0.3
	c0.2,0.2,0.4,0.4,0.6,0.8C552.3,386.9,552.3,387.3,552.3,387.6z"/>
<path class="st0" d="M565.7,383.6c-0.1-0.3-0.3-0.5-0.6-0.7c-0.3-0.2-0.5-0.3-0.8-0.3c0,0,0,0,0,0c-0.3,0-0.6,0-0.9,0.2
	c-0.3,0.2-0.5,0.4-0.6,0.7l-5.6,13c0,0.2-0.1,0.3-0.1,0.5c0,0.4,0.1,0.7,0.3,0.9c0.2,0.2,0.6,0.3,1,0.3c0.3,0,0.6-0.1,0.8-0.3
	c0.2-0.2,0.4-0.4,0.5-0.7l1.1-2.6h6.6l1.1,2.5c0.1,0.3,0.3,0.5,0.6,0.7c0.2,0.2,0.5,0.3,0.8,0.3c0.4,0,0.7-0.1,1-0.4
	c0.3-0.3,0.4-0.6,0.4-1c0-0.2,0-0.4-0.1-0.6L565.7,383.6z M566.2,392.1h-4.1l2-4.6L566.2,392.1z"/>
<path class="st0" d="M580.2,383.6c-0.1-0.3-0.3-0.5-0.6-0.7c-0.3-0.2-0.5-0.3-0.8-0.3c0,0,0,0,0,0c-0.3,0-0.6,0-0.9,0.2
	c-0.3,0.2-0.5,0.4-0.6,0.7l-5.6,13c0,0.2-0.1,0.3-0.1,0.5c0,0.4,0.1,0.7,0.3,0.9c0.2,0.2,0.6,0.3,1,0.3c0.3,0,0.6-0.1,0.8-0.3
	c0.2-0.2,0.4-0.4,0.5-0.7l1.1-2.6h6.6l1.1,2.5c0.1,0.3,0.3,0.5,0.6,0.7c0.2,0.2,0.5,0.3,0.8,0.3c0.4,0,0.7-0.1,1-0.4
	c0.3-0.3,0.4-0.6,0.4-1c0-0.2,0-0.4-0.1-0.6L580.2,383.6z M580.7,392.1h-4.1l2-4.6L580.7,392.1z"/>
<path class="st0" d="M600.2,386.6c-0.5-1.2-1.3-2.1-2.4-2.8c-1-0.7-2.3-1-3.7-1h-5.4c-0.4,0-0.8,0.1-1.1,0.4c-0.3,0.3-0.4,0.6-0.4,1
	v12.6c0,0.4,0.1,0.8,0.4,1c0.3,0.3,0.7,0.4,1.1,0.4h5.4c1.4,0,2.7-0.3,3.7-1c1-0.7,1.8-1.6,2.4-2.8c0.5-1.2,0.8-2.5,0.8-3.9
	C601,389.1,600.7,387.8,600.2,386.6z M597.8,390.5c0,1.4-0.3,2.6-1,3.6c-0.6,0.9-1.6,1.4-2.9,1.4h-3.6v-9.9h3.6
	c1.3,0,2.3,0.5,2.9,1.4C597.4,387.9,597.8,389.1,597.8,390.5z"/>
<path class="st0" d="M422.7,399.9l-6.2-1.7c-1.1-0.3-1.9-1.3-1.9-2.5v-2c0-1.2,0.8-2.2,1.9-2.5l6.2-1.7c1.6-0.4,3.2,0.8,3.2,2.5v5.4
	C425.9,399.1,424.3,400.3,422.7,399.9z"/>
<path class="st0" d="M387.5,384.3c-5.2,0-9.5-4.3-9.5-9.5c0-5.2,4.3-9.5,9.5-9.5c5.2,0,9.5,4.3,9.5,9.5
	C397,380,392.8,384.3,387.5,384.3z M387.5,367.2c-4.2,0-7.6,3.4-7.6,7.6c0,4.2,3.4,7.6,7.6,7.6c4.2,0,7.6-3.4,7.6-7.6
	C395.1,370.6,391.7,367.2,387.5,367.2z"/>
<path class="st0" d="M407.8,384.3c-6.6,0-11.9-5.4-11.9-11.9c0-6.6,5.4-11.9,11.9-11.9c6.6,0,11.9,5.4,11.9,11.9
	C419.7,378.9,414.3,384.3,407.8,384.3z M407.8,362.3c-5.5,0-10,4.5-10,10c0,5.5,4.5,10,10,10c5.5,0,10-4.5,10-10
	C417.8,366.8,413.3,362.3,407.8,362.3z"/>
<circle class="st0" cx="407.1" cy="373.5" r="1.8"/>
<circle class="st0" cx="387.5" cy="375.4" r="1.8"/>
<path class="st0" d="M419.8,361.8c-0.3,0-0.6-0.1-0.8-0.4c-2.5-3.2-5.7-5-9.5-5.2c-2.9-0.2-5.1,0.7-5.1,0.7c-0.5,0.2-1-0.1-1.2-0.5
	c-0.2-0.5,0-1,0.5-1.2c0.1,0,2.5-1,5.8-0.8c3.1,0.1,7.4,1.3,11,6c0.3,0.4,0.2,1-0.2,1.3C420.2,361.8,420,361.8,419.8,361.8z"/>
<path class="st1" d="M406.7,403.1H390c-3.1,0-5.7-2.5-5.7-5.7V392c0-3.1,2.5-5.7,5.7-5.7h16.6c3.1,0,5.7,2.5,5.7,5.7v5.4
	C412.3,400.5,409.8,403.1,406.7,403.1z"/>
<g>
	<path class="st2" d="M430,199.6H423c-0.2,0-0.4,0.1-0.5,0.2c-0.1,0.1-0.2,0.3-0.2,0.5v11.9c0,0.2,0.1,0.4,0.2,0.5
		c0.1,0.1,0.3,0.2,0.5,0.2c0.2,0,0.4-0.1,0.5-0.2c0.1-0.1,0.2-0.3,0.2-0.5v-5.5h5.5c0.2,0,0.4-0.1,0.5-0.2c0.1-0.1,0.2-0.3,0.2-0.5
		s-0.1-0.4-0.2-0.5c-0.1-0.1-0.3-0.2-0.5-0.2h-5.5V201h6.3c0.2,0,0.4-0.1,0.5-0.2c0.1-0.1,0.2-0.3,0.2-0.5c0-0.2-0.1-0.4-0.2-0.5
		C430.4,199.7,430.2,199.6,430,199.6z"/>
	<path class="st2" d="M434,199.6c-0.2,0-0.4,0.1-0.5,0.2c-0.1,0.1-0.2,0.3-0.2,0.5v11.9c0,0.2,0.1,0.4,0.2,0.5
		c0.1,0.1,0.3,0.2,0.5,0.2c0.2,0,0.4-0.1,0.5-0.2c0.1-0.1,0.2-0.3,0.2-0.5v-11.9c0-0.2-0.1-0.4-0.2-0.5
		C434.4,199.7,434.2,199.6,434,199.6z"/>
	<path class="st2" d="M445.7,211.6h-6.2v-11.2c0-0.2-0.1-0.4-0.2-0.5c-0.1-0.1-0.3-0.2-0.5-0.2c-0.2,0-0.4,0.1-0.5,0.2
		c-0.1,0.1-0.2,0.3-0.2,0.5v11.9c0,0.2,0.1,0.4,0.2,0.5c0.1,0.1,0.3,0.2,0.5,0.2h6.9c0.2,0,0.4-0.1,0.5-0.2c0.1-0.1,0.2-0.3,0.2-0.5
		c0-0.2-0.1-0.4-0.2-0.5C446.1,211.6,445.9,211.6,445.7,211.6z"/>
	<path class="st2" d="M460.4,199.6C460.4,199.6,460.4,199.6,460.4,199.6c-0.3,0-0.5,0.1-0.6,0.3l-5,7.2l-5-7.2
		c-0.1-0.1-0.2-0.2-0.3-0.2c-0.3-0.1-0.6-0.1-0.8,0.1c-0.1,0.1-0.2,0.3-0.2,0.5v11.9c0,0.2,0.1,0.4,0.2,0.5c0.1,0.1,0.3,0.2,0.5,0.2
		c0.2,0,0.4-0.1,0.5-0.2c0.1-0.1,0.2-0.3,0.2-0.5v-9.9l4.3,6.3c0.2,0.2,0.3,0.3,0.5,0.3l0,0c0.2,0,0.4-0.1,0.6-0.3l4.3-6.3v9.8
		c0,0.2,0.1,0.4,0.2,0.5c0.1,0.1,0.3,0.2,0.5,0.2c0.2,0,0.4-0.1,0.5-0.2c0.1-0.1,0.2-0.3,0.2-0.5v-11.9c0-0.2-0.1-0.4-0.2-0.5
		C460.7,199.7,460.5,199.6,460.4,199.6z"/>
	<path class="st2" d="M474.3,210.8l-4.3-5.4l4.1-3.8c0.3-0.2,0.4-0.5,0.4-0.8c0-0.3-0.1-0.6-0.3-0.8c-0.2-0.3-0.5-0.4-0.8-0.4
		c-0.4,0-0.7,0.2-1,0.5l-6,5.7v-4.8c0-0.4-0.1-0.7-0.4-0.9c-0.2-0.2-0.6-0.4-0.9-0.4c-0.4,0-0.7,0.1-1,0.4c-0.3,0.2-0.4,0.5-0.4,0.9
		v10.7c0,0.4,0.1,0.7,0.4,0.9c0.2,0.2,0.6,0.4,0.9,0.4c0.4,0,0.7-0.1,1-0.3c0.3-0.2,0.4-0.5,0.4-0.9v-2.9l1.7-1.6l4.1,5.2
		c0.1,0.2,0.3,0.3,0.4,0.4c0.2,0.1,0.4,0.1,0.5,0.1c0.4,0,0.7-0.1,1-0.4c0.3-0.2,0.4-0.6,0.4-0.9c0-0.1,0-0.3-0.1-0.4
		C474.5,211,474.4,210.9,474.3,210.8z"/>
	<path class="st2" d="M482.9,200.4c-0.1-0.3-0.3-0.5-0.5-0.6c-0.2-0.1-0.5-0.2-0.7-0.2c0,0,0,0,0,0c-0.3,0-0.5,0-0.8,0.2
		c-0.2,0.1-0.4,0.4-0.5,0.6l-4.8,11.1c0,0.1-0.1,0.3-0.1,0.4c0,0.3,0.1,0.6,0.3,0.8c0.2,0.2,0.5,0.3,0.9,0.3c0.2,0,0.5-0.1,0.7-0.2
		c0.2-0.1,0.4-0.3,0.5-0.6l1-2.2h5.6l1,2.2c0.1,0.3,0.3,0.5,0.5,0.6c0.2,0.2,0.4,0.2,0.7,0.2c0.3,0,0.6-0.1,0.8-0.3
		c0.2-0.2,0.4-0.5,0.4-0.9c0-0.2,0-0.3-0.1-0.5L482.9,200.4z M483.3,207.6h-3.5l1.7-3.9L483.3,207.6z"/>
	<path class="st2" d="M501.9,200c-0.3-0.2-0.6-0.4-0.9-0.4c-0.2,0-0.4,0.1-0.6,0.2c-0.2,0.1-0.3,0.2-0.5,0.4l-4.2,6.1l-4.1-6.1
		c-0.1-0.2-0.3-0.3-0.5-0.4c-0.2-0.1-0.4-0.2-0.6-0.2c-0.4,0-0.7,0.1-0.9,0.4c-0.3,0.2-0.4,0.5-0.4,0.9v10.8c0,0.4,0.1,0.7,0.3,0.9
		c0.2,0.2,0.5,0.4,0.9,0.4c0.4,0,0.7-0.1,0.9-0.4c0.2-0.2,0.3-0.5,0.3-0.9v-7.3l3,4.5c0.1,0.2,0.3,0.3,0.5,0.4
		c0.2,0.1,0.4,0.1,0.6,0.1c0.2,0,0.4,0,0.6-0.1c0.2-0.1,0.3-0.2,0.5-0.4l3-4.4v7.1c0,0.4,0.1,0.7,0.4,0.9c0.2,0.2,0.6,0.3,1,0.3
		s0.7-0.1,1-0.4c0.2-0.2,0.4-0.5,0.4-0.9v-10.8C502.3,200.5,502.2,200.2,501.9,200L501.9,200z"/>
	<path class="st2" d="M512.8,202c0.4,0,0.7-0.1,0.9-0.3c0.2-0.2,0.4-0.5,0.4-0.8c0-0.4-0.1-0.7-0.4-0.9c-0.2-0.2-0.6-0.3-0.9-0.3
		h-6.5c-0.4,0-0.7,0.1-0.9,0.4c-0.2,0.2-0.4,0.5-0.4,0.9v10.7c0,0.4,0.1,0.7,0.4,0.9c0.2,0.2,0.6,0.4,0.9,0.4h6.5
		c0.4,0,0.7-0.1,0.9-0.3c0.3-0.2,0.4-0.5,0.4-0.9c0-0.3-0.1-0.6-0.4-0.8l0,0c-0.2-0.2-0.6-0.4-0.9-0.4h-5.1v-3.2h4.3
		c0.4,0,0.7-0.1,0.9-0.3c0.2-0.2,0.4-0.5,0.4-0.8c0-0.4-0.1-0.7-0.4-0.9c-0.2-0.2-0.6-0.3-0.9-0.3h-4.3V202H512.8z"/>
	<path class="st2" d="M527.3,211.3c-0.1-0.2-0.3-0.3-0.4-0.4c-0.2-0.1-0.2-0.2-0.3-0.3c0-0.2-0.1-0.4-0.1-0.8c0-0.2,0-0.4-0.1-0.6
		c-0.1-0.9-0.5-1.6-1.2-2.2c0.5-0.3,0.9-0.8,1.2-1.3c0.4-0.6,0.5-1.2,0.5-1.9c0-0.8-0.2-1.5-0.5-2.1c-0.4-0.6-0.9-1.1-1.5-1.5
		c-0.6-0.4-1.3-0.5-2-0.5h-5.6c-0.4,0-0.7,0.1-0.9,0.4c-0.3,0.2-0.4,0.5-0.4,0.9v10.7c0,0.4,0.2,0.7,0.5,0.9
		c0.3,0.2,0.7,0.4,1.1,0.4c0.3,0,0.6-0.1,0.8-0.4c0.2-0.2,0.3-0.5,0.3-0.9v-3.5h3.5c0.5,0,0.9,0.1,1.2,0.4c0.3,0.2,0.4,0.6,0.4,1
		c0,1.6,0.5,2.7,1.5,3.2c0.3,0.1,0.6,0.2,0.9,0.2c0.4,0,0.8-0.1,1-0.4c0.2-0.2,0.3-0.4,0.3-0.7C527.4,211.7,527.4,211.5,527.3,211.3
		L527.3,211.3z M524.1,203.8c0,0.4-0.1,0.8-0.2,1.1c-0.1,0.3-0.3,0.6-0.5,0.8c-0.2,0.2-0.4,0.3-0.6,0.3h-4.1v-4h4.1
		c0.2,0,0.4,0.1,0.6,0.2c0.2,0.2,0.4,0.4,0.5,0.7C524,203.2,524.1,203.5,524.1,203.8z"/>
	<path class="st2" d="M535.5,200.4c-0.1-0.3-0.3-0.5-0.5-0.6c-0.2-0.1-0.5-0.2-0.7-0.2c0,0,0,0,0,0c-0.3,0-0.5,0-0.8,0.2
		c-0.2,0.1-0.4,0.4-0.5,0.6l-4.8,11.1c0,0.1-0.1,0.3-0.1,0.4c0,0.3,0.1,0.6,0.3,0.8c0.2,0.2,0.5,0.3,0.9,0.3c0.2,0,0.5-0.1,0.7-0.2
		c0.2-0.1,0.4-0.3,0.5-0.6l1-2.2h5.6l1,2.2c0.1,0.3,0.3,0.5,0.5,0.6c0.2,0.2,0.4,0.2,0.7,0.2c0.3,0,0.6-0.1,0.8-0.3
		c0.2-0.2,0.4-0.5,0.4-0.9c0-0.1,0-0.3-0.1-0.5L535.5,200.4z M536,207.6h-3.5l1.7-3.9L536,207.6z"/>
	<path class="st2" d="M547.9,200.4c-0.1-0.3-0.3-0.5-0.5-0.6c-0.2-0.1-0.5-0.2-0.7-0.2c0,0,0,0,0,0c-0.3,0-0.5,0-0.8,0.2
		c-0.2,0.1-0.4,0.4-0.5,0.6l-4.8,11.1c0,0.1-0.1,0.3-0.1,0.4c0,0.3,0.1,0.6,0.3,0.8c0.2,0.2,0.5,0.3,0.9,0.3c0.2,0,0.5-0.1,0.7-0.2
		c0.2-0.1,0.4-0.3,0.5-0.6l1-2.2h5.6l1,2.2c0.1,0.3,0.3,0.5,0.5,0.6c0.2,0.2,0.4,0.2,0.7,0.2c0.3,0,0.6-0.1,0.8-0.3
		c0.2-0.2,0.4-0.5,0.4-0.9c0-0.1,0-0.3-0.1-0.5L547.9,200.4z M548.4,207.6h-3.5l1.7-3.9L548.4,207.6z"/>
	<path class="st2" d="M565,202.9c-0.5-1-1.2-1.8-2-2.4c-0.9-0.6-2-0.9-3.2-0.9h-4.6c-0.4,0-0.7,0.1-0.9,0.4
		c-0.3,0.2-0.4,0.5-0.4,0.9v10.7c0,0.4,0.1,0.7,0.4,0.9c0.2,0.2,0.6,0.4,0.9,0.4h4.6c1.2,0,2.3-0.3,3.2-0.9c0.9-0.6,1.6-1.4,2-2.4
		c0.5-1,0.7-2.1,0.7-3.4C565.7,205.1,565.5,203.9,565,202.9z M563,206.3c0,1.2-0.3,2.3-0.8,3.1c-0.6,0.8-1.4,1.2-2.5,1.2h-3.1V202
		h3.1c1.1,0,1.9,0.4,2.5,1.2C562.7,204,563,205,563,206.3z"/>
	<path class="st2" d="M535.2,183l-11.6-3.1c-2.1-0.6-3.5-2.4-3.5-4.6v-3.7c0-2.1,1.4-4,3.5-4.6l11.6-3.1c3-0.8,6,1.5,6,4.6v10
		C541.2,181.6,538.2,183.8,535.2,183z"/>
	<path class="st2" d="M469.7,154c-9.7,0-17.7-7.9-17.7-17.7s7.9-17.7,17.7-17.7c9.7,0,17.7,7.9,17.7,17.7S479.4,154,469.7,154z
		 M469.7,122.2c-7.8,0-14.1,6.3-14.1,14.1s6.3,14.1,14.1,14.1c7.8,0,14.1-6.3,14.1-14.1S477.5,122.2,469.7,122.2z"/>
	<path class="st2" d="M507.4,154c-12.3,0-22.2-10-22.2-22.2s10-22.2,22.2-22.2c12.3,0,22.2,10,22.2,22.2S519.6,154,507.4,154z
		 M507.4,113.1c-10.3,0-18.7,8.4-18.7,18.7s8.4,18.7,18.7,18.7c10.3,0,18.7-8.4,18.7-18.7S517.7,113.1,507.4,113.1z"/>
	<circle class="st2" cx="506.1" cy="134" r="3.4"/>
	<circle class="st2" cx="469.7" cy="137.4" r="3.4"/>
	<path class="st2" d="M529.7,112.2c-0.5,0-1.1-0.2-1.4-0.7c-4.7-6-10.6-9.3-17.7-9.7c-5.4-0.3-9.5,1.3-9.5,1.3c-0.9,0.4-2-0.1-2.3-1
		s0.1-2,1-2.3c0.2-0.1,4.7-1.8,10.9-1.5c5.7,0.3,13.9,2.4,20.5,11.1c0.6,0.8,0.5,1.9-0.3,2.5C530.5,112.1,530.1,112.2,529.7,112.2z"
		/>
	<path class="st2" d="M505.3,189h-30.9c-5.9,0-10.6-4.7-10.6-10.6v-10c0-5.9,4.7-10.6,10.6-10.6h30.9c5.9,0,10.6,4.7,10.6,10.6v10
		C515.9,184.3,511.2,189,505.3,189z"/>
</g>
<rect x="107" y="311" class="st4" width="195.5" height="136.2"/>
<line class="st5" x1="353" y1="59" x2="353" y2="710"/>
<line class="st5" x1="636.5" y1="59" x2="636.5" y2="710"/>
<line class="st5" x1="923.5" y1="267.5" x2="73" y2="267.5"/>
<line class="st5" x1="923.5" y1="490.5" x2="73" y2="490.5"/>
<path class="st3" d="M723,420.6H716c-0.2,0-0.4,0.1-0.5,0.2c-0.1,0.1-0.2,0.3-0.2,0.5v11.9c0,0.2,0.1,0.4,0.2,0.5
	c0.1,0.1,0.3,0.2,0.5,0.2c0.2,0,0.4-0.1,0.5-0.2c0.1-0.1,0.2-0.3,0.2-0.5v-5.5h5.5c0.2,0,0.4-0.1,0.5-0.2c0.1-0.1,0.2-0.3,0.2-0.5
	s-0.1-0.4-0.2-0.5c-0.1-0.1-0.3-0.2-0.5-0.2h-5.5V422h6.3c0.2,0,0.4-0.1,0.5-0.2c0.1-0.1,0.2-0.3,0.2-0.5c0-0.2-0.1-0.4-0.2-0.5
	C723.4,420.7,723.2,420.6,723,420.6z"/>
<path class="st3" d="M727,420.6c-0.2,0-0.4,0.1-0.5,0.2c-0.1,0.1-0.2,0.3-0.2,0.5v11.9c0,0.2,0.1,0.4,0.2,0.5
	c0.1,0.1,0.3,0.2,0.5,0.2c0.2,0,0.4-0.1,0.5-0.2c0.1-0.1,0.2-0.3,0.2-0.5v-11.9c0-0.2-0.1-0.4-0.2-0.5
	C727.4,420.7,727.2,420.6,727,420.6z"/>
<path class="st3" d="M738.7,432.6h-6.2v-11.2c0-0.2-0.1-0.4-0.2-0.5c-0.1-0.1-0.3-0.2-0.5-0.2c-0.2,0-0.4,0.1-0.5,0.2
	c-0.1,0.1-0.2,0.3-0.2,0.5v11.9c0,0.2,0.1,0.4,0.2,0.5c0.1,0.1,0.3,0.2,0.5,0.2h6.9c0.2,0,0.4-0.1,0.5-0.2c0.1-0.1,0.2-0.3,0.2-0.5
	c0-0.2-0.1-0.4-0.2-0.5C739.1,432.6,738.9,432.6,738.7,432.6z"/>
<path class="st3" d="M753.4,420.6C753.4,420.6,753.4,420.6,753.4,420.6c-0.3,0-0.5,0.1-0.6,0.3l-5,7.2l-5-7.2
	c-0.1-0.1-0.2-0.2-0.3-0.2c-0.3-0.1-0.6-0.1-0.8,0.1c-0.1,0.1-0.2,0.3-0.2,0.5v11.9c0,0.2,0.1,0.4,0.2,0.5c0.1,0.1,0.3,0.2,0.5,0.2
	c0.2,0,0.4-0.1,0.5-0.2c0.1-0.1,0.2-0.3,0.2-0.5v-9.9l4.3,6.3c0.2,0.2,0.3,0.3,0.5,0.3l0,0c0.2,0,0.4-0.1,0.6-0.3l4.3-6.3v9.8
	c0,0.2,0.1,0.4,0.2,0.5c0.1,0.1,0.3,0.2,0.5,0.2c0.2,0,0.4-0.1,0.5-0.2c0.1-0.1,0.2-0.3,0.2-0.5v-11.9c0-0.2-0.1-0.4-0.2-0.5
	C753.7,420.7,753.5,420.6,753.4,420.6z"/>
<path class="st3" d="M767.3,431.8l-4.3-5.4l4.1-3.8c0.3-0.2,0.4-0.5,0.4-0.8c0-0.3-0.1-0.6-0.3-0.8c-0.2-0.3-0.5-0.4-0.8-0.4
	c-0.4,0-0.7,0.2-1,0.5l-6,5.7v-4.8c0-0.4-0.1-0.7-0.4-0.9c-0.2-0.2-0.6-0.4-0.9-0.4c-0.4,0-0.7,0.1-1,0.4c-0.3,0.2-0.4,0.5-0.4,0.9
	v10.7c0,0.4,0.1,0.7,0.4,0.9c0.2,0.2,0.6,0.4,0.9,0.4c0.4,0,0.7-0.1,1-0.3c0.3-0.2,0.4-0.5,0.4-0.9v-2.9l1.7-1.6l4.1,5.2
	c0.1,0.2,0.3,0.3,0.4,0.4c0.2,0.1,0.4,0.1,0.5,0.1c0.4,0,0.7-0.1,1-0.4c0.3-0.2,0.4-0.6,0.4-0.9c0-0.1,0-0.3-0.1-0.4
	C767.5,432,767.4,431.9,767.3,431.8z"/>
<path class="st3" d="M775.9,421.4c-0.1-0.3-0.3-0.5-0.5-0.6c-0.2-0.1-0.5-0.2-0.7-0.2c0,0,0,0,0,0c-0.3,0-0.5,0-0.8,0.2
	c-0.2,0.1-0.4,0.4-0.5,0.6l-4.8,11.1c0,0.1-0.1,0.3-0.1,0.4c0,0.3,0.1,0.6,0.3,0.8c0.2,0.2,0.5,0.3,0.9,0.3c0.2,0,0.5-0.1,0.7-0.2
	c0.2-0.1,0.4-0.3,0.5-0.6l1-2.2h5.6l1,2.2c0.1,0.3,0.3,0.5,0.5,0.6c0.2,0.2,0.4,0.2,0.7,0.2c0.3,0,0.6-0.1,0.8-0.3
	c0.2-0.2,0.4-0.5,0.4-0.9c0-0.2,0-0.3-0.1-0.5L775.9,421.4z M776.3,428.6h-3.5l1.7-3.9L776.3,428.6z"/>
<path class="st3" d="M794.9,421c-0.3-0.2-0.6-0.4-0.9-0.4c-0.2,0-0.4,0.1-0.6,0.2c-0.2,0.1-0.3,0.2-0.5,0.4l-4.2,6.1l-4.1-6.1
	c-0.1-0.2-0.3-0.3-0.5-0.4c-0.2-0.1-0.4-0.2-0.6-0.2c-0.4,0-0.7,0.1-0.9,0.4c-0.3,0.2-0.4,0.5-0.4,0.9v10.8c0,0.4,0.1,0.7,0.3,0.9
	c0.2,0.2,0.5,0.4,0.9,0.4c0.4,0,0.7-0.1,0.9-0.4c0.2-0.2,0.3-0.5,0.3-0.9v-7.3l3,4.5c0.1,0.2,0.3,0.3,0.5,0.4
	c0.2,0.1,0.4,0.1,0.6,0.1c0.2,0,0.4,0,0.6-0.1c0.2-0.1,0.3-0.2,0.5-0.4l3-4.4v7.1c0,0.4,0.1,0.7,0.4,0.9c0.2,0.2,0.6,0.3,1,0.3
	c0.4,0,0.7-0.1,1-0.4c0.2-0.2,0.4-0.5,0.4-0.9v-10.8C795.3,421.5,795.2,421.2,794.9,421L794.9,421z"/>
<path class="st3" d="M805.8,423c0.4,0,0.7-0.1,0.9-0.3c0.2-0.2,0.4-0.5,0.4-0.8c0-0.4-0.1-0.7-0.4-0.9c-0.2-0.2-0.6-0.3-0.9-0.3
	h-6.5c-0.4,0-0.7,0.1-0.9,0.4c-0.2,0.2-0.4,0.5-0.4,0.9v10.7c0,0.4,0.1,0.7,0.4,0.9c0.2,0.2,0.6,0.4,0.9,0.4h6.5
	c0.4,0,0.7-0.1,0.9-0.3c0.3-0.2,0.4-0.5,0.4-0.9c0-0.3-0.1-0.6-0.4-0.8l0,0c-0.2-0.2-0.6-0.4-0.9-0.4h-5.1v-3.2h4.3
	c0.4,0,0.7-0.1,0.9-0.3c0.2-0.2,0.4-0.5,0.4-0.8c0-0.4-0.1-0.7-0.4-0.9c-0.2-0.2-0.6-0.3-0.9-0.3h-4.3V423H805.8z"/>
<path class="st3" d="M820.3,432.3c-0.1-0.2-0.3-0.3-0.4-0.4c-0.2-0.1-0.2-0.2-0.3-0.3c0-0.2-0.1-0.4-0.1-0.8c0-0.2,0-0.4-0.1-0.6
	c-0.1-0.9-0.5-1.6-1.2-2.2c0.5-0.3,0.9-0.8,1.2-1.3c0.4-0.6,0.5-1.2,0.5-1.9c0-0.8-0.2-1.5-0.5-2.1c-0.4-0.6-0.9-1.1-1.5-1.5
	c-0.6-0.4-1.3-0.5-2-0.5h-5.6c-0.4,0-0.7,0.1-0.9,0.4c-0.3,0.2-0.4,0.5-0.4,0.9v10.7c0,0.4,0.2,0.7,0.5,0.9c0.3,0.2,0.7,0.4,1.1,0.4
	c0.3,0,0.6-0.1,0.8-0.4c0.2-0.2,0.3-0.5,0.3-0.9v-3.5h3.5c0.5,0,0.9,0.1,1.2,0.4c0.3,0.2,0.4,0.6,0.4,1c0,1.6,0.5,2.7,1.5,3.2
	c0.3,0.1,0.6,0.2,0.9,0.2c0.4,0,0.8-0.1,1-0.4c0.2-0.2,0.3-0.4,0.3-0.7C820.4,432.7,820.4,432.5,820.3,432.3L820.3,432.3z
	 M817.1,424.8c0,0.4-0.1,0.8-0.2,1.1c-0.1,0.3-0.3,0.6-0.5,0.8c-0.2,0.2-0.4,0.3-0.6,0.3h-4.1v-4h4.1c0.2,0,0.4,0.1,0.6,0.2
	c0.2,0.2,0.4,0.4,0.5,0.7C817,424.2,817.1,424.5,817.1,424.8z"/>
<path class="st3" d="M828.5,421.4c-0.1-0.3-0.3-0.5-0.5-0.6c-0.2-0.1-0.5-0.2-0.7-0.2c0,0,0,0,0,0c-0.3,0-0.5,0-0.8,0.2
	c-0.2,0.1-0.4,0.4-0.5,0.6l-4.8,11.1c0,0.1-0.1,0.3-0.1,0.4c0,0.3,0.1,0.6,0.3,0.8c0.2,0.2,0.5,0.3,0.9,0.3c0.2,0,0.5-0.1,0.7-0.2
	c0.2-0.1,0.4-0.3,0.5-0.6l1-2.2h5.6l1,2.2c0.1,0.3,0.3,0.5,0.5,0.6c0.2,0.2,0.4,0.2,0.7,0.2c0.3,0,0.6-0.1,0.8-0.3
	c0.2-0.2,0.4-0.5,0.4-0.9c0-0.1,0-0.3-0.1-0.5L828.5,421.4z M829,428.6h-3.5l1.7-3.9L829,428.6z"/>
<path class="st3" d="M840.9,421.4c-0.1-0.3-0.3-0.5-0.5-0.6c-0.2-0.1-0.5-0.2-0.7-0.2c0,0,0,0,0,0c-0.3,0-0.5,0-0.8,0.2
	c-0.2,0.1-0.4,0.4-0.5,0.6l-4.8,11.1c0,0.1-0.1,0.3-0.1,0.4c0,0.3,0.1,0.6,0.3,0.8c0.2,0.2,0.5,0.3,0.9,0.3c0.2,0,0.5-0.1,0.7-0.2
	c0.2-0.1,0.4-0.3,0.5-0.6l1-2.2h5.6l1,2.2c0.1,0.3,0.3,0.5,0.5,0.6c0.2,0.2,0.4,0.2,0.7,0.2c0.3,0,0.6-0.1,0.8-0.3
	c0.2-0.2,0.4-0.5,0.4-0.9c0-0.1,0-0.3-0.1-0.5L840.9,421.4z M841.4,428.6h-3.5l1.7-3.9L841.4,428.6z"/>
<path class="st3" d="M858,423.9c-0.5-1-1.2-1.8-2-2.4c-0.9-0.6-2-0.9-3.2-0.9h-4.6c-0.4,0-0.7,0.1-0.9,0.4c-0.3,0.2-0.4,0.5-0.4,0.9
	v10.7c0,0.4,0.1,0.7,0.4,0.9c0.2,0.2,0.6,0.4,0.9,0.4h4.6c1.2,0,2.3-0.3,3.2-0.9c0.9-0.6,1.6-1.4,2-2.4c0.5-1,0.7-2.1,0.7-3.4
	C858.7,426.1,858.5,424.9,858,423.9z M856,427.3c0,1.2-0.3,2.3-0.8,3.1c-0.6,0.8-1.4,1.2-2.5,1.2h-3.1V423h3.1
	c1.1,0,1.9,0.4,2.5,1.2C855.7,425,856,426,856,427.3z"/>
<path class="st3" d="M828.2,404l-11.6-3.1c-2.1-0.6-3.5-2.4-3.5-4.6v-3.7c0-2.1,1.4-4,3.5-4.6l11.6-3.1c3-0.8,6,1.5,6,4.6v10
	C834.2,402.6,831.2,404.8,828.2,404z"/>
<path class="st3" d="M800.4,330.5c-11.1,0-20.3,8.1-22,18.8c-2.9-5.7-8.9-9.6-15.7-9.6c-9.7,0-17.7,7.9-17.7,17.7S753,375,762.7,375
	c8.3,0,15.3-5.8,17.2-13.6c3.4,8,11.3,13.6,20.5,13.6c12.3,0,22.2-10,22.2-22.2S812.6,330.5,800.4,330.5z M762.7,371.4
	c-7.8,0-14.1-6.3-14.1-14.1s6.3-14.1,14.1-14.1s14.1,6.3,14.1,14.1S770.5,371.4,762.7,371.4z M800.4,371.4
	c-10.3,0-18.7-8.4-18.7-18.7s8.4-18.7,18.7-18.7c10.3,0,18.7,8.4,18.7,18.7S810.7,371.4,800.4,371.4z"/>
<circle class="st3" cx="799.1" cy="355" r="3.4"/>
<circle class="st3" cx="762.7" cy="358.4" r="3.4"/>
<path class="st3" d="M822.7,333.2c-0.5,0-1.1-0.2-1.4-0.7c-4.7-6-10.6-9.3-17.7-9.7c-5.4-0.3-9.5,1.3-9.5,1.3c-0.9,0.4-2-0.1-2.3-1
	c-0.4-0.9,0.1-2,1-2.3c0.2-0.1,4.7-1.8,10.9-1.5c5.7,0.3,13.9,2.4,20.5,11.1c0.6,0.8,0.5,1.9-0.3,2.5
	C823.5,333.1,823.1,333.2,822.7,333.2z"/>
<path class="st3" d="M798.3,410h-30.9c-5.9,0-10.6-4.7-10.6-10.6v-10c0-5.9,4.7-10.6,10.6-10.6h30.9c5.9,0,10.6,4.7,10.6,10.6v10
	C808.9,405.3,804.2,410,798.3,410z"/>
<path class="st0" d="M429,649.6H422c-0.2,0-0.4,0.1-0.5,0.2c-0.1,0.1-0.2,0.3-0.2,0.5v11.9c0,0.2,0.1,0.4,0.2,0.5
	c0.1,0.1,0.3,0.2,0.5,0.2c0.2,0,0.4-0.1,0.5-0.2c0.1-0.1,0.2-0.3,0.2-0.5v-5.5h5.5c0.2,0,0.4-0.1,0.5-0.2c0.1-0.1,0.2-0.3,0.2-0.5
	s-0.1-0.4-0.2-0.5c-0.1-0.1-0.3-0.2-0.5-0.2h-5.5V651h6.3c0.2,0,0.4-0.1,0.5-0.2c0.1-0.1,0.2-0.3,0.2-0.5c0-0.2-0.1-0.4-0.2-0.5
	C429.4,649.7,429.2,649.6,429,649.6z"/>
<path class="st0" d="M433,649.6c-0.2,0-0.4,0.1-0.5,0.2c-0.1,0.1-0.2,0.3-0.2,0.5v11.9c0,0.2,0.1,0.4,0.2,0.5
	c0.1,0.1,0.3,0.2,0.5,0.2c0.2,0,0.4-0.1,0.5-0.2c0.1-0.1,0.2-0.3,0.2-0.5v-11.9c0-0.2-0.1-0.4-0.2-0.5
	C433.4,649.7,433.2,649.6,433,649.6z"/>
<path class="st0" d="M444.7,661.6h-6.2v-11.2c0-0.2-0.1-0.4-0.2-0.5c-0.1-0.1-0.3-0.2-0.5-0.2c-0.2,0-0.4,0.1-0.5,0.2
	c-0.1,0.1-0.2,0.3-0.2,0.5v11.9c0,0.2,0.1,0.4,0.2,0.5c0.1,0.1,0.3,0.2,0.5,0.2h6.9c0.2,0,0.4-0.1,0.5-0.2c0.1-0.1,0.2-0.3,0.2-0.5
	c0-0.2-0.1-0.4-0.2-0.5C445.1,661.6,444.9,661.6,444.7,661.6z"/>
<path class="st0" d="M459.4,649.6C459.4,649.6,459.4,649.6,459.4,649.6c-0.3,0-0.5,0.1-0.6,0.3l-5,7.2l-5-7.2
	c-0.1-0.1-0.2-0.2-0.3-0.2c-0.3-0.1-0.6-0.1-0.8,0.1c-0.1,0.1-0.2,0.3-0.2,0.5v11.9c0,0.2,0.1,0.4,0.2,0.5c0.1,0.1,0.3,0.2,0.5,0.2
	c0.2,0,0.4-0.1,0.5-0.2c0.1-0.1,0.2-0.3,0.2-0.5v-9.9l4.3,6.3c0.2,0.2,0.3,0.3,0.5,0.3l0,0c0.2,0,0.4-0.1,0.6-0.3l4.3-6.3v9.8
	c0,0.2,0.1,0.4,0.2,0.5c0.1,0.1,0.3,0.2,0.5,0.2c0.2,0,0.4-0.1,0.5-0.2c0.1-0.1,0.2-0.3,0.2-0.5v-11.9c0-0.2-0.1-0.4-0.2-0.5
	C459.7,649.7,459.5,649.6,459.4,649.6z"/>
<path class="st0" d="M473.3,660.8l-4.3-5.4l4.1-3.8c0.3-0.2,0.4-0.5,0.4-0.8c0-0.3-0.1-0.6-0.3-0.8c-0.2-0.3-0.5-0.4-0.8-0.4
	c-0.4,0-0.7,0.2-1,0.5l-6,5.7v-4.8c0-0.4-0.1-0.7-0.4-0.9c-0.2-0.2-0.6-0.4-0.9-0.4c-0.4,0-0.7,0.1-1,0.4c-0.3,0.2-0.4,0.5-0.4,0.9
	v10.7c0,0.4,0.1,0.7,0.4,0.9c0.2,0.2,0.6,0.4,0.9,0.4c0.4,0,0.7-0.1,1-0.3c0.3-0.2,0.4-0.5,0.4-0.9v-2.9l1.7-1.6l4.1,5.2
	c0.1,0.2,0.3,0.3,0.4,0.4c0.2,0.1,0.4,0.1,0.5,0.1c0.4,0,0.7-0.1,1-0.4c0.3-0.2,0.4-0.6,0.4-0.9c0-0.1,0-0.3-0.1-0.4
	C473.5,661,473.4,660.9,473.3,660.8z"/>
<path class="st0" d="M481.9,650.4c-0.1-0.3-0.3-0.5-0.5-0.6c-0.2-0.1-0.5-0.2-0.7-0.2c0,0,0,0,0,0c-0.3,0-0.5,0-0.8,0.2
	c-0.2,0.1-0.4,0.4-0.5,0.6l-4.8,11.1c0,0.1-0.1,0.3-0.1,0.4c0,0.3,0.1,0.6,0.3,0.8c0.2,0.2,0.5,0.3,0.9,0.3c0.2,0,0.5-0.1,0.7-0.2
	c0.2-0.1,0.4-0.3,0.5-0.6l1-2.2h5.6l1,2.2c0.1,0.3,0.3,0.5,0.5,0.6c0.2,0.2,0.4,0.2,0.7,0.2c0.3,0,0.6-0.1,0.8-0.3
	c0.2-0.2,0.4-0.5,0.4-0.9c0-0.2,0-0.3-0.1-0.5L481.9,650.4z M482.3,657.6h-3.5l1.7-3.9L482.3,657.6z"/>
<path class="st0" d="M500.9,650c-0.3-0.2-0.6-0.4-0.9-0.4c-0.2,0-0.4,0.1-0.6,0.2c-0.2,0.1-0.3,0.2-0.5,0.4l-4.2,6.1l-4.1-6.1
	c-0.1-0.2-0.3-0.3-0.5-0.4c-0.2-0.1-0.4-0.2-0.6-0.2c-0.4,0-0.7,0.1-0.9,0.4c-0.3,0.2-0.4,0.5-0.4,0.9v10.8c0,0.4,0.1,0.7,0.3,0.9
	c0.2,0.2,0.5,0.4,0.9,0.4c0.4,0,0.7-0.1,0.9-0.4c0.2-0.2,0.3-0.5,0.3-0.9v-7.3l3,4.5c0.1,0.2,0.3,0.3,0.5,0.4
	c0.2,0.1,0.4,0.1,0.6,0.1c0.2,0,0.4,0,0.6-0.1c0.2-0.1,0.3-0.2,0.5-0.4l3-4.4v7.1c0,0.4,0.1,0.7,0.4,0.9c0.2,0.2,0.6,0.3,1,0.3
	s0.7-0.1,1-0.4c0.2-0.2,0.4-0.5,0.4-0.9v-10.8C501.3,650.5,501.2,650.2,500.9,650L500.9,650z"/>
<path class="st0" d="M511.8,652c0.4,0,0.7-0.1,0.9-0.3c0.2-0.2,0.4-0.5,0.4-0.8c0-0.4-0.1-0.7-0.4-0.9c-0.2-0.2-0.6-0.3-0.9-0.3
	h-6.5c-0.4,0-0.7,0.1-0.9,0.4c-0.2,0.2-0.4,0.5-0.4,0.9v10.7c0,0.4,0.1,0.7,0.4,0.9c0.2,0.2,0.6,0.4,0.9,0.4h6.5
	c0.4,0,0.7-0.1,0.9-0.3c0.3-0.2,0.4-0.5,0.4-0.9c0-0.3-0.1-0.6-0.4-0.8l0,0c-0.2-0.2-0.6-0.4-0.9-0.4h-5.1v-3.2h4.3
	c0.4,0,0.7-0.1,0.9-0.3c0.2-0.2,0.4-0.5,0.4-0.8c0-0.4-0.1-0.7-0.4-0.9c-0.2-0.2-0.6-0.3-0.9-0.3h-4.3V652H511.8z"/>
<path class="st0" d="M526.3,661.3c-0.1-0.2-0.3-0.3-0.4-0.4c-0.2-0.1-0.2-0.2-0.3-0.3c0-0.2-0.1-0.4-0.1-0.8c0-0.2,0-0.4-0.1-0.6
	c-0.1-0.9-0.5-1.6-1.2-2.2c0.5-0.3,0.9-0.8,1.2-1.3c0.4-0.6,0.5-1.2,0.5-1.9c0-0.8-0.2-1.5-0.5-2.1c-0.4-0.6-0.9-1.1-1.5-1.5
	c-0.6-0.4-1.3-0.5-2-0.5h-5.6c-0.4,0-0.7,0.1-0.9,0.4c-0.3,0.2-0.4,0.5-0.4,0.9v10.7c0,0.4,0.2,0.7,0.5,0.9c0.3,0.2,0.7,0.4,1.1,0.4
	c0.3,0,0.6-0.1,0.8-0.4c0.2-0.2,0.3-0.5,0.3-0.9v-3.5h3.5c0.5,0,0.9,0.1,1.2,0.4c0.3,0.2,0.4,0.6,0.4,1c0,1.6,0.5,2.7,1.5,3.2
	c0.3,0.1,0.6,0.2,0.9,0.2c0.4,0,0.8-0.1,1-0.4c0.2-0.2,0.3-0.4,0.3-0.7C526.4,661.7,526.4,661.5,526.3,661.3L526.3,661.3z
	 M523.1,653.8c0,0.4-0.1,0.8-0.2,1.1c-0.1,0.3-0.3,0.6-0.5,0.8c-0.2,0.2-0.4,0.3-0.6,0.3h-4.1v-4h4.1c0.2,0,0.4,0.1,0.6,0.2
	c0.2,0.2,0.4,0.4,0.5,0.7C523,653.2,523.1,653.5,523.1,653.8z"/>
<path class="st0" d="M534.5,650.4c-0.1-0.3-0.3-0.5-0.5-0.6c-0.2-0.1-0.5-0.2-0.7-0.2c0,0,0,0,0,0c-0.3,0-0.5,0-0.8,0.2
	c-0.2,0.1-0.4,0.4-0.5,0.6l-4.8,11.1c0,0.1-0.1,0.3-0.1,0.4c0,0.3,0.1,0.6,0.3,0.8c0.2,0.2,0.5,0.3,0.9,0.3c0.2,0,0.5-0.1,0.7-0.2
	c0.2-0.1,0.4-0.3,0.5-0.6l1-2.2h5.6l1,2.2c0.1,0.3,0.3,0.5,0.5,0.6c0.2,0.2,0.4,0.2,0.7,0.2c0.3,0,0.6-0.1,0.8-0.3
	c0.2-0.2,0.4-0.5,0.4-0.9c0-0.1,0-0.3-0.1-0.5L534.5,650.4z M535,657.6h-3.5l1.7-3.9L535,657.6z"/>
<path class="st0" d="M546.9,650.4c-0.1-0.3-0.3-0.5-0.5-0.6c-0.2-0.1-0.5-0.2-0.7-0.2c0,0,0,0,0,0c-0.3,0-0.5,0-0.8,0.2
	c-0.2,0.1-0.4,0.4-0.5,0.6l-4.8,11.1c0,0.1-0.1,0.3-0.1,0.4c0,0.3,0.1,0.6,0.3,0.8c0.2,0.2,0.5,0.3,0.9,0.3c0.2,0,0.5-0.1,0.7-0.2
	c0.2-0.1,0.4-0.3,0.5-0.6l1-2.2h5.6l1,2.2c0.1,0.3,0.3,0.5,0.5,0.6c0.2,0.2,0.4,0.2,0.7,0.2c0.3,0,0.6-0.1,0.8-0.3
	c0.2-0.2,0.4-0.5,0.4-0.9c0-0.1,0-0.3-0.1-0.5L546.9,650.4z M547.4,657.6h-3.5l1.7-3.9L547.4,657.6z"/>
<path class="st0" d="M564,652.9c-0.5-1-1.2-1.8-2-2.4c-0.9-0.6-2-0.9-3.2-0.9h-4.6c-0.4,0-0.7,0.1-0.9,0.4c-0.3,0.2-0.4,0.5-0.4,0.9
	v10.7c0,0.4,0.1,0.7,0.4,0.9c0.2,0.2,0.6,0.4,0.9,0.4h4.6c1.2,0,2.3-0.3,3.2-0.9c0.9-0.6,1.6-1.4,2-2.4c0.5-1,0.7-2.1,0.7-3.4
	S564.5,653.9,564,652.9z M562,656.3c0,1.2-0.3,2.3-0.8,3.1c-0.6,0.8-1.4,1.2-2.5,1.2h-3.1V652h3.1c1.1,0,1.9,0.4,2.5,1.2
	C561.7,654,562,655,562,656.3z"/>
<path class="st0" d="M534.2,633l-11.6-3.1c-2.1-0.6-3.5-2.4-3.5-4.6v-3.7c0-2.1,1.4-4,3.5-4.6l11.6-3.1c3-0.8,6,1.5,6,4.6v10
	C540.2,631.6,537.2,633.8,534.2,633z"/>
<path class="st0" d="M495.2,586.3c0-9.7,7.9-17.7,17.7-17.7c9.7,0,17.7,7.9,17.7,17.7s-7.9,17.7-17.7,17.7
	C503.1,604,495.2,596,495.2,586.3z M498.8,586.3c0,7.8,6.3,14.1,14.1,14.1c7.8,0,14.1-6.3,14.1-14.1s-6.3-14.1-14.1-14.1
	C505.1,572.2,498.8,578.5,498.8,586.3z"/>
<path class="st0" d="M453,581.7c0-12.3,10-22.2,22.2-22.2c12.3,0,22.2,10,22.2,22.2s-10,22.2-22.2,22.2C462.9,604,453,594,453,581.7
	z M456.6,581.7c0,10.3,8.4,18.7,18.7,18.7c10.3,0,18.7-8.4,18.7-18.7c0-10.3-8.4-18.7-18.7-18.7
	C464.9,563.1,456.6,571.5,456.6,581.7z"/>
<circle class="st0" cx="476.5" cy="584" r="3.4"/>
<circle class="st0" cx="512.9" cy="587.4" r="3.4"/>
<path class="st0" d="M452.8,562.2c0.5,0,1.1-0.2,1.4-0.7c4.7-6,10.6-9.3,17.7-9.7c5.4-0.3,9.5,1.3,9.5,1.3c0.9,0.4,2-0.1,2.3-1
	c0.4-0.9-0.1-2-1-2.3c-0.2-0.1-4.7-1.8-10.9-1.5c-5.7,0.3-13.9,2.4-20.5,11.1c-0.6,0.8-0.5,1.9,0.3,2.5
	C452.1,562.1,452.5,562.2,452.8,562.2z"/>
<path class="st1" d="M504.3,639h-30.9c-5.9,0-10.6-4.7-10.6-10.6v-10c0-5.9,4.7-10.6,10.6-10.6h30.9c5.9,0,10.6,4.7,10.6,10.6v10
	C514.9,634.3,510.2,639,504.3,639z"/>
<path class="st6" d="M731,649.6H724c-0.2,0-0.4,0.1-0.5,0.2c-0.1,0.1-0.2,0.3-0.2,0.5v11.9c0,0.2,0.1,0.4,0.2,0.5
	c0.1,0.1,0.3,0.2,0.5,0.2c0.2,0,0.4-0.1,0.5-0.2c0.1-0.1,0.2-0.3,0.2-0.5v-5.5h5.5c0.2,0,0.4-0.1,0.5-0.2c0.1-0.1,0.2-0.3,0.2-0.5
	s-0.1-0.4-0.2-0.5c-0.1-0.1-0.3-0.2-0.5-0.2h-5.5V651h6.3c0.2,0,0.4-0.1,0.5-0.2c0.1-0.1,0.2-0.3,0.2-0.5c0-0.2-0.1-0.4-0.2-0.5
	C731.4,649.7,731.2,649.6,731,649.6z"/>
<path class="st6" d="M735,649.6c-0.2,0-0.4,0.1-0.5,0.2c-0.1,0.1-0.2,0.3-0.2,0.5v11.9c0,0.2,0.1,0.4,0.2,0.5
	c0.1,0.1,0.3,0.2,0.5,0.2c0.2,0,0.4-0.1,0.5-0.2c0.1-0.1,0.2-0.3,0.2-0.5v-11.9c0-0.2-0.1-0.4-0.2-0.5
	C735.4,649.7,735.2,649.6,735,649.6z"/>
<path class="st6" d="M746.7,661.6h-6.2v-11.2c0-0.2-0.1-0.4-0.2-0.5c-0.1-0.1-0.3-0.2-0.5-0.2c-0.2,0-0.4,0.1-0.5,0.2
	c-0.1,0.1-0.2,0.3-0.2,0.5v11.9c0,0.2,0.1,0.4,0.2,0.5c0.1,0.1,0.3,0.2,0.5,0.2h6.9c0.2,0,0.4-0.1,0.5-0.2c0.1-0.1,0.2-0.3,0.2-0.5
	c0-0.2-0.1-0.4-0.2-0.5C747.1,661.6,746.9,661.6,746.7,661.6z"/>
<path class="st6" d="M761.4,649.6C761.4,649.6,761.4,649.6,761.4,649.6c-0.3,0-0.5,0.1-0.6,0.3l-5,7.2l-5-7.2
	c-0.1-0.1-0.2-0.2-0.3-0.2c-0.3-0.1-0.6-0.1-0.8,0.1c-0.1,0.1-0.2,0.3-0.2,0.5v11.9c0,0.2,0.1,0.4,0.2,0.5c0.1,0.1,0.3,0.2,0.5,0.2
	c0.2,0,0.4-0.1,0.5-0.2c0.1-0.1,0.2-0.3,0.2-0.5v-9.9l4.3,6.3c0.2,0.2,0.3,0.3,0.5,0.3l0,0c0.2,0,0.4-0.1,0.6-0.3l4.3-6.3v9.8
	c0,0.2,0.1,0.4,0.2,0.5c0.1,0.1,0.3,0.2,0.5,0.2c0.2,0,0.4-0.1,0.5-0.2c0.1-0.1,0.2-0.3,0.2-0.5v-11.9c0-0.2-0.1-0.4-0.2-0.5
	C761.7,649.7,761.5,649.6,761.4,649.6z"/>
<path class="st6" d="M775.3,660.8l-4.3-5.4l4.1-3.8c0.3-0.2,0.4-0.5,0.4-0.8c0-0.3-0.1-0.6-0.3-0.8c-0.2-0.3-0.5-0.4-0.8-0.4
	c-0.4,0-0.7,0.2-1,0.5l-6,5.7v-4.8c0-0.4-0.1-0.7-0.4-0.9c-0.2-0.2-0.6-0.4-0.9-0.4c-0.4,0-0.7,0.1-1,0.4c-0.3,0.2-0.4,0.5-0.4,0.9
	v10.7c0,0.4,0.1,0.7,0.4,0.9c0.2,0.2,0.6,0.4,0.9,0.4c0.4,0,0.7-0.1,1-0.3c0.3-0.2,0.4-0.5,0.4-0.9v-2.9l1.7-1.6l4.1,5.2
	c0.1,0.2,0.3,0.3,0.4,0.4c0.2,0.1,0.4,0.1,0.5,0.1c0.4,0,0.7-0.1,1-0.4c0.3-0.2,0.4-0.6,0.4-0.9c0-0.1,0-0.3-0.1-0.4
	C775.5,661,775.4,660.9,775.3,660.8z"/>
<path class="st6" d="M783.9,650.4c-0.1-0.3-0.3-0.5-0.5-0.6c-0.2-0.1-0.5-0.2-0.7-0.2c0,0,0,0,0,0c-0.3,0-0.5,0-0.8,0.2
	c-0.2,0.1-0.4,0.4-0.5,0.6l-4.8,11.1c0,0.1-0.1,0.3-0.1,0.4c0,0.3,0.1,0.6,0.3,0.8c0.2,0.2,0.5,0.3,0.9,0.3c0.2,0,0.5-0.1,0.7-0.2
	c0.2-0.1,0.4-0.3,0.5-0.6l1-2.2h5.6l1,2.2c0.1,0.3,0.3,0.5,0.5,0.6c0.2,0.2,0.4,0.2,0.7,0.2c0.3,0,0.6-0.1,0.8-0.3
	c0.2-0.2,0.4-0.5,0.4-0.9c0-0.2,0-0.3-0.1-0.5L783.9,650.4z M784.3,657.6h-3.5l1.7-3.9L784.3,657.6z"/>
<path class="st6" d="M802.9,650c-0.3-0.2-0.6-0.4-0.9-0.4c-0.2,0-0.4,0.1-0.6,0.2c-0.2,0.1-0.3,0.2-0.5,0.4l-4.2,6.1l-4.1-6.1
	c-0.1-0.2-0.3-0.3-0.5-0.4c-0.2-0.1-0.4-0.2-0.6-0.2c-0.4,0-0.7,0.1-0.9,0.4c-0.3,0.2-0.4,0.5-0.4,0.9v10.8c0,0.4,0.1,0.7,0.3,0.9
	c0.2,0.2,0.5,0.4,0.9,0.4c0.4,0,0.7-0.1,0.9-0.4c0.2-0.2,0.3-0.5,0.3-0.9v-7.3l3,4.5c0.1,0.2,0.3,0.3,0.5,0.4
	c0.2,0.1,0.4,0.1,0.6,0.1c0.2,0,0.4,0,0.6-0.1c0.2-0.1,0.3-0.2,0.5-0.4l3-4.4v7.1c0,0.4,0.1,0.7,0.4,0.9c0.2,0.2,0.6,0.3,1,0.3
	c0.4,0,0.7-0.1,1-0.4c0.2-0.2,0.4-0.5,0.4-0.9v-10.8C803.3,650.5,803.2,650.2,802.9,650L802.9,650z"/>
<path class="st6" d="M813.8,652c0.4,0,0.7-0.1,0.9-0.3c0.2-0.2,0.4-0.5,0.4-0.8c0-0.4-0.1-0.7-0.4-0.9c-0.2-0.2-0.6-0.3-0.9-0.3
	h-6.5c-0.4,0-0.7,0.1-0.9,0.4c-0.2,0.2-0.4,0.5-0.4,0.9v10.7c0,0.4,0.1,0.7,0.4,0.9c0.2,0.2,0.6,0.4,0.9,0.4h6.5
	c0.4,0,0.7-0.1,0.9-0.3c0.3-0.2,0.4-0.5,0.4-0.9c0-0.3-0.1-0.6-0.4-0.8l0,0c-0.2-0.2-0.6-0.4-0.9-0.4h-5.1v-3.2h4.3
	c0.4,0,0.7-0.1,0.9-0.3c0.2-0.2,0.4-0.5,0.4-0.8c0-0.4-0.1-0.7-0.4-0.9c-0.2-0.2-0.6-0.3-0.9-0.3h-4.3V652H813.8z"/>
<path class="st6" d="M828.3,661.3c-0.1-0.2-0.3-0.3-0.4-0.4c-0.2-0.1-0.2-0.2-0.3-0.3c0-0.2-0.1-0.4-0.1-0.8c0-0.2,0-0.4-0.1-0.6
	c-0.1-0.9-0.5-1.6-1.2-2.2c0.5-0.3,0.9-0.8,1.2-1.3c0.4-0.6,0.5-1.2,0.5-1.9c0-0.8-0.2-1.5-0.5-2.1c-0.4-0.6-0.9-1.1-1.5-1.5
	c-0.6-0.4-1.3-0.5-2-0.5h-5.6c-0.4,0-0.7,0.1-0.9,0.4c-0.3,0.2-0.4,0.5-0.4,0.9v10.7c0,0.4,0.2,0.7,0.5,0.9c0.3,0.2,0.7,0.4,1.1,0.4
	c0.3,0,0.6-0.1,0.8-0.4c0.2-0.2,0.3-0.5,0.3-0.9v-3.5h3.5c0.5,0,0.9,0.1,1.2,0.4c0.3,0.2,0.4,0.6,0.4,1c0,1.6,0.5,2.7,1.5,3.2
	c0.3,0.1,0.6,0.2,0.9,0.2c0.4,0,0.8-0.1,1-0.4c0.2-0.2,0.3-0.4,0.3-0.7C828.4,661.7,828.4,661.5,828.3,661.3L828.3,661.3z
	 M825.1,653.8c0,0.4-0.1,0.8-0.2,1.1c-0.1,0.3-0.3,0.6-0.5,0.8c-0.2,0.2-0.4,0.3-0.6,0.3h-4.1v-4h4.1c0.2,0,0.4,0.1,0.6,0.2
	c0.2,0.2,0.4,0.4,0.5,0.7C825,653.2,825.1,653.5,825.1,653.8z"/>
<path class="st6" d="M836.5,650.4c-0.1-0.3-0.3-0.5-0.5-0.6c-0.2-0.1-0.5-0.2-0.7-0.2c0,0,0,0,0,0c-0.3,0-0.5,0-0.8,0.2
	c-0.2,0.1-0.4,0.4-0.5,0.6l-4.8,11.1c0,0.1-0.1,0.3-0.1,0.4c0,0.3,0.1,0.6,0.3,0.8c0.2,0.2,0.5,0.3,0.9,0.3c0.2,0,0.5-0.1,0.7-0.2
	c0.2-0.1,0.4-0.3,0.5-0.6l1-2.2h5.6l1,2.2c0.1,0.3,0.3,0.5,0.5,0.6c0.2,0.2,0.4,0.2,0.7,0.2c0.3,0,0.6-0.1,0.8-0.3
	c0.2-0.2,0.4-0.5,0.4-0.9c0-0.1,0-0.3-0.1-0.5L836.5,650.4z M837,657.6h-3.5l1.7-3.9L837,657.6z"/>
<path class="st6" d="M848.9,650.4c-0.1-0.3-0.3-0.5-0.5-0.6c-0.2-0.1-0.5-0.2-0.7-0.2c0,0,0,0,0,0c-0.3,0-0.5,0-0.8,0.2
	c-0.2,0.1-0.4,0.4-0.5,0.6l-4.8,11.1c0,0.1-0.1,0.3-0.1,0.4c0,0.3,0.1,0.6,0.3,0.8c0.2,0.2,0.5,0.3,0.9,0.3c0.2,0,0.5-0.1,0.7-0.2
	c0.2-0.1,0.4-0.3,0.5-0.6l1-2.2h5.6l1,2.2c0.1,0.3,0.3,0.5,0.5,0.6c0.2,0.2,0.4,0.2,0.7,0.2c0.3,0,0.6-0.1,0.8-0.3
	c0.2-0.2,0.4-0.5,0.4-0.9c0-0.1,0-0.3-0.1-0.5L848.9,650.4z M849.4,657.6h-3.5l1.7-3.9L849.4,657.6z"/>
<path class="st6" d="M866,652.9c-0.5-1-1.2-1.8-2-2.4c-0.9-0.6-2-0.9-3.2-0.9h-4.6c-0.4,0-0.7,0.1-0.9,0.4c-0.3,0.2-0.4,0.5-0.4,0.9
	v10.7c0,0.4,0.1,0.7,0.4,0.9c0.2,0.2,0.6,0.4,0.9,0.4h4.6c1.2,0,2.3-0.3,3.2-0.9c0.9-0.6,1.6-1.4,2-2.4c0.5-1,0.7-2.1,0.7-3.4
	S866.5,653.9,866,652.9z M864,656.3c0,1.2-0.3,2.3-0.8,3.1c-0.6,0.8-1.4,1.2-2.5,1.2h-3.1V652h3.1c1.1,0,1.9,0.4,2.5,1.2
	C863.7,654,864,655,864,656.3z"/>
<path class="st0" d="M836.2,633l-11.6-3.1c-2.1-0.6-3.5-2.4-3.5-4.6v-3.7c0-2.1,1.4-4,3.5-4.6l11.6-3.1c3-0.8,6,1.5,6,4.6v10
	C842.2,631.6,839.2,633.8,836.2,633z"/>
<path class="st0" d="M770.7,604c-9.7,0-17.7-7.9-17.7-17.7s7.9-17.7,17.7-17.7s17.7,7.9,17.7,17.7S780.4,604,770.7,604z
	 M770.7,572.2c-7.8,0-14.1,6.3-14.1,14.1s6.3,14.1,14.1,14.1s14.1-6.3,14.1-14.1S778.5,572.2,770.7,572.2z"/>
<path class="st0" d="M808.4,604c-12.3,0-22.2-10-22.2-22.2s10-22.2,22.2-22.2c12.3,0,22.2,10,22.2,22.2S820.6,604,808.4,604z
	 M808.4,563.1c-10.3,0-18.7,8.4-18.7,18.7c0,10.3,8.4,18.7,18.7,18.7c10.3,0,18.7-8.4,18.7-18.7C827,571.5,818.7,563.1,808.4,563.1z
	"/>
<circle class="st0" cx="807.1" cy="584" r="3.4"/>
<circle class="st0" cx="770.7" cy="587.4" r="3.4"/>
<path class="st0" d="M830.7,562.2c-0.5,0-1.1-0.2-1.4-0.7c-4.7-6-10.6-9.3-17.7-9.7c-5.4-0.3-9.5,1.3-9.5,1.3c-0.9,0.4-2-0.1-2.3-1
	c-0.4-0.9,0.1-2,1-2.3c0.2-0.1,4.7-1.8,10.9-1.5c5.7,0.3,13.9,2.4,20.5,11.1c0.6,0.8,0.5,1.9-0.3,2.5
	C831.5,562.1,831.1,562.2,830.7,562.2z"/>
<path class="st1" d="M806.3,639h-30.9c-5.9,0-10.6-4.7-10.6-10.6v-10c0-5.9,4.7-10.6,10.6-10.6h30.9c5.9,0,10.6,4.7,10.6,10.6v10
	C816.9,634.3,812.2,639,806.3,639z"/>
<line class="st7" x1="123.5" y1="75.5" x2="269" y2="221"/>
<line class="st7" x1="123.5" y1="303.5" x2="269" y2="449"/>
<line class="st7" x1="131.5" y1="527.5" x2="277" y2="673"/>
<line class="st7" x1="400.5" y1="77.5" x2="546" y2="223"/>
<line class="st7" x1="712.5" y1="75.5" x2="858" y2="221"/>
<line class="st7" x1="712.5" y1="295.5" x2="858" y2="441"/>
<line class="st7" x1="411.5" y1="295.5" x2="557" y2="441"/>
<line class="st7" x1="419.5" y1="531.5" x2="565" y2="677"/>
<line class="st7" x1="712.5" y1="531.5" x2="858" y2="677"/>
<text transform="matrix(1 0 0 1 323.8516 255.4961)" class="st8 st9">1</text>
<text transform="matrix(1 0 0 1 606.8516 255.4961)" class="st8 st9">2</text>
<text transform="matrix(1 0 0 1 893.8516 255.4961)" class="st8 st9">3</text>
<text transform="matrix(1 0 0 1 895.8516 479.4961)" class="st8 st9">6</text>
<text transform="matrix(1 0 0 1 608.8516 473.4961)" class="st8 st9">5</text>
<text transform="matrix(1 0 0 1 321.8516 473.4961)" class="st8 st9">4</text>
<text transform="matrix(1 0 0 1 320.8516 691.4961)" class="st8 st9">7</text>
<text transform="matrix(1 0 0 1 606.8516 697.4961)" class="st8 st9">8</text>
<text transform="matrix(1 0 0 1 894.8516 691.4961)" class="st8 st9">9</text>
</svg>
