<?xml version="1.0" encoding="utf-8"?>
<!-- Generator: Adobe Illustrator 22.0.1, SVG Export Plug-In . SVG Version: 6.00 Build 0)  -->
<svg version="1.1" id="Laag_1" xmlns="http://www.w3.org/2000/svg" xmlns:xlink="http://www.w3.org/1999/xlink" x="0px" y="0px"
	 viewBox="0 0 1280 300" style="enable-background:new 0 0 1280 300;" xml:space="preserve">
<style type="text/css">
	.st0{clip-path:url(#SVGID_2_);fill:#E51A2F;}
</style>
<g>
	<defs>
		<rect id="SVGID_1_" width="1280" height="300"/>
	</defs>
	<clipPath id="SVGID_2_">
		<use xlink:href="#SVGID_1_"  style="overflow:visible;"/>
	</clipPath>
	<path class="st0" d="M980.9,368.4c-52.9,0-96-43.1-96-96s43.1-96,96-96c52.9,0,96,43.1,96,96S1033.8,368.4,980.9,368.4z
		 M980.9,195.8c-42.2,0-76.6,34.4-76.6,76.6s34.4,76.6,76.6,76.6c42.2,0,76.6-34.4,76.6-76.6S1023.1,195.8,980.9,195.8z"/>
	<path class="st0" d="M1185.7,368.4c-66.6,0-120.8-54.2-120.8-120.8s54.2-120.8,120.8-120.8c66.6,0,120.8,54.2,120.8,120.8
		S1252.3,368.4,1185.7,368.4z M1185.7,146.1c-55.9,0-101.4,45.5-101.4,101.4S1129.7,349,1185.7,349c55.9,0,101.4-45.5,101.4-101.4
		S1241.6,146.1,1185.7,146.1z"/>
	<circle class="st0" cx="1178.8" cy="259.8" r="18.7"/>
	<circle class="st0" cx="980.9" cy="278.4" r="18.7"/>
	<path class="st0" d="M1307.3,141.4c-2.9,0-5.8-1.3-7.7-3.8c-25.3-32.9-57.7-50.6-96.4-52.7c-29.3-1.5-51.5,6.9-51.8,7
		c-5,1.9-10.6-0.5-12.6-5.5c-1.9-5,0.5-10.6,5.5-12.6c1-0.4,25.7-9.9,59-8.4c30.9,1.5,75.3,13.1,111.6,60.3
		c3.3,4.3,2.5,10.3-1.8,13.6C1311.4,140.7,1309.4,141.4,1307.3,141.4z"/>
</g>
</svg>
