<?xml version="1.0" encoding="utf-8"?>
<!-- Generator: Adobe Illustrator 22.0.1, SVG Export Plug-In . SVG Version: 6.00 Build 0)  -->
<svg version="1.1" id="Laag_1" xmlns="http://www.w3.org/2000/svg" xmlns:xlink="http://www.w3.org/1999/xlink" x="0px" y="0px"
	 viewBox="0 0 841.9 595.3" style="enable-background:new 0 0 841.9 595.3;" xml:space="preserve">
<style type="text/css">
	.st0{fill:#E52330;}
</style>
<path class="st0" d="M540.8,366.5l-35.5-9.6c-6.3-1.7-10.7-7.5-10.7-14v-11.3c0-6.6,4.4-12.3,10.7-14l35.5-9.6
	c9.3-2.5,18.4,4.5,18.4,14v30.6C559.2,362,550,369,540.8,366.5z"/>
<path class="st0" d="M339.9,277.4c-29.9,0-54.2-24.3-54.2-54.2s24.3-54.2,54.2-54.2c29.9,0,54.2,24.3,54.2,54.2
	S369.8,277.4,339.9,277.4z M339.9,180.1c-23.8,0-43.2,19.4-43.2,43.2s19.4,43.2,43.2,43.2c23.8,0,43.2-19.4,43.2-43.2
	S363.8,180.1,339.9,180.1z"/>
<path class="st0" d="M455.4,277.4c-37.6,0-68.1-30.6-68.1-68.2s30.6-68.1,68.1-68.1c37.6,0,68.1,30.6,68.1,68.1
	S493,277.4,455.4,277.4z M455.4,152.1c-31.5,0-57.2,25.7-57.2,57.2s25.7,57.2,57.2,57.2c31.5,0,57.2-25.7,57.2-57.2
	S487,152.1,455.4,152.1z"/>
<circle class="st0" cx="451.6" cy="216.2" r="10.5"/>
<circle class="st0" cx="339.9" cy="226.7" r="10.5"/>
<path class="st0" d="M524,149.4c-1.6,0-3.3-0.7-4.3-2.1c-14.3-18.6-32.5-28.5-54.3-29.7c-16.5-0.9-29.1,3.9-29.2,4
	c-2.8,1.1-6-0.3-7.1-3.1c-1.1-2.8,0.3-6,3.1-7.1c0.6-0.2,14.5-5.6,33.3-4.7c17.4,0.8,42.5,7.4,62.9,34c1.8,2.4,1.4,5.8-1,7.7
	C526.4,149,525.2,149.4,524,149.4z"/>
<path class="st0" d="M449.1,385h-94.8c-18,0-32.5-14.6-32.5-32.5v-30.7c0-18,14.6-32.5,32.5-32.5h94.8c18,0,32.5,14.6,32.5,32.5
	v30.7C481.6,370.4,467,385,449.1,385z"/>
<path class="st0" d="M218.3,417.5h-21.6c-0.6,0-1.1,0.2-1.5,0.6c-0.4,0.4-0.6,0.9-0.6,1.5v36.5c0,0.6,0.2,1.1,0.6,1.5
	c0.4,0.4,0.9,0.6,1.6,0.6c0.6,0,1.1-0.2,1.5-0.6c0.4-0.4,0.6-0.9,0.6-1.5v-16.8h16.7c0.6,0,1.1-0.2,1.5-0.6c0.4-0.4,0.6-0.9,0.6-1.5
	s-0.2-1.1-0.6-1.5c-0.4-0.4-0.9-0.6-1.5-0.6h-16.7v-13.6h19.4c0.6,0,1.1-0.2,1.5-0.6c0.4-0.4,0.6-0.9,0.6-1.4c0-0.6-0.2-1.1-0.6-1.5
	C219.4,417.7,218.9,417.5,218.3,417.5z"/>
<path class="st0" d="M230.4,417.5c-0.6,0-1.2,0.2-1.6,0.6c-0.4,0.4-0.7,0.9-0.7,1.6V456c0,0.6,0.2,1.2,0.6,1.6
	c0.4,0.4,0.9,0.6,1.6,0.6c0.6,0,1.1-0.2,1.6-0.6c0.4-0.4,0.7-0.9,0.7-1.5v-36.4c0-0.6-0.2-1.1-0.6-1.5
	C231.5,417.7,231,417.5,230.4,417.5z"/>
<path class="st0" d="M266.4,454.1h-18.9v-34.5c0-0.6-0.2-1.1-0.7-1.5c-0.4-0.4-1-0.6-1.6-0.6c-0.6,0-1.2,0.2-1.6,0.6
	c-0.4,0.4-0.7,0.9-0.7,1.5v36.5c0,0.6,0.2,1.1,0.6,1.5c0.4,0.4,0.9,0.6,1.5,0.6h21.2c0.6,0,1.1-0.2,1.5-0.6c0.4-0.4,0.6-0.9,0.6-1.5
	c0-0.6-0.2-1.1-0.6-1.5C267.5,454.3,267,454.1,266.4,454.1z"/>
<path class="st0" d="M311.3,417.5C311.3,417.5,311.3,417.5,311.3,417.5c-0.8-0.1-1.4,0.2-2,0.9l-15.4,22l-15.3-22
	c-0.2-0.3-0.5-0.5-0.9-0.7c-1.1-0.4-2-0.2-2.6,0.4c-0.4,0.4-0.6,0.9-0.6,1.5v36.5c0,0.6,0.2,1.1,0.6,1.5c0.4,0.4,0.9,0.6,1.5,0.6
	c0.6,0,1.1-0.2,1.5-0.6c0.4-0.4,0.6-0.9,0.6-1.5v-30.3l13.3,19.5c0.5,0.5,1,0.8,1.6,0.8l0.1,0c0.6,0.1,1.2-0.2,1.7-0.8l13.3-19.3
	v30.2c0,0.6,0.2,1.1,0.7,1.5c0.4,0.4,1,0.6,1.6,0.6c0.6,0,1.1-0.2,1.6-0.6c0.4-0.4,0.7-0.9,0.7-1.5v-36.5c0-0.6-0.2-1.1-0.6-1.5
	C312.3,417.7,311.8,417.5,311.3,417.5z"/>
<path class="st0" d="M355.1,451.7l-13-16.6l12.7-11.6c0.8-0.8,1.2-1.6,1.2-2.5c0-0.9-0.4-1.7-1-2.5c-0.7-0.8-1.6-1.2-2.6-1.2
	c-1.1,0-2.2,0.5-3.2,1.4L330.8,436v-14.6c0-1.1-0.4-2.1-1.1-2.8c-0.7-0.7-1.7-1.1-2.9-1.1c-1.2,0-2.2,0.4-3,1.1
	c-0.8,0.7-1.2,1.7-1.2,2.8v33c0,1.1,0.4,2,1.2,2.8c0.8,0.7,1.7,1.1,2.9,1.1c1.2,0,2.2-0.4,3-1.1c0.8-0.7,1.2-1.7,1.2-2.8v-8.8
	l5.2-4.8l12.6,16c0.4,0.5,0.8,0.8,1.3,1.1c0.5,0.3,1.1,0.4,1.6,0.4c1.2,0,2.2-0.4,3.1-1.1c0.9-0.8,1.4-1.7,1.4-2.9
	c0-0.4-0.1-0.9-0.3-1.4C355.6,452.4,355.4,452,355.1,451.7z"/>
<path class="st0" d="M380.3,419.8c-0.3-0.8-0.8-1.4-1.5-1.9c-0.7-0.4-1.4-0.7-2.2-0.7c0,0,0,0,0,0c-0.9-0.1-1.7,0.1-2.4,0.6
	c-0.7,0.5-1.2,1.1-1.6,1.9l-14.8,34.1c-0.1,0.4-0.2,0.8-0.2,1.2c0,1,0.3,1.8,0.9,2.4c0.6,0.6,1.5,0.9,2.6,0.9c0.7,0,1.5-0.2,2.1-0.7
	c0.6-0.4,1.1-1.1,1.4-1.8l3-6.7h17.2l3,6.7c0.3,0.8,0.8,1.4,1.5,1.9c0.6,0.5,1.4,0.7,2.2,0.7c1,0,1.8-0.4,2.6-1
	c0.8-0.7,1.1-1.6,1.1-2.7c0-0.5-0.1-1-0.3-1.5L380.3,419.8z M381.7,441.9h-10.7l5.3-12L381.7,441.9z"/>
<path class="st0" d="M438.8,418.6c-0.8-0.7-1.8-1.1-2.8-1.1c-0.6,0-1.2,0.2-1.8,0.5c-0.6,0.3-1.1,0.7-1.4,1.2l-13,18.7l-12.7-18.7
	c-0.4-0.5-0.9-0.9-1.5-1.2c-0.6-0.3-1.3-0.5-1.9-0.5c-1.1,0-2.1,0.4-2.9,1.1c-0.8,0.8-1.2,1.7-1.2,2.7v33c0,1.1,0.4,2,1.1,2.7
	c0.7,0.7,1.6,1.1,2.7,1.1c1.1,0,2.1-0.4,2.8-1.1c0.7-0.7,1.1-1.6,1.1-2.8v-22.2l9.1,13.9c0.4,0.5,0.9,0.9,1.5,1.2
	c0.6,0.3,1.2,0.5,1.7,0.4c0.6,0,1.2-0.1,1.8-0.4c0.6-0.3,1-0.7,1.5-1.2l9.1-13.4v21.8c0,1.1,0.4,2.1,1.2,2.8c0.8,0.7,1.8,1.1,3,1.1
	s2.2-0.4,2.9-1.1c0.7-0.7,1.1-1.7,1.1-2.7v-33C440,420.2,439.6,419.3,438.8,418.6L438.8,418.6z"/>
<path class="st0" d="M472.1,424.8c1.2,0,2.1-0.3,2.9-1c0.8-0.7,1.1-1.5,1.1-2.6c0-1.1-0.4-2-1.2-2.7c-0.8-0.7-1.7-1-2.8-1h-19.9
	c-1.1,0-2.1,0.4-2.8,1.1c-0.8,0.7-1.2,1.7-1.2,2.8v33c0,1.1,0.4,2,1.2,2.8c0.8,0.7,1.7,1.1,2.8,1.1h19.9c1.1,0,2.1-0.3,2.8-1
	c0.8-0.7,1.2-1.6,1.2-2.6c0-1-0.4-1.8-1.2-2.6l0,0c-0.8-0.7-1.7-1.1-2.8-1.1h-15.7v-9.8h13.1c1.2,0,2.1-0.3,2.9-1
	c0.8-0.7,1.1-1.5,1.1-2.6c0-1.1-0.4-2-1.2-2.7c-0.8-0.7-1.7-1-2.8-1h-13.1v-8.9H472.1z"/>
<path class="st0" d="M516.8,453.2c-0.3-0.5-0.8-1-1.4-1.3c-0.5-0.2-0.7-0.5-0.9-0.9c-0.2-0.5-0.3-1.3-0.5-2.4c0-0.6-0.1-1.2-0.2-1.8
	c-0.2-2.7-1.5-5-3.8-6.7c1.5-1.1,2.8-2.4,3.8-4.1c1.1-1.9,1.7-3.8,1.7-5.8c0-2.4-0.6-4.6-1.7-6.5c-1.1-1.9-2.6-3.4-4.5-4.5
	c-1.9-1.1-3.9-1.6-6-1.6h-17.1c-1.1,0-2.1,0.4-2.8,1.1c-0.8,0.7-1.2,1.7-1.2,2.8v33c0,1.1,0.5,2,1.4,2.8c0.9,0.7,2,1.1,3.2,1.1
	c1.1,0,1.9-0.4,2.6-1.1c0.6-0.7,1-1.6,1-2.8v-10.7h10.7c1.6,0,2.9,0.4,3.8,1.1c0.9,0.7,1.3,1.7,1.3,3c0,4.9,1.5,8.2,4.5,9.9
	c0.8,0.4,1.8,0.7,2.8,0.7c1.3,0,2.3-0.4,3-1.2c0.5-0.6,0.8-1.3,0.8-2.1C517.3,454.4,517.1,453.8,516.8,453.2L516.8,453.2z
	 M507.1,430.3c0,1.2-0.2,2.3-0.6,3.4c-0.4,1-0.9,1.9-1.6,2.5c-0.6,0.6-1.2,0.9-1.8,0.9h-12.6v-12.2H503c0.6,0,1.2,0.2,1.8,0.7
	c0.6,0.5,1.1,1.2,1.6,2C506.8,428.4,507.1,429.3,507.1,430.3z"/>
<path class="st0" d="M541.8,419.8c-0.3-0.8-0.8-1.4-1.5-1.9c-0.7-0.4-1.4-0.7-2.2-0.7c0,0,0,0,0,0c-0.9-0.1-1.7,0.1-2.4,0.6
	c-0.7,0.5-1.2,1.1-1.6,1.9l-14.8,34.1c-0.1,0.4-0.2,0.8-0.2,1.2c0,1,0.3,1.8,0.9,2.4c0.6,0.6,1.5,0.9,2.6,0.9c0.7,0,1.5-0.2,2.1-0.7
	c0.6-0.4,1.1-1.1,1.4-1.8l3-6.7h17.2l3,6.7c0.3,0.8,0.8,1.4,1.5,1.9c0.6,0.5,1.4,0.7,2.2,0.7c1,0,1.8-0.4,2.6-1
	c0.7-0.7,1.1-1.6,1.1-2.7c0-0.5-0.1-1-0.3-1.5L541.8,419.8z M543.2,441.9h-10.7l5.3-12L543.2,441.9z"/>
<path class="st0" d="M579.8,419.8c-0.3-0.8-0.8-1.4-1.5-1.9c-0.7-0.4-1.4-0.7-2.2-0.7c0,0,0,0,0,0c-0.9-0.1-1.7,0.1-2.4,0.6
	c-0.7,0.5-1.2,1.1-1.6,1.9l-14.8,34.1c-0.1,0.4-0.2,0.8-0.2,1.2c0,1,0.3,1.8,0.9,2.4c0.6,0.6,1.5,0.9,2.6,0.9c0.7,0,1.5-0.2,2.1-0.7
	c0.6-0.4,1.1-1.1,1.4-1.8l3-6.7h17.2l3,6.7c0.3,0.8,0.8,1.4,1.5,1.9c0.6,0.5,1.4,0.7,2.2,0.7c1,0,1.8-0.4,2.6-1
	c0.8-0.7,1.1-1.6,1.1-2.7c0-0.5-0.1-1-0.3-1.5L579.8,419.8z M581.1,441.9h-10.7l5.3-12L581.1,441.9z"/>
<path class="st0" d="M632.3,427.6c-1.4-3.1-3.5-5.5-6.3-7.3c-2.7-1.8-6-2.7-9.8-2.7H602c-1.1,0-2.1,0.4-2.8,1.1
	c-0.8,0.7-1.2,1.7-1.2,2.8v33c0,1.1,0.4,2,1.2,2.8c0.8,0.7,1.7,1.1,2.8,1.1h14.2c3.8,0,7.1-0.9,9.8-2.7c2.7-1.8,4.8-4.3,6.3-7.3
	c1.4-3.1,2.1-6.5,2.1-10.3S633.7,430.6,632.3,427.6z M625.9,437.9c0,3.8-0.9,6.9-2.6,9.4c-1.7,2.4-4.3,3.6-7.7,3.6h-9.4v-26.1h9.4
	c3.4,0,6,1.2,7.7,3.6C625.1,430.9,625.9,434.1,625.9,437.9z"/>
</svg>
