<?xml version="1.0" standalone="no"?>
<!DOCTYPE svg PUBLIC "-//W3C//DTD SVG 20010904//EN"
 "http://www.w3.org/TR/2001/REC-SVG-20010904/DTD/svg10.dtd">
<svg version="1.0" xmlns="http://www.w3.org/2000/svg"
 width="700.000000pt" height="700.000000pt" viewBox="0 0 700.000000 700.000000"
 preserveAspectRatio="xMidYMid meet">
<metadata>
Created by potrace 1.11, written by Peter Selinger 2001-2013
</metadata>
<g transform="translate(0.000000,700.000000) scale(0.100000,-0.100000)"
fill="#000000" stroke="none">
<path d="M4268 6885 c-2 -2 -32 -6 -67 -10 -224 -23 -460 -86 -511 -137 -96
-96 4 -256 135 -216 56 17 260 66 300 72 22 4 56 9 75 12 61 10 402 12 468 3
475 -67 832 -267 1146 -643 95 -113 127 -134 191 -122 64 12 117 77 110 136
-2 14 -4 30 -4 37 -2 21 -120 162 -224 267 -199 201 -407 342 -678 460 -113
49 -336 106 -514 131 -50 7 -421 16 -427 10z"/>
<path d="M4138 6035 c-2 -2 -25 -6 -53 -9 -535 -71 -1008 -404 -1259 -886 -76
-146 -140 -331 -159 -458 -3 -19 -7 -36 -9 -38 -3 -2 -15 15 -27 39 -62 116
-206 285 -324 380 -166 134 -406 244 -592 272 -22 3 -54 8 -71 11 -54 10 -240
11 -306 2 -142 -18 -169 -24 -273 -59 -195 -65 -354 -161 -509 -308 -59 -57
-164 -187 -204 -251 -70 -115 -155 -327 -168 -420 -3 -19 -7 -42 -10 -50 -9
-25 -18 -151 -18 -240 1 -351 139 -677 395 -930 249 -246 579 -381 929 -380
100 0 120 2 208 15 510 76 945 476 1076 990 2 6 21 -26 43 -70 196 -394 522
-688 926 -836 355 -130 794 -131 1137 -2 244 91 443 221 625 407 310 318 474
721 472 1165 0 79 -3 162 -8 185 -4 22 -10 64 -13 91 -14 110 -75 299 -140
440 -30 64 -130 232 -145 245 -3 3 -26 32 -50 65 -97 130 -284 296 -441 392
-152 93 -362 176 -525 207 -44 9 -93 18 -110 22 -31 6 -391 15 -397 9z m372
-279 c19 -3 46 -8 60 -10 480 -80 920 -475 1069 -961 17 -55 33 -116 36 -135
3 -19 7 -46 10 -60 14 -79 19 -236 11 -340 -7 -84 -15 -124 -50 -270 -28 -112
-139 -333 -224 -444 -96 -127 -242 -261 -378 -348 -57 -37 -191 -103 -239
-118 -22 -7 -44 -15 -50 -19 -5 -3 -14 -6 -20 -8 -5 -1 -44 -11 -85 -22 -372
-98 -779 -31 -1106 180 -392 255 -634 694 -636 1156 -1 148 8 227 42 359 98
387 353 710 706 895 177 93 341 140 539 155 44 4 81 7 82 8 4 3 202 -12 233
-18z m-2860 -681 c402 -74 728 -362 838 -740 43 -149 57 -307 38 -440 -54
-379 -299 -696 -650 -840 -204 -83 -411 -99 -649 -50 -53 11 -190 65 -254 100
-283 155 -483 438 -539 760 -14 85 -11 266 7 358 44 226 134 396 298 557 161
159 345 255 566 294 70 13 280 13 345 1z"/>
<path d="M4153 4455 c-198 -45 -267 -289 -122 -433 140 -138 379 -67 427 128
44 178 -124 346 -305 305z"/>
<path d="M1419 4197 c-27 -5 -65 -24 -94 -45 -121 -93 -136 -260 -35 -375 137
-155 401 -82 438 121 34 187 -120 337 -309 299z"/>
<path d="M1749 2416 c-2 -2 -26 -7 -54 -11 -280 -37 -547 -273 -630 -557 -28
-97 -30 -133 -30 -613 0 -427 2 -477 19 -545 78 -313 311 -535 631 -601 85
-18 2484 -20 2588 -2 327 55 576 289 652 613 15 65 18 134 19 525 2 473 -2
531 -44 655 -77 229 -265 418 -495 496 -129 43 -129 43 -1421 43 -677 1 -1233
-1 -1235 -3z"/>
<path d="M6405 1967 c-131 -31 -888 -241 -930 -257 -52 -21 -129 -85 -159
-133 -48 -77 -56 -128 -53 -346 2 -204 2 -207 31 -268 45 -97 155 -186 256
-207 14 -3 84 -21 155 -41 72 -20 171 -47 220 -60 50 -13 182 -49 295 -80 216
-59 292 -69 368 -44 114 36 204 128 237 242 14 49 16 115 16 478 0 369 -2 427
-17 472 -34 102 -104 180 -200 223 -60 27 -157 36 -219 21z"/>
</g>
</svg>
