<?xml version="1.0" encoding="utf-8"?>
<!-- Generator: Adobe Illustrator 22.0.1, SVG Export Plug-In . SVG Version: 6.00 Build 0)  -->
<svg version="1.1" xmlns="http://www.w3.org/2000/svg" xmlns:xlink="http://www.w3.org/1999/xlink" x="0px" y="0px"
	 viewBox="0 0 298.6 172.4" style="enable-background:new 0 0 298.6 172.4;" xml:space="preserve">
<style type="text/css">
	.st0{fill:#FFFFFF;}
</style>
<g id="Logo">
	<polygon class="st0" points="171.6,101.7 195.1,101.7 195.1,78.2 171.7,78.2 	"/>
	<rect x="171.6" y="31.3" class="st0" width="23.5" height="23.5"/>
	<path class="st0" d="M112.6,30.7c-19.6,0-35.5,15.9-35.5,35.5c0,19.6,15.9,35.5,35.5,35.5h35.5V66.2
		C148.1,46.6,132.2,30.7,112.6,30.7z M124.5,78h-11.8c0,0,0,0,0,0c-6.5,0-11.8-5.3-11.8-11.8c0-6.5,5.3-11.8,11.8-11.8
		c6.5,0,11.8,5.3,11.8,11.8V78z"/>
	<g>
		<path class="st0" d="M30.6,140.1h-3c-0.3,0-0.5-0.2-0.5-0.5v-0.4c-1,0.7-2.1,1.2-3.7,1.2c-2.3,0-4.6-1.1-4.6-4.6v-0.2
			c0-3.1,2-4.5,6.6-4.5h1.4v-1c0-1.5-0.7-1.8-2-1.8c-1.7,0-3.6,0.1-4.4,0.2h-0.1c-0.3,0-0.5-0.1-0.5-0.5v-2.2c0-0.3,0.2-0.5,0.5-0.6
			c1-0.2,2.9-0.6,4.6-0.6c3.8,0,6.3,1.6,6.3,5.5v9.5C31.2,139.9,30.9,140.1,30.6,140.1z M26.9,133.6h-1.5c-1.9,0-2.4,0.6-2.4,2v0.2
			c0,1.1,0.6,1.3,1.7,1.3c0.8,0,1.6-0.3,2.2-0.6V133.6z"/>
		<path class="st0" d="M42.9,128.2h-0.2c-1.3,0-2.5,0.4-3.4,0.9v10.5c0,0.3-0.2,0.6-0.5,0.6h-3.2c-0.3,0-0.6-0.3-0.6-0.6v-14.2
			c0-0.3,0.2-0.5,0.5-0.5h3.2c0.3,0,0.5,0.2,0.5,0.5v0.5c1-0.8,2.3-1.3,3.6-1.3c0.3,0,0.5,0.2,0.5,0.5v2.5
			C43.3,127.9,43.1,128.2,42.9,128.2z"/>
		<path class="st0" d="M54.7,140.2c-0.8,0.1-1.3,0.2-2.1,0.2c-2.9,0-4.5-0.8-4.5-4.6V128l-2.1-0.3c-0.3-0.1-0.6-0.3-0.6-0.6v-1.8
			c0-0.3,0.3-0.6,0.6-0.6h2.1v-2.2c0-0.3,0.2-0.5,0.5-0.5l3.3-0.6c0,0,0.1,0,0.1,0c0.3,0,0.5,0.2,0.5,0.5v2.8h2.2
			c0.3,0,0.5,0.2,0.5,0.5v2.2c0,0.3-0.2,0.5-0.5,0.5h-2.2v7.8c0,1.1,0.1,1.3,0.9,1.3h1.3c0.3,0,0.6,0.2,0.6,0.5v2.1
			C55.2,139.9,55.1,140.1,54.7,140.2z"/>
		<path class="st0" d="M70.6,133.8h-8.5v0.1c0,1.5,0.6,2.9,2.8,2.9c1.7,0,4.1-0.1,5.1-0.2c0,0,0.1,0,0.1,0c0.3,0,0.5,0.1,0.5,0.4v2
			c0,0.4-0.1,0.6-0.6,0.7c-1.7,0.4-3.2,0.6-5.5,0.6c-3.2,0-6.7-1.7-6.7-6.9v-1.9c0-4.3,2.5-7,6.8-7c4.4,0,6.6,3,6.6,7v1.6
			C71.2,133.6,71,133.8,70.6,133.8z M66.9,131c0-2-0.9-3-2.4-3c-1.5,0-2.5,1-2.5,3v0.1h4.9V131z"/>
		<path class="st0" d="M87.5,125.4l-3.4,12.1c-0.7,2.4-2.3,2.8-3.9,2.8c-1.6,0-3.2-0.4-3.8-2.8l-3.3-12.1c0-0.1,0-0.1,0-0.2
			c0-0.3,0.2-0.5,0.4-0.5H77c0.3,0,0.5,0.2,0.6,0.6l2.3,10.5c0.1,0.4,0.2,0.6,0.4,0.6c0.2,0,0.3-0.2,0.4-0.6l2.3-10.5
			c0.1-0.3,0.3-0.6,0.6-0.6h3.5c0.2,0,0.5,0.2,0.5,0.5C87.6,125.3,87.6,125.4,87.5,125.4z"/>
		<path class="st0" d="M102.3,133.8h-8.5v0.1c0,1.5,0.6,2.9,2.8,2.9c1.7,0,4.1-0.1,5.1-0.2c0,0,0.1,0,0.1,0c0.3,0,0.5,0.1,0.5,0.4v2
			c0,0.4-0.1,0.6-0.6,0.7c-1.7,0.4-3.2,0.6-5.5,0.6c-3.2,0-6.7-1.7-6.7-6.9v-1.9c0-4.3,2.5-7,6.8-7c4.4,0,6.6,3,6.6,7v1.6
			C102.8,133.6,102.6,133.8,102.3,133.8z M98.6,131c0-2-0.9-3-2.4-3c-1.5,0-2.5,1-2.5,3v0.1h4.9V131z"/>
		<path class="st0" d="M110,140.1h-3.3c-0.3,0-0.6-0.3-0.6-0.6v-19.4c0-0.3,0.3-0.5,0.6-0.5h3.3c0.3,0,0.5,0.2,0.5,0.5v19.4
			C110.5,139.9,110.3,140.1,110,140.1z"/>
		<path class="st0" d="M126.1,139.7c-1.5,0.4-3.6,0.7-5.7,0.7c-4.3,0-6.7-2.5-6.7-6.8v-2.1c0-4.2,2.2-6.8,6.7-6.8
			c0.5,0,1.4,0.1,2.2,0.2v-4.6c0-0.3,0.2-0.5,0.5-0.5h3.2c0.3,0,0.6,0.2,0.6,0.5v18.7C126.9,139.3,126.8,139.5,126.1,139.7z
			 M122.6,128.3c-0.6-0.1-1.6-0.1-2.2-0.1c-1.9,0-2.4,1.4-2.4,3.3v2.1c0,1.9,0.5,3.3,2.4,3.3c0.9,0,1.7-0.1,2.2-0.2V128.3z"/>
		<path class="st0" d="M143.1,133.8h-8.5v0.1c0,1.5,0.6,2.9,2.8,2.9c1.7,0,4.1-0.1,5.1-0.2c0,0,0.1,0,0.1,0c0.3,0,0.5,0.1,0.5,0.4v2
			c0,0.4-0.1,0.6-0.6,0.7c-1.7,0.4-3.2,0.6-5.5,0.6c-3.2,0-6.7-1.7-6.7-6.9v-1.9c0-4.3,2.5-7,6.8-7c4.4,0,6.6,3,6.6,7v1.6
			C143.6,133.6,143.4,133.8,143.1,133.8z M139.4,131c0-2-0.9-3-2.4-3c-1.5,0-2.5,1-2.5,3v0.1h4.9V131z"/>
	</g>
	<g>
		<path class="st0" d="M159.2,140.1h-1.3c-0.3,0-0.5-0.2-0.5-0.5v-8.8c0-2.7-1.1-3.5-2.9-3.5c-0.8,0-2.5,0.2-3.7,0.7v11.5
			c0,0.3-0.2,0.5-0.5,0.5H149c-0.3,0-0.5-0.2-0.5-0.5v-19c0-0.3,0.2-0.5,0.5-0.5h1.3c0.3,0,0.5,0.2,0.5,0.5v5.5
			c1.3-0.6,2.9-0.8,4.1-0.8c2.8,0,4.8,1.6,4.8,5.6v8.8C159.7,139.9,159.5,140.1,159.2,140.1z"/>
		<path class="st0" d="M168.8,140.3c-3.9,0-5.9-2.6-5.9-6.5v-2c0-3.9,2-6.5,5.9-6.5c3.9,0,6,2.6,6,6.5v2
			C174.7,137.7,172.7,140.3,168.8,140.3z M172.4,131.8c0-2.7-1.1-4.5-3.6-4.5c-2.5,0-3.6,1.7-3.6,4.5v2c0,2.7,1.1,4.5,3.6,4.5
			c2.5,0,3.6-1.7,3.6-4.5V131.8z"/>
		<path class="st0" d="M189.6,127.2l-1,0.2c0.5,0.5,0.9,1.3,0.9,2.8v0.2c0,2.9-1.8,4.6-5.9,4.6c-1.4,0-2.3-0.2-3.1-0.5
			c-0.5,0.2-0.7,0.5-0.7,0.9c0,0.5,0.2,0.7,0.8,0.9l4,1c2.6,0.7,5.1,1.4,5.1,3.9v0.2c0,2.6-1.7,4.1-6.1,4.1c-4.2,0-6.1-1.6-6.1-4.3
			V141c0-1.5,0.8-2.7,1.7-3.4l-0.2-0.1c-0.9-0.4-1.2-1.3-1.2-2.1v0c0-0.7,0.3-1.5,1.1-1.9c-0.8-0.8-1.2-1.7-1.2-3.1v-0.2
			c0-2.4,1.3-4.7,5.9-4.7h5.9c0.3,0,0.6,0.3,0.6,0.6v0.7C190.1,127.1,189.9,127.2,189.6,127.2z M187.5,141.1c0-1-0.9-1.5-3.3-2.1
			l-3-0.8c-0.8,0.7-1.3,1.3-1.3,2.7v0.2c0,1.5,0.9,2.4,3.8,2.4c3,0,3.7-0.9,3.7-2.3V141.1z M187.2,130.2c0-1.6-0.7-2.9-3.6-2.9
			c-3,0-3.6,1.4-3.6,2.9v0.2c0,1.2,0.5,2.7,3.6,2.7c2.9,0,3.6-1.1,3.6-2.7V130.2z"/>
		<path class="st0" d="M203.7,133.5h-9v0.4c0,3.2,1.3,4.4,3.7,4.4c1.6,0,3.5-0.1,4.8-0.3c0.1,0,0.1,0,0.1,0c0.2,0,0.4,0.1,0.4,0.4
			v0.9c0,0.3-0.1,0.5-0.5,0.6c-1.5,0.3-3,0.5-4.8,0.5c-3.1,0-6.1-1.4-6.1-6.4v-2.4c0-3.8,2.1-6.3,5.9-6.3c3.9,0,5.9,2.5,5.9,6.3v1.4
			C204.2,133.3,204,133.5,203.7,133.5z M201.8,131.5c0-3-1.1-4.2-3.5-4.2c-2.3,0-3.6,1.3-3.6,4.2v0.2h7.1V131.5z"/>
		<path class="st0" d="M211.7,140.3c-1,0-2.9-0.1-4.2-0.4c-0.3-0.1-0.6-0.2-0.6-0.5v-0.9c0-0.2,0.2-0.4,0.5-0.4c0.1,0,0.1,0,0.1,0
			c1.3,0.2,3.2,0.3,4.2,0.3c1.7,0,2.6-0.5,2.6-1.9c0-0.8-0.5-1.3-2-2.2l-2.7-1.6c-1.6-1-2.7-2.1-2.7-3.8c0-2.8,2.1-3.6,4.8-3.6
			c1.5,0,2.9,0.1,4.2,0.3c0.3,0.1,0.5,0.2,0.5,0.5v0.9c0,0.3-0.2,0.5-0.5,0.5c0,0-0.1,0-0.1,0c-0.9-0.1-2.6-0.2-4.1-0.2
			c-1.5,0-2.5,0.2-2.5,1.6c0,0.8,0.6,1.3,1.8,2l2.6,1.6c2.2,1.3,2.9,2.5,2.9,4C216.7,139.2,214.7,140.3,211.7,140.3z"/>
		<path class="st0" d="M228.4,140c-0.9,0.2-2.1,0.3-3.3,0.3c-3.6,0-5.7-2.6-5.7-6.5v-2.1c0-3.9,2-6.5,5.7-6.5c1.2,0,2.5,0.1,3.3,0.3
			c0.4,0.1,0.5,0.2,0.5,0.6v1c0,0.3-0.2,0.4-0.5,0.4c-0.1,0-0.1,0-0.1,0c-1.2-0.1-2-0.2-3.3-0.2c-2.1,0-3.3,1.4-3.3,4.4v2.1
			c0,3,1.2,4.4,3.3,4.4c1.3,0,2.1-0.1,3.3-0.2c0,0,0.1,0,0.1,0c0.2,0,0.5,0.1,0.5,0.4v1C229,139.8,228.9,139.9,228.4,140z"/>
		<path class="st0" d="M242.7,140.1h-1.3c-0.3,0-0.5-0.2-0.5-0.5v-8.8c0-2.7-1.1-3.5-2.9-3.5c-0.8,0-2.5,0.2-3.7,0.7v11.5
			c0,0.3-0.2,0.5-0.5,0.5h-1.3c-0.3,0-0.5-0.2-0.5-0.5v-19c0-0.3,0.2-0.5,0.5-0.5h1.3c0.3,0,0.5,0.2,0.5,0.5v5.5
			c1.3-0.6,2.9-0.8,4.1-0.8c2.8,0,4.8,1.6,4.8,5.6v8.8C243.2,139.9,243,140.1,242.7,140.1z"/>
		<path class="st0" d="M252,140.3c-3.9,0-5.9-2.6-5.9-6.5v-2c0-3.9,2-6.5,5.9-6.5c3.9,0,6,2.6,6,6.5v2
			C257.9,137.7,255.9,140.3,252,140.3z M255.6,131.8c0-2.7-1.1-4.5-3.6-4.5c-2.5,0-3.6,1.7-3.6,4.5v2c0,2.7,1.1,4.5,3.6,4.5
			c2.5,0,3.6-1.7,3.6-4.5V131.8z"/>
		<path class="st0" d="M266.5,140.3c-3.9,0-5.9-2.6-5.9-6.5v-2c0-3.9,2-6.5,5.9-6.5c3.9,0,6,2.6,6,6.5v2
			C272.4,137.7,270.4,140.3,266.5,140.3z M270.1,131.8c0-2.7-1.1-4.5-3.6-4.5c-2.5,0-3.6,1.7-3.6,4.5v2c0,2.7,1.1,4.5,3.6,4.5
			c2.5,0,3.6-1.7,3.6-4.5V131.8z"/>
		<path class="st0" d="M277.1,140.1h-1.4c-0.3,0-0.5-0.2-0.5-0.5v-19.1c0-0.3,0.2-0.5,0.5-0.5h1.4c0.3,0,0.5,0.2,0.5,0.5v19.1
			C277.6,139.9,277.4,140.1,277.1,140.1z"/>
	</g>
</g>
<g id="woordbeeld_zonder__baseline">
</g>
</svg>
