<?xml version="1.0" encoding="utf-8"?>
<!-- Generator: Adobe Illustrator 22.0.1, SVG Export Plug-In . SVG Version: 6.00 Build 0)  -->
<svg version="1.1" id="Laag_1" xmlns="http://www.w3.org/2000/svg" xmlns:xlink="http://www.w3.org/1999/xlink" x="0px" y="0px"
	 viewBox="0 0 1280 999.9" style="enable-background:new 0 0 1280 999.9;" xml:space="preserve">
<style type="text/css">
	.st0{fill:#FFFFFF;}
	.st1{fill:none;stroke:#000000;stroke-miterlimit:10;}
	.st2{fill:none;stroke:#110D0A;stroke-miterlimit:10;}
	.st3{fill:#E4222F;}
	.st4{fill:#E51A2F;}
	.st5{fill:#FF7F00;}
	.st6{fill:none;stroke:#05C609;stroke-width:18.315;stroke-linecap:round;stroke-miterlimit:10;}
	.st7{fill:none;stroke:#000000;stroke-width:19.853;stroke-linecap:round;stroke-miterlimit:10;}
</style>
<g>
	<rect x="2.5" y="0.5" class="st0" width="1279" height="1000"/>
	<path d="M1281,1v999H3V1H1281 M1282,0H2v1001h1280V0L1282,0z"/>
</g>
<rect x="1.5" y="0.5" class="st1" width="640" height="500"/>
<rect x="641.5" y="500.5" class="st1" width="640" height="500"/>
<path class="st4" d="M171.8,841.9h-16.6c-0.5,0-0.9,0.2-1.2,0.5c-0.3,0.3-0.5,0.7-0.5,1.1v28c0,0.5,0.2,0.8,0.5,1.1
	c0.3,0.3,0.7,0.5,1.2,0.5c0.5,0,0.9-0.2,1.2-0.5c0.3-0.3,0.5-0.7,0.5-1.1v-12.9h12.8c0.5,0,0.9-0.1,1.2-0.4c0.3-0.3,0.5-0.7,0.5-1.1
	c0-0.5-0.2-0.8-0.5-1.1c-0.3-0.3-0.7-0.4-1.2-0.4h-12.8v-10.4h14.9c0.5,0,0.9-0.2,1.2-0.5c0.3-0.3,0.5-0.7,0.5-1.1
	c0-0.5-0.2-0.8-0.5-1.1C172.6,842.1,172.2,841.9,171.8,841.9z"/>
<path class="st4" d="M181.1,841.9c-0.5,0-0.9,0.2-1.2,0.4c-0.3,0.3-0.5,0.7-0.5,1.2v27.9c0,0.5,0.2,0.9,0.5,1.2
	c0.3,0.3,0.7,0.5,1.2,0.5c0.5,0,0.9-0.2,1.2-0.5c0.3-0.3,0.5-0.7,0.5-1.2v-27.9c0-0.5-0.2-0.9-0.5-1.2
	C181.9,842.1,181.5,841.9,181.1,841.9z"/>
<path class="st4" d="M208.7,870h-14.5v-26.4c0-0.5-0.2-0.8-0.5-1.2c-0.3-0.3-0.7-0.4-1.2-0.4c-0.5,0-0.9,0.2-1.2,0.4
	c-0.3,0.3-0.5,0.7-0.5,1.2v28c0,0.5,0.2,0.8,0.5,1.1c0.3,0.3,0.7,0.5,1.2,0.5h16.3c0.5,0,0.9-0.2,1.2-0.5c0.3-0.3,0.5-0.7,0.5-1.1
	c0-0.5-0.2-0.8-0.5-1.1C209.5,870.1,209.1,870,208.7,870z"/>
<path class="st4" d="M243.1,841.9C243.1,841.9,243.1,841.9,243.1,841.9c-0.6-0.1-1.1,0.2-1.5,0.7l-11.8,16.9l-11.7-16.9
	c-0.2-0.2-0.4-0.4-0.7-0.5c-0.8-0.3-1.5-0.2-2,0.3c-0.3,0.3-0.5,0.7-0.5,1.1v28c0,0.5,0.2,0.8,0.4,1.1c0.3,0.3,0.7,0.5,1.2,0.5
	c0.5,0,0.9-0.2,1.2-0.5c0.3-0.3,0.5-0.7,0.5-1.1v-23.2l10.2,14.9c0.4,0.4,0.8,0.6,1.2,0.6l0.1,0c0.5,0,0.9-0.2,1.3-0.6l10.2-14.8
	v23.1c0,0.5,0.2,0.9,0.5,1.2c0.3,0.3,0.7,0.4,1.2,0.4c0.5,0,0.9-0.2,1.2-0.4c0.3-0.3,0.5-0.7,0.5-1.2v-28c0-0.5-0.2-0.8-0.5-1.1
	C243.9,842.1,243.5,841.9,243.1,841.9z"/>
<path class="st4" d="M276,868.1l-10-12.7l9.7-8.9c0.6-0.6,0.9-1.2,0.9-1.9c0-0.7-0.3-1.3-0.8-1.9c-0.5-0.6-1.2-0.9-2-0.9
	c-0.9,0-1.7,0.4-2.4,1.1l-14.1,13.3v-11.2c0-0.9-0.3-1.6-0.9-2.1c-0.6-0.5-1.3-0.8-2.2-0.8c-0.9,0-1.7,0.3-2.3,0.8
	c-0.6,0.6-0.9,1.3-0.9,2.1v25.3c0,0.8,0.3,1.5,0.9,2.1c0.6,0.6,1.3,0.8,2.2,0.8c0.9,0,1.7-0.3,2.3-0.8c0.6-0.5,0.9-1.3,0.9-2.1v-6.7
	l4-3.7L271,872c0.3,0.4,0.6,0.6,1,0.8c0.4,0.2,0.8,0.3,1.3,0.3c0.9,0,1.7-0.3,2.4-0.9c0.7-0.6,1-1.3,1-2.2c0-0.3-0.1-0.7-0.2-1
	C276.4,868.7,276.2,868.4,276,868.1z"/>
<path class="st4" d="M296.1,843.7c-0.2-0.6-0.6-1.1-1.1-1.4c-0.5-0.3-1.1-0.5-1.6-0.5c0,0,0,0,0,0c-0.7-0.1-1.3,0.1-1.8,0.4
	c-0.5,0.4-0.9,0.9-1.2,1.5l-11.4,26.2c-0.1,0.3-0.2,0.6-0.2,0.9c0,0.8,0.2,1.4,0.7,1.9c0.5,0.5,1.1,0.7,2,0.7c0.6,0,1.1-0.2,1.6-0.5
	c0.5-0.3,0.9-0.8,1.1-1.4l2.3-5.2h13.2l2.3,5.1c0.3,0.6,0.6,1.1,1.1,1.4c0.5,0.4,1,0.5,1.7,0.5c0.7,0,1.4-0.3,2-0.8
	c0.6-0.5,0.9-1.2,0.9-2.1c0-0.4-0.1-0.7-0.3-1.2L296.1,843.7z M297.1,860.6h-8.2l4.1-9.2L297.1,860.6z"/>
<path class="st4" d="M341,842.7c-0.6-0.6-1.3-0.8-2.2-0.8c-0.5,0-0.9,0.1-1.4,0.4c-0.5,0.2-0.8,0.6-1.1,0.9l-10,14.3l-9.7-14.3
	c-0.3-0.4-0.7-0.7-1.2-0.9c-0.5-0.2-1-0.4-1.5-0.4c-0.9,0-1.6,0.3-2.2,0.9c-0.6,0.6-0.9,1.3-0.9,2.1v25.3c0,0.8,0.3,1.5,0.8,2.1
	c0.5,0.6,1.2,0.9,2.1,0.9c0.9,0,1.6-0.3,2.1-0.8c0.5-0.5,0.8-1.3,0.8-2.1v-17.1l7,10.6c0.3,0.4,0.7,0.7,1.1,0.9
	c0.4,0.2,0.9,0.4,1.3,0.3c0.5,0,0.9-0.1,1.4-0.3c0.4-0.2,0.8-0.5,1.1-0.9l7-10.3v16.7c0,0.9,0.3,1.6,0.9,2.1
	c0.6,0.5,1.3,0.8,2.3,0.8c0.9,0,1.7-0.3,2.3-0.8c0.6-0.6,0.9-1.3,0.9-2.1v-25.3C341.9,844,341.6,843.3,341,842.7L341,842.7z"/>
<path class="st4" d="M366.5,847.5c0.9,0,1.6-0.3,2.2-0.7c0.6-0.5,0.9-1.2,0.9-2c0-0.8-0.3-1.5-0.9-2.1c-0.6-0.5-1.3-0.8-2.2-0.8
	h-15.3c-0.9,0-1.6,0.3-2.2,0.8c-0.6,0.6-0.9,1.3-0.9,2.1v25.3c0,0.8,0.3,1.5,0.9,2.1c0.6,0.6,1.3,0.8,2.2,0.8h15.3
	c0.9,0,1.6-0.3,2.2-0.8c0.6-0.5,0.9-1.2,0.9-2c0-0.7-0.3-1.4-0.9-2l0,0c-0.6-0.6-1.3-0.8-2.2-0.8h-12.1V860h10
	c0.9,0,1.6-0.3,2.2-0.7c0.6-0.5,0.9-1.2,0.9-2c0-0.8-0.3-1.5-0.9-2.1c-0.6-0.5-1.3-0.8-2.2-0.8h-10v-6.9H366.5z"/>
<path class="st4" d="M400.6,869.3c-0.3-0.4-0.6-0.8-1.1-1c-0.4-0.2-0.6-0.4-0.7-0.7c-0.1-0.4-0.2-1-0.4-1.9c0-0.5,0-0.9-0.1-1.4
	c-0.2-2.1-1.2-3.8-2.9-5.1c1.2-0.8,2.2-1.9,2.9-3.2c0.8-1.4,1.3-2.9,1.3-4.4c0-1.8-0.4-3.5-1.3-5c-0.9-1.5-2-2.6-3.5-3.5
	c-1.4-0.8-3-1.3-4.6-1.3h-13.1c-0.9,0-1.6,0.3-2.2,0.8c-0.6,0.6-0.9,1.3-0.9,2.1v25.3c0,0.8,0.4,1.6,1.1,2.1
	c0.7,0.5,1.5,0.8,2.5,0.8c0.8,0,1.5-0.3,2-0.8c0.5-0.5,0.7-1.3,0.7-2.1V862h8.2c1.3,0,2.2,0.3,2.9,0.8c0.7,0.6,1,1.3,1,2.3
	c0,3.8,1.2,6.3,3.4,7.6c0.6,0.3,1.4,0.5,2.1,0.5c1,0,1.8-0.3,2.3-0.9c0.4-0.5,0.6-1,0.6-1.6C400.9,870.2,400.8,869.7,400.6,869.3
	L400.6,869.3z M393.1,851.7c0,0.9-0.2,1.8-0.5,2.6c-0.3,0.8-0.7,1.4-1.2,1.9c-0.5,0.4-0.9,0.7-1.4,0.7h-9.7v-9.4h9.7
	c0.5,0,1,0.2,1.4,0.6c0.5,0.4,0.9,0.9,1.2,1.5C393,850.3,393.1,851,393.1,851.7z"/>
<path class="st4" d="M419.9,843.7c-0.2-0.6-0.6-1.1-1.1-1.4c-0.5-0.3-1.1-0.5-1.7-0.5c0,0,0,0,0,0c-0.7-0.1-1.3,0.1-1.8,0.4
	c-0.5,0.4-0.9,0.9-1.2,1.5l-11.4,26.2c-0.1,0.3-0.2,0.6-0.2,0.9c0,0.8,0.2,1.4,0.7,1.9c0.5,0.5,1.1,0.7,2,0.7c0.6,0,1.1-0.2,1.6-0.5
	c0.5-0.3,0.9-0.8,1.1-1.4l2.3-5.2h13.2l2.3,5.1c0.3,0.6,0.6,1.1,1.1,1.4c0.5,0.4,1,0.5,1.7,0.5c0.7,0,1.4-0.3,2-0.8
	c0.6-0.5,0.9-1.2,0.9-2.1c0-0.4-0.1-0.7-0.3-1.2L419.9,843.7z M421,860.6h-8.2l4.1-9.2L421,860.6z"/>
<path class="st4" d="M449.1,843.7c-0.2-0.6-0.6-1.1-1.1-1.4c-0.5-0.3-1.1-0.5-1.7-0.5c0,0,0,0,0,0c-0.7-0.1-1.3,0.1-1.8,0.4
	c-0.5,0.4-0.9,0.9-1.2,1.5l-11.4,26.2c-0.1,0.3-0.1,0.6-0.1,0.9c0,0.8,0.2,1.4,0.7,1.9c0.5,0.5,1.1,0.7,2,0.7c0.6,0,1.1-0.2,1.6-0.5
	c0.5-0.3,0.9-0.8,1.1-1.4l2.3-5.2h13.2l2.3,5.1c0.3,0.6,0.6,1.1,1.1,1.4c0.5,0.4,1,0.5,1.7,0.5c0.7,0,1.4-0.3,2-0.8
	c0.6-0.5,0.9-1.2,0.9-2.1c0-0.4-0.1-0.7-0.3-1.2L449.1,843.7z M450.1,860.6h-8.2l4.1-9.2L450.1,860.6z"/>
<path class="st4" d="M489.4,849.6c-1.1-2.4-2.7-4.3-4.8-5.6c-2.1-1.4-4.6-2.1-7.5-2.1h-10.9c-0.9,0-1.6,0.3-2.2,0.8
	c-0.6,0.6-0.9,1.3-0.9,2.1v25.3c0,0.8,0.3,1.5,0.9,2.1c0.6,0.6,1.3,0.8,2.2,0.8H477c2.9,0,5.4-0.7,7.5-2.1c2.1-1.4,3.7-3.3,4.8-5.6
	c1.1-2.3,1.6-5,1.6-7.9C491,854.6,490.4,852,489.4,849.6z M484.5,857.5c0,2.9-0.7,5.3-2,7.2c-1.3,1.8-3.3,2.8-5.9,2.8h-7.2v-20h7.2
	c2.6,0,4.6,0.9,5.9,2.8C483.8,852.2,484.5,854.6,484.5,857.5z"/>
<path class="st4" d="M252.7,816c-32.6,0-59.1-26.5-59.1-59.1c0-32.6,26.5-59.1,59.1-59.1s59.1,26.5,59.1,59.1
	C311.8,789.5,285.3,816,252.7,816z M252.7,709.7c-26,0-47.2,21.2-47.2,47.2c0,26,21.2,47.2,47.2,47.2s47.2-21.2,47.2-47.2
	C299.9,730.8,278.7,709.7,252.7,709.7z"/>
<path class="st4" d="M378.8,816c-41,0-74.4-33.4-74.4-74.4s33.4-74.4,74.4-74.4c41,0,74.4,33.4,74.4,74.4S419.9,816,378.8,816z
	 M378.8,679.1c-34.4,0-62.5,28-62.5,62.5s28,62.5,62.5,62.5c34.4,0,62.5-28,62.5-62.5S413.3,679.1,378.8,679.1z"/>
<circle class="st4" cx="374.6" cy="749.1" r="11.5"/>
<circle class="st4" cx="252.7" cy="760.6" r="11.5"/>
<path class="st4" d="M453.8,676.2c-1.8,0-3.6-0.8-4.7-2.3c-15.6-20.3-35.5-31.2-59.3-32.4c-18.1-1-31.7,4.3-31.9,4.3
	c-3.1,1.2-6.5-0.3-7.7-3.4c-1.2-3.1,0.3-6.5,3.4-7.7c0.6-0.3,15.8-6.1,36.3-5.2c19,0.9,46.4,8.1,68.7,37.1c2,2.6,1.5,6.4-1.1,8.4
	C456.3,675.8,455,676.2,453.8,676.2z"/>
<g>
	<path class="st4" d="M807.3,796.8l-16.1-4c-0.5-0.1-0.9-0.1-1.3,0.2c-0.4,0.2-0.6,0.6-0.7,1l-6.7,27.2c-0.1,0.4,0,0.9,0.2,1.2
		c0.2,0.4,0.6,0.6,1.1,0.7c0.5,0.1,0.9,0.1,1.3-0.2c0.4-0.2,0.6-0.6,0.7-1l3.1-12.5l12.5,3.1c0.5,0.1,0.9,0.1,1.2-0.1
		c0.4-0.2,0.6-0.5,0.7-1c0.1-0.4,0-0.9-0.2-1.2c-0.2-0.3-0.6-0.6-1-0.7l-12.5-3.1l2.5-10.1l14.5,3.6c0.5,0.1,0.9,0.1,1.3-0.2
		c0.4-0.2,0.6-0.5,0.7-1c0.1-0.4,0-0.9-0.2-1.2C808.1,797.1,807.8,796.9,807.3,796.8z"/>
	<path class="st4" d="M816.3,799c-0.5-0.1-0.9-0.1-1.3,0.1c-0.4,0.2-0.7,0.6-0.8,1l-6.7,27.1c-0.1,0.5-0.1,0.9,0.2,1.3
		c0.2,0.4,0.6,0.6,1.1,0.7c0.5,0.1,0.9,0.1,1.3-0.2c0.4-0.2,0.7-0.6,0.8-1l6.7-27.1c0.1-0.4,0-0.9-0.2-1.3
		C817.2,799.4,816.8,799.1,816.3,799z"/>
	<path class="st4" d="M836.4,832.9l-14.1-3.5l6.3-25.7c0.1-0.4,0-0.9-0.2-1.2c-0.2-0.4-0.6-0.6-1.1-0.7c-0.5-0.1-0.9-0.1-1.3,0.1
		c-0.4,0.2-0.7,0.6-0.8,1l-6.7,27.2c-0.1,0.4,0,0.9,0.2,1.2c0.2,0.4,0.6,0.6,1,0.7l15.8,3.9c0.5,0.1,0.9,0.1,1.3-0.2
		c0.4-0.2,0.6-0.6,0.7-1c0.1-0.4,0-0.9-0.2-1.2C837.2,833.2,836.9,833,836.4,832.9z"/>
	<path class="st4" d="M876.6,813.9C876.6,813.9,876.6,813.9,876.6,813.9c-0.6-0.2-1.1-0.1-1.6,0.3l-15.5,13.5l-7.3-19.2
		c-0.1-0.3-0.3-0.5-0.5-0.7c-0.7-0.5-1.4-0.5-2-0.2c-0.4,0.2-0.6,0.6-0.7,1l-6.7,27.2c-0.1,0.4-0.1,0.9,0.2,1.2
		c0.2,0.4,0.6,0.6,1,0.7c0.5,0.1,0.9,0.1,1.3-0.2c0.4-0.2,0.6-0.6,0.7-1l5.6-22.5l6.3,16.9c0.2,0.5,0.6,0.8,1,0.9l0.1,0
		c0.5,0.2,0.9,0.1,1.4-0.3l13.4-11.9l-5.6,22.5c-0.1,0.4,0,0.9,0.2,1.2c0.2,0.4,0.6,0.6,1.1,0.7c0.5,0.1,0.9,0.1,1.3-0.1
		c0.4-0.2,0.7-0.6,0.8-1l6.7-27.2c0.1-0.4,0-0.9-0.2-1.2C877.3,814.2,877,814,876.6,813.9z"/>
	<path class="st4" d="M902.2,847.2l-6.7-14.7l11.6-6.3c0.7-0.4,1.2-1,1.3-1.6c0.2-0.7,0.1-1.4-0.3-2.1c-0.4-0.7-1-1.2-1.7-1.4
		c-0.8-0.2-1.7,0-2.6,0.5l-16.9,9.5l2.7-10.9c0.2-0.8,0.1-1.6-0.3-2.3c-0.4-0.7-1.1-1.1-1.9-1.3c-0.9-0.2-1.7-0.1-2.4,0.3
		c-0.7,0.4-1.2,1-1.4,1.8l-6.1,24.5c-0.2,0.8-0.1,1.6,0.4,2.3c0.4,0.7,1.1,1.1,2,1.4c0.9,0.2,1.7,0.1,2.4-0.3c0.7-0.4,1.2-1,1.4-1.9
		l1.6-6.5l4.8-2.6l6.5,14.2c0.2,0.4,0.4,0.8,0.8,1c0.3,0.3,0.7,0.5,1.2,0.6c0.9,0.2,1.7,0.1,2.5-0.3c0.8-0.4,1.3-1,1.5-1.9
		c0.1-0.3,0.1-0.7,0.1-1.1C902.4,847.9,902.4,847.5,902.2,847.2z"/>
	<path class="st4" d="M927.6,828.3c-0.1-0.6-0.3-1.2-0.8-1.7c-0.4-0.4-0.9-0.7-1.5-0.9c0,0,0,0,0,0c-0.6-0.2-1.3-0.2-1.9,0
		c-0.6,0.2-1.1,0.6-1.5,1.1l-17.3,22.7c-0.2,0.3-0.3,0.6-0.4,0.9c-0.2,0.8-0.1,1.4,0.2,2c0.3,0.6,0.9,0.9,1.8,1.2
		c0.6,0.1,1.1,0.1,1.7-0.1c0.6-0.2,1-0.6,1.4-1.1l3.5-4.5l12.8,3.2l1,5.5c0.1,0.6,0.4,1.2,0.7,1.7c0.4,0.5,0.9,0.8,1.5,0.9
		c0.7,0.2,1.4,0.1,2.1-0.3c0.7-0.4,1.1-1,1.3-1.8c0.1-0.3,0.1-0.7,0-1.2L927.6,828.3z M924.5,845l-8-2l6.2-8L924.5,845z"/>
	<path class="st4" d="M971.4,838.2c-0.5-0.7-1.1-1.1-1.9-1.3c-0.5-0.1-0.9-0.1-1.4,0c-0.5,0.1-0.9,0.3-1.3,0.7L953.6,849l-6-16.2
		c-0.2-0.4-0.5-0.8-0.9-1.2c-0.4-0.3-0.9-0.6-1.4-0.7c-0.8-0.2-1.6-0.1-2.4,0.3c-0.7,0.4-1.2,1-1.4,1.8l-6.1,24.6
		c-0.2,0.8-0.1,1.6,0.3,2.2c0.4,0.7,1,1.1,1.8,1.3c0.8,0.2,1.6,0.1,2.3-0.3c0.7-0.4,1.1-1,1.3-1.9l4.1-16.6l4.3,12
		c0.2,0.4,0.5,0.8,0.9,1.2c0.4,0.3,0.8,0.6,1.2,0.6c0.5,0.1,0.9,0.2,1.4,0c0.5-0.1,0.9-0.3,1.3-0.6l9.3-8.3l-4,16.2
		c-0.2,0.8-0.1,1.6,0.4,2.3c0.4,0.7,1.1,1.1,2,1.3c0.9,0.2,1.7,0.1,2.4-0.3c0.7-0.4,1.1-1,1.3-1.8l6.1-24.6
		C972,839.6,971.8,838.8,971.4,838.2L971.4,838.2z"/>
	<path class="st4" d="M995,848.9c0.9,0.2,1.6,0.1,2.3-0.2c0.7-0.4,1.1-0.9,1.3-1.7c0.2-0.8,0.1-1.6-0.4-2.2
		c-0.4-0.7-1.1-1.1-1.9-1.3l-14.8-3.7c-0.8-0.2-1.6-0.1-2.3,0.3c-0.7,0.4-1.2,1-1.4,1.8l-6.1,24.5c-0.2,0.8-0.1,1.6,0.4,2.3
		c0.4,0.7,1.1,1.1,1.9,1.3l14.8,3.7c0.8,0.2,1.6,0.1,2.3-0.2c0.7-0.4,1.2-0.9,1.4-1.7c0.2-0.7,0.1-1.4-0.4-2.1l0,0
		c-0.4-0.7-1.1-1.1-1.9-1.3l-11.7-2.9l1.8-7.3l9.7,2.4c0.9,0.2,1.6,0.1,2.3-0.2c0.7-0.4,1.1-0.9,1.3-1.7c0.2-0.8,0.1-1.6-0.4-2.2
		c-0.4-0.7-1.1-1.1-1.9-1.3l-9.7-2.4l1.6-6.7L995,848.9z"/>
	<path class="st4" d="M1022.8,878.3c-0.1-0.5-0.4-0.9-0.8-1.3c-0.3-0.2-0.5-0.5-0.5-0.9c0-0.4,0-1,0.1-1.9c0.1-0.4,0.2-0.9,0.2-1.4
		c0.3-2.1-0.2-4-1.6-5.7c1.3-0.5,2.5-1.3,3.6-2.4c1.2-1.2,1.9-2.5,2.3-4c0.4-1.8,0.4-3.5-0.1-5.1c-0.5-1.6-1.3-3-2.5-4.2
		c-1.2-1.2-2.6-1.9-4.2-2.3l-12.7-3.2c-0.8-0.2-1.6-0.1-2.3,0.3c-0.7,0.4-1.2,1-1.4,1.8l-6.1,24.5c-0.2,0.8,0,1.6,0.5,2.3
		c0.5,0.7,1.3,1.2,2.2,1.4c0.8,0.2,1.5,0.1,2.1-0.3c0.6-0.4,1-1,1.2-1.9l2-8l8,2c1.2,0.3,2.1,0.8,2.6,1.5c0.5,0.7,0.6,1.5,0.4,2.4
		c-0.9,3.7-0.4,6.4,1.5,8.2c0.5,0.5,1.2,0.8,2,1c1,0.2,1.8,0.1,2.5-0.3c0.5-0.4,0.8-0.9,1-1.4C1023,879.2,1023,878.7,1022.8,878.3
		L1022.8,878.3z M1019.8,859.4c-0.2,0.9-0.6,1.7-1.1,2.4c-0.5,0.7-1,1.2-1.6,1.5c-0.6,0.3-1.1,0.4-1.5,0.3l-9.4-2.3l2.2-9.1l9.4,2.3
		c0.5,0.1,0.9,0.4,1.2,0.9c0.4,0.5,0.6,1.1,0.8,1.8C1020,857.9,1020,858.7,1019.8,859.4z"/>
	<path class="st4" d="M1047.8,858c-0.1-0.6-0.3-1.2-0.8-1.7c-0.4-0.4-0.9-0.7-1.5-0.9c0,0,0,0,0,0c-0.6-0.2-1.3-0.2-1.9,0
		c-0.6,0.2-1.1,0.6-1.5,1.2l-17.3,22.7c-0.2,0.3-0.3,0.6-0.4,0.9c-0.2,0.8-0.1,1.4,0.2,2c0.3,0.6,0.9,0.9,1.8,1.2
		c0.6,0.1,1.1,0.1,1.7-0.1c0.6-0.2,1-0.6,1.4-1.1l3.5-4.5l12.8,3.2l1,5.5c0.1,0.6,0.4,1.2,0.7,1.7c0.4,0.5,0.9,0.8,1.5,0.9
		c0.7,0.2,1.4,0.1,2.1-0.3c0.7-0.4,1.1-1,1.3-1.8c0.1-0.3,0.1-0.7,0-1.2L1047.8,858z M1044.8,874.8l-8-2l6.2-8L1044.8,874.8z"/>
	<path class="st4" d="M1076.1,865c-0.1-0.6-0.3-1.2-0.8-1.7c-0.4-0.4-0.9-0.7-1.5-0.9c0,0,0,0,0,0c-0.6-0.2-1.3-0.2-1.9,0
		c-0.6,0.2-1.1,0.6-1.5,1.2l-17.3,22.7c-0.2,0.3-0.3,0.6-0.4,0.9c-0.2,0.8-0.1,1.4,0.2,2c0.3,0.6,0.9,0.9,1.8,1.2
		c0.6,0.1,1.1,0.1,1.7-0.1c0.6-0.2,1-0.6,1.4-1.1l3.5-4.5l12.8,3.2l1,5.5c0.1,0.6,0.4,1.2,0.7,1.7c0.4,0.5,0.9,0.8,1.5,0.9
		c0.7,0.2,1.4,0.1,2.1-0.3c0.7-0.4,1.1-1,1.3-1.8c0.1-0.3,0.1-0.7,0-1.2L1076.1,865z M1073.1,881.7l-8-2l6.2-8L1073.1,881.7z"/>
	<path class="st4" d="M1113.8,880.5c-0.5-2.6-1.6-4.8-3.3-6.6c-1.7-1.8-4-3.1-6.8-3.8l-10.6-2.6c-0.8-0.2-1.6-0.1-2.3,0.3
		c-0.7,0.4-1.2,1-1.4,1.8l-6.1,24.5c-0.2,0.8-0.1,1.6,0.4,2.3c0.4,0.7,1.1,1.1,1.9,1.3l10.6,2.6c2.8,0.7,5.4,0.6,7.8-0.2
		c2.4-0.8,4.4-2.3,6-4.3c1.6-2,2.8-4.5,3.5-7.3S1114.3,883,1113.8,880.5z M1107.2,887c-0.7,2.8-1.9,5-3.7,6.5
		c-1.7,1.5-3.9,1.9-6.4,1.3l-7-1.7l4.8-19.4l7,1.7c2.5,0.6,4.2,2,5.1,4.1C1107.8,881.6,1107.9,884.1,1107.2,887z"/>
	<path class="st4" d="M1056.9,818.1l-24.7-13.7c-4.4-2.4-6.6-7.5-5.4-12.4l2.1-8.4c1.2-4.9,5.5-8.4,10.6-8.5l28.2-0.7
		c7.4-0.2,12.9,6.7,11.1,13.8l-5.6,22.8C1071.4,818.2,1063.3,821.7,1056.9,818.1z"/>
	<path class="st4" d="M923.7,714.9c-22.2-5.5-35.9-28.1-30.4-50.3c5.5-22.2,28.1-35.9,50.3-30.4c22.2,5.5,35.9,28.1,30.4,50.3
		C968.5,706.7,945.9,720.3,923.7,714.9z M941.6,642.4c-17.7-4.4-35.7,6.5-40.1,24.2c-4.4,17.7,6.5,35.7,24.2,40.1
		s35.7-6.5,40.1-24.2S959.4,646.7,941.6,642.4z"/>
	<path class="st4" d="M1009.7,736.1c-28-6.9-45.1-35.3-38.2-63.3c6.9-28,35.3-45.1,63.3-38.2c28,6.9,45.1,35.3,38.2,63.3
		C1066.1,725.9,1037.7,743,1009.7,736.1z M1032.8,642.8c-23.5-5.8-47.3,8.6-53.1,32.1c-5.8,23.5,8.6,47.3,32.1,53.1
		c23.5,5.8,47.3-8.6,53.1-32.1C1070.7,672.4,1056.3,648.6,1032.8,642.8z"/>
	<circle class="st4" cx="1018.1" cy="689.8" r="8.1"/>
	<circle class="st4" cx="933" cy="677.1" r="8.1"/>
	<path class="st4" d="M1084.4,653.4c-1.2-0.3-2.3-1.1-2.8-2.4c-7.2-16.4-19-27.2-35-32.1c-12.2-3.7-22.4-2.4-22.5-2.4
		c-2.3,0.3-4.4-1.3-4.7-3.6c-0.3-2.3,1.3-4.4,3.6-4.7c0.5-0.1,11.8-1.5,25.7,2.6c12.8,3.8,30.3,13.3,40.6,36.9
		c0.9,2.1,0,4.6-2.2,5.5C1086.2,653.5,1085.2,653.6,1084.4,653.4z"/>
	<path class="st3" d="M985.2,815l-70.6-17.4c-13.4-3.3-21.5-16.8-18.2-30.2l5.6-22.9c3.3-13.4,16.8-21.5,30.2-18.2l70.6,17.4
		c13.4,3.3,21.5,16.8,18.2,30.2l-5.6,22.9C1012.1,810.2,998.6,818.3,985.2,815z"/>
</g>
<path class="st4" d="M218,353.9h-12.3c-0.3,0-0.6,0.2-0.9,0.5c-0.2,0.3-0.4,0.7-0.4,1.1v28c0,0.5,0.1,0.8,0.4,1.1
	c0.2,0.3,0.5,0.5,0.9,0.5c0.3,0,0.6-0.2,0.9-0.5c0.2-0.3,0.4-0.7,0.4-1.1v-12.9h9.5c0.3,0,0.6-0.1,0.9-0.4c0.2-0.3,0.4-0.7,0.4-1.1
	s-0.1-0.8-0.4-1.1c-0.2-0.3-0.5-0.4-0.9-0.4h-9.5v-10.4H218c0.3,0,0.6-0.2,0.9-0.5c0.2-0.3,0.4-0.7,0.4-1.1c0-0.5-0.1-0.8-0.4-1.1
	C218.6,354.1,218.4,353.9,218,353.9z"/>
<path class="st4" d="M224.9,353.9c-0.4,0-0.7,0.2-0.9,0.4c-0.2,0.3-0.4,0.7-0.4,1.2v27.9c0,0.5,0.1,0.9,0.4,1.2
	c0.2,0.3,0.5,0.5,0.9,0.5c0.3,0,0.6-0.2,0.9-0.5c0.2-0.3,0.4-0.7,0.4-1.2v-27.9c0-0.5-0.1-0.9-0.4-1.2
	C225.6,354.1,225.3,353.9,224.9,353.9z"/>
<path class="st4" d="M245.4,382h-10.8v-26.4c0-0.5-0.1-0.8-0.4-1.2c-0.2-0.3-0.5-0.4-0.9-0.4c-0.4,0-0.7,0.2-0.9,0.4
	c-0.2,0.3-0.4,0.7-0.4,1.2v28c0,0.5,0.1,0.8,0.4,1.1c0.2,0.3,0.5,0.5,0.9,0.5h12.1c0.3,0,0.6-0.2,0.9-0.5c0.2-0.3,0.4-0.7,0.4-1.1
	c0-0.5-0.1-0.8-0.4-1.1C246,382.1,245.7,382,245.4,382z"/>
<path class="st4" d="M271,353.9C271,353.9,271,353.9,271,353.9c-0.5-0.1-0.8,0.2-1.1,0.7l-8.8,16.9l-8.7-16.9
	c-0.1-0.2-0.3-0.4-0.5-0.5c-0.6-0.3-1.1-0.2-1.5,0.3c-0.2,0.3-0.3,0.7-0.3,1.1v28c0,0.5,0.1,0.8,0.3,1.1c0.2,0.3,0.5,0.5,0.9,0.5
	c0.3,0,0.6-0.2,0.9-0.5c0.2-0.3,0.4-0.7,0.4-1.1v-23.2l7.6,14.9c0.3,0.4,0.6,0.6,0.9,0.6l0.1,0c0.4,0,0.7-0.2,1-0.6l7.6-14.8v23.1
	c0,0.5,0.1,0.9,0.4,1.2c0.2,0.3,0.6,0.4,0.9,0.4c0.3,0,0.6-0.2,0.9-0.4c0.2-0.3,0.4-0.7,0.4-1.2v-28c0-0.5-0.1-0.8-0.4-1.1
	C271.5,354.1,271.3,353.9,271,353.9z"/>
<path class="st4" d="M295.4,380.1l-7.4-12.7l7.2-8.9c0.4-0.6,0.7-1.2,0.7-1.9c0-0.7-0.2-1.3-0.6-1.9c-0.4-0.6-0.9-0.9-1.5-0.9
	c-0.6,0-1.2,0.4-1.8,1.1l-10.5,13.3v-11.2c0-0.9-0.2-1.6-0.6-2.1c-0.4-0.5-1-0.8-1.6-0.8c-0.7,0-1.3,0.3-1.7,0.8
	c-0.4,0.6-0.7,1.3-0.7,2.1v25.3c0,0.8,0.2,1.5,0.7,2.1c0.4,0.6,1,0.8,1.7,0.8c0.7,0,1.3-0.3,1.7-0.8c0.4-0.5,0.7-1.3,0.7-2.1v-6.7
	l3-3.7l7.2,12.3c0.2,0.4,0.5,0.6,0.8,0.8c0.3,0.2,0.6,0.3,0.9,0.3c0.7,0,1.2-0.3,1.7-0.9c0.5-0.6,0.8-1.3,0.8-2.2c0-0.3,0-0.7-0.1-1
	C295.6,380.7,295.5,380.4,295.4,380.1z"/>
<path class="st4" d="M310.2,355.7c-0.2-0.6-0.5-1.1-0.8-1.4c-0.4-0.3-0.8-0.5-1.2-0.5c0,0,0,0,0,0c-0.5-0.1-1,0.1-1.4,0.4
	c-0.4,0.4-0.7,0.9-0.9,1.5l-8.4,26.2c-0.1,0.3-0.1,0.6-0.1,0.9c0,0.8,0.2,1.4,0.5,1.9c0.3,0.5,0.8,0.7,1.5,0.7
	c0.4,0,0.8-0.2,1.2-0.5c0.4-0.3,0.6-0.8,0.8-1.4l1.7-5.2h9.8l1.7,5.1c0.2,0.6,0.5,1.1,0.8,1.4c0.4,0.4,0.8,0.5,1.2,0.5
	c0.6,0,1-0.3,1.5-0.8c0.4-0.5,0.6-1.2,0.6-2.1c0-0.4-0.1-0.7-0.2-1.2L310.2,355.7z M311,372.6h-6.1l3-9.2L311,372.6z"/>
<path class="st4" d="M343.6,354.7c-0.5-0.6-1-0.8-1.6-0.8c-0.3,0-0.7,0.1-1,0.4c-0.3,0.2-0.6,0.6-0.8,0.9l-7.4,14.3l-7.2-14.3
	c-0.2-0.4-0.5-0.7-0.9-0.9c-0.4-0.2-0.7-0.4-1.1-0.4c-0.6,0-1.2,0.3-1.7,0.9c-0.5,0.6-0.7,1.3-0.7,2.1v25.3c0,0.8,0.2,1.5,0.6,2.1
	c0.4,0.6,0.9,0.9,1.5,0.9c0.6,0,1.2-0.3,1.6-0.8c0.4-0.5,0.6-1.3,0.6-2.1v-17.1l5.2,10.6c0.2,0.4,0.5,0.7,0.8,0.9
	c0.3,0.2,0.7,0.4,1,0.3c0.4,0,0.7-0.1,1-0.3c0.3-0.2,0.6-0.5,0.9-0.9l5.2-10.3v16.7c0,0.9,0.2,1.6,0.7,2.1c0.4,0.5,1,0.8,1.7,0.8
	c0.7,0,1.2-0.3,1.7-0.8c0.4-0.6,0.6-1.3,0.6-2.1v-25.3C344.3,356,344,355.3,343.6,354.7L343.6,354.7z"/>
<path class="st4" d="M362.5,359.5c0.7,0,1.2-0.3,1.6-0.7c0.4-0.5,0.6-1.2,0.6-2c0-0.8-0.2-1.5-0.7-2.1c-0.4-0.5-1-0.8-1.6-0.8h-11.3
	c-0.6,0-1.2,0.3-1.6,0.8c-0.4,0.6-0.7,1.3-0.7,2.1v25.3c0,0.8,0.2,1.5,0.7,2.1c0.4,0.6,1,0.8,1.6,0.8h11.3c0.6,0,1.2-0.3,1.6-0.8
	c0.4-0.5,0.7-1.2,0.7-2c0-0.7-0.2-1.4-0.7-2l0,0c-0.4-0.6-1-0.8-1.6-0.8h-9V372h7.4c0.7,0,1.2-0.3,1.6-0.7c0.4-0.5,0.6-1.2,0.6-2
	c0-0.8-0.2-1.5-0.7-2.1c-0.4-0.5-1-0.8-1.6-0.8h-7.4v-6.9H362.5z"/>
<path class="st4" d="M387.8,381.3c-0.2-0.4-0.4-0.8-0.8-1c-0.3-0.2-0.4-0.4-0.5-0.7c-0.1-0.4-0.2-1-0.3-1.9c0-0.5,0-0.9-0.1-1.4
	c-0.1-2.1-0.9-3.8-2.2-5.1c0.9-0.8,1.6-1.9,2.2-3.2c0.6-1.4,0.9-2.9,0.9-4.4c0-1.8-0.3-3.5-1-5c-0.6-1.5-1.5-2.6-2.6-3.5
	c-1.1-0.8-2.2-1.3-3.4-1.3h-9.7c-0.6,0-1.2,0.3-1.6,0.8c-0.4,0.6-0.7,1.3-0.7,2.1v25.3c0,0.8,0.3,1.6,0.8,2.1
	c0.5,0.5,1.1,0.8,1.8,0.8c0.6,0,1.1-0.3,1.5-0.8c0.4-0.5,0.5-1.3,0.5-2.1V374h6.1c0.9,0,1.7,0.3,2.1,0.8c0.5,0.6,0.7,1.3,0.7,2.3
	c0,3.8,0.9,6.3,2.6,7.6c0.5,0.3,1,0.5,1.6,0.5c0.8,0,1.3-0.3,1.7-0.9c0.3-0.5,0.5-1,0.5-1.6C388.1,382.2,388,381.7,387.8,381.3
	L387.8,381.3z M382.3,363.7c0,0.9-0.1,1.8-0.4,2.6c-0.2,0.8-0.5,1.4-0.9,1.9c-0.3,0.4-0.7,0.7-1,0.7h-7.2v-9.4h7.2
	c0.4,0,0.7,0.2,1.1,0.6c0.4,0.4,0.7,0.9,0.9,1.5C382.2,362.3,382.3,363,382.3,363.7z"/>
<path class="st4" d="M402.2,355.7c-0.2-0.6-0.5-1.1-0.8-1.4c-0.4-0.3-0.8-0.5-1.2-0.5c0,0,0,0,0,0c-0.5-0.1-1,0.1-1.4,0.4
	c-0.4,0.4-0.7,0.9-0.9,1.5l-8.4,26.2c-0.1,0.3-0.1,0.6-0.1,0.9c0,0.8,0.2,1.4,0.5,1.9c0.3,0.5,0.8,0.7,1.5,0.7
	c0.4,0,0.8-0.2,1.2-0.5c0.4-0.3,0.6-0.8,0.8-1.4l1.7-5.2h9.8l1.7,5.1c0.2,0.6,0.5,1.1,0.8,1.4c0.4,0.4,0.8,0.5,1.2,0.5
	c0.6,0,1-0.3,1.5-0.8c0.4-0.5,0.6-1.2,0.6-2.1c0-0.4-0.1-0.7-0.2-1.2L402.2,355.7z M403,372.6h-6.1l3-9.2L403,372.6z"/>
<path class="st4" d="M423.8,355.7c-0.2-0.6-0.5-1.1-0.8-1.4c-0.4-0.3-0.8-0.5-1.2-0.5c0,0,0,0,0,0c-0.5-0.1-1,0.1-1.4,0.4
	c-0.4,0.4-0.7,0.9-0.9,1.5l-8.4,26.2c-0.1,0.3-0.1,0.6-0.1,0.9c0,0.8,0.2,1.4,0.5,1.9c0.3,0.5,0.8,0.7,1.5,0.7
	c0.4,0,0.8-0.2,1.2-0.5c0.4-0.3,0.6-0.8,0.8-1.4l1.7-5.2h9.8l1.7,5.1c0.2,0.6,0.5,1.1,0.8,1.4c0.4,0.4,0.8,0.5,1.2,0.5
	c0.6,0,1-0.3,1.5-0.8c0.4-0.5,0.6-1.2,0.6-2.1c0-0.4-0.1-0.7-0.2-1.2L423.8,355.7z M424.6,372.6h-6.1l3-9.2L424.6,372.6z"/>
<path class="st4" d="M453.7,361.6c-0.8-2.4-2-4.3-3.6-5.6c-1.6-1.4-3.4-2.1-5.6-2.1h-8.1c-0.6,0-1.2,0.3-1.6,0.8
	c-0.4,0.6-0.7,1.3-0.7,2.1v25.3c0,0.8,0.2,1.5,0.7,2.1c0.4,0.6,1,0.8,1.6,0.8h8.1c2.2,0,4-0.7,5.6-2.1c1.5-1.4,2.7-3.3,3.6-5.6
	c0.8-2.3,1.2-5,1.2-7.9S454.5,364,453.7,361.6z M450.1,369.5c0,2.9-0.5,5.3-1.5,7.2c-1,1.8-2.4,2.8-4.4,2.8h-5.4v-20h5.4
	c1.9,0,3.4,0.9,4.4,2.8C449.6,364.2,450.1,366.6,450.1,369.5z"/>
<path class="st4" d="M401.6,314.8l-20.2-7.4c-3.6-1.3-6.1-5.7-6.1-10.8v-8.7c0-5,2.5-9.5,6.1-10.8l20.2-7.4
	c5.3-1.9,10.5,3.4,10.5,10.8V304C412.1,311.3,406.9,316.7,401.6,314.8z"/>
<path class="st4" d="M287.3,246.5c-17,0-30.8-18.6-30.8-41.5s13.8-41.5,30.8-41.5c17,0,30.8,18.6,30.8,41.5S304.3,246.5,287.3,246.5
	z M287.3,171.8c-13.6,0-24.6,14.9-24.6,33.1s11,33.1,24.6,33.1s24.6-14.9,24.6-33.1S300.8,171.8,287.3,171.8z"/>
<path class="st4" d="M353,246.5c-21.4,0-38.8-23.5-38.8-52.3s17.4-52.3,38.8-52.3c21.4,0,38.8,23.5,38.8,52.3S374.4,246.5,353,246.5
	z M353,150.3c-18,0-32.6,19.7-32.6,43.9s14.6,43.9,32.6,43.9c18,0,32.6-19.7,32.6-43.9S371,150.3,353,150.3z"/>
<ellipse class="st4" cx="350.8" cy="199.5" rx="6" ry="8.1"/>
<ellipse class="st4" cx="287.3" cy="207.5" rx="6" ry="8.1"/>
<path class="st4" d="M392.1,148.2c-0.9,0-1.9-0.6-2.5-1.6c-8.1-14.2-18.5-21.9-30.9-22.8c-9.4-0.7-16.6,3-16.6,3
	c-1.6,0.8-3.4-0.2-4-2.4c-0.6-2.2,0.2-4.6,1.8-5.4c0.3-0.2,8.3-4.3,18.9-3.6c9.9,0.6,24.2,5.7,35.8,26.1c1,1.8,0.8,4.5-0.6,5.9
	C393.4,148,392.8,148.2,392.1,148.2z"/>
<path class="st3" d="M346.4,329h-48c-11.9,0-21.5-9.6-21.5-21.5V277c0-11.9,9.6-21.5,21.5-21.5h48c11.9,0,21.5,9.6,21.5,21.5v30.5
	C367.9,319.3,358.3,329,346.4,329z"/>
<path class="st3" d="M809.8,353.9h-16.6c-0.5,0-0.9,0.2-1.2,0.5c-0.3,0.3-0.5,0.7-0.5,1.1v28c0,0.5,0.2,0.8,0.5,1.1
	c0.3,0.3,0.7,0.5,1.2,0.5c0.5,0,0.9-0.2,1.2-0.5c0.3-0.3,0.5-0.7,0.5-1.1v-12.9h12.8c0.5,0,0.9-0.1,1.2-0.4c0.3-0.3,0.5-0.7,0.5-1.1
	s-0.2-0.8-0.5-1.1c-0.3-0.3-0.7-0.4-1.2-0.4h-12.8v-10.4h14.9c0.5,0,0.9-0.2,1.2-0.5c0.3-0.3,0.5-0.7,0.5-1.1c0-0.5-0.2-0.8-0.5-1.1
	C810.6,354.1,810.2,353.9,809.8,353.9z"/>
<path class="st3" d="M819.1,353.9c-0.5,0-0.9,0.2-1.2,0.4c-0.3,0.3-0.5,0.7-0.5,1.2v27.9c0,0.5,0.2,0.9,0.5,1.2
	c0.3,0.3,0.7,0.5,1.2,0.5c0.5,0,0.9-0.2,1.2-0.5c0.3-0.3,0.5-0.7,0.5-1.2v-27.9c0-0.5-0.2-0.9-0.5-1.2
	C819.9,354.1,819.5,353.9,819.1,353.9z"/>
<path class="st3" d="M846.7,382h-14.5v-26.4c0-0.5-0.2-0.8-0.5-1.2c-0.3-0.3-0.7-0.4-1.2-0.4c-0.5,0-0.9,0.2-1.2,0.4
	c-0.3,0.3-0.5,0.7-0.5,1.2v28c0,0.5,0.2,0.8,0.5,1.1c0.3,0.3,0.7,0.5,1.2,0.5h16.3c0.5,0,0.9-0.2,1.2-0.5c0.3-0.3,0.5-0.7,0.5-1.1
	c0-0.5-0.2-0.8-0.5-1.1C847.5,382.1,847.1,382,846.7,382z"/>
<path class="st3" d="M881.1,353.9C881.1,353.9,881.1,353.9,881.1,353.9c-0.6-0.1-1.1,0.2-1.5,0.7l-11.8,16.9l-11.7-16.9
	c-0.2-0.2-0.4-0.4-0.7-0.5c-0.8-0.3-1.5-0.2-2,0.3c-0.3,0.3-0.5,0.7-0.5,1.1v28c0,0.5,0.2,0.8,0.4,1.1c0.3,0.3,0.7,0.5,1.2,0.5
	c0.5,0,0.9-0.2,1.2-0.5c0.3-0.3,0.5-0.7,0.5-1.1v-23.2l10.2,14.9c0.4,0.4,0.8,0.6,1.2,0.6l0.1,0c0.5,0,0.9-0.2,1.3-0.6l10.2-14.8
	v23.1c0,0.5,0.2,0.9,0.5,1.2c0.3,0.3,0.7,0.4,1.2,0.4c0.5,0,0.9-0.2,1.2-0.4c0.3-0.3,0.5-0.7,0.5-1.2v-28c0-0.5-0.2-0.8-0.5-1.1
	C881.9,354.1,881.5,353.9,881.1,353.9z"/>
<path class="st3" d="M914,380.1l-10-12.7l9.7-8.9c0.6-0.6,0.9-1.2,0.9-1.9c0-0.7-0.3-1.3-0.8-1.9c-0.5-0.6-1.2-0.9-2-0.9
	c-0.9,0-1.7,0.4-2.4,1.1l-14.1,13.3v-11.2c0-0.9-0.3-1.6-0.9-2.1c-0.6-0.5-1.3-0.8-2.2-0.8c-0.9,0-1.7,0.3-2.3,0.8
	c-0.6,0.6-0.9,1.3-0.9,2.1v25.3c0,0.8,0.3,1.5,0.9,2.1c0.6,0.6,1.3,0.8,2.2,0.8c0.9,0,1.7-0.3,2.3-0.8c0.6-0.5,0.9-1.3,0.9-2.1v-6.7
	l4-3.7L909,384c0.3,0.4,0.6,0.6,1,0.8c0.4,0.2,0.8,0.3,1.3,0.3c0.9,0,1.7-0.3,2.4-0.9c0.7-0.6,1-1.3,1-2.2c0-0.3-0.1-0.7-0.2-1
	C914.4,380.7,914.2,380.4,914,380.1z"/>
<path class="st3" d="M934.1,355.7c-0.2-0.6-0.6-1.1-1.1-1.4c-0.5-0.3-1.1-0.5-1.6-0.5c0,0,0,0,0,0c-0.7-0.1-1.3,0.1-1.8,0.4
	c-0.5,0.4-0.9,0.9-1.2,1.5l-11.4,26.2c-0.1,0.3-0.2,0.6-0.2,0.9c0,0.8,0.2,1.4,0.7,1.9c0.5,0.5,1.1,0.7,2,0.7c0.6,0,1.1-0.2,1.6-0.5
	c0.5-0.3,0.9-0.8,1.1-1.4l2.3-5.2h13.2l2.3,5.1c0.3,0.6,0.6,1.1,1.1,1.4c0.5,0.4,1,0.5,1.7,0.5c0.7,0,1.4-0.3,2-0.8
	c0.6-0.5,0.9-1.2,0.9-2.1c0-0.4-0.1-0.7-0.3-1.2L934.1,355.7z M935.1,372.6h-8.2l4.1-9.2L935.1,372.6z"/>
<path class="st3" d="M979,354.7c-0.6-0.6-1.3-0.8-2.2-0.8c-0.5,0-0.9,0.1-1.4,0.4c-0.5,0.2-0.8,0.6-1.1,0.9l-10,14.3l-9.7-14.3
	c-0.3-0.4-0.7-0.7-1.2-0.9c-0.5-0.2-1-0.4-1.5-0.4c-0.9,0-1.6,0.3-2.2,0.9c-0.6,0.6-0.9,1.3-0.9,2.1v25.3c0,0.8,0.3,1.5,0.8,2.1
	c0.5,0.6,1.2,0.9,2.1,0.9c0.9,0,1.6-0.3,2.1-0.8c0.5-0.5,0.8-1.3,0.8-2.1v-17.1l7,10.6c0.3,0.4,0.7,0.7,1.1,0.9
	c0.4,0.2,0.9,0.4,1.3,0.3c0.5,0,0.9-0.1,1.4-0.3c0.4-0.2,0.8-0.5,1.1-0.9l7-10.3v16.7c0,0.9,0.3,1.6,0.9,2.1
	c0.6,0.5,1.3,0.8,2.3,0.8s1.7-0.3,2.3-0.8c0.6-0.6,0.9-1.3,0.9-2.1v-25.3C979.9,356,979.6,355.3,979,354.7L979,354.7z"/>
<path class="st3" d="M1004.5,359.5c0.9,0,1.6-0.3,2.2-0.7c0.6-0.5,0.9-1.2,0.9-2c0-0.8-0.3-1.5-0.9-2.1c-0.6-0.5-1.3-0.8-2.2-0.8
	h-15.3c-0.9,0-1.6,0.3-2.2,0.8c-0.6,0.6-0.9,1.3-0.9,2.1v25.3c0,0.8,0.3,1.5,0.9,2.1c0.6,0.6,1.3,0.8,2.2,0.8h15.3
	c0.9,0,1.6-0.3,2.2-0.8c0.6-0.5,0.9-1.2,0.9-2c0-0.7-0.3-1.4-0.9-2l0,0c-0.6-0.6-1.3-0.8-2.2-0.8h-12.1V372h10
	c0.9,0,1.6-0.3,2.2-0.7c0.6-0.5,0.9-1.2,0.9-2c0-0.8-0.3-1.5-0.9-2.1c-0.6-0.5-1.3-0.8-2.2-0.8h-10v-6.9H1004.5z"/>
<path class="st3" d="M1038.6,381.3c-0.3-0.4-0.6-0.8-1.1-1c-0.4-0.2-0.6-0.4-0.7-0.7c-0.1-0.4-0.2-1-0.4-1.9c0-0.5,0-0.9-0.1-1.4
	c-0.2-2.1-1.2-3.8-2.9-5.1c1.2-0.8,2.2-1.9,2.9-3.2c0.8-1.4,1.3-2.9,1.3-4.4c0-1.8-0.4-3.5-1.3-5c-0.9-1.5-2-2.6-3.5-3.5
	c-1.4-0.8-3-1.3-4.6-1.3h-13.1c-0.9,0-1.6,0.3-2.2,0.8c-0.6,0.6-0.9,1.3-0.9,2.1v25.3c0,0.8,0.4,1.6,1.1,2.1
	c0.7,0.5,1.5,0.8,2.5,0.8c0.8,0,1.5-0.3,2-0.8c0.5-0.5,0.7-1.3,0.7-2.1V374h8.2c1.3,0,2.2,0.3,2.9,0.8c0.7,0.6,1,1.3,1,2.3
	c0,3.8,1.2,6.3,3.4,7.6c0.6,0.3,1.4,0.5,2.1,0.5c1,0,1.8-0.3,2.3-0.9c0.4-0.5,0.6-1,0.6-1.6C1038.9,382.2,1038.8,381.7,1038.6,381.3
	L1038.6,381.3z M1031.1,363.7c0,0.9-0.2,1.8-0.5,2.6c-0.3,0.8-0.7,1.4-1.2,1.9c-0.5,0.4-0.9,0.7-1.4,0.7h-9.7v-9.4h9.7
	c0.5,0,1,0.2,1.4,0.6c0.5,0.4,0.9,0.9,1.2,1.5C1031,362.3,1031.1,363,1031.1,363.7z"/>
<path class="st3" d="M1057.9,355.7c-0.2-0.6-0.6-1.1-1.1-1.4c-0.5-0.3-1.1-0.5-1.7-0.5c0,0,0,0,0,0c-0.7-0.1-1.3,0.1-1.8,0.4
	c-0.5,0.4-0.9,0.9-1.2,1.5l-11.4,26.2c-0.1,0.3-0.2,0.6-0.2,0.9c0,0.8,0.2,1.4,0.7,1.9c0.5,0.5,1.1,0.7,2,0.7c0.6,0,1.1-0.2,1.6-0.5
	c0.5-0.3,0.9-0.8,1.1-1.4l2.3-5.2h13.2l2.3,5.1c0.3,0.6,0.6,1.1,1.1,1.4c0.5,0.4,1,0.5,1.7,0.5c0.7,0,1.4-0.3,2-0.8
	c0.6-0.5,0.9-1.2,0.9-2.1c0-0.4-0.1-0.7-0.3-1.2L1057.9,355.7z M1059,372.6h-8.2l4.1-9.2L1059,372.6z"/>
<path class="st3" d="M1087.1,355.7c-0.2-0.6-0.6-1.1-1.1-1.4c-0.5-0.3-1.1-0.5-1.7-0.5c0,0,0,0,0,0c-0.7-0.1-1.3,0.1-1.8,0.4
	c-0.5,0.4-0.9,0.9-1.2,1.5l-11.4,26.2c-0.1,0.3-0.1,0.6-0.1,0.9c0,0.8,0.2,1.4,0.7,1.9c0.5,0.5,1.1,0.7,2,0.7c0.6,0,1.1-0.2,1.6-0.5
	c0.5-0.3,0.9-0.8,1.1-1.4l2.3-5.2h13.2l2.3,5.1c0.3,0.6,0.6,1.1,1.1,1.4c0.5,0.4,1,0.5,1.7,0.5c0.7,0,1.4-0.3,2-0.8
	c0.6-0.5,0.9-1.2,0.9-2.1c0-0.4-0.1-0.7-0.3-1.2L1087.1,355.7z M1088.1,372.6h-8.2l4.1-9.2L1088.1,372.6z"/>
<path class="st3" d="M1127.4,361.6c-1.1-2.4-2.7-4.3-4.8-5.6c-2.1-1.4-4.6-2.1-7.5-2.1h-10.9c-0.9,0-1.6,0.3-2.2,0.8
	c-0.6,0.6-0.9,1.3-0.9,2.1v25.3c0,0.8,0.3,1.5,0.9,2.1c0.6,0.6,1.3,0.8,2.2,0.8h10.9c2.9,0,5.4-0.7,7.5-2.1c2.1-1.4,3.7-3.3,4.8-5.6
	c1.1-2.3,1.6-5,1.6-7.9S1128.4,364,1127.4,361.6z M1122.5,369.5c0,2.9-0.7,5.3-2,7.2c-1.3,1.8-3.3,2.8-5.9,2.8h-7.2v-20h7.2
	c2.6,0,4.6,0.9,5.9,2.8C1121.8,364.2,1122.5,366.6,1122.5,369.5z"/>
<path class="st3" d="M1057.2,314.8l-27.2-7.4c-4.9-1.3-8.2-5.7-8.2-10.8v-8.7c0-5,3.4-9.5,8.2-10.8l27.2-7.4
	c7.1-1.9,14.1,3.4,14.1,10.8V304C1071.3,311.3,1064.3,316.7,1057.2,314.8z"/>
<path class="st3" d="M903.1,246.5c-22.9,0-41.5-18.6-41.5-41.5s18.6-41.5,41.5-41.5c22.9,0,41.5,18.6,41.5,41.5
	S926,246.5,903.1,246.5z M903.1,171.8c-18.3,0-33.1,14.9-33.1,33.1s14.9,33.1,33.1,33.1c18.3,0,33.1-14.9,33.1-33.1
	S921.4,171.8,903.1,171.8z"/>
<path class="st3" d="M991.7,246.5c-28.8,0-52.3-23.5-52.3-52.3s23.5-52.3,52.3-52.3c28.8,0,52.3,23.5,52.3,52.3
	S1020.5,246.5,991.7,246.5z M991.7,150.3c-24.2,0-43.9,19.7-43.9,43.9s19.7,43.9,43.9,43.9c24.2,0,43.9-19.7,43.9-43.9
	S1015.9,150.3,991.7,150.3z"/>
<circle class="st3" cx="988.7" cy="199.5" r="8.1"/>
<circle class="st3" cx="903.1" cy="207.5" r="8.1"/>
<path class="st3" d="M1044.3,148.2c-1.3,0-2.5-0.6-3.3-1.6c-10.9-14.2-25-21.9-41.7-22.8c-12.7-0.7-22.3,3-22.4,3
	c-2.2,0.8-4.6-0.2-5.4-2.4c-0.8-2.2,0.2-4.6,2.4-5.4c0.4-0.2,11.1-4.3,25.5-3.6c13.4,0.6,32.6,5.7,48.3,26.1
	c1.4,1.8,1.1,4.5-0.8,5.9C1046.1,148,1045.2,148.2,1044.3,148.2z"/>
<path class="st3" d="M986.8,329h-72.7c-13.8,0-24.9-11.2-24.9-24.9v-23.5c0-13.8,11.2-24.9,24.9-24.9h72.7
	c13.8,0,24.9,11.2,24.9,24.9V304C1011.8,317.8,1000.6,329,986.8,329z"/>
<g>
	<g>
		<line class="st7" x1="76" y1="56" x2="123" y2="107"/>
		<line class="st7" x1="76" y1="108" x2="123" y2="57"/>
	</g>
	<line class="st7" x1="710" y1="56" x2="757" y2="107"/>
	<line class="st7" x1="710" y1="108" x2="757" y2="57"/>
</g>
<g>
	<g>
		<line class="st7" x1="76" y1="551" x2="123" y2="602"/>
		<line class="st7" x1="76" y1="603" x2="123" y2="552"/>
	</g>
	<line class="st7" x1="710" y1="551" x2="757" y2="602"/>
	<line class="st7" x1="710" y1="603" x2="757" y2="552"/>
</g>
</svg>
