<?xml version="1.0" encoding="utf-8"?>
<!-- Generator: Adobe Illustrator 22.0.1, SVG Export Plug-In . SVG Version: 6.00 Build 0)  -->
<svg version="1.1" id="Laag_1" xmlns="http://www.w3.org/2000/svg" xmlns:xlink="http://www.w3.org/1999/xlink" x="0px" y="0px"
	 viewBox="0 0 2601.2 1055.4" style="enable-background:new 0 0 2601.2 1055.4;" xml:space="preserve">
<style type="text/css">
	.st0{fill:#FFFFFF;}
	.st1{fill:none;stroke:#000000;stroke-miterlimit:10;}
	.st2{fill:none;stroke:#110D0A;stroke-miterlimit:10;}
	.st3{fill:#E4222F;}
	.st4{fill:#E51A2F;}
	.st5{fill:#FF7F00;}
	.st6{fill:none;stroke:#05C609;stroke-width:18.315;stroke-linecap:round;stroke-miterlimit:10;}
	.st7{fill:none;stroke:#000000;stroke-width:19.853;stroke-linecap:round;stroke-miterlimit:10;}
	.st8{font-family:'Arial-BoldMT';}
	.st9{font-size:40.2968px;}
	.st10{fill:none;}
	.st11{font-family:'Montserrat-Bold';}
	.st12{font-size:57px;}
</style>
<g>
	<rect x="19.5" y="26.1" class="st0" width="2560" height="1000"/>
	<path d="M2578.5,26.6v999H20.5v-999L2578.5,26.6 M2580.5,25.6H18.5v1001h2562.1V25.6H2580.5z"/>
</g>
<path class="st1" d="M188.8,879h-16.6c-0.5,0-0.9,0.2-1.2,0.5s-0.5,0.7-0.5,1.1v28c0,0.5,0.2,0.8,0.5,1.1s0.7,0.5,1.2,0.5
	s0.9-0.2,1.2-0.5s0.5-0.7,0.5-1.1v-12.9h12.8c0.5,0,0.9-0.1,1.2-0.4c0.3-0.3,0.5-0.7,0.5-1.1c0-0.5-0.2-0.8-0.5-1.1
	s-0.7-0.4-1.2-0.4h-12.8v-10.4h14.9c0.5,0,0.9-0.2,1.2-0.5s0.5-0.7,0.5-1.1c0-0.5-0.2-0.8-0.5-1.1C189.6,879.2,189.2,879,188.8,879z
	"/>
<path class="st1" d="M198.1,879c-0.5,0-0.9,0.2-1.2,0.4c-0.3,0.3-0.5,0.7-0.5,1.2v27.9c0,0.5,0.2,0.9,0.5,1.2s0.7,0.5,1.2,0.5
	s0.9-0.2,1.2-0.5s0.5-0.7,0.5-1.2v-27.9c0-0.5-0.2-0.9-0.5-1.2C198.9,879.2,198.5,879,198.1,879z"/>
<path class="st1" d="M225.7,907.1h-14.5v-26.4c0-0.5-0.2-0.8-0.5-1.2c-0.3-0.3-0.7-0.4-1.2-0.4s-0.9,0.2-1.2,0.4
	c-0.3,0.3-0.5,0.7-0.5,1.2v28c0,0.5,0.2,0.8,0.5,1.1s0.7,0.5,1.2,0.5h16.3c0.5,0,0.9-0.2,1.2-0.5s0.5-0.7,0.5-1.1
	c0-0.5-0.2-0.8-0.5-1.1C226.5,907.2,226.1,907.1,225.7,907.1z"/>
<path class="st1" d="M260.1,879L260.1,879c-0.6-0.1-1.1,0.2-1.5,0.7l-11.8,16.9l-11.7-16.9c-0.2-0.2-0.4-0.4-0.7-0.5
	c-0.8-0.3-1.5-0.2-2,0.3c-0.3,0.3-0.5,0.7-0.5,1.1v28c0,0.5,0.2,0.8,0.4,1.1c0.3,0.3,0.7,0.5,1.2,0.5s0.9-0.2,1.2-0.5
	s0.5-0.7,0.5-1.1v-23.2l10.2,14.9c0.4,0.4,0.8,0.6,1.2,0.6h0.1c0.5,0,0.9-0.2,1.3-0.6l10.2-14.8v23.1c0,0.5,0.2,0.9,0.5,1.2
	s0.7,0.4,1.2,0.4s0.9-0.2,1.2-0.4c0.3-0.3,0.5-0.7,0.5-1.2v-28c0-0.5-0.2-0.8-0.5-1.1C260.9,879.2,260.5,879,260.1,879z"/>
<path class="st1" d="M293,905.2l-10-12.7l9.7-8.9c0.6-0.6,0.9-1.2,0.9-1.9s-0.3-1.3-0.8-1.9c-0.5-0.6-1.2-0.9-2-0.9
	c-0.9,0-1.7,0.4-2.4,1.1l-14.1,13.3v-11.2c0-0.9-0.3-1.6-0.9-2.1s-1.3-0.8-2.2-0.8s-1.7,0.3-2.3,0.8c-0.6,0.6-0.9,1.3-0.9,2.1v25.3
	c0,0.8,0.3,1.5,0.9,2.1s1.3,0.8,2.2,0.8s1.7-0.3,2.3-0.8s0.9-1.3,0.9-2.1v-6.7l4-3.7l9.7,12.1c0.3,0.4,0.6,0.6,1,0.8
	s0.8,0.3,1.3,0.3c0.9,0,1.7-0.3,2.4-0.9c0.7-0.6,1-1.3,1-2.2c0-0.3-0.1-0.7-0.2-1C293.4,905.8,293.2,905.5,293,905.2z"/>
<path class="st1" d="M313.1,880.8c-0.2-0.6-0.6-1.1-1.1-1.4c-0.5-0.3-1.1-0.5-1.6-0.5l0,0c-0.7-0.1-1.3,0.1-1.8,0.4
	c-0.5,0.4-0.9,0.9-1.2,1.5L296,907c-0.1,0.3-0.2,0.6-0.2,0.9c0,0.8,0.2,1.4,0.7,1.9s1.1,0.7,2,0.7c0.6,0,1.1-0.2,1.6-0.5
	s0.9-0.8,1.1-1.4l2.3-5.2h13.2l2.3,5.1c0.3,0.6,0.6,1.1,1.1,1.4c0.5,0.4,1,0.5,1.7,0.5s1.4-0.3,2-0.8s0.9-1.2,0.9-2.1
	c0-0.4-0.1-0.7-0.3-1.2L313.1,880.8z M314.1,897.7h-8.2l4.1-9.2L314.1,897.7z"/>
<path class="st1" d="M358,879.8c-0.6-0.6-1.3-0.8-2.2-0.8c-0.5,0-0.9,0.1-1.4,0.4c-0.5,0.2-0.8,0.6-1.1,0.9l-10,14.3l-9.7-14.3
	c-0.3-0.4-0.7-0.7-1.2-0.9s-1-0.4-1.5-0.4c-0.9,0-1.6,0.3-2.2,0.9c-0.6,0.6-0.9,1.3-0.9,2.1v25.3c0,0.8,0.3,1.5,0.8,2.1
	s1.2,0.9,2.1,0.9s1.6-0.3,2.1-0.8s0.8-1.3,0.8-2.1v-17.1l7,10.6c0.3,0.4,0.7,0.7,1.1,0.9s0.9,0.4,1.3,0.3c0.5,0,0.9-0.1,1.4-0.3
	c0.4-0.2,0.8-0.5,1.1-0.9l7-10.3v16.7c0,0.9,0.3,1.6,0.9,2.1s1.3,0.8,2.3,0.8c0.9,0,1.7-0.3,2.3-0.8c0.6-0.6,0.9-1.3,0.9-2.1V882
	C358.9,881.1,358.6,880.4,358,879.8L358,879.8z"/>
<path class="st1" d="M383.5,884.6c0.9,0,1.6-0.3,2.2-0.7c0.6-0.5,0.9-1.2,0.9-2s-0.3-1.5-0.9-2.1c-0.6-0.5-1.3-0.8-2.2-0.8h-15.3
	c-0.9,0-1.6,0.3-2.2,0.8c-0.6,0.6-0.9,1.3-0.9,2.1v25.3c0,0.8,0.3,1.5,0.9,2.1s1.3,0.8,2.2,0.8h15.3c0.9,0,1.6-0.3,2.2-0.8
	s0.9-1.2,0.9-2c0-0.7-0.3-1.4-0.9-2l0,0c-0.6-0.6-1.3-0.8-2.2-0.8h-12.1v-7.4h10c0.9,0,1.6-0.3,2.2-0.7c0.6-0.5,0.9-1.2,0.9-2
	s-0.3-1.5-0.9-2.1c-0.6-0.5-1.3-0.8-2.2-0.8h-10v-6.9L383.5,884.6L383.5,884.6z"/>
<path class="st1" d="M417.6,906.4c-0.3-0.4-0.6-0.8-1.1-1c-0.4-0.2-0.6-0.4-0.7-0.7c-0.1-0.4-0.2-1-0.4-1.9c0-0.5,0-0.9-0.1-1.4
	c-0.2-2.1-1.2-3.8-2.9-5.1c1.2-0.8,2.2-1.9,2.9-3.2c0.8-1.4,1.3-2.9,1.3-4.4c0-1.8-0.4-3.5-1.3-5s-2-2.6-3.5-3.5
	c-1.4-0.8-3-1.3-4.6-1.3h-13.1c-0.9,0-1.6,0.3-2.2,0.8c-0.6,0.6-0.9,1.3-0.9,2.1v25.3c0,0.8,0.4,1.6,1.1,2.1s1.5,0.8,2.5,0.8
	c0.8,0,1.5-0.3,2-0.8s0.7-1.3,0.7-2.1v-8h8.2c1.3,0,2.2,0.3,2.9,0.8c0.7,0.6,1,1.3,1,2.3c0,3.8,1.2,6.3,3.4,7.6
	c0.6,0.3,1.4,0.5,2.1,0.5c1,0,1.8-0.3,2.3-0.9c0.4-0.5,0.6-1,0.6-1.6C417.9,907.3,417.8,906.8,417.6,906.4L417.6,906.4z
	 M410.1,888.8c0,0.9-0.2,1.8-0.5,2.6s-0.7,1.4-1.2,1.9c-0.5,0.4-0.9,0.7-1.4,0.7h-9.7v-9.4h9.7c0.5,0,1,0.2,1.4,0.6
	c0.5,0.4,0.9,0.9,1.2,1.5C410,887.4,410.1,888.1,410.1,888.8z"/>
<path class="st1" d="M436.9,880.8c-0.2-0.6-0.6-1.1-1.1-1.4c-0.5-0.3-1.1-0.5-1.7-0.5l0,0c-0.7-0.1-1.3,0.1-1.8,0.4
	c-0.5,0.4-0.9,0.9-1.2,1.5L419.7,907c-0.1,0.3-0.2,0.6-0.2,0.9c0,0.8,0.2,1.4,0.7,1.9s1.1,0.7,2,0.7c0.6,0,1.1-0.2,1.6-0.5
	s0.9-0.8,1.1-1.4l2.3-5.2h13.2l2.3,5.1c0.3,0.6,0.6,1.1,1.1,1.4c0.5,0.4,1,0.5,1.7,0.5s1.4-0.3,2-0.8s0.9-1.2,0.9-2.1
	c0-0.4-0.1-0.7-0.3-1.2L436.9,880.8z M438,897.7h-8.2l4.1-9.2L438,897.7z"/>
<path class="st1" d="M466.1,880.8c-0.2-0.6-0.6-1.1-1.1-1.4c-0.5-0.3-1.1-0.5-1.7-0.5l0,0c-0.7-0.1-1.3,0.1-1.8,0.4
	c-0.5,0.4-0.9,0.9-1.2,1.5L448.9,907c-0.1,0.3-0.1,0.6-0.1,0.9c0,0.8,0.2,1.4,0.7,1.9s1.1,0.7,2,0.7c0.6,0,1.1-0.2,1.6-0.5
	s0.9-0.8,1.1-1.4l2.3-5.2h13.2l2.3,5.1c0.3,0.6,0.6,1.1,1.1,1.4c0.5,0.4,1,0.5,1.7,0.5s1.4-0.3,2-0.8s0.9-1.2,0.9-2.1
	c0-0.4-0.1-0.7-0.3-1.2L466.1,880.8z M467.1,897.7h-8.2l4.1-9.2L467.1,897.7z"/>
<path class="st1" d="M506.4,886.7c-1.1-2.4-2.7-4.3-4.8-5.6c-2.1-1.4-4.6-2.1-7.5-2.1h-10.9c-0.9,0-1.6,0.3-2.2,0.8
	c-0.6,0.6-0.9,1.3-0.9,2.1v25.3c0,0.8,0.3,1.5,0.9,2.1s1.3,0.8,2.2,0.8H494c2.9,0,5.4-0.7,7.5-2.1c2.1-1.4,3.7-3.3,4.8-5.6
	c1.1-2.3,1.6-5,1.6-7.9C508,891.7,507.4,889.1,506.4,886.7z M501.5,894.6c0,2.9-0.7,5.3-2,7.2c-1.3,1.8-3.3,2.8-5.9,2.8h-7.2v-20
	h7.2c2.6,0,4.6,0.9,5.9,2.8C500.8,889.3,501.5,891.7,501.5,894.6z"/>
<path class="st2" d="M436.2,839.9l-27.2-7.4c-4.9-1.3-8.2-5.7-8.2-10.8V813c0-5,3.4-9.5,8.2-10.8l27.2-7.4
	c7.1-1.9,14.1,3.4,14.1,10.8v23.5C450.3,836.4,443.3,841.8,436.2,839.9z"/>
<path class="st2" d="M370.7,667c-26,0-47.7,19.1-51.6,44.1c-6.9-13.4-20.9-22.6-37-22.6c-22.9,0-41.5,18.6-41.5,41.5
	s18.6,41.5,41.5,41.5c19.6,0,36.1-13.7,40.4-32c7.9,18.8,26.5,32,48.2,32c28.8,0,52.3-23.5,52.3-52.3S399.5,667,370.7,667z
	 M282.1,763.2c-18.3,0-33.1-14.9-33.1-33.1c0-18.3,14.9-33.1,33.1-33.1c18.3,0,33.1,14.9,33.1,33.1S300.4,763.2,282.1,763.2z
	 M370.7,763.2c-24.2,0-43.9-19.7-43.9-43.9s19.7-43.9,43.9-43.9c24.2,0,43.9,19.7,43.9,43.9S394.9,763.2,370.7,763.2z"/>
<circle class="st2" cx="367.7" cy="724.6" r="8.1"/>
<circle class="st2" cx="282.1" cy="732.6" r="8.1"/>
<path class="st2" d="M423.3,673.3c-1.3,0-2.5-0.6-3.3-1.6c-10.9-14.2-25-21.9-41.7-22.8c-12.7-0.7-22.3,3-22.4,3
	c-2.2,0.8-4.6-0.2-5.4-2.4s0.2-4.6,2.4-5.4c0.4-0.2,11.1-4.3,25.5-3.6c13.4,0.6,32.6,5.7,48.3,26.1c1.4,1.8,1.1,4.5-0.8,5.9
	C425.1,673.1,424.2,673.3,423.3,673.3z"/>
<path class="st2" d="M365.8,854.1h-72.7c-13.8,0-24.9-11.2-24.9-24.9v-23.5c0-13.8,11.2-24.9,24.9-24.9h72.7
	c13.8,0,24.9,11.2,24.9,24.9v23.4C390.8,842.9,379.6,854.1,365.8,854.1z"/>
<g>
	<path class="st3" d="M786.9,790.3H771c-0.5,0-0.9,0.2-1.1,0.5c-0.3,0.3-0.5,0.7-0.5,1.1v26.8c0,0.5,0.2,0.8,0.5,1.1
		c0.3,0.3,0.7,0.5,1.1,0.5c0.5,0,0.9-0.2,1.1-0.5c0.3-0.3,0.5-0.7,0.5-1.1v-12.3h12.2c0.5,0,0.9-0.1,1.1-0.4
		c0.3-0.3,0.5-0.7,0.5-1.1c0-0.5-0.2-0.8-0.5-1.1c-0.3-0.3-0.7-0.4-1.1-0.4h-12.2v-10h14.3c0.5,0,0.9-0.2,1.1-0.5
		c0.3-0.3,0.5-0.7,0.5-1.1c0-0.5-0.2-0.8-0.5-1.1C787.7,790.5,787.3,790.3,786.9,790.3z"/>
	<path class="st3" d="M795.8,790.3c-0.5,0-0.9,0.2-1.1,0.4c-0.3,0.3-0.5,0.7-0.5,1.1v26.7c0,0.5,0.2,0.9,0.5,1.1
		c0.3,0.3,0.7,0.5,1.1,0.5c0.5,0,0.9-0.2,1.1-0.5c0.3-0.3,0.5-0.7,0.5-1.1v-26.7c0-0.5-0.2-0.9-0.5-1.1
		C796.6,790.5,796.2,790.3,795.8,790.3z"/>
	<path class="st3" d="M822.2,817.1h-13.9v-25.3c0-0.5-0.2-0.8-0.5-1.1c-0.3-0.3-0.7-0.4-1.1-0.4s-0.9,0.2-1.1,0.4
		c-0.3,0.3-0.5,0.7-0.5,1.1v26.8c0,0.5,0.2,0.8,0.5,1.1c0.3,0.3,0.7,0.5,1.1,0.5h15.6c0.5,0,0.9-0.2,1.1-0.5
		c0.3-0.3,0.5-0.7,0.5-1.1c0-0.5-0.2-0.8-0.5-1.1C823,817.2,822.6,817.1,822.2,817.1z"/>
	<path class="st3" d="M855.1,790.3L855.1,790.3c-0.6-0.1-1.1,0.2-1.4,0.7l-11.3,16.2l-11.2-16.2c-0.2-0.2-0.4-0.4-0.7-0.5
		c-0.8-0.3-1.4-0.2-1.9,0.3c-0.3,0.3-0.5,0.7-0.5,1.1v26.8c0,0.5,0.2,0.8,0.4,1.1c0.3,0.3,0.7,0.5,1.1,0.5c0.5,0,0.9-0.2,1.1-0.5
		c0.3-0.3,0.5-0.7,0.5-1.1v-22.2l9.8,14.3c0.4,0.4,0.8,0.6,1.1,0.6h0.1c0.5,0,0.9-0.2,1.2-0.6l9.8-14.2v22.1c0,0.5,0.2,0.9,0.5,1.1
		c0.3,0.3,0.7,0.4,1.1,0.4c0.5,0,0.9-0.2,1.1-0.4c0.3-0.3,0.5-0.7,0.5-1.1v-26.8c0-0.5-0.2-0.8-0.5-1.1
		C855.9,790.5,855.5,790.3,855.1,790.3z"/>
	<path class="st3" d="M886.6,815.3l-9.6-12.2l9.3-8.5c0.6-0.6,0.9-1.1,0.9-1.8s-0.3-1.2-0.8-1.8c-0.5-0.6-1.1-0.9-1.9-0.9
		c-0.9,0-1.6,0.4-2.3,1.1l-13.5,12.7v-10.7c0-0.9-0.3-1.5-0.9-2c-0.6-0.5-1.2-0.8-2.1-0.8c-0.9,0-1.6,0.3-2.2,0.8
		c-0.6,0.6-0.9,1.2-0.9,2v24.2c0,0.8,0.3,1.4,0.9,2c0.6,0.6,1.2,0.8,2.1,0.8c0.9,0,1.6-0.3,2.2-0.8c0.6-0.5,0.9-1.2,0.9-2V811
		l3.8-3.5l9.3,11.6c0.3,0.4,0.6,0.6,1,0.8c0.4,0.2,0.8,0.3,1.2,0.3c0.9,0,1.6-0.3,2.3-0.9c0.7-0.6,1-1.2,1-2.1c0-0.3-0.1-0.7-0.2-1
		C887,815.9,886.8,815.6,886.6,815.3z"/>
	<path class="st3" d="M905.8,792c-0.2-0.6-0.6-1.1-1.1-1.3c-0.5-0.3-1.1-0.5-1.5-0.5l0,0c-0.7-0.1-1.2,0.1-1.7,0.4
		c-0.5,0.4-0.9,0.9-1.1,1.4l-10.9,25.1c-0.1,0.3-0.2,0.6-0.2,0.9c0,0.8,0.2,1.3,0.7,1.8c0.5,0.5,1.1,0.7,1.9,0.7
		c0.6,0,1.1-0.2,1.5-0.5c0.5-0.3,0.9-0.8,1.1-1.3l2.2-5h12.6l2.2,4.9c0.3,0.6,0.6,1.1,1.1,1.3c0.5,0.4,1,0.5,1.6,0.5
		s1.3-0.3,1.9-0.8c0.6-0.5,0.9-1.1,0.9-2c0-0.4-0.1-0.7-0.3-1.1L905.8,792z M898.9,808.2l3.9-8.8l4,8.8H898.9z"/>
	<path class="st3" d="M948.8,791c-0.6-0.6-1.2-0.8-2.1-0.8c-0.5,0-0.9,0.1-1.3,0.4c-0.5,0.2-0.8,0.6-1.1,0.9l-9.6,13.7l-9.3-13.7
		c-0.3-0.4-0.7-0.7-1.1-0.9c-0.5-0.2-1-0.4-1.4-0.4c-0.9,0-1.5,0.3-2.1,0.9c-0.6,0.6-0.9,1.2-0.9,2v24.2c0,0.8,0.3,1.4,0.8,2
		c0.5,0.6,1.1,0.9,2,0.9c0.9,0,1.5-0.3,2-0.8c0.5-0.5,0.8-1.2,0.8-2v-16.4l6.7,10.1c0.3,0.4,0.7,0.7,1.1,0.9
		c0.4,0.2,0.9,0.4,1.2,0.3c0.5,0,0.9-0.1,1.3-0.3c0.4-0.2,0.8-0.5,1.1-0.9l6.7-9.9v16c0,0.9,0.3,1.5,0.9,2c0.6,0.5,1.2,0.8,2.2,0.8
		c1,0,1.6-0.3,2.2-0.8c0.6-0.6,0.9-1.2,0.9-2v-24.2C949.7,792.3,949.4,791.6,948.8,791L948.8,791z"/>
	<path class="st3" d="M973.2,795.6c0.9,0,1.5-0.3,2.1-0.7c0.6-0.5,0.9-1.1,0.9-1.9s-0.3-1.4-0.9-2c-0.6-0.5-1.2-0.8-2.1-0.8h-14.6
		c-0.9,0-1.5,0.3-2.1,0.8c-0.6,0.6-0.9,1.2-0.9,2v24.2c0,0.8,0.3,1.4,0.9,2c0.6,0.6,1.2,0.8,2.1,0.8h14.6c0.9,0,1.5-0.3,2.1-0.8
		c0.6-0.5,0.9-1.1,0.9-1.9c0-0.7-0.3-1.3-0.9-1.9l0,0c-0.6-0.6-1.2-0.8-2.1-0.8h-11.6v-7.1h9.6c0.9,0,1.5-0.3,2.1-0.7
		c0.6-0.5,0.9-1.1,0.9-1.9s-0.3-1.4-0.9-2c-0.6-0.5-1.2-0.8-2.1-0.8h-9.6v-6.6L973.2,795.6L973.2,795.6z"/>
	<path class="st3" d="M1005.8,816.5c-0.3-0.4-0.6-0.8-1.1-1c-0.4-0.2-0.6-0.4-0.7-0.7c-0.1-0.4-0.2-1-0.4-1.8c0-0.5,0-0.9-0.1-1.3
		c-0.2-2-1.1-3.6-2.8-4.9c1.1-0.8,2.1-1.8,2.8-3.1c0.8-1.3,1.2-2.8,1.2-4.2c0-1.7-0.4-3.3-1.2-4.8s-1.9-2.5-3.3-3.3
		c-1.3-0.8-2.9-1.2-4.4-1.2h-12.5c-0.9,0-1.5,0.3-2.1,0.8c-0.6,0.6-0.9,1.2-0.9,2v24.2c0,0.8,0.4,1.5,1.1,2s1.4,0.8,2.4,0.8
		c0.8,0,1.4-0.3,1.9-0.8c0.5-0.5,0.7-1.2,0.7-2v-7.7h7.8c1.2,0,2.1,0.3,2.8,0.8c0.7,0.6,1,1.2,1,2.2c0,3.6,1.1,6,3.3,7.3
		c0.6,0.3,1.3,0.5,2,0.5c1,0,1.7-0.3,2.2-0.9c0.4-0.5,0.6-1,0.6-1.5C1006.1,817.3,1006,816.9,1005.8,816.5L1005.8,816.5z
		 M998.2,802.1c-0.3,0.8-0.7,1.3-1.1,1.8c-0.5,0.4-0.9,0.7-1.3,0.7h-9.3v-9h9.3c0.5,0,1,0.2,1.3,0.6c0.5,0.4,0.9,0.9,1.1,1.4
		c0.3,0.6,0.5,1.3,0.5,2C998.6,800.6,998.4,801.4,998.2,802.1z"/>
	<path class="st3" d="M1024.3,792c-0.2-0.6-0.6-1.1-1.1-1.3c-0.5-0.3-1.1-0.5-1.6-0.5l0,0c-0.7-0.1-1.2,0.1-1.7,0.4
		c-0.5,0.4-0.9,0.9-1.1,1.4l-10.9,25.1c-0.1,0.3-0.2,0.6-0.2,0.9c0,0.8,0.2,1.3,0.7,1.8c0.5,0.5,1.1,0.7,1.9,0.7
		c0.6,0,1.1-0.2,1.5-0.5c0.5-0.3,0.9-0.8,1.1-1.3l2.2-5h12.6l2.2,4.9c0.3,0.6,0.6,1.1,1.1,1.3c0.5,0.4,1,0.5,1.6,0.5
		s1.3-0.3,1.9-0.8c0.6-0.5,0.9-1.1,0.9-2c0-0.4-0.1-0.7-0.3-1.1L1024.3,792z M1017.5,808.2l3.9-8.8l4,8.8H1017.5z"/>
	<path class="st3" d="M1052.2,792c-0.2-0.6-0.6-1.1-1.1-1.3c-0.5-0.3-1.1-0.5-1.6-0.5l0,0c-0.7-0.1-1.2,0.1-1.7,0.4
		c-0.5,0.4-0.9,0.9-1.1,1.4l-10.9,25.1c-0.1,0.3-0.1,0.6-0.1,0.9c0,0.8,0.2,1.3,0.7,1.8c0.5,0.5,1.1,0.7,1.9,0.7
		c0.6,0,1.1-0.2,1.5-0.5c0.5-0.3,0.9-0.8,1.1-1.3l2.2-5h12.6l2.2,4.9c0.3,0.6,0.6,1.1,1.1,1.3c0.5,0.4,1,0.5,1.6,0.5
		s1.3-0.3,1.9-0.8c0.6-0.5,0.9-1.1,0.9-2c0-0.4-0.1-0.7-0.3-1.1L1052.2,792z M1045.3,808.2l3.9-8.8l4,8.8H1045.3z"/>
	<path class="st3" d="M1090.8,797.6c-1.1-2.3-2.6-4.1-4.6-5.4c-2-1.3-4.4-2-7.2-2h-10.4c-0.9,0-1.5,0.3-2.1,0.8
		c-0.6,0.6-0.9,1.2-0.9,2v24.2c0,0.8,0.3,1.4,0.9,2c0.6,0.6,1.2,0.8,2.1,0.8h10.4c2.8,0,5.2-0.7,7.2-2c2-1.3,3.5-3.2,4.6-5.4
		c1.1-2.2,1.5-4.8,1.5-7.6C1092.3,802.4,1091.7,799.9,1090.8,797.6z M1084.2,812.1c-1.2,1.7-3.2,2.7-5.6,2.7h-6.9v-19.1h6.9
		c2.5,0,4.4,0.9,5.6,2.7c1.2,1.8,1.9,4.1,1.9,6.9S1085.4,810.3,1084.2,812.1z"/>
</g>
<g>
	<path class="st3" d="M1161.1,805.3v3.1c0,1.8,1.2,3.4,2.9,3.9l9.7,2.6c2.5,0.7,5-1.2,5-3.9v-8.4c0-2.6-2.5-4.5-5-3.9l-9.7,2.6
		C1162.3,801.9,1161.1,803.5,1161.1,805.3z"/>
	<path class="st3" d="M1118.7,790.5c7,0,12.9-4.9,14.4-11.4c2.8,6.7,9.5,11.4,17.2,11.4c10.3,0,18.7-8.4,18.7-18.7
		s-8.4-18.7-18.7-18.7c-9.3,0-17,6.8-18.4,15.7c-2.5-4.8-7.5-8.1-13.2-8.1c-8.2,0-14.8,6.6-14.8,14.8
		C1103.9,783.8,1110.6,790.5,1118.7,790.5z M1150.3,756.2c8.6,0,15.7,7,15.7,15.7s-7,15.7-15.7,15.7c-8.6,0-15.7-7-15.7-15.7
		C1134.7,763.2,1141.7,756.2,1150.3,756.2z M1118.7,763.8c6.5,0,11.8,5.3,11.8,11.8c0,6.5-5.3,11.8-11.8,11.8
		c-6.5,0-11.8-5.3-11.8-11.8C1106.9,769.1,1112.2,763.8,1118.7,763.8z"/>
	<ellipse class="st3" cx="1149.3" cy="773.7" rx="2.9" ry="2.9"/>
	<ellipse class="st3" cx="1118.7" cy="776.6" rx="2.9" ry="2.9"/>
	<path class="st3" d="M1145.1,747.8c0,0,3.5-1.3,8-1.1c6,0.3,11,3,14.9,8.1c0.3,0.4,0.7,0.6,1.2,0.6c0.3,0,0.6-0.1,0.9-0.3
		c0.6-0.5,0.8-1.5,0.3-2.1c-5.6-7.3-12.5-9.1-17.2-9.3c-5.1-0.2-9,1.2-9.1,1.3c-0.8,0.3-1.1,1.2-0.9,1.9
		C1143.4,747.7,1144.3,748.1,1145.1,747.8z"/>
	<path class="st3" d="M1148.6,793.7h-25.9c-4.9,0-8.9,4-8.9,8.9v8.4c0,4.9,4,8.9,8.9,8.9h25.9c4.9,0,8.9-4,8.9-8.9v-8.4
		C1157.5,797.7,1153.5,793.7,1148.6,793.7z"/>
</g>
<path class="st4" d="M188.8,380h-16.6c-0.5,0-0.9,0.2-1.2,0.5s-0.5,0.7-0.5,1.1v28c0,0.5,0.2,0.8,0.5,1.1c0.3,0.3,0.7,0.5,1.2,0.5
	s0.9-0.2,1.2-0.5s0.5-0.7,0.5-1.1v-12.9h12.8c0.5,0,0.9-0.1,1.2-0.4s0.5-0.7,0.5-1.1s-0.2-0.8-0.5-1.1c-0.3-0.3-0.7-0.4-1.2-0.4
	h-12.8v-10.4h14.9c0.5,0,0.9-0.2,1.2-0.5s0.5-0.7,0.5-1.1c0-0.5-0.2-0.8-0.5-1.1C189.6,380.2,189.2,380,188.8,380z"/>
<path class="st4" d="M198.1,380c-0.5,0-0.9,0.2-1.2,0.4c-0.3,0.3-0.5,0.7-0.5,1.2v27.9c0,0.5,0.2,0.9,0.5,1.2
	c0.3,0.3,0.7,0.5,1.2,0.5s0.9-0.2,1.2-0.5s0.5-0.7,0.5-1.2v-27.9c0-0.5-0.2-0.9-0.5-1.2C198.9,380.2,198.5,380,198.1,380z"/>
<path class="st4" d="M225.7,408.1h-14.5v-26.4c0-0.5-0.2-0.8-0.5-1.2c-0.3-0.3-0.7-0.4-1.2-0.4s-0.9,0.2-1.2,0.4
	c-0.3,0.3-0.5,0.7-0.5,1.2v28c0,0.5,0.2,0.8,0.5,1.1c0.3,0.3,0.7,0.5,1.2,0.5h16.3c0.5,0,0.9-0.2,1.2-0.5s0.5-0.7,0.5-1.1
	c0-0.5-0.2-0.8-0.5-1.1C226.5,408.2,226.1,408.1,225.7,408.1z"/>
<path class="st4" d="M260.1,380L260.1,380c-0.6-0.1-1.1,0.2-1.5,0.7l-11.8,16.9l-11.7-16.9c-0.2-0.2-0.4-0.4-0.7-0.5
	c-0.8-0.3-1.5-0.2-2,0.3c-0.3,0.3-0.5,0.7-0.5,1.1v28c0,0.5,0.2,0.8,0.4,1.1c0.3,0.3,0.7,0.5,1.2,0.5s0.9-0.2,1.2-0.5
	s0.5-0.7,0.5-1.1v-23.2l10.2,14.9c0.4,0.4,0.8,0.6,1.2,0.6h0.1c0.5,0,0.9-0.2,1.3-0.6l10.2-14.8v23.1c0,0.5,0.2,0.9,0.5,1.2
	c0.3,0.3,0.7,0.4,1.2,0.4s0.9-0.2,1.2-0.4c0.3-0.3,0.5-0.7,0.5-1.2v-28c0-0.5-0.2-0.8-0.5-1.1C260.9,380.2,260.5,380,260.1,380z"/>
<path class="st4" d="M293,406.2l-10-12.7l9.7-8.9c0.6-0.6,0.9-1.2,0.9-1.9c0-0.7-0.3-1.3-0.8-1.9s-1.2-0.9-2-0.9
	c-0.9,0-1.7,0.4-2.4,1.1l-14.1,13.3v-11.2c0-0.9-0.3-1.6-0.9-2.1s-1.3-0.8-2.2-0.8s-1.7,0.3-2.3,0.8c-0.6,0.6-0.9,1.3-0.9,2.1v25.3
	c0,0.8,0.3,1.5,0.9,2.1s1.3,0.8,2.2,0.8s1.7-0.3,2.3-0.8s0.9-1.3,0.9-2.1v-6.7l4-3.7l9.7,12.1c0.3,0.4,0.6,0.6,1,0.8
	c0.4,0.2,0.8,0.3,1.3,0.3c0.9,0,1.7-0.3,2.4-0.9c0.7-0.6,1-1.3,1-2.2c0-0.3-0.1-0.7-0.2-1C293.4,406.8,293.2,406.5,293,406.2z"/>
<path class="st4" d="M313.1,381.8c-0.2-0.6-0.6-1.1-1.1-1.4s-1.1-0.5-1.6-0.5l0,0c-0.7-0.1-1.3,0.1-1.8,0.4
	c-0.5,0.4-0.9,0.9-1.2,1.5L296,408c-0.1,0.3-0.2,0.6-0.2,0.9c0,0.8,0.2,1.4,0.7,1.9s1.1,0.7,2,0.7c0.6,0,1.1-0.2,1.6-0.5
	s0.9-0.8,1.1-1.4l2.3-5.2h13.2l2.3,5.1c0.3,0.6,0.6,1.1,1.1,1.4c0.5,0.4,1,0.5,1.7,0.5s1.4-0.3,2-0.8s0.9-1.2,0.9-2.1
	c0-0.4-0.1-0.7-0.3-1.2L313.1,381.8z M314.1,398.7h-8.2l4.1-9.2L314.1,398.7z"/>
<path class="st4" d="M358,380.8c-0.6-0.6-1.3-0.8-2.2-0.8c-0.5,0-0.9,0.1-1.4,0.4c-0.5,0.2-0.8,0.6-1.1,0.9l-10,14.3l-9.7-14.3
	c-0.3-0.4-0.7-0.7-1.2-0.9c-0.5-0.2-1-0.4-1.5-0.4c-0.9,0-1.6,0.3-2.2,0.9s-0.9,1.3-0.9,2.1v25.3c0,0.8,0.3,1.5,0.8,2.1
	s1.2,0.9,2.1,0.9s1.6-0.3,2.1-0.8s0.8-1.3,0.8-2.1v-17.1l7,10.6c0.3,0.4,0.7,0.7,1.1,0.9c0.4,0.2,0.9,0.4,1.3,0.3
	c0.5,0,0.9-0.1,1.4-0.3c0.4-0.2,0.8-0.5,1.1-0.9l7-10.3v16.7c0,0.9,0.3,1.6,0.9,2.1s1.3,0.8,2.3,0.8c0.9,0,1.7-0.3,2.3-0.8
	c0.6-0.6,0.9-1.3,0.9-2.1V383C358.9,382.1,358.6,381.4,358,380.8L358,380.8z"/>
<path class="st4" d="M383.5,385.6c0.9,0,1.6-0.3,2.2-0.7c0.6-0.5,0.9-1.2,0.9-2s-0.3-1.5-0.9-2.1c-0.6-0.5-1.3-0.8-2.2-0.8h-15.3
	c-0.9,0-1.6,0.3-2.2,0.8c-0.6,0.6-0.9,1.3-0.9,2.1v25.3c0,0.8,0.3,1.5,0.9,2.1s1.3,0.8,2.2,0.8h15.3c0.9,0,1.6-0.3,2.2-0.8
	s0.9-1.2,0.9-2c0-0.7-0.3-1.4-0.9-2l0,0c-0.6-0.6-1.3-0.8-2.2-0.8h-12.1v-7.4h10c0.9,0,1.6-0.3,2.2-0.7c0.6-0.5,0.9-1.2,0.9-2
	s-0.3-1.5-0.9-2.1c-0.6-0.5-1.3-0.8-2.2-0.8h-10v-6.9H383.5z"/>
<path class="st4" d="M417.6,407.4c-0.3-0.4-0.6-0.8-1.1-1c-0.4-0.2-0.6-0.4-0.7-0.7c-0.1-0.4-0.2-1-0.4-1.9c0-0.5,0-0.9-0.1-1.4
	c-0.2-2.1-1.2-3.8-2.9-5.1c1.2-0.8,2.2-1.9,2.9-3.2c0.8-1.4,1.3-2.9,1.3-4.4c0-1.8-0.4-3.5-1.3-5s-2-2.6-3.5-3.5
	c-1.4-0.8-3-1.3-4.6-1.3h-13.1c-0.9,0-1.6,0.3-2.2,0.8c-0.6,0.6-0.9,1.3-0.9,2.1v25.3c0,0.8,0.4,1.6,1.1,2.1s1.5,0.8,2.5,0.8
	c0.8,0,1.5-0.3,2-0.8s0.7-1.3,0.7-2.1v-8h8.2c1.3,0,2.2,0.3,2.9,0.8c0.7,0.6,1,1.3,1,2.3c0,3.8,1.2,6.3,3.4,7.6
	c0.6,0.3,1.4,0.5,2.1,0.5c1,0,1.8-0.3,2.3-0.9c0.4-0.5,0.6-1,0.6-1.6C417.9,408.3,417.8,407.8,417.6,407.4L417.6,407.4z
	 M410.1,389.8c0,0.9-0.2,1.8-0.5,2.6c-0.3,0.8-0.7,1.4-1.2,1.9c-0.5,0.4-0.9,0.7-1.4,0.7h-9.7v-9.4h9.7c0.5,0,1,0.2,1.4,0.6
	c0.5,0.4,0.9,0.9,1.2,1.5C410,388.4,410.1,389.1,410.1,389.8z"/>
<path class="st4" d="M436.9,381.8c-0.2-0.6-0.6-1.1-1.1-1.4s-1.1-0.5-1.7-0.5l0,0c-0.7-0.1-1.3,0.1-1.8,0.4
	c-0.5,0.4-0.9,0.9-1.2,1.5L419.7,408c-0.1,0.3-0.2,0.6-0.2,0.9c0,0.8,0.2,1.4,0.7,1.9s1.1,0.7,2,0.7c0.6,0,1.1-0.2,1.6-0.5
	s0.9-0.8,1.1-1.4l2.3-5.2h13.2l2.3,5.1c0.3,0.6,0.6,1.1,1.1,1.4c0.5,0.4,1,0.5,1.7,0.5s1.4-0.3,2-0.8s0.9-1.2,0.9-2.1
	c0-0.4-0.1-0.7-0.3-1.2L436.9,381.8z M438,398.7h-8.2l4.1-9.2L438,398.7z"/>
<path class="st4" d="M466.1,381.8c-0.2-0.6-0.6-1.1-1.1-1.4s-1.1-0.5-1.7-0.5l0,0c-0.7-0.1-1.3,0.1-1.8,0.4
	c-0.5,0.4-0.9,0.9-1.2,1.5L448.9,408c-0.1,0.3-0.1,0.6-0.1,0.9c0,0.8,0.2,1.4,0.7,1.9s1.1,0.7,2,0.7c0.6,0,1.1-0.2,1.6-0.5
	s0.9-0.8,1.1-1.4l2.3-5.2h13.2l2.3,5.1c0.3,0.6,0.6,1.1,1.1,1.4c0.5,0.4,1,0.5,1.7,0.5s1.4-0.3,2-0.8s0.9-1.2,0.9-2.1
	c0-0.4-0.1-0.7-0.3-1.2L466.1,381.8z M467.1,398.7h-8.2l4.1-9.2L467.1,398.7z"/>
<path class="st4" d="M506.4,387.7c-1.1-2.4-2.7-4.3-4.8-5.6c-2.1-1.4-4.6-2.1-7.5-2.1h-10.9c-0.9,0-1.6,0.3-2.2,0.8
	c-0.6,0.6-0.9,1.3-0.9,2.1v25.3c0,0.8,0.3,1.5,0.9,2.1s1.3,0.8,2.2,0.8H494c2.9,0,5.4-0.7,7.5-2.1s3.7-3.3,4.8-5.6
	c1.1-2.3,1.6-5,1.6-7.9S507.4,390.1,506.4,387.7z M501.5,395.6c0,2.9-0.7,5.3-2,7.2c-1.3,1.8-3.3,2.8-5.9,2.8h-7.2v-20h7.2
	c2.6,0,4.6,0.9,5.9,2.8S501.5,392.7,501.5,395.6z"/>
<path class="st4" d="M436.2,340.9l-27.2-7.4c-4.9-1.3-8.2-5.7-8.2-10.8V314c0-5,3.4-9.5,8.2-10.8l27.2-7.4
	c7.1-1.9,14.1,3.4,14.1,10.8v23.5C450.3,337.4,443.3,342.8,436.2,340.9z"/>
<path class="st4" d="M282.1,272.6c-22.9,0-41.5-18.6-41.5-41.5s18.6-41.5,41.5-41.5s41.5,18.6,41.5,41.5S305,272.6,282.1,272.6z
	 M282.1,197.9c-18.3,0-33.1,14.9-33.1,33.1s14.9,33.1,33.1,33.1s33.1-14.9,33.1-33.1S300.4,197.9,282.1,197.9z"/>
<path class="st4" d="M370.7,272.6c-28.8,0-52.3-23.5-52.3-52.3s23.5-52.3,52.3-52.3s52.3,23.5,52.3,52.3S399.5,272.6,370.7,272.6z
	 M370.7,176.4c-24.2,0-43.9,19.7-43.9,43.9s19.7,43.9,43.9,43.9c24.2,0,43.9-19.7,43.9-43.9S394.9,176.4,370.7,176.4z"/>
<circle class="st4" cx="367.7" cy="225.6" r="8.1"/>
<circle class="st4" cx="282.1" cy="233.6" r="8.1"/>
<path class="st4" d="M423.3,174.3c-1.3,0-2.5-0.6-3.3-1.6c-10.9-14.2-25-21.9-41.7-22.8c-12.7-0.7-22.3,3-22.4,3
	c-2.2,0.8-4.6-0.2-5.4-2.4s0.2-4.6,2.4-5.4c0.4-0.2,11.1-4.3,25.5-3.6c13.4,0.6,32.6,5.7,48.3,26.1c1.4,1.8,1.1,4.5-0.8,5.9
	C425.1,174.1,424.2,174.3,423.3,174.3z"/>
<path class="st3" d="M365.8,355.1h-72.7c-13.8,0-24.9-11.2-24.9-24.9v-23.5c0-13.8,11.2-24.9,24.9-24.9h72.7
	c13.8,0,24.9,11.2,24.9,24.9v23.4C390.8,343.9,379.6,355.1,365.8,355.1z"/>
<path class="st5" d="M828.8,380h-16.6c-0.5,0-0.9,0.2-1.2,0.5s-0.5,0.7-0.5,1.1v28c0,0.5,0.2,0.8,0.5,1.1c0.3,0.3,0.7,0.5,1.2,0.5
	s0.9-0.2,1.2-0.5s0.5-0.7,0.5-1.1v-12.9h12.8c0.5,0,0.9-0.1,1.2-0.4s0.5-0.7,0.5-1.1s-0.2-0.8-0.5-1.1c-0.3-0.3-0.7-0.4-1.2-0.4
	h-12.8v-10.4h14.9c0.5,0,0.9-0.2,1.2-0.5s0.5-0.7,0.5-1.1c0-0.5-0.2-0.8-0.5-1.1C829.6,380.2,829.2,380,828.8,380z"/>
<path class="st5" d="M838.1,380c-0.5,0-0.9,0.2-1.2,0.4c-0.3,0.3-0.5,0.7-0.5,1.2v27.9c0,0.5,0.2,0.9,0.5,1.2
	c0.3,0.3,0.7,0.5,1.2,0.5s0.9-0.2,1.2-0.5s0.5-0.7,0.5-1.2v-27.9c0-0.5-0.2-0.9-0.5-1.2C838.9,380.2,838.5,380,838.1,380z"/>
<path class="st5" d="M865.7,408.1h-14.5v-26.4c0-0.5-0.2-0.8-0.5-1.2c-0.3-0.3-0.7-0.4-1.2-0.4s-0.9,0.2-1.2,0.4
	c-0.3,0.3-0.5,0.7-0.5,1.2v28c0,0.5,0.2,0.8,0.5,1.1c0.3,0.3,0.7,0.5,1.2,0.5h16.3c0.5,0,0.9-0.2,1.2-0.5s0.5-0.7,0.5-1.1
	c0-0.5-0.2-0.8-0.5-1.1C866.5,408.2,866.1,408.1,865.7,408.1z"/>
<path class="st5" d="M900.1,380L900.1,380c-0.6-0.1-1.1,0.2-1.5,0.7l-11.8,16.9l-11.7-16.9c-0.2-0.2-0.4-0.4-0.7-0.5
	c-0.8-0.3-1.5-0.2-2,0.3c-0.3,0.3-0.5,0.7-0.5,1.1v28c0,0.5,0.2,0.8,0.4,1.1c0.3,0.3,0.7,0.5,1.2,0.5s0.9-0.2,1.2-0.5
	s0.5-0.7,0.5-1.1v-23.2l10.2,14.9c0.4,0.4,0.8,0.6,1.2,0.6h0.1c0.5,0,0.9-0.2,1.3-0.6l10.2-14.8v23.1c0,0.5,0.2,0.9,0.5,1.2
	c0.3,0.3,0.7,0.4,1.2,0.4s0.9-0.2,1.2-0.4c0.3-0.3,0.5-0.7,0.5-1.2v-28c0-0.5-0.2-0.8-0.5-1.1C900.9,380.2,900.5,380,900.1,380z"/>
<path class="st5" d="M933,406.2l-10-12.7l9.7-8.9c0.6-0.6,0.9-1.2,0.9-1.9c0-0.7-0.3-1.3-0.8-1.9s-1.2-0.9-2-0.9
	c-0.9,0-1.7,0.4-2.4,1.1l-14.1,13.3v-11.2c0-0.9-0.3-1.6-0.9-2.1c-0.6-0.5-1.3-0.8-2.2-0.8s-1.7,0.3-2.3,0.8
	c-0.6,0.6-0.9,1.3-0.9,2.1v25.3c0,0.8,0.3,1.5,0.9,2.1c0.6,0.6,1.3,0.8,2.2,0.8s1.7-0.3,2.3-0.8s0.9-1.3,0.9-2.1v-6.7l4-3.7
	l9.7,12.1c0.3,0.4,0.6,0.6,1,0.8c0.4,0.2,0.8,0.3,1.3,0.3c0.9,0,1.7-0.3,2.4-0.9s1-1.3,1-2.2c0-0.3-0.1-0.7-0.2-1
	C933.4,406.8,933.2,406.5,933,406.2z"/>
<path class="st5" d="M953.1,381.8c-0.2-0.6-0.6-1.1-1.1-1.4s-1.1-0.5-1.6-0.5l0,0c-0.7-0.1-1.3,0.1-1.8,0.4
	c-0.5,0.4-0.9,0.9-1.2,1.5L936,408c-0.1,0.3-0.2,0.6-0.2,0.9c0,0.8,0.2,1.4,0.7,1.9s1.1,0.7,2,0.7c0.6,0,1.1-0.2,1.6-0.5
	s0.9-0.8,1.1-1.4l2.3-5.2h13.2l2.3,5.1c0.3,0.6,0.6,1.1,1.1,1.4c0.5,0.4,1,0.5,1.7,0.5s1.4-0.3,2-0.8s0.9-1.2,0.9-2.1
	c0-0.4-0.1-0.7-0.3-1.2L953.1,381.8z M954.1,398.7h-8.2l4.1-9.2L954.1,398.7z"/>
<path class="st5" d="M998,380.8c-0.6-0.6-1.3-0.8-2.2-0.8c-0.5,0-0.9,0.1-1.4,0.4c-0.5,0.2-0.8,0.6-1.1,0.9l-10,14.3l-9.7-14.3
	c-0.3-0.4-0.7-0.7-1.2-0.9c-0.5-0.2-1-0.4-1.5-0.4c-0.9,0-1.6,0.3-2.2,0.9c-0.6,0.6-0.9,1.3-0.9,2.1v25.3c0,0.8,0.3,1.5,0.8,2.1
	s1.2,0.9,2.1,0.9c0.9,0,1.6-0.3,2.1-0.8s0.8-1.3,0.8-2.1v-17.1l7,10.6c0.3,0.4,0.7,0.7,1.1,0.9c0.4,0.2,0.9,0.4,1.3,0.3
	c0.5,0,0.9-0.1,1.4-0.3c0.4-0.2,0.8-0.5,1.1-0.9l7-10.3v16.7c0,0.9,0.3,1.6,0.9,2.1c0.6,0.5,1.3,0.8,2.3,0.8s1.7-0.3,2.3-0.8
	c0.6-0.6,0.9-1.3,0.9-2.1V383C998.9,382.1,998.6,381.4,998,380.8L998,380.8z"/>
<path class="st5" d="M1023.5,385.6c0.9,0,1.6-0.3,2.2-0.7c0.6-0.5,0.9-1.2,0.9-2s-0.3-1.5-0.9-2.1c-0.6-0.5-1.3-0.8-2.2-0.8h-15.3
	c-0.9,0-1.6,0.3-2.2,0.8c-0.6,0.6-0.9,1.3-0.9,2.1v25.3c0,0.8,0.3,1.5,0.9,2.1c0.6,0.6,1.3,0.8,2.2,0.8h15.3c0.9,0,1.6-0.3,2.2-0.8
	s0.9-1.2,0.9-2c0-0.7-0.3-1.4-0.9-2l0,0c-0.6-0.6-1.3-0.8-2.2-0.8h-12.1v-7.4h10c0.9,0,1.6-0.3,2.2-0.7c0.6-0.5,0.9-1.2,0.9-2
	s-0.3-1.5-0.9-2.1c-0.6-0.5-1.3-0.8-2.2-0.8h-10v-6.9H1023.5z"/>
<path class="st5" d="M1057.6,407.4c-0.3-0.4-0.6-0.8-1.1-1c-0.4-0.2-0.6-0.4-0.7-0.7c-0.1-0.4-0.2-1-0.4-1.9c0-0.5,0-0.9-0.1-1.4
	c-0.2-2.1-1.2-3.8-2.9-5.1c1.2-0.8,2.2-1.9,2.9-3.2c0.8-1.4,1.3-2.9,1.3-4.4c0-1.8-0.4-3.5-1.3-5s-2-2.6-3.5-3.5
	c-1.4-0.8-3-1.3-4.6-1.3h-13.1c-0.9,0-1.6,0.3-2.2,0.8c-0.6,0.6-0.9,1.3-0.9,2.1v25.3c0,0.8,0.4,1.6,1.1,2.1s1.5,0.8,2.5,0.8
	c0.8,0,1.5-0.3,2-0.8s0.7-1.3,0.7-2.1v-8h8.2c1.3,0,2.2,0.3,2.9,0.8c0.7,0.6,1,1.3,1,2.3c0,3.8,1.2,6.3,3.4,7.6
	c0.6,0.3,1.4,0.5,2.1,0.5c1,0,1.8-0.3,2.3-0.9c0.4-0.5,0.6-1,0.6-1.6C1057.9,408.3,1057.8,407.8,1057.6,407.4L1057.6,407.4z
	 M1050.1,389.8c0,0.9-0.2,1.8-0.5,2.6c-0.3,0.8-0.7,1.4-1.2,1.9c-0.5,0.4-0.9,0.7-1.4,0.7h-9.7v-9.4h9.7c0.5,0,1,0.2,1.4,0.6
	c0.5,0.4,0.9,0.9,1.2,1.5C1050,388.4,1050.1,389.1,1050.1,389.8z"/>
<path class="st5" d="M1076.9,381.8c-0.2-0.6-0.6-1.1-1.1-1.4s-1.1-0.5-1.7-0.5l0,0c-0.7-0.1-1.3,0.1-1.8,0.4
	c-0.5,0.4-0.9,0.9-1.2,1.5l-11.4,26.2c-0.1,0.3-0.2,0.6-0.2,0.9c0,0.8,0.2,1.4,0.7,1.9s1.1,0.7,2,0.7c0.6,0,1.1-0.2,1.6-0.5
	s0.9-0.8,1.1-1.4l2.3-5.2h13.2l2.3,5.1c0.3,0.6,0.6,1.1,1.1,1.4c0.5,0.4,1,0.5,1.7,0.5s1.4-0.3,2-0.8s0.9-1.2,0.9-2.1
	c0-0.4-0.1-0.7-0.3-1.2L1076.9,381.8z M1078,398.7h-8.2l4.1-9.2L1078,398.7z"/>
<path class="st5" d="M1106.1,381.8c-0.2-0.6-0.6-1.1-1.1-1.4s-1.1-0.5-1.7-0.5l0,0c-0.7-0.1-1.3,0.1-1.8,0.4
	c-0.5,0.4-0.9,0.9-1.2,1.5l-11.4,26.2c-0.1,0.3-0.1,0.6-0.1,0.9c0,0.8,0.2,1.4,0.7,1.9s1.1,0.7,2,0.7c0.6,0,1.1-0.2,1.6-0.5
	s0.9-0.8,1.1-1.4l2.3-5.2h13.2l2.3,5.1c0.3,0.6,0.6,1.1,1.1,1.4c0.5,0.4,1,0.5,1.7,0.5s1.4-0.3,2-0.8s0.9-1.2,0.9-2.1
	c0-0.4-0.1-0.7-0.3-1.2L1106.1,381.8z M1107.1,398.7h-8.2l4.1-9.2L1107.1,398.7z"/>
<path class="st5" d="M1146.4,387.7c-1.1-2.4-2.7-4.3-4.8-5.6c-2.1-1.4-4.6-2.1-7.5-2.1h-10.9c-0.9,0-1.6,0.3-2.2,0.8
	c-0.6,0.6-0.9,1.3-0.9,2.1v25.3c0,0.8,0.3,1.5,0.9,2.1s1.3,0.8,2.2,0.8h10.9c2.9,0,5.4-0.7,7.5-2.1s3.7-3.3,4.8-5.6
	c1.1-2.3,1.6-5,1.6-7.9S1147.4,390.1,1146.4,387.7z M1141.5,395.6c0,2.9-0.7,5.3-2,7.2c-1.3,1.8-3.3,2.8-5.9,2.8h-7.2v-20h7.2
	c2.6,0,4.6,0.9,5.9,2.8S1141.5,392.7,1141.5,395.6z"/>
<path class="st5" d="M1076.2,340.9l-27.2-7.4c-4.9-1.3-8.2-5.7-8.2-10.8V314c0-5,3.4-9.5,8.2-10.8l27.2-7.4
	c7.1-1.9,14.1,3.4,14.1,10.8v23.5C1090.3,337.4,1083.3,342.8,1076.2,340.9z"/>
<path class="st5" d="M922.1,272.6c-22.9,0-41.5-18.6-41.5-41.5s18.6-41.5,41.5-41.5s41.5,18.6,41.5,41.5S945,272.6,922.1,272.6z
	 M922.1,197.9c-18.3,0-33.1,14.9-33.1,33.1s14.9,33.1,33.1,33.1c18.3,0,33.1-14.9,33.1-33.1S940.4,197.9,922.1,197.9z"/>
<path class="st5" d="M1010.7,272.6c-28.8,0-52.3-23.5-52.3-52.3s23.5-52.3,52.3-52.3s52.3,23.5,52.3,52.3S1039.5,272.6,1010.7,272.6
	z M1010.7,176.4c-24.2,0-43.9,19.7-43.9,43.9s19.7,43.9,43.9,43.9s43.9-19.7,43.9-43.9S1034.9,176.4,1010.7,176.4z"/>
<circle class="st5" cx="1007.7" cy="225.6" r="8.1"/>
<circle class="st5" cx="922.1" cy="233.6" r="8.1"/>
<path class="st5" d="M1063.3,174.3c-1.3,0-2.5-0.6-3.3-1.6c-10.9-14.2-25-21.9-41.7-22.8c-12.7-0.7-22.3,3-22.4,3
	c-2.2,0.8-4.6-0.2-5.4-2.4c-0.8-2.2,0.2-4.6,2.4-5.4c0.4-0.2,11.1-4.3,25.5-3.6c13.4,0.6,32.6,5.7,48.3,26.1
	c1.4,1.8,1.1,4.5-0.8,5.9C1065.1,174.1,1064.2,174.3,1063.3,174.3z"/>
<path class="st5" d="M1005.8,355.1h-72.7c-13.8,0-24.9-11.2-24.9-24.9v-23.5c0-13.8,11.2-24.9,24.9-24.9h72.7
	c13.8,0,24.9,11.2,24.9,24.9v23.4C1030.8,343.9,1019.6,355.1,1005.8,355.1z"/>
<polyline class="st6" points="87,90.1 126.3,141.1 163,90.1 "/>
<line class="st7" x1="725" y1="82.1" x2="772" y2="133.1"/>
<line class="st7" x1="725" y1="134.1" x2="772" y2="83.1"/>
<g>
	<g>
		<line class="st7" x1="93" y1="577.1" x2="140" y2="628.1"/>
		<line class="st7" x1="93" y1="629.1" x2="140" y2="578.1"/>
	</g>
	<line class="st7" x1="727" y1="577.1" x2="774" y2="628.1"/>
	<line class="st7" x1="727" y1="629.1" x2="774" y2="578.1"/>
</g>
<path class="st4" d="M1470.8,866.8h-16.6c-0.5,0-0.9,0.2-1.2,0.5c-0.3,0.3-0.5,0.7-0.5,1.1v28c0,0.5,0.2,0.8,0.5,1.1
	s0.7,0.5,1.2,0.5s0.9-0.2,1.2-0.5s0.5-0.7,0.5-1.1v-12.9h12.8c0.5,0,0.9-0.1,1.2-0.4c0.3-0.3,0.5-0.7,0.5-1.1c0-0.5-0.2-0.8-0.5-1.1
	s-0.7-0.4-1.2-0.4h-12.8v-10.4h14.9c0.5,0,0.9-0.2,1.2-0.5c0.3-0.3,0.5-0.7,0.5-1.1c0-0.5-0.2-0.8-0.5-1.1
	C1471.6,867,1471.2,866.8,1470.8,866.8z"/>
<path class="st4" d="M1480.1,866.8c-0.5,0-0.9,0.2-1.2,0.4c-0.3,0.3-0.5,0.7-0.5,1.2v27.9c0,0.5,0.2,0.9,0.5,1.2s0.7,0.5,1.2,0.5
	s0.9-0.2,1.2-0.5s0.5-0.7,0.5-1.2v-27.9c0-0.5-0.2-0.9-0.5-1.2C1480.9,867,1480.5,866.8,1480.1,866.8z"/>
<path class="st4" d="M1507.7,894.9h-14.5v-26.4c0-0.5-0.2-0.8-0.5-1.2c-0.3-0.3-0.7-0.4-1.2-0.4s-0.9,0.2-1.2,0.4
	c-0.3,0.3-0.5,0.7-0.5,1.2v28c0,0.5,0.2,0.8,0.5,1.1s0.7,0.5,1.2,0.5h16.3c0.5,0,0.9-0.2,1.2-0.5c0.3-0.3,0.5-0.7,0.5-1.1
	c0-0.5-0.2-0.8-0.5-1.1C1508.5,895,1508.1,894.9,1507.7,894.9z"/>
<path class="st4" d="M1542.1,866.8L1542.1,866.8c-0.6-0.1-1.1,0.2-1.5,0.7l-11.8,16.9l-11.7-16.9c-0.2-0.2-0.4-0.4-0.7-0.5
	c-0.8-0.3-1.5-0.2-2,0.3c-0.3,0.3-0.5,0.7-0.5,1.1v28c0,0.5,0.2,0.8,0.4,1.1c0.3,0.3,0.7,0.5,1.2,0.5s0.9-0.2,1.2-0.5
	c0.3-0.3,0.5-0.7,0.5-1.1v-23.2l10.2,14.9c0.4,0.4,0.8,0.6,1.2,0.6h0.1c0.5,0,0.9-0.2,1.3-0.6l10.2-14.8v23.1c0,0.5,0.2,0.9,0.5,1.2
	s0.7,0.4,1.2,0.4s0.9-0.2,1.2-0.4c0.3-0.3,0.5-0.7,0.5-1.2v-28c0-0.5-0.2-0.8-0.5-1.1C1542.9,867,1542.5,866.8,1542.1,866.8z"/>
<path class="st4" d="M1575,893l-10-12.7l9.7-8.9c0.6-0.6,0.9-1.2,0.9-1.9s-0.3-1.3-0.8-1.9c-0.5-0.6-1.2-0.9-2-0.9
	c-0.9,0-1.7,0.4-2.4,1.1l-14.1,13.3v-11.2c0-0.9-0.3-1.6-0.9-2.1s-1.3-0.8-2.2-0.8s-1.7,0.3-2.3,0.8c-0.6,0.6-0.9,1.3-0.9,2.1v25.3
	c0,0.8,0.3,1.5,0.9,2.1s1.3,0.8,2.2,0.8c0.9,0,1.7-0.3,2.3-0.8c0.6-0.5,0.9-1.3,0.9-2.1v-6.7l4-3.7l9.7,12.1c0.3,0.4,0.6,0.6,1,0.8
	s0.8,0.3,1.3,0.3c0.9,0,1.7-0.3,2.4-0.9c0.7-0.6,1-1.3,1-2.2c0-0.3-0.1-0.7-0.2-1C1575.4,893.6,1575.2,893.3,1575,893z"/>
<path class="st4" d="M1595.1,868.6c-0.2-0.6-0.6-1.1-1.1-1.4c-0.5-0.3-1.1-0.5-1.6-0.5l0,0c-0.7-0.1-1.3,0.1-1.8,0.4
	c-0.5,0.4-0.9,0.9-1.2,1.5l-11.4,26.2c-0.1,0.3-0.2,0.6-0.2,0.9c0,0.8,0.2,1.4,0.7,1.9s1.1,0.7,2,0.7c0.6,0,1.1-0.2,1.6-0.5
	s0.9-0.8,1.1-1.4l2.3-5.2h13.2l2.3,5.1c0.3,0.6,0.6,1.1,1.1,1.4c0.5,0.4,1,0.5,1.7,0.5s1.4-0.3,2-0.8s0.9-1.2,0.9-2.1
	c0-0.4-0.1-0.7-0.3-1.2L1595.1,868.6z M1596.1,885.5h-8.2l4.1-9.2L1596.1,885.5z"/>
<path class="st4" d="M1640,867.6c-0.6-0.6-1.3-0.8-2.2-0.8c-0.5,0-0.9,0.1-1.4,0.4c-0.5,0.2-0.8,0.6-1.1,0.9l-10,14.3l-9.7-14.3
	c-0.3-0.4-0.7-0.7-1.2-0.9s-1-0.4-1.5-0.4c-0.9,0-1.6,0.3-2.2,0.9c-0.6,0.6-0.9,1.3-0.9,2.1v25.3c0,0.8,0.3,1.5,0.8,2.1
	s1.2,0.9,2.1,0.9s1.6-0.3,2.1-0.8s0.8-1.3,0.8-2.1v-17.1l7,10.6c0.3,0.4,0.7,0.7,1.1,0.9s0.9,0.4,1.3,0.3c0.5,0,0.9-0.1,1.4-0.3
	c0.4-0.2,0.8-0.5,1.1-0.9l7-10.3v16.7c0,0.9,0.3,1.6,0.9,2.1s1.3,0.8,2.3,0.8c0.9,0,1.7-0.3,2.3-0.8c0.6-0.6,0.9-1.3,0.9-2.1v-25.3
	C1640.9,868.9,1640.6,868.2,1640,867.6L1640,867.6z"/>
<path class="st4" d="M1665.5,872.4c0.9,0,1.6-0.3,2.2-0.7c0.6-0.5,0.9-1.2,0.9-2s-0.3-1.5-0.9-2.1c-0.6-0.5-1.3-0.8-2.2-0.8h-15.3
	c-0.9,0-1.6,0.3-2.2,0.8c-0.6,0.6-0.9,1.3-0.9,2.1V895c0,0.8,0.3,1.5,0.9,2.1s1.3,0.8,2.2,0.8h15.3c0.9,0,1.6-0.3,2.2-0.8
	s0.9-1.2,0.9-2c0-0.7-0.3-1.4-0.9-2l0,0c-0.6-0.6-1.3-0.8-2.2-0.8h-12.1v-7.4h10c0.9,0,1.6-0.3,2.2-0.7c0.6-0.5,0.9-1.2,0.9-2
	s-0.3-1.5-0.9-2.1c-0.6-0.5-1.3-0.8-2.2-0.8h-10v-6.9L1665.5,872.4L1665.5,872.4z"/>
<path class="st4" d="M1699.6,894.2c-0.3-0.4-0.6-0.8-1.1-1c-0.4-0.2-0.6-0.4-0.7-0.7c-0.1-0.4-0.2-1-0.4-1.9c0-0.5,0-0.9-0.1-1.4
	c-0.2-2.1-1.2-3.8-2.9-5.1c1.2-0.8,2.2-1.9,2.9-3.2c0.8-1.4,1.3-2.9,1.3-4.4c0-1.8-0.4-3.5-1.3-5s-2-2.6-3.5-3.5
	c-1.4-0.8-3-1.3-4.6-1.3h-13.1c-0.9,0-1.6,0.3-2.2,0.8c-0.6,0.6-0.9,1.3-0.9,2.1v25.3c0,0.8,0.4,1.6,1.1,2.1s1.5,0.8,2.5,0.8
	c0.8,0,1.5-0.3,2-0.8s0.7-1.3,0.7-2.1v-8h8.2c1.3,0,2.2,0.3,2.9,0.8c0.7,0.6,1,1.3,1,2.3c0,3.8,1.2,6.3,3.4,7.6
	c0.6,0.3,1.4,0.5,2.1,0.5c1,0,1.8-0.3,2.3-0.9c0.4-0.5,0.6-1,0.6-1.6C1699.9,895.1,1699.8,894.6,1699.6,894.2L1699.6,894.2z
	 M1692.1,876.6c0,0.9-0.2,1.8-0.5,2.6s-0.7,1.4-1.2,1.9c-0.5,0.4-0.9,0.7-1.4,0.7h-9.7v-9.4h9.7c0.5,0,1,0.2,1.4,0.6
	c0.5,0.4,0.9,0.9,1.2,1.5C1692,875.2,1692.1,875.9,1692.1,876.6z"/>
<path class="st4" d="M1718.9,868.6c-0.2-0.6-0.6-1.1-1.1-1.4c-0.5-0.3-1.1-0.5-1.7-0.5l0,0c-0.7-0.1-1.3,0.1-1.8,0.4
	c-0.5,0.4-0.9,0.9-1.2,1.5l-11.4,26.2c-0.1,0.3-0.2,0.6-0.2,0.9c0,0.8,0.2,1.4,0.7,1.9s1.1,0.7,2,0.7c0.6,0,1.1-0.2,1.6-0.5
	s0.9-0.8,1.1-1.4l2.3-5.2h13.2l2.3,5.1c0.3,0.6,0.6,1.1,1.1,1.4c0.5,0.4,1,0.5,1.7,0.5s1.4-0.3,2-0.8s0.9-1.2,0.9-2.1
	c0-0.4-0.1-0.7-0.3-1.2L1718.9,868.6z M1720,885.5h-8.2l4.1-9.2L1720,885.5z"/>
<path class="st4" d="M1748.1,868.6c-0.2-0.6-0.6-1.1-1.1-1.4c-0.5-0.3-1.1-0.5-1.7-0.5l0,0c-0.7-0.1-1.3,0.1-1.8,0.4
	c-0.5,0.4-0.9,0.9-1.2,1.5l-11.4,26.2c-0.1,0.3-0.1,0.6-0.1,0.9c0,0.8,0.2,1.4,0.7,1.9s1.1,0.7,2,0.7c0.6,0,1.1-0.2,1.6-0.5
	s0.9-0.8,1.1-1.4l2.3-5.2h13.2l2.3,5.1c0.3,0.6,0.6,1.1,1.1,1.4c0.5,0.4,1,0.5,1.7,0.5s1.4-0.3,2-0.8s0.9-1.2,0.9-2.1
	c0-0.4-0.1-0.7-0.3-1.2L1748.1,868.6z M1749.1,885.5h-8.2l4.1-9.2L1749.1,885.5z"/>
<path class="st4" d="M1788.4,874.5c-1.1-2.4-2.7-4.3-4.8-5.6c-2.1-1.4-4.6-2.1-7.5-2.1h-10.9c-0.9,0-1.6,0.3-2.2,0.8
	c-0.6,0.6-0.9,1.3-0.9,2.1V895c0,0.8,0.3,1.5,0.9,2.1s1.3,0.8,2.2,0.8h10.8c2.9,0,5.4-0.7,7.5-2.1c2.1-1.4,3.7-3.3,4.8-5.6
	s1.6-5,1.6-7.9C1790,879.5,1789.4,876.9,1788.4,874.5z M1783.5,882.4c0,2.9-0.7,5.3-2,7.2c-1.3,1.8-3.3,2.8-5.9,2.8h-7.2v-20h7.2
	c2.6,0,4.6,0.9,5.9,2.8S1783.5,879.5,1783.5,882.4z"/>
<path class="st4" d="M1551.7,840.9c-32.6,0-59.1-26.5-59.1-59.1s26.5-59.1,59.1-59.1s59.1,26.5,59.1,59.1S1584.3,840.9,1551.7,840.9
	z M1551.7,734.6c-26,0-47.2,21.2-47.2,47.2s21.2,47.2,47.2,47.2s47.2-21.2,47.2-47.2C1598.9,755.7,1577.7,734.6,1551.7,734.6z"/>
<path class="st4" d="M1677.8,840.9c-41,0-74.4-33.4-74.4-74.4s33.4-74.4,74.4-74.4s74.4,33.4,74.4,74.4S1718.9,840.9,1677.8,840.9z
	 M1677.8,704c-34.4,0-62.5,28-62.5,62.5s28,62.5,62.5,62.5c34.4,0,62.5-28,62.5-62.5S1712.3,704,1677.8,704z"/>
<circle class="st4" cx="1673.6" cy="774" r="11.5"/>
<ellipse class="st4" cx="1551.8" cy="785.5" rx="11.5" ry="11.5"/>
<path class="st4" d="M1752.8,701.1c-1.8,0-3.6-0.8-4.7-2.3c-15.6-20.3-35.5-31.2-59.3-32.4c-18.1-1-31.7,4.3-31.9,4.3
	c-3.1,1.2-6.5-0.3-7.7-3.4c-1.2-3.1,0.3-6.5,3.4-7.7c0.6-0.3,15.8-6.1,36.3-5.2c19,0.9,46.4,8.1,68.7,37.1c2,2.6,1.5,6.4-1.1,8.4
	C1755.3,700.7,1754,701.1,1752.8,701.1z"/>
<g>
	<path class="st4" d="M2106.3,821.7l-16.1-4c-0.5-0.1-0.9-0.1-1.3,0.2c-0.4,0.2-0.6,0.6-0.7,1l-6.7,27.2c-0.1,0.4,0,0.9,0.2,1.2
		c0.2,0.4,0.6,0.6,1.1,0.7c0.5,0.1,0.9,0.1,1.3-0.2c0.4-0.2,0.6-0.6,0.7-1l3.1-12.5l12.5,3.1c0.5,0.1,0.9,0.1,1.2-0.1
		c0.4-0.2,0.6-0.5,0.7-1c0.1-0.4,0-0.9-0.2-1.2s-0.6-0.6-1-0.7l-12.5-3.1l2.5-10.1l14.5,3.6c0.5,0.1,0.9,0.1,1.3-0.2
		c0.4-0.2,0.6-0.5,0.7-1c0.1-0.4,0-0.9-0.2-1.2C2107.1,822,2106.8,821.8,2106.3,821.7z"/>
	<path class="st4" d="M2115.3,823.9c-0.5-0.1-0.9-0.1-1.3,0.1c-0.4,0.2-0.7,0.6-0.8,1l-6.7,27.1c-0.1,0.5-0.1,0.9,0.2,1.3
		c0.2,0.4,0.6,0.6,1.1,0.7c0.5,0.1,0.9,0.1,1.3-0.2c0.4-0.2,0.7-0.6,0.8-1l6.7-27.1c0.1-0.4,0-0.9-0.2-1.3
		C2116.2,824.3,2115.8,824,2115.3,823.9z"/>
	<path class="st4" d="M2135.4,857.8l-14.1-3.5l6.3-25.7c0.1-0.4,0-0.9-0.2-1.2c-0.2-0.4-0.6-0.6-1.1-0.7c-0.5-0.1-0.9-0.1-1.3,0.1
		c-0.4,0.2-0.7,0.6-0.8,1l-6.7,27.2c-0.1,0.4,0,0.9,0.2,1.2c0.2,0.4,0.6,0.6,1,0.7l15.8,3.9c0.5,0.1,0.9,0.1,1.3-0.2
		c0.4-0.2,0.6-0.6,0.7-1c0.1-0.4,0-0.9-0.2-1.2C2136.2,858.1,2135.9,857.9,2135.4,857.8z"/>
	<path class="st4" d="M2175.6,838.8L2175.6,838.8c-0.6-0.2-1.1-0.1-1.6,0.3l-15.5,13.5l-7.3-19.2c-0.1-0.3-0.3-0.5-0.5-0.7
		c-0.7-0.5-1.4-0.5-2-0.2c-0.4,0.2-0.6,0.6-0.7,1l-6.7,27.2c-0.1,0.4-0.1,0.9,0.2,1.2c0.2,0.4,0.6,0.6,1,0.7
		c0.5,0.1,0.9,0.1,1.3-0.2c0.4-0.2,0.6-0.6,0.7-1l5.6-22.5l6.3,16.9c0.2,0.5,0.6,0.8,1,0.9h0.1c0.5,0.2,0.9,0.1,1.4-0.3l13.4-11.9
		l-5.6,22.5c-0.1,0.4,0,0.9,0.2,1.2c0.2,0.4,0.6,0.6,1.1,0.7c0.5,0.1,0.9,0.1,1.3-0.1c0.4-0.2,0.7-0.6,0.8-1l6.7-27.2
		c0.1-0.4,0-0.9-0.2-1.2C2176.3,839.1,2176,838.9,2175.6,838.8z"/>
	<path class="st4" d="M2201.2,872.1l-6.7-14.7l11.6-6.3c0.7-0.4,1.2-1,1.3-1.6c0.2-0.7,0.1-1.4-0.3-2.1c-0.4-0.7-1-1.2-1.7-1.4
		c-0.8-0.2-1.7,0-2.6,0.5l-16.9,9.5l2.7-10.9c0.2-0.8,0.1-1.6-0.3-2.3c-0.4-0.7-1.1-1.1-1.9-1.3c-0.9-0.2-1.7-0.1-2.4,0.3
		c-0.7,0.4-1.2,1-1.4,1.8l-6.1,24.5c-0.2,0.8-0.1,1.6,0.4,2.3c0.4,0.7,1.1,1.1,2,1.4c0.9,0.2,1.7,0.1,2.4-0.3c0.7-0.4,1.2-1,1.4-1.9
		l1.6-6.5l4.8-2.6l6.5,14.2c0.2,0.4,0.4,0.8,0.8,1c0.3,0.3,0.7,0.5,1.2,0.6c0.9,0.2,1.7,0.1,2.5-0.3c0.8-0.4,1.3-1,1.5-1.9
		c0.1-0.3,0.1-0.7,0.1-1.1C2201.4,872.8,2201.4,872.4,2201.2,872.1z"/>
	<path class="st4" d="M2226.6,853.2c-0.1-0.6-0.3-1.2-0.8-1.7c-0.4-0.4-0.9-0.7-1.5-0.9l0,0c-0.6-0.2-1.3-0.2-1.9,0
		c-0.6,0.2-1.1,0.6-1.5,1.1l-17.3,22.7c-0.2,0.3-0.3,0.6-0.4,0.9c-0.2,0.8-0.1,1.4,0.2,2s0.9,0.9,1.8,1.2c0.6,0.1,1.1,0.1,1.7-0.1
		c0.6-0.2,1-0.6,1.4-1.1l3.5-4.5l12.8,3.2l1,5.5c0.1,0.6,0.4,1.2,0.7,1.7c0.4,0.5,0.9,0.8,1.5,0.9c0.7,0.2,1.4,0.1,2.1-0.3
		c0.7-0.4,1.1-1,1.3-1.8c0.1-0.3,0.1-0.7,0-1.2L2226.6,853.2z M2223.5,869.9l-8-2l6.2-8L2223.5,869.9z"/>
	<path class="st4" d="M2270.4,863.1c-0.5-0.7-1.1-1.1-1.9-1.3c-0.5-0.1-0.9-0.1-1.4,0s-0.9,0.3-1.3,0.7l-13.2,11.4l-6-16.2
		c-0.2-0.4-0.5-0.8-0.9-1.2c-0.4-0.3-0.9-0.6-1.4-0.7c-0.8-0.2-1.6-0.1-2.4,0.3c-0.7,0.4-1.2,1-1.4,1.8l-6.1,24.6
		c-0.2,0.8-0.1,1.6,0.3,2.2c0.4,0.7,1,1.1,1.8,1.3s1.6,0.1,2.3-0.3c0.7-0.4,1.1-1,1.3-1.9l4.1-16.6l4.3,12c0.2,0.4,0.5,0.8,0.9,1.2
		c0.4,0.3,0.8,0.6,1.2,0.6c0.5,0.1,0.9,0.2,1.4,0c0.5-0.1,0.9-0.3,1.3-0.6l9.3-8.3l-4,16.2c-0.2,0.8-0.1,1.6,0.4,2.3
		c0.4,0.7,1.1,1.1,2,1.3s1.7,0.1,2.4-0.3c0.7-0.4,1.1-1,1.3-1.8l6.1-24.6C2271,864.5,2270.8,863.7,2270.4,863.1L2270.4,863.1z"/>
	<path class="st4" d="M2294,873.8c0.9,0.2,1.6,0.1,2.3-0.2c0.7-0.4,1.1-0.9,1.3-1.7s0.1-1.6-0.4-2.2c-0.4-0.7-1.1-1.1-1.9-1.3
		l-14.8-3.7c-0.8-0.2-1.6-0.1-2.3,0.3c-0.7,0.4-1.2,1-1.4,1.8l-6.1,24.5c-0.2,0.8-0.1,1.6,0.4,2.3c0.4,0.7,1.1,1.1,1.9,1.3l14.8,3.7
		c0.8,0.2,1.6,0.1,2.3-0.2c0.7-0.4,1.2-0.9,1.4-1.7c0.2-0.7,0.1-1.4-0.4-2.1l0,0c-0.4-0.7-1.1-1.1-1.9-1.3l-11.7-2.9l1.8-7.3
		l9.7,2.4c0.9,0.2,1.6,0.1,2.3-0.2c0.7-0.4,1.1-0.9,1.3-1.7s0.1-1.6-0.4-2.2c-0.4-0.7-1.1-1.1-1.9-1.3l-9.7-2.4l1.6-6.7L2294,873.8z
		"/>
	<path class="st4" d="M2321.8,903.2c-0.1-0.5-0.4-0.9-0.8-1.3c-0.3-0.2-0.5-0.5-0.5-0.9s0-1,0.1-1.9c0.1-0.4,0.2-0.9,0.2-1.4
		c0.3-2.1-0.2-4-1.6-5.7c1.3-0.5,2.5-1.3,3.6-2.4c1.2-1.2,1.9-2.5,2.3-4c0.4-1.8,0.4-3.5-0.1-5.1s-1.3-3-2.5-4.2s-2.6-1.9-4.2-2.3
		l-12.7-3.2c-0.8-0.2-1.6-0.1-2.3,0.3c-0.7,0.4-1.2,1-1.4,1.8l-6.1,24.5c-0.2,0.8,0,1.6,0.5,2.3s1.3,1.2,2.2,1.4
		c0.8,0.2,1.5,0.1,2.1-0.3c0.6-0.4,1-1,1.2-1.9l2-8l8,2c1.2,0.3,2.1,0.8,2.6,1.5s0.6,1.5,0.4,2.4c-0.9,3.7-0.4,6.4,1.5,8.2
		c0.5,0.5,1.2,0.8,2,1c1,0.2,1.8,0.1,2.5-0.3c0.5-0.4,0.8-0.9,1-1.4C2322,904.1,2322,903.6,2321.8,903.2L2321.8,903.2z
		 M2318.8,884.3c-0.2,0.9-0.6,1.7-1.1,2.4s-1,1.2-1.6,1.5s-1.1,0.4-1.5,0.3l-9.4-2.3l2.2-9.1l9.4,2.3c0.5,0.1,0.9,0.4,1.2,0.9
		c0.4,0.5,0.6,1.1,0.8,1.8C2319,882.8,2319,883.6,2318.8,884.3z"/>
	<path class="st4" d="M2346.8,882.9c-0.1-0.6-0.3-1.2-0.8-1.7c-0.4-0.4-0.9-0.7-1.5-0.9l0,0c-0.6-0.2-1.3-0.2-1.9,0
		c-0.6,0.2-1.1,0.6-1.5,1.2l-17.3,22.7c-0.2,0.3-0.3,0.6-0.4,0.9c-0.2,0.8-0.1,1.4,0.2,2s0.9,0.9,1.8,1.2c0.6,0.1,1.1,0.1,1.7-0.1
		c0.6-0.2,1-0.6,1.4-1.1l3.5-4.5l12.8,3.2l1,5.5c0.1,0.6,0.4,1.2,0.7,1.7c0.4,0.5,0.9,0.8,1.5,0.9c0.7,0.2,1.4,0.1,2.1-0.3
		c0.7-0.4,1.1-1,1.3-1.8c0.1-0.3,0.1-0.7,0-1.2L2346.8,882.9z M2343.8,899.7l-8-2l6.2-8L2343.8,899.7z"/>
	<path class="st4" d="M2375.1,889.9c-0.1-0.6-0.3-1.2-0.8-1.7c-0.4-0.4-0.9-0.7-1.5-0.9l0,0c-0.6-0.2-1.3-0.2-1.9,0
		c-0.6,0.2-1.1,0.6-1.5,1.2l-17.3,22.7c-0.2,0.3-0.3,0.6-0.4,0.9c-0.2,0.8-0.1,1.4,0.2,2s0.9,0.9,1.8,1.2c0.6,0.1,1.1,0.1,1.7-0.1
		c0.6-0.2,1-0.6,1.4-1.1l3.5-4.5l12.8,3.2l1,5.5c0.1,0.6,0.4,1.2,0.7,1.7c0.4,0.5,0.9,0.8,1.5,0.9c0.7,0.2,1.4,0.1,2.1-0.3
		c0.7-0.4,1.1-1,1.3-1.8c0.1-0.3,0.1-0.7,0-1.2L2375.1,889.9z M2372.1,906.6l-8-2l6.2-8L2372.1,906.6z"/>
	<path class="st4" d="M2412.8,905.4c-0.5-2.6-1.6-4.8-3.3-6.6s-4-3.1-6.8-3.8l-10.6-2.6c-0.8-0.2-1.6-0.1-2.3,0.3
		c-0.7,0.4-1.2,1-1.4,1.8l-6.1,24.5c-0.2,0.8-0.1,1.6,0.4,2.3c0.4,0.7,1.1,1.1,1.9,1.3l10.6,2.6c2.8,0.7,5.4,0.6,7.8-0.2
		c2.4-0.8,4.4-2.3,6-4.3s2.8-4.5,3.5-7.3S2413.3,907.9,2412.8,905.4z M2406.2,911.9c-0.7,2.8-1.9,5-3.7,6.5
		c-1.7,1.5-3.9,1.9-6.4,1.3l-7-1.7l4.8-19.4l7,1.7c2.5,0.6,4.2,2,5.1,4.1C2406.8,906.5,2406.9,909,2406.2,911.9z"/>
	<path class="st4" d="M2355.9,843l-24.7-13.7c-4.4-2.4-6.6-7.5-5.4-12.4l2.1-8.4c1.2-4.9,5.5-8.4,10.6-8.5l28.2-0.7
		c7.4-0.2,12.9,6.7,11.1,13.8l-5.6,22.8C2370.4,843.1,2362.3,846.6,2355.9,843z"/>
	<path class="st4" d="M2222.7,739.8c-22.2-5.5-35.9-28.1-30.4-50.3s28.1-35.9,50.3-30.4s35.9,28.1,30.4,50.3
		S2244.9,745.2,2222.7,739.8z M2240.6,667.3c-17.7-4.4-35.7,6.5-40.1,24.2s6.5,35.7,24.2,40.1c17.7,4.4,35.7-6.5,40.1-24.2
		S2258.4,671.6,2240.6,667.3z"/>
	<path class="st4" d="M2308.7,761c-28-6.9-45.1-35.3-38.2-63.3c6.9-28,35.3-45.1,63.3-38.2c28,6.9,45.1,35.3,38.2,63.3
		C2365.1,750.8,2336.7,767.9,2308.7,761z M2331.8,667.7c-23.5-5.8-47.3,8.6-53.1,32.1s8.6,47.3,32.1,53.1s47.3-8.6,53.1-32.1
		C2369.7,697.3,2355.3,673.5,2331.8,667.7z"/>
	<circle class="st4" cx="2317.1" cy="714.7" r="8.1"/>
	<circle class="st4" cx="2232" cy="702" r="8.1"/>
	<path class="st4" d="M2383.4,678.3c-1.2-0.3-2.3-1.1-2.8-2.4c-7.2-16.4-19-27.2-35-32.1c-12.2-3.7-22.4-2.4-22.5-2.4
		c-2.3,0.3-4.4-1.3-4.7-3.6s1.3-4.4,3.6-4.7c0.5-0.1,11.8-1.5,25.7,2.6c12.8,3.8,30.3,13.3,40.6,36.9c0.9,2.1,0,4.6-2.2,5.5
		C2385.2,678.4,2384.2,678.5,2383.4,678.3z"/>
	<path class="st3" d="M2284.2,839.9l-70.6-17.4c-13.4-3.3-21.5-16.8-18.2-30.2l5.6-22.9c3.3-13.4,16.8-21.5,30.2-18.2l70.6,17.4
		c13.4,3.3,21.5,16.8,18.2,30.2l-5.6,22.9C2311.1,835.1,2297.6,843.2,2284.2,839.9z"/>
</g>
<path class="st4" d="M1517,378.8h-12.3c-0.3,0-0.6,0.2-0.9,0.5c-0.2,0.3-0.4,0.7-0.4,1.1v28c0,0.5,0.1,0.8,0.4,1.1
	c0.2,0.3,0.5,0.5,0.9,0.5c0.3,0,0.6-0.2,0.9-0.5c0.2-0.3,0.4-0.7,0.4-1.1v-12.9h9.5c0.3,0,0.6-0.1,0.9-0.4c0.2-0.3,0.4-0.7,0.4-1.1
	s-0.1-0.8-0.4-1.1c-0.2-0.3-0.5-0.4-0.9-0.4h-9.5v-10.4h11c0.3,0,0.6-0.2,0.9-0.5c0.2-0.3,0.4-0.7,0.4-1.1c0-0.5-0.1-0.8-0.4-1.1
	C1517.6,379,1517.4,378.8,1517,378.8z"/>
<path class="st4" d="M1523.9,378.8c-0.4,0-0.7,0.2-0.9,0.4c-0.2,0.3-0.4,0.7-0.4,1.2v27.9c0,0.5,0.1,0.9,0.4,1.2
	c0.2,0.3,0.5,0.5,0.9,0.5c0.3,0,0.6-0.2,0.9-0.5c0.2-0.3,0.4-0.7,0.4-1.2v-27.9c0-0.5-0.1-0.9-0.4-1.2
	C1524.6,379,1524.3,378.8,1523.9,378.8z"/>
<path class="st4" d="M1544.4,406.9h-10.8v-26.4c0-0.5-0.1-0.8-0.4-1.2c-0.2-0.3-0.5-0.4-0.9-0.4s-0.7,0.2-0.9,0.4
	c-0.2,0.3-0.4,0.7-0.4,1.2v28c0,0.5,0.1,0.8,0.4,1.1c0.2,0.3,0.5,0.5,0.9,0.5h12.1c0.3,0,0.6-0.2,0.9-0.5c0.2-0.3,0.4-0.7,0.4-1.1
	c0-0.5-0.1-0.8-0.4-1.1C1545,407,1544.7,406.9,1544.4,406.9z"/>
<path class="st4" d="M1570,378.8L1570,378.8c-0.5-0.1-0.8,0.2-1.1,0.7l-8.8,16.9l-8.7-16.9c-0.1-0.2-0.3-0.4-0.5-0.5
	c-0.6-0.3-1.1-0.2-1.5,0.3c-0.2,0.3-0.3,0.7-0.3,1.1v28c0,0.5,0.1,0.8,0.3,1.1c0.2,0.3,0.5,0.5,0.9,0.5c0.3,0,0.6-0.2,0.9-0.5
	c0.2-0.3,0.4-0.7,0.4-1.1v-23.2l7.6,14.9c0.3,0.4,0.6,0.6,0.9,0.6h0.1c0.4,0,0.7-0.2,1-0.6l7.6-14.8v23.1c0,0.5,0.1,0.9,0.4,1.2
	c0.2,0.3,0.6,0.4,0.9,0.4s0.6-0.2,0.9-0.4c0.2-0.3,0.4-0.7,0.4-1.2v-28c0-0.5-0.1-0.8-0.4-1.1C1570.5,379,1570.3,378.8,1570,378.8z"
	/>
<path class="st4" d="M1594.4,405l-7.4-12.7l7.2-8.9c0.4-0.6,0.7-1.2,0.7-1.9c0-0.7-0.2-1.3-0.6-1.9s-0.9-0.9-1.5-0.9
	s-1.2,0.4-1.8,1.1l-10.5,13.3v-11.2c0-0.9-0.2-1.6-0.6-2.1s-1-0.8-1.6-0.8c-0.7,0-1.3,0.3-1.7,0.8c-0.4,0.6-0.7,1.3-0.7,2.1v25.3
	c0,0.8,0.2,1.5,0.7,2.1c0.4,0.6,1,0.8,1.7,0.8s1.3-0.3,1.7-0.8c0.4-0.5,0.7-1.3,0.7-2.1v-6.7l3-3.7l7.2,12.3
	c0.2,0.4,0.5,0.6,0.8,0.8c0.3,0.2,0.6,0.3,0.9,0.3c0.7,0,1.2-0.3,1.7-0.9s0.8-1.3,0.8-2.2c0-0.3,0-0.7-0.1-1
	C1594.6,405.6,1594.5,405.3,1594.4,405z"/>
<path class="st4" d="M1609.2,380.6c-0.2-0.6-0.5-1.1-0.8-1.4c-0.4-0.3-0.8-0.5-1.2-0.5l0,0c-0.5-0.1-1,0.1-1.4,0.4
	c-0.4,0.4-0.7,0.9-0.9,1.5l-8.4,26.2c-0.1,0.3-0.1,0.6-0.1,0.9c0,0.8,0.2,1.4,0.5,1.9s0.8,0.7,1.5,0.7c0.4,0,0.8-0.2,1.2-0.5
	s0.6-0.8,0.8-1.4l1.7-5.2h9.8l1.7,5.1c0.2,0.6,0.5,1.1,0.8,1.4c0.4,0.4,0.8,0.5,1.2,0.5c0.6,0,1-0.3,1.5-0.8
	c0.4-0.5,0.6-1.2,0.6-2.1c0-0.4-0.1-0.7-0.2-1.2L1609.2,380.6z M1610,397.5h-6.1l3-9.2L1610,397.5z"/>
<path class="st4" d="M1642.6,379.6c-0.5-0.6-1-0.8-1.6-0.8c-0.3,0-0.7,0.1-1,0.4c-0.3,0.2-0.6,0.6-0.8,0.9l-7.4,14.3l-7.2-14.3
	c-0.2-0.4-0.5-0.7-0.9-0.9c-0.4-0.2-0.7-0.4-1.1-0.4c-0.6,0-1.2,0.3-1.7,0.9s-0.7,1.3-0.7,2.1v25.3c0,0.8,0.2,1.5,0.6,2.1
	s0.9,0.9,1.5,0.9s1.2-0.3,1.6-0.8s0.6-1.3,0.6-2.1v-17.1l5.2,10.6c0.2,0.4,0.5,0.7,0.8,0.9c0.3,0.2,0.7,0.4,1,0.3
	c0.4,0,0.7-0.1,1-0.3c0.3-0.2,0.6-0.5,0.9-0.9l5.2-10.3v16.7c0,0.9,0.2,1.6,0.7,2.1c0.4,0.5,1,0.8,1.7,0.8s1.2-0.3,1.7-0.8
	c0.4-0.6,0.6-1.3,0.6-2.1v-25.3C1643.3,380.9,1643,380.2,1642.6,379.6L1642.6,379.6z"/>
<path class="st4" d="M1661.5,384.4c0.7,0,1.2-0.3,1.6-0.7c0.4-0.5,0.6-1.2,0.6-2s-0.2-1.5-0.7-2.1c-0.4-0.5-1-0.8-1.6-0.8h-11.3
	c-0.6,0-1.2,0.3-1.6,0.8c-0.4,0.6-0.7,1.3-0.7,2.1V407c0,0.8,0.2,1.5,0.7,2.1c0.4,0.6,1,0.8,1.6,0.8h11.3c0.6,0,1.2-0.3,1.6-0.8
	s0.7-1.2,0.7-2c0-0.7-0.2-1.4-0.7-2l0,0c-0.4-0.6-1-0.8-1.6-0.8h-9v-7.4h7.4c0.7,0,1.2-0.3,1.6-0.7c0.4-0.5,0.6-1.2,0.6-2
	s-0.2-1.5-0.7-2.1c-0.4-0.5-1-0.8-1.6-0.8h-7.4v-6.9L1661.5,384.4L1661.5,384.4z"/>
<path class="st4" d="M1686.8,406.2c-0.2-0.4-0.4-0.8-0.8-1c-0.3-0.2-0.4-0.4-0.5-0.7c-0.1-0.4-0.2-1-0.3-1.9c0-0.5,0-0.9-0.1-1.4
	c-0.1-2.1-0.9-3.8-2.2-5.1c0.9-0.8,1.6-1.9,2.2-3.2c0.6-1.4,0.9-2.9,0.9-4.4c0-1.8-0.3-3.5-1-5c-0.6-1.5-1.5-2.6-2.6-3.5
	c-1.1-0.8-2.2-1.3-3.4-1.3h-9.7c-0.6,0-1.2,0.3-1.6,0.8c-0.4,0.6-0.7,1.3-0.7,2.1v25.3c0,0.8,0.3,1.6,0.8,2.1s1.1,0.8,1.8,0.8
	c0.6,0,1.1-0.3,1.5-0.8s0.5-1.3,0.5-2.1v-8h6.1c0.9,0,1.7,0.3,2.1,0.8c0.5,0.6,0.7,1.3,0.7,2.3c0,3.8,0.9,6.3,2.6,7.6
	c0.5,0.3,1,0.5,1.6,0.5c0.8,0,1.3-0.3,1.7-0.9c0.3-0.5,0.5-1,0.5-1.6C1687.1,407.1,1687,406.6,1686.8,406.2L1686.8,406.2z
	 M1681.3,388.6c0,0.9-0.1,1.8-0.4,2.6c-0.2,0.8-0.5,1.4-0.9,1.9c-0.3,0.4-0.7,0.7-1,0.7h-7.2v-9.4h7.2c0.4,0,0.7,0.2,1.1,0.6
	s0.7,0.9,0.9,1.5C1681.2,387.2,1681.3,387.9,1681.3,388.6z"/>
<path class="st4" d="M1701.2,380.6c-0.2-0.6-0.5-1.1-0.8-1.4c-0.4-0.3-0.8-0.5-1.2-0.5l0,0c-0.5-0.1-1,0.1-1.4,0.4
	c-0.4,0.4-0.7,0.9-0.9,1.5l-8.4,26.2c-0.1,0.3-0.1,0.6-0.1,0.9c0,0.8,0.2,1.4,0.5,1.9s0.8,0.7,1.5,0.7c0.4,0,0.8-0.2,1.2-0.5
	s0.6-0.8,0.8-1.4l1.7-5.2h9.8l1.7,5.1c0.2,0.6,0.5,1.1,0.8,1.4c0.4,0.4,0.8,0.5,1.2,0.5c0.6,0,1-0.3,1.5-0.8
	c0.4-0.5,0.6-1.2,0.6-2.1c0-0.4-0.1-0.7-0.2-1.2L1701.2,380.6z M1702,397.5h-6.1l3-9.2L1702,397.5z"/>
<path class="st4" d="M1722.8,380.6c-0.2-0.6-0.5-1.1-0.8-1.4c-0.4-0.3-0.8-0.5-1.2-0.5l0,0c-0.5-0.1-1,0.1-1.4,0.4
	c-0.4,0.4-0.7,0.9-0.9,1.5l-8.4,26.2c-0.1,0.3-0.1,0.6-0.1,0.9c0,0.8,0.2,1.4,0.5,1.9s0.8,0.7,1.5,0.7c0.4,0,0.8-0.2,1.2-0.5
	s0.6-0.8,0.8-1.4l1.7-5.2h9.8l1.7,5.1c0.2,0.6,0.5,1.1,0.8,1.4c0.4,0.4,0.8,0.5,1.2,0.5c0.6,0,1-0.3,1.5-0.8
	c0.4-0.5,0.6-1.2,0.6-2.1c0-0.4-0.1-0.7-0.2-1.2L1722.8,380.6z M1723.6,397.5h-6.1l3-9.2L1723.6,397.5z"/>
<path class="st4" d="M1752.7,386.5c-0.8-2.4-2-4.3-3.6-5.6c-1.6-1.4-3.4-2.1-5.6-2.1h-8.1c-0.6,0-1.2,0.3-1.6,0.8
	c-0.4,0.6-0.7,1.3-0.7,2.1V407c0,0.8,0.2,1.5,0.7,2.1c0.4,0.6,1,0.8,1.6,0.8h8.1c2.2,0,4-0.7,5.6-2.1c1.5-1.4,2.7-3.3,3.6-5.6
	c0.8-2.3,1.2-5,1.2-7.9S1753.5,388.9,1752.7,386.5z M1749.1,394.4c0,2.9-0.5,5.3-1.5,7.2c-1,1.8-2.4,2.8-4.4,2.8h-5.4v-20h5.4
	c1.9,0,3.4,0.9,4.4,2.8C1748.6,389.1,1749.1,391.5,1749.1,394.4z"/>
<path class="st4" d="M1700.6,339.7l-20.2-7.4c-3.6-1.3-6.1-5.7-6.1-10.8v-8.7c0-5,2.5-9.5,6.1-10.8l20.2-7.4
	c5.3-1.9,10.5,3.4,10.5,10.8v23.5C1711.1,336.2,1705.9,341.6,1700.6,339.7z"/>
<path class="st4" d="M1586.3,271.4c-17,0-30.8-18.6-30.8-41.5s13.8-41.5,30.8-41.5s30.8,18.6,30.8,41.5S1603.3,271.4,1586.3,271.4z
	 M1586.3,196.7c-13.6,0-24.6,14.9-24.6,33.1s11,33.1,24.6,33.1s24.6-14.9,24.6-33.1S1599.8,196.7,1586.3,196.7z"/>
<path class="st4" d="M1652,271.4c-21.4,0-38.8-23.5-38.8-52.3s17.4-52.3,38.8-52.3s38.8,23.5,38.8,52.3S1673.4,271.4,1652,271.4z
	 M1652,175.2c-18,0-32.6,19.7-32.6,43.9S1634,263,1652,263s32.6-19.7,32.6-43.9S1670,175.2,1652,175.2z"/>
<ellipse class="st4" cx="1649.8" cy="224.4" rx="6" ry="8.1"/>
<ellipse class="st4" cx="1586.3" cy="232.4" rx="6" ry="8.1"/>
<path class="st4" d="M1691.1,173.1c-0.9,0-1.9-0.6-2.5-1.6c-8.1-14.2-18.5-21.9-30.9-22.8c-9.4-0.7-16.6,3-16.6,3
	c-1.6,0.8-3.4-0.2-4-2.4s0.2-4.6,1.8-5.4c0.3-0.2,8.3-4.3,18.9-3.6c9.9,0.6,24.2,5.7,35.8,26.1c1,1.8,0.8,4.5-0.6,5.9
	C1692.4,172.9,1691.8,173.1,1691.1,173.1z"/>
<path class="st3" d="M1645.4,353.9h-48c-11.9,0-21.5-9.6-21.5-21.5v-30.5c0-11.9,9.6-21.5,21.5-21.5h48c11.9,0,21.5,9.6,21.5,21.5
	v30.5C1666.9,344.2,1657.3,353.9,1645.4,353.9z"/>
<path class="st3" d="M2356.2,339.7l-27.2-7.4c-4.9-1.3-8.2-5.7-8.2-10.8v-8.7c0-5,3.4-9.5,8.2-10.8l27.2-7.4
	c7.1-1.9,14.1,3.4,14.1,10.8v23.5C2370.3,336.2,2363.3,341.6,2356.2,339.7z"/>
<path class="st3" d="M2202.1,271.4c-22.9,0-41.5-18.6-41.5-41.5s18.6-41.5,41.5-41.5s41.5,18.6,41.5,41.5S2225,271.4,2202.1,271.4z
	 M2202.1,196.7c-18.3,0-33.1,14.9-33.1,33.1s14.9,33.1,33.1,33.1c18.3,0,33.1-14.9,33.1-33.1S2220.4,196.7,2202.1,196.7z"/>
<path class="st3" d="M2290.7,271.4c-28.8,0-52.3-23.5-52.3-52.3s23.5-52.3,52.3-52.3s52.3,23.5,52.3,52.3S2319.5,271.4,2290.7,271.4
	z M2290.7,175.2c-24.2,0-43.9,19.7-43.9,43.9s19.7,43.9,43.9,43.9s43.9-19.7,43.9-43.9S2314.9,175.2,2290.7,175.2z"/>
<circle class="st3" cx="2287.7" cy="224.4" r="8.1"/>
<circle class="st3" cx="2202.1" cy="232.4" r="8.1"/>
<path class="st3" d="M2343.3,173.1c-1.3,0-2.5-0.6-3.3-1.6c-10.9-14.2-25-21.9-41.7-22.8c-12.7-0.7-22.3,3-22.4,3
	c-2.2,0.8-4.6-0.2-5.4-2.4s0.2-4.6,2.4-5.4c0.4-0.2,11.1-4.3,25.5-3.6c13.4,0.6,32.6,5.7,48.3,26.1c1.4,1.8,1.1,4.5-0.8,5.9
	C2345.1,172.9,2344.2,173.1,2343.3,173.1z"/>
<path class="st3" d="M2285.8,353.9h-72.7c-13.8,0-24.9-11.2-24.9-24.9v-23.5c0-13.8,11.2-24.9,24.9-24.9h72.7
	c13.8,0,24.9,11.2,24.9,24.9v23.4C2310.8,342.7,2299.6,353.9,2285.8,353.9z"/>
<g>
	<g>
		<line class="st7" x1="1375" y1="80.9" x2="1422" y2="131.9"/>
		<line class="st7" x1="1375" y1="132.9" x2="1422" y2="81.9"/>
	</g>
	<line class="st7" x1="2009" y1="80.9" x2="2056" y2="131.9"/>
	<line class="st7" x1="2009" y1="132.9" x2="2056" y2="81.9"/>
</g>
<g>
	<g>
		<line class="st7" x1="1375" y1="575.9" x2="1422" y2="626.9"/>
		<line class="st7" x1="1375" y1="627.9" x2="1422" y2="576.9"/>
	</g>
	<line class="st7" x1="2009" y1="575.9" x2="2056" y2="626.9"/>
	<line class="st7" x1="2009" y1="627.9" x2="2056" y2="576.9"/>
</g>
<line class="st1" x1="659.5" y1="1026.6" x2="659.5" y2="25.6"/>
<line class="st1" x1="1298.1" y1="1026.6" x2="1298.1" y2="25.6"/>
<line class="st1" x1="1935.7" y1="1026.6" x2="1935.7" y2="25.6"/>
<line class="st1" x1="19.8" y1="526.6" x2="2578.5" y2="526.6"/>
<text transform="matrix(1 0 0 1 2094.5798 416.3157)" class="st3 st8 st9">FILMKAMERAAD</text>
<rect x="585.8" y="448.7" class="st10" width="73.7" height="79"/>
<text transform="matrix(1 0 0 1 585.7563 491.0235)" class="st11 st12">1</text>
<rect x="1226.9" y="448.7" class="st10" width="73.7" height="79"/>
<text transform="matrix(1 0 0 1 1226.8583 491.0235)" class="st11 st12">2</text>
<rect x="1862" y="448.7" class="st10" width="73.7" height="79"/>
<text transform="matrix(1 0 0 1 1861.9921 491.0235)" class="st11 st12">3</text>
<rect x="2505" y="448.7" class="st10" width="73.7" height="79"/>
<text transform="matrix(1 0 0 1 2505.0127 491.0235)" class="st11 st12">4</text>
<rect x="585.8" y="948.1" class="st10" width="73.7" height="79"/>
<text transform="matrix(1 0 0 1 585.7563 990.3899)" class="st11 st12">5</text>
<rect x="1226.9" y="948.1" class="st10" width="73.7" height="79"/>
<text transform="matrix(1 0 0 1 1226.8583 990.3899)" class="st11 st12">6</text>
<rect x="1862" y="948.1" class="st10" width="73.7" height="79"/>
<text transform="matrix(1 0 0 1 1861.9921 990.3899)" class="st11 st12">7</text>
<rect x="2505" y="948.1" class="st10" width="73.7" height="79"/>
<text transform="matrix(1 0 0 1 2505.0127 990.3899)" class="st11 st12">8</text>
</svg>
