<?xml version="1.0" encoding="utf-8"?>
<!-- Generator: Adobe Illustrator 22.0.1, SVG Export Plug-In . SVG Version: 6.00 Build 0)  -->
<svg version="1.1" xmlns="http://www.w3.org/2000/svg" xmlns:xlink="http://www.w3.org/1999/xlink" x="0px" y="0px"
	 viewBox="0 0 298.6 172.4" style="enable-background:new 0 0 298.6 172.4;" xml:space="preserve">
<style type="text/css">
	.st0{fill:#FFFFFF;}
</style>
<g id="Logo">
	<g>
		<path class="st0" d="M70.6,137.4h-8.3c-0.2,0-0.4,0.1-0.6,0.2c-0.2,0.2-0.2,0.3-0.2,0.6v14c0,0.2,0.1,0.4,0.2,0.6
			c0.2,0.2,0.4,0.2,0.6,0.2c0.2,0,0.4-0.1,0.6-0.2c0.2-0.2,0.2-0.3,0.2-0.6v-6.5h6.4c0.2,0,0.4-0.1,0.6-0.2c0.2-0.1,0.2-0.3,0.2-0.6
			s-0.1-0.4-0.2-0.6c-0.2-0.1-0.4-0.2-0.6-0.2h-6.4V139h7.5c0.2,0,0.4-0.1,0.6-0.2c0.2-0.2,0.2-0.3,0.2-0.6c0-0.2-0.1-0.4-0.2-0.6
			C71,137.5,70.8,137.4,70.6,137.4z"/>
		<path class="st0" d="M75.2,137.4c-0.2,0-0.5,0.1-0.6,0.2c-0.2,0.2-0.3,0.4-0.3,0.6v14c0,0.2,0.1,0.4,0.2,0.6
			c0.2,0.2,0.4,0.2,0.6,0.2c0.2,0,0.4-0.1,0.6-0.2c0.2-0.2,0.3-0.3,0.3-0.6v-14c0-0.2-0.1-0.4-0.2-0.6
			C75.7,137.5,75.5,137.4,75.2,137.4z"/>
		<path class="st0" d="M89,151.4h-7.2v-13.2c0-0.2-0.1-0.4-0.3-0.6c-0.2-0.1-0.4-0.2-0.6-0.2c-0.2,0-0.5,0.1-0.6,0.2
			c-0.2,0.2-0.3,0.3-0.3,0.6v14c0,0.2,0.1,0.4,0.2,0.6c0.2,0.2,0.4,0.2,0.6,0.2H89c0.2,0,0.4-0.1,0.6-0.2c0.2-0.2,0.2-0.3,0.2-0.6
			c0-0.2-0.1-0.4-0.2-0.6C89.5,151.5,89.3,151.4,89,151.4z"/>
		<path class="st0" d="M106.3,137.4C106.3,137.4,106.3,137.4,106.3,137.4c-0.3,0-0.6,0.1-0.8,0.3l-5.9,8.4l-5.9-8.4
			c-0.1-0.1-0.2-0.2-0.3-0.3c-0.4-0.2-0.8-0.1-1,0.2c-0.2,0.2-0.2,0.3-0.2,0.6v14c0,0.2,0.1,0.4,0.2,0.6c0.1,0.2,0.3,0.2,0.6,0.2
			c0.2,0,0.4-0.1,0.6-0.2c0.2-0.2,0.2-0.3,0.2-0.6v-11.6l5.1,7.5c0.2,0.2,0.4,0.3,0.6,0.3l0,0c0.2,0,0.5-0.1,0.7-0.3l5.1-7.4v11.6
			c0,0.2,0.1,0.4,0.3,0.6c0.2,0.1,0.4,0.2,0.6,0.2c0.2,0,0.4-0.1,0.6-0.2c0.2-0.2,0.3-0.3,0.3-0.6v-14c0-0.2-0.1-0.4-0.2-0.6
			C106.7,137.5,106.5,137.4,106.3,137.4z"/>
		<path class="st0" d="M122.7,150.5l-5-6.4l4.9-4.5c0.3-0.3,0.5-0.6,0.5-1c0-0.3-0.1-0.7-0.4-1c-0.3-0.3-0.6-0.5-1-0.5
			c-0.4,0-0.8,0.2-1.2,0.5l-7.1,6.7v-5.6c0-0.4-0.1-0.8-0.4-1.1c-0.3-0.3-0.7-0.4-1.1-0.4c-0.5,0-0.8,0.1-1.1,0.4
			c-0.3,0.3-0.5,0.6-0.5,1.1v12.7c0,0.4,0.1,0.8,0.4,1.1c0.3,0.3,0.7,0.4,1.1,0.4c0.5,0,0.8-0.1,1.1-0.4c0.3-0.3,0.4-0.6,0.4-1.1
			v-3.4l2-1.8l4.9,6.1c0.1,0.2,0.3,0.3,0.5,0.4c0.2,0.1,0.4,0.1,0.6,0.1c0.4,0,0.8-0.1,1.2-0.4c0.3-0.3,0.5-0.7,0.5-1.1
			c0-0.2,0-0.3-0.1-0.5C122.9,150.8,122.8,150.6,122.7,150.5z"/>
		<path class="st0" d="M132.7,138.3c-0.1-0.3-0.3-0.5-0.6-0.7c-0.3-0.2-0.5-0.3-0.8-0.3c0,0,0,0,0,0c-0.3,0-0.6,0-0.9,0.2
			c-0.3,0.2-0.5,0.4-0.6,0.7l-5.7,13.1c0,0.2-0.1,0.3-0.1,0.5c0,0.4,0.1,0.7,0.4,0.9c0.2,0.2,0.6,0.3,1,0.3c0.3,0,0.6-0.1,0.8-0.3
			c0.2-0.2,0.4-0.4,0.5-0.7l1.1-2.6h6.6l1.1,2.6c0.1,0.3,0.3,0.5,0.6,0.7c0.2,0.2,0.5,0.3,0.8,0.3c0.4,0,0.7-0.1,1-0.4
			c0.3-0.3,0.4-0.6,0.4-1c0-0.2,0-0.4-0.1-0.6L132.7,138.3z M133.3,146.8h-4.1l2-4.6L133.3,146.8z"/>
		<path class="st0" d="M155.2,137.8c-0.3-0.3-0.7-0.4-1.1-0.4c-0.2,0-0.5,0.1-0.7,0.2c-0.2,0.1-0.4,0.3-0.5,0.5l-5,7.2L143,138
			c-0.1-0.2-0.3-0.4-0.6-0.5c-0.2-0.1-0.5-0.2-0.7-0.2c-0.4,0-0.8,0.1-1.1,0.4c-0.3,0.3-0.5,0.6-0.5,1v12.7c0,0.4,0.1,0.8,0.4,1.1
			c0.3,0.3,0.6,0.4,1,0.4c0.4,0,0.8-0.1,1.1-0.4c0.3-0.3,0.4-0.6,0.4-1.1V143l3.5,5.3c0.2,0.2,0.4,0.3,0.6,0.5
			c0.2,0.1,0.4,0.2,0.7,0.2c0.2,0,0.5,0,0.7-0.2c0.2-0.1,0.4-0.3,0.6-0.5l3.5-5.1v8.4c0,0.4,0.1,0.8,0.4,1.1
			c0.3,0.3,0.7,0.4,1.1,0.4s0.8-0.1,1.1-0.4c0.3-0.3,0.4-0.6,0.4-1.1v-12.7C155.7,138.4,155.5,138.1,155.2,137.8L155.2,137.8z"/>
		<path class="st0" d="M168,140.2c0.4,0,0.8-0.1,1.1-0.4c0.3-0.3,0.4-0.6,0.4-1c0-0.4-0.2-0.8-0.4-1c-0.3-0.3-0.7-0.4-1.1-0.4h-7.6
			c-0.4,0-0.8,0.1-1.1,0.4c-0.3,0.3-0.4,0.6-0.4,1.1v12.7c0,0.4,0.1,0.8,0.4,1.1c0.3,0.3,0.7,0.4,1.1,0.4h7.6c0.4,0,0.8-0.1,1.1-0.4
			c0.3-0.3,0.4-0.6,0.4-1c0-0.4-0.1-0.7-0.4-1l0,0c-0.3-0.3-0.7-0.4-1.1-0.4h-6v-3.8h5c0.4,0,0.8-0.1,1.1-0.4c0.3-0.3,0.4-0.6,0.4-1
			c0-0.4-0.2-0.8-0.4-1c-0.3-0.3-0.7-0.4-1.1-0.4h-5v-3.4H168z"/>
		<path class="st0" d="M185,151.1c-0.1-0.2-0.3-0.4-0.5-0.5c-0.2-0.1-0.3-0.2-0.3-0.4c-0.1-0.2-0.1-0.5-0.2-0.9c0-0.2,0-0.5-0.1-0.7
			c-0.1-1.1-0.6-1.9-1.5-2.6c0.6-0.4,1.1-0.9,1.5-1.6c0.4-0.7,0.6-1.5,0.6-2.2c0-0.9-0.2-1.7-0.6-2.5c-0.4-0.7-1-1.3-1.7-1.7
			c-0.7-0.4-1.5-0.6-2.3-0.6h-6.6c-0.4,0-0.8,0.1-1.1,0.4c-0.3,0.3-0.4,0.6-0.4,1.1v12.7c0,0.4,0.2,0.8,0.5,1.1
			c0.4,0.3,0.8,0.4,1.2,0.4c0.4,0,0.7-0.1,1-0.4c0.2-0.3,0.4-0.6,0.4-1.1v-4.1h4.1c0.6,0,1.1,0.1,1.4,0.4c0.3,0.3,0.5,0.7,0.5,1.1
			c0,1.9,0.6,3.2,1.7,3.8c0.3,0.2,0.7,0.3,1.1,0.3c0.5,0,0.9-0.1,1.2-0.4c0.2-0.2,0.3-0.5,0.3-0.8
			C185.2,151.5,185.1,151.3,185,151.1L185,151.1z M181.3,142.3c0,0.5-0.1,0.9-0.2,1.3c-0.2,0.4-0.4,0.7-0.6,0.9
			c-0.2,0.2-0.5,0.3-0.7,0.3h-4.9v-4.7h4.9c0.2,0,0.5,0.1,0.7,0.3c0.2,0.2,0.4,0.4,0.6,0.8C181.2,141.6,181.3,141.9,181.3,142.3z"/>
		<path class="st0" d="M194.7,138.3c-0.1-0.3-0.3-0.5-0.6-0.7c-0.3-0.2-0.5-0.3-0.8-0.3c0,0,0,0,0,0c-0.3,0-0.6,0-0.9,0.2
			c-0.3,0.2-0.5,0.4-0.6,0.7l-5.7,13.1c0,0.2-0.1,0.3-0.1,0.5c0,0.4,0.1,0.7,0.4,0.9c0.2,0.2,0.6,0.3,1,0.3c0.3,0,0.6-0.1,0.8-0.3
			c0.2-0.2,0.4-0.4,0.5-0.7l1.1-2.6h6.6l1.1,2.6c0.1,0.3,0.3,0.5,0.6,0.7c0.2,0.2,0.5,0.3,0.8,0.3c0.4,0,0.7-0.1,1-0.4
			c0.3-0.3,0.4-0.6,0.4-1c0-0.2,0-0.4-0.1-0.6L194.7,138.3z M195.2,146.8h-4.1l2-4.6L195.2,146.8z"/>
		<path class="st0" d="M209.3,138.3c-0.1-0.3-0.3-0.5-0.6-0.7c-0.3-0.2-0.5-0.3-0.8-0.3c0,0,0,0,0,0c-0.3,0-0.6,0-0.9,0.2
			c-0.3,0.2-0.5,0.4-0.6,0.7l-5.7,13.1c0,0.2-0.1,0.3-0.1,0.5c0,0.4,0.1,0.7,0.4,0.9c0.2,0.2,0.6,0.3,1,0.3c0.3,0,0.6-0.1,0.8-0.3
			c0.2-0.2,0.4-0.4,0.5-0.7l1.1-2.6h6.6l1.1,2.6c0.1,0.3,0.3,0.5,0.6,0.7c0.2,0.2,0.5,0.3,0.8,0.3c0.4,0,0.7-0.1,1-0.4
			c0.3-0.3,0.4-0.6,0.4-1c0-0.2,0-0.4-0.1-0.6L209.3,138.3z M209.8,146.8h-4.1l2-4.6L209.8,146.8z"/>
		<path class="st0" d="M229.4,141.3c-0.5-1.2-1.4-2.1-2.4-2.8c-1-0.7-2.3-1-3.8-1h-5.5c-0.4,0-0.8,0.1-1.1,0.4
			c-0.3,0.3-0.4,0.6-0.4,1.1v12.7c0,0.4,0.1,0.8,0.4,1.1c0.3,0.3,0.7,0.4,1.1,0.4h5.5c1.5,0,2.7-0.4,3.8-1c1-0.7,1.9-1.6,2.4-2.8
			c0.5-1.2,0.8-2.5,0.8-3.9C230.3,143.8,230,142.4,229.4,141.3z M227,145.2c0,1.5-0.3,2.7-1,3.6c-0.7,0.9-1.6,1.4-3,1.4h-3.6v-10
			h3.6c1.3,0,2.3,0.5,3,1.4C226.7,142.5,227,143.8,227,145.2z"/>
		<path class="st0" d="M194.3,117.8l-13.6-3.7c-2.4-0.7-4.1-2.9-4.1-5.4v-4.4c0-2.5,1.7-4.7,4.1-5.4l13.6-3.7c3.6-1,7.1,1.7,7.1,5.4
			v11.8C201.4,116.1,197.9,118.8,194.3,117.8z"/>
		<path class="st0" d="M117.3,83.6c-11.5,0-20.8-9.3-20.8-20.8s9.3-20.8,20.8-20.8S138,51.4,138,62.9S128.7,83.6,117.3,83.6z
			 M117.3,46.3c-9.1,0-16.6,7.4-16.6,16.6s7.4,16.6,16.6,16.6s16.6-7.4,16.6-16.6S126.4,46.3,117.3,46.3z"/>
		<path class="st0" d="M161.6,83.6c-14.4,0-26.2-11.7-26.2-26.2s11.7-26.2,26.2-26.2c14.4,0,26.2,11.7,26.2,26.2
			S176,83.6,161.6,83.6z M161.6,35.5c-12.1,0-21.9,9.8-21.9,21.9s9.8,21.9,21.9,21.9c12.1,0,21.9-9.8,21.9-21.9
			S173.7,35.5,161.6,35.5z"/>
		<circle class="st0" cx="160.1" cy="60.1" r="4"/>
		<circle class="st0" cx="117.3" cy="64.2" r="4"/>
		<path class="st0" d="M187.9,34.5c-0.6,0-1.3-0.3-1.7-0.8c-5.5-7.1-12.5-11-20.9-11.4c-6.3-0.3-11.2,1.5-11.2,1.5
			c-1.1,0.4-2.3-0.1-2.7-1.2c-0.4-1.1,0.1-2.3,1.2-2.7c0.2-0.1,5.6-2.1,12.8-1.8c6.7,0.3,16.3,2.8,24.1,13c0.7,0.9,0.5,2.2-0.4,2.9
			C188.8,34.4,188.4,34.5,187.9,34.5z"/>
		<path class="st0" d="M159.2,124.9h-36.4c-6.9,0-12.5-5.6-12.5-12.5v-11.8c0-6.9,5.6-12.5,12.5-12.5h36.4c6.9,0,12.5,5.6,12.5,12.5
			v11.8C171.6,119.3,166,124.9,159.2,124.9z"/>
	</g>
</g>
<g id="woordbeeld_zonder__baseline">
</g>
</svg>
