<?xml version="1.0" encoding="utf-8"?>
<!-- Generator: Adobe Illustrator 22.0.1, SVG Export Plug-In . SVG Version: 6.00 Build 0)  -->
<svg version="1.1" id="Laag_1" xmlns="http://www.w3.org/2000/svg" xmlns:xlink="http://www.w3.org/1999/xlink" x="0px" y="0px"
	 viewBox="0 0 1920 500" style="enable-background:new 0 0 1920 500;" xml:space="preserve">
<style type="text/css">
	.st0{clip-path:url(#SVGID_2_);fill:#E4222F;}
	.st1{clip-path:url(#SVGID_2_);fill:#FFFFFF;}
</style>
<g>
	<defs>
		<rect id="SVGID_1_" y="0" width="1920" height="500"/>
	</defs>
	<clipPath id="SVGID_2_">
		<use xlink:href="#SVGID_1_"  style="overflow:visible;"/>
	</clipPath>
	<rect y="0" class="st0" width="1920" height="500"/>
	<path class="st1" d="M1542.9,574.3c-70.5,0-127.9-57.4-127.9-127.9s57.4-127.9,127.9-127.9c70.5,0,127.9,57.4,127.9,127.9
		S1613.4,574.3,1542.9,574.3z M1542.9,344.4c-56.3,0-102,45.8-102,102s45.8,102,102,102c56.3,0,102-45.8,102-102
		S1599.1,344.4,1542.9,344.4z"/>
	<path class="st1" d="M1815.6,574.3c-88.7,0-160.9-72.2-160.9-160.9s72.2-160.9,160.9-160.9c88.7,0,160.9,72.2,160.9,160.9
		S1904.4,574.3,1815.6,574.3z M1815.6,278.3c-74.5,0-135.1,60.6-135.1,135.1s60.6,135.1,135.1,135.1c74.5,0,135.1-60.6,135.1-135.1
		S1890.1,278.3,1815.6,278.3z"/>
	<circle class="st1" cx="1806.5" cy="429.6" r="24.9"/>
	<circle class="st1" cx="1542.9" cy="454.4" r="24.9"/>
	<path class="st1" d="M1977.6,271.9c-3.9,0-7.7-1.7-10.3-5c-33.7-43.8-76.9-67.4-128.3-70.1c-39.1-2.1-68.6,9.2-68.9,9.3
		c-6.7,2.6-14.1-0.7-16.7-7.3c-2.6-6.6,0.7-14.1,7.3-16.7c1.4-0.5,34.3-13.2,78.6-11.1c41.1,1.9,100.3,17.5,148.6,80.2
		c4.4,5.7,3.3,13.8-2.4,18.1C1983.2,271.1,1980.4,271.9,1977.6,271.9z"/>
</g>
</svg>
