<?xml version="1.0" encoding="utf-8"?>
<!-- Generator: Adobe Illustrator 22.0.1, SVG Export Plug-In . SVG Version: 6.00 Build 0)  -->
<svg version="1.1" id="Laag_1" xmlns="http://www.w3.org/2000/svg" xmlns:xlink="http://www.w3.org/1999/xlink" x="0px" y="0px"
	 viewBox="0 0 636.8 500" style="enable-background:new 0 0 636.8 500;" xml:space="preserve">
<style type="text/css">
	.st0{fill:#E4222F;}
	.st1{fill:#FFFFFF;}
	.st2{fill:#E51A2F;}
</style>
<rect class="st0" width="636.8" height="500"/>
<g>
	<path class="st1" d="M169.8,353.9h-16.6c-0.5,0-0.9,0.2-1.2,0.5s-0.5,0.7-0.5,1.1v28c0,0.5,0.2,0.8,0.5,1.1s0.7,0.5,1.2,0.5
		s0.9-0.2,1.2-0.5c0.3-0.3,0.5-0.7,0.5-1.1v-12.9h12.8c0.5,0,0.9-0.1,1.2-0.4c0.3-0.3,0.5-0.7,0.5-1.1c0-0.4-0.2-0.8-0.5-1.1
		c-0.3-0.3-0.7-0.4-1.2-0.4h-12.8v-10.4h14.9c0.5,0,0.9-0.2,1.2-0.5s0.5-0.7,0.5-1.1c0-0.5-0.2-0.8-0.5-1.1
		C170.6,354.1,170.2,353.9,169.8,353.9z"/>
	<path class="st1" d="M179.1,353.9c-0.5,0-0.9,0.2-1.2,0.4c-0.3,0.3-0.5,0.7-0.5,1.2v27.9c0,0.5,0.2,0.9,0.5,1.2s0.7,0.5,1.2,0.5
		s0.9-0.2,1.2-0.5c0.3-0.3,0.5-0.7,0.5-1.2v-27.9c0-0.5-0.2-0.9-0.5-1.2C179.9,354.1,179.5,353.9,179.1,353.9z"/>
	<path class="st1" d="M206.7,382h-14.5v-26.4c0-0.5-0.2-0.8-0.5-1.2c-0.3-0.3-0.7-0.4-1.2-0.4s-0.9,0.2-1.2,0.4
		c-0.3,0.3-0.5,0.7-0.5,1.2v28c0,0.5,0.2,0.8,0.5,1.1c0.3,0.3,0.7,0.5,1.2,0.5h16.3c0.5,0,0.9-0.2,1.2-0.5s0.5-0.7,0.5-1.1
		c0-0.5-0.2-0.8-0.5-1.1C207.5,382.1,207.1,382,206.7,382z"/>
	<path class="st1" d="M241.1,353.9c-0.6-0.1-1.1,0.2-1.5,0.7l-11.8,16.9l-11.7-16.9c-0.2-0.2-0.4-0.4-0.7-0.5
		c-0.8-0.3-1.5-0.2-2,0.3c-0.3,0.3-0.5,0.7-0.5,1.1v28c0,0.5,0.2,0.8,0.4,1.1c0.3,0.3,0.7,0.5,1.2,0.5s0.9-0.2,1.2-0.5
		s0.5-0.7,0.5-1.1v-23.2l10.2,14.9c0.4,0.4,0.8,0.6,1.2,0.6h0.1c0.5,0,0.9-0.2,1.3-0.6l10.2-14.8v23.1c0,0.5,0.2,0.9,0.5,1.2
		c0.3,0.3,0.7,0.4,1.2,0.4s0.9-0.2,1.2-0.4c0.3-0.3,0.5-0.7,0.5-1.2v-28c0-0.5-0.2-0.8-0.5-1.1C241.9,354.1,241.5,353.9,241.1,353.9
		z"/>
	<path class="st1" d="M274,380.1l-10-12.7l9.7-8.9c0.6-0.6,0.9-1.2,0.9-1.9s-0.3-1.3-0.8-1.9c-0.5-0.6-1.2-0.9-2-0.9
		c-0.9,0-1.7,0.4-2.4,1.1l-14.1,13.3V357c0-0.9-0.3-1.6-0.9-2.1s-1.3-0.8-2.2-0.8c-0.9,0-1.7,0.3-2.3,0.8c-0.6,0.6-0.9,1.3-0.9,2.1
		v25.3c0,0.8,0.3,1.5,0.9,2.1c0.6,0.6,1.3,0.8,2.2,0.8c0.9,0,1.7-0.3,2.3-0.8c0.6-0.5,0.9-1.3,0.9-2.1v-6.7l4-3.7L269,384
		c0.3,0.4,0.6,0.6,1,0.8c0.4,0.2,0.8,0.3,1.3,0.3c0.9,0,1.7-0.3,2.4-0.9c0.7-0.6,1-1.3,1-2.2c0-0.3-0.1-0.7-0.2-1
		C274.4,380.7,274.2,380.4,274,380.1z"/>
	<path class="st1" d="M294.1,355.7c-0.2-0.6-0.6-1.1-1.1-1.4s-1.1-0.5-1.6-0.5c-0.7-0.1-1.3,0.1-1.8,0.4c-0.5,0.4-0.9,0.9-1.2,1.5
		L277,381.9c-0.1,0.3-0.2,0.6-0.2,0.9c0,0.8,0.2,1.4,0.7,1.9s1.1,0.7,2,0.7c0.6,0,1.1-0.2,1.6-0.5s0.9-0.8,1.1-1.4l2.3-5.2h13.2
		l2.3,5.1c0.3,0.6,0.6,1.1,1.1,1.4c0.5,0.4,1,0.5,1.7,0.5s1.4-0.3,2-0.8c0.6-0.5,0.9-1.2,0.9-2.1c0-0.4-0.1-0.7-0.3-1.2L294.1,355.7
		z M286.9,372.6l4.1-9.2l4.1,9.2H286.9z"/>
	<path class="st1" d="M336.8,353.9c-0.5,0-0.9,0.1-1.4,0.4c-0.5,0.2-0.8,0.6-1.1,0.9l-10,14.3l-9.7-14.3c-0.3-0.4-0.7-0.7-1.2-0.9
		s-1-0.4-1.5-0.4c-0.9,0-1.6,0.3-2.2,0.9c-0.6,0.6-0.9,1.3-0.9,2.1v25.3c0,0.8,0.3,1.5,0.8,2.1c0.5,0.6,1.2,0.9,2.1,0.9
		c0.9,0,1.6-0.3,2.1-0.8s0.8-1.3,0.8-2.1v-17.1l7,10.6c0.3,0.4,0.7,0.7,1.1,0.9c0.4,0.2,0.9,0.4,1.3,0.3c0.5,0,0.9-0.1,1.4-0.3
		c0.4-0.2,0.8-0.5,1.1-0.9l7-10.3v16.7c0,0.9,0.3,1.6,0.9,2.1c0.6,0.5,1.3,0.8,2.3,0.8c0.9,0,1.7-0.3,2.3-0.8
		c0.6-0.6,0.9-1.3,0.9-2.1v-25.3c0-0.9-0.3-1.6-0.9-2.2C338.4,354.1,337.7,353.9,336.8,353.9z"/>
	<path class="st1" d="M364.5,359.5c0.9,0,1.6-0.3,2.2-0.7c0.6-0.5,0.9-1.2,0.9-2s-0.3-1.5-0.9-2.1c-0.6-0.5-1.3-0.8-2.2-0.8h-15.3
		c-0.9,0-1.6,0.3-2.2,0.8c-0.6,0.6-0.9,1.3-0.9,2.1v25.3c0,0.8,0.3,1.5,0.9,2.1c0.6,0.6,1.3,0.8,2.2,0.8h15.3c0.9,0,1.6-0.3,2.2-0.8
		c0.6-0.5,0.9-1.2,0.9-2c0-0.7-0.3-1.4-0.9-2c-0.6-0.6-1.3-0.8-2.2-0.8h-12.1V372h10c0.9,0,1.6-0.3,2.2-0.7c0.6-0.5,0.9-1.2,0.9-2
		s-0.3-1.5-0.9-2.1c-0.6-0.5-1.3-0.8-2.2-0.8h-10v-6.9H364.5z"/>
	<path class="st1" d="M397.5,380.3c-0.4-0.2-0.6-0.4-0.7-0.7c-0.1-0.4-0.2-1-0.4-1.9c0-0.5,0-0.9-0.1-1.4c-0.2-2.1-1.2-3.8-2.9-5.1
		c1.2-0.8,2.2-1.9,2.9-3.2c0.8-1.4,1.3-2.9,1.3-4.4c0-1.8-0.4-3.5-1.3-5c-0.9-1.5-2-2.6-3.5-3.5c-1.4-0.8-3-1.3-4.6-1.3h-13.1
		c-0.9,0-1.6,0.3-2.2,0.8c-0.6,0.6-0.9,1.3-0.9,2.1V382c0,0.8,0.4,1.6,1.1,2.1s1.5,0.8,2.5,0.8c0.8,0,1.5-0.3,2-0.8s0.7-1.3,0.7-2.1
		v-8h8.2c1.3,0,2.2,0.3,2.9,0.8c0.7,0.6,1,1.3,1,2.3c0,3.8,1.2,6.3,3.4,7.6c0.6,0.3,1.4,0.5,2.1,0.5c1,0,1.8-0.3,2.3-0.9
		c0.4-0.5,0.6-1,0.6-1.6c0.1-0.5,0-1-0.2-1.4C398.3,380.9,398,380.5,397.5,380.3z M390.6,366.3c-0.3,0.8-0.7,1.4-1.2,1.9
		c-0.5,0.4-0.9,0.7-1.4,0.7h-9.7v-9.4h9.7c0.5,0,1,0.2,1.4,0.6c0.5,0.4,0.9,0.9,1.2,1.5c0.4,0.7,0.5,1.4,0.5,2.1
		C391.1,364.6,390.9,365.5,390.6,366.3z"/>
	<path class="st1" d="M417.9,355.7c-0.2-0.6-0.6-1.1-1.1-1.4s-1.1-0.5-1.7-0.5c-0.7-0.1-1.3,0.1-1.8,0.4c-0.5,0.4-0.9,0.9-1.2,1.5
		l-11.4,26.2c-0.1,0.3-0.2,0.6-0.2,0.9c0,0.8,0.2,1.4,0.7,1.9s1.1,0.7,2,0.7c0.6,0,1.1-0.2,1.6-0.5s0.9-0.8,1.1-1.4l2.3-5.2h13.2
		l2.3,5.1c0.3,0.6,0.6,1.1,1.1,1.4c0.5,0.4,1,0.5,1.7,0.5s1.4-0.3,2-0.8c0.6-0.5,0.9-1.2,0.9-2.1c0-0.4-0.1-0.7-0.3-1.2L417.9,355.7
		z M410.8,372.6l4.1-9.2l4.1,9.2H410.8z"/>
	<path class="st1" d="M447.1,355.7c-0.2-0.6-0.6-1.1-1.1-1.4s-1.1-0.5-1.7-0.5c-0.7-0.1-1.3,0.1-1.8,0.4c-0.5,0.4-0.9,0.9-1.2,1.5
		l-11.4,26.2c-0.1,0.3-0.1,0.6-0.1,0.9c0,0.8,0.2,1.4,0.7,1.9s1.1,0.7,2,0.7c0.6,0,1.1-0.2,1.6-0.5s0.9-0.8,1.1-1.4l2.3-5.2h13.2
		l2.3,5.1c0.3,0.6,0.6,1.1,1.1,1.4c0.5,0.4,1,0.5,1.7,0.5s1.4-0.3,2-0.8c0.6-0.5,0.9-1.2,0.9-2.1c0-0.4-0.1-0.7-0.3-1.2L447.1,355.7
		z M439.9,372.6l4.1-9.2l4.1,9.2H439.9z"/>
	<path class="st1" d="M487.4,361.6c-1.1-2.4-2.7-4.3-4.8-5.6c-2.1-1.4-4.6-2.1-7.5-2.1h-10.9c-0.9,0-1.6,0.3-2.2,0.8
		c-0.6,0.6-0.9,1.3-0.9,2.1v25.3c0,0.8,0.3,1.5,0.9,2.1c0.6,0.6,1.3,0.8,2.2,0.8H475c2.9,0,5.4-0.7,7.5-2.1c2.1-1.4,3.7-3.3,4.8-5.6
		c1.1-2.3,1.6-5,1.6-7.9C488.9,366.5,488.4,364,487.4,361.6z M480.5,376.7c-1.3,1.8-3.3,2.8-5.9,2.8h-7.2v-20h7.2
		c2.6,0,4.6,0.9,5.9,2.8s2,4.3,2,7.2C482.5,372.4,481.8,374.8,480.5,376.7z"/>
	<path class="st1" d="M381.8,287.9v8.7c0,5.1,3.3,9.5,8.2,10.8l27.2,7.4c7.1,1.9,14.1-3.5,14.1-10.8v-23.5c0-7.4-7-12.7-14.1-10.8
		l-27.2,7.4C385.2,278.4,381.8,282.9,381.8,287.9z"/>
	<path class="st1" d="M263.1,246.5c19.6,0,36.1-13.7,40.4-32c7.9,18.8,26.6,32,48.2,32c28.8,0,52.3-23.5,52.3-52.3
		c0-28.8-23.5-52.3-52.3-52.3c-26,0-47.8,19.2-51.7,44.2c-6.9-13.4-20.8-22.6-36.9-22.6c-22.9,0-41.5,18.6-41.5,41.5
		C221.6,227.9,240.2,246.5,263.1,246.5z M351.7,150.3c24.2,0,43.9,19.7,43.9,43.9c0,24.2-19.7,43.9-43.9,43.9
		c-24.2,0-43.9-19.7-43.9-43.9S327.5,150.3,351.7,150.3z M263.1,171.8c18.3,0,33.1,14.9,33.1,33.1S281.3,238,263.1,238
		S230,223.1,230,204.9S244.8,171.8,263.1,171.8z"/>
	
		<ellipse transform="matrix(0.7071 -0.7071 0.7071 0.7071 -38.9359 305.0003)" class="st1" cx="348.7" cy="199.5" rx="8.1" ry="8.1"/>
	
		<ellipse transform="matrix(0.9732 -0.2298 0.2298 0.9732 -40.6356 65.9991)" class="st1" cx="263.1" cy="207.5" rx="8.1" ry="8.1"/>
	<path class="st1" d="M336.9,126.8c0.1,0,9.7-3.7,22.4-3c16.7,0.9,30.8,8.6,41.7,22.8c0.8,1,2,1.6,3.3,1.6c0.9,0,1.8-0.2,2.6-0.8
		c1.9-1.4,2.2-4.1,0.8-5.9c-15.7-20.4-34.9-25.5-48.3-26.1c-14.4-0.7-25.1,3.4-25.5,3.6c-2.2,0.8-3.2,3.2-2.4,5.4
		S334.7,127.6,336.9,126.8z"/>
	<path class="st1" d="M346.8,255.7h-72.7c-13.7,0-24.9,11.1-24.9,24.9v23.5c0,13.7,11.1,24.9,24.9,24.9h72.7c13.8,0,25-11.2,24.9-25
		v-23.4C371.7,266.9,360.6,255.7,346.8,255.7z"/>
</g>
</svg>
