<?xml version="1.0" encoding="utf-8"?>
<!-- Generator: Adobe Illustrator 22.0.1, SVG Export Plug-In . SVG Version: 6.00 Build 0)  -->
<svg version="1.1" id="Laag_1" xmlns="http://www.w3.org/2000/svg" xmlns:xlink="http://www.w3.org/1999/xlink" x="0px" y="0px"
	 viewBox="0 0 636.8 500" style="enable-background:new 0 0 636.8 500;" xml:space="preserve">
<style type="text/css">
	.st0{fill:#FFFFFF;}
	.st1{fill:#1D1D1B;}
</style>
<rect y="0" class="st0" width="636.8" height="500"/>
<path class="st1" d="M169.8,353.9h-16.6c-0.5,0-0.9,0.2-1.2,0.5s-0.5,0.7-0.5,1.1v28c0,0.5,0.2,0.8,0.5,1.1c0.3,0.3,0.7,0.5,1.2,0.5
	s0.9-0.2,1.2-0.5s0.5-0.7,0.5-1.1v-12.9h12.8c0.5,0,0.9-0.1,1.2-0.4s0.5-0.7,0.5-1.1s-0.2-0.8-0.5-1.1c-0.3-0.3-0.7-0.4-1.2-0.4
	h-12.8v-10.4h14.9c0.5,0,0.9-0.2,1.2-0.5s0.5-0.7,0.5-1.1c0-0.5-0.2-0.8-0.5-1.1C170.6,354.1,170.2,353.9,169.8,353.9z"/>
<path class="st1" d="M179.1,353.9c-0.5,0-0.9,0.2-1.2,0.4c-0.3,0.3-0.5,0.7-0.5,1.2v27.9c0,0.5,0.2,0.9,0.5,1.2
	c0.3,0.3,0.7,0.5,1.2,0.5s0.9-0.2,1.2-0.5s0.5-0.7,0.5-1.2v-27.9c0-0.5-0.2-0.9-0.5-1.2C179.9,354.1,179.5,353.9,179.1,353.9z"/>
<path class="st1" d="M206.7,382h-14.5v-26.4c0-0.5-0.2-0.8-0.5-1.2c-0.3-0.3-0.7-0.4-1.2-0.4s-0.9,0.2-1.2,0.4
	c-0.3,0.3-0.5,0.7-0.5,1.2v28c0,0.5,0.2,0.8,0.5,1.1c0.3,0.3,0.7,0.5,1.2,0.5h16.3c0.5,0,0.9-0.2,1.2-0.5s0.5-0.7,0.5-1.1
	c0-0.5-0.2-0.8-0.5-1.1C207.5,382.1,207.1,382,206.7,382z"/>
<path class="st1" d="M241.1,353.9L241.1,353.9c-0.6-0.1-1.1,0.2-1.5,0.7l-11.8,16.9l-11.7-16.9c-0.2-0.2-0.4-0.4-0.7-0.5
	c-0.8-0.3-1.5-0.2-2,0.3c-0.3,0.3-0.5,0.7-0.5,1.1v28c0,0.5,0.2,0.8,0.4,1.1c0.3,0.3,0.7,0.5,1.2,0.5s0.9-0.2,1.2-0.5
	s0.5-0.7,0.5-1.1v-23.2l10.2,14.9c0.4,0.4,0.8,0.6,1.2,0.6h0.1c0.5,0,0.9-0.2,1.3-0.6l10.2-14.8v23.1c0,0.5,0.2,0.9,0.5,1.2
	c0.3,0.3,0.7,0.4,1.2,0.4s0.9-0.2,1.2-0.4c0.3-0.3,0.5-0.7,0.5-1.2v-28c0-0.5-0.2-0.8-0.5-1.1C241.9,354.1,241.5,353.9,241.1,353.9z
	"/>
<path class="st1" d="M274,380.1l-10-12.7l9.7-8.9c0.6-0.6,0.9-1.2,0.9-1.9c0-0.7-0.3-1.3-0.8-1.9s-1.2-0.9-2-0.9
	c-0.9,0-1.7,0.4-2.4,1.1l-14.1,13.3V357c0-0.9-0.3-1.6-0.9-2.1c-0.6-0.5-1.3-0.8-2.2-0.8s-1.7,0.3-2.3,0.8c-0.6,0.6-0.9,1.3-0.9,2.1
	v25.3c0,0.8,0.3,1.5,0.9,2.1c0.6,0.6,1.3,0.8,2.2,0.8s1.7-0.3,2.3-0.8s0.9-1.3,0.9-2.1v-6.7l4-3.7L269,384c0.3,0.4,0.6,0.6,1,0.8
	c0.4,0.2,0.8,0.3,1.3,0.3c0.9,0,1.7-0.3,2.4-0.9c0.7-0.6,1-1.3,1-2.2c0-0.3-0.1-0.7-0.2-1C274.4,380.7,274.2,380.4,274,380.1z"/>
<path class="st1" d="M294.1,355.7c-0.2-0.6-0.6-1.1-1.1-1.4s-1.1-0.5-1.6-0.5l0,0c-0.7-0.1-1.3,0.1-1.8,0.4
	c-0.5,0.4-0.9,0.9-1.2,1.5L277,381.9c-0.1,0.3-0.2,0.6-0.2,0.9c0,0.8,0.2,1.4,0.7,1.9s1.1,0.7,2,0.7c0.6,0,1.1-0.2,1.6-0.5
	s0.9-0.8,1.1-1.4l2.3-5.2h13.2l2.3,5.1c0.3,0.6,0.6,1.1,1.1,1.4c0.5,0.4,1,0.5,1.7,0.5s1.4-0.3,2-0.8s0.9-1.2,0.9-2.1
	c0-0.4-0.1-0.7-0.3-1.2L294.1,355.7z M295.1,372.6h-8.2l4.1-9.2L295.1,372.6z"/>
<path class="st1" d="M339,354.7c-0.6-0.6-1.3-0.8-2.2-0.8c-0.5,0-0.9,0.1-1.4,0.4c-0.5,0.2-0.8,0.6-1.1,0.9l-10,14.3l-9.7-14.3
	c-0.3-0.4-0.7-0.7-1.2-0.9c-0.5-0.2-1-0.4-1.5-0.4c-0.9,0-1.6,0.3-2.2,0.9s-0.9,1.3-0.9,2.1v25.3c0,0.8,0.3,1.5,0.8,2.1
	s1.2,0.9,2.1,0.9s1.6-0.3,2.1-0.8s0.8-1.3,0.8-2.1v-17.1l7,10.6c0.3,0.4,0.7,0.7,1.1,0.9c0.4,0.2,0.9,0.4,1.3,0.3
	c0.5,0,0.9-0.1,1.4-0.3c0.4-0.2,0.8-0.5,1.1-0.9l7-10.3v16.7c0,0.9,0.3,1.6,0.9,2.1s1.3,0.8,2.3,0.8c0.9,0,1.7-0.3,2.3-0.8
	c0.6-0.6,0.9-1.3,0.9-2.1v-25.3C339.9,356,339.6,355.3,339,354.7L339,354.7z"/>
<path class="st1" d="M364.5,359.5c0.9,0,1.6-0.3,2.2-0.7c0.6-0.5,0.9-1.2,0.9-2s-0.3-1.5-0.9-2.1c-0.6-0.5-1.3-0.8-2.2-0.8h-15.3
	c-0.9,0-1.6,0.3-2.2,0.8c-0.6,0.6-0.9,1.3-0.9,2.1v25.3c0,0.8,0.3,1.5,0.9,2.1s1.3,0.8,2.2,0.8h15.3c0.9,0,1.6-0.3,2.2-0.8
	s0.9-1.2,0.9-2c0-0.7-0.3-1.4-0.9-2l0,0c-0.6-0.6-1.3-0.8-2.2-0.8h-12.1V372h10c0.9,0,1.6-0.3,2.2-0.7c0.6-0.5,0.9-1.2,0.9-2
	s-0.3-1.5-0.9-2.1c-0.6-0.5-1.3-0.8-2.2-0.8h-10v-6.9H364.5z"/>
<path class="st1" d="M398.6,381.3c-0.3-0.4-0.6-0.8-1.1-1c-0.4-0.2-0.6-0.4-0.7-0.7c-0.1-0.4-0.2-1-0.4-1.9c0-0.5,0-0.9-0.1-1.4
	c-0.2-2.1-1.2-3.8-2.9-5.1c1.2-0.8,2.2-1.9,2.9-3.2c0.8-1.4,1.3-2.9,1.3-4.4c0-1.8-0.4-3.5-1.3-5s-2-2.6-3.5-3.5
	c-1.4-0.8-3-1.3-4.6-1.3h-13.1c-0.9,0-1.6,0.3-2.2,0.8c-0.6,0.6-0.9,1.3-0.9,2.1V382c0,0.8,0.4,1.6,1.1,2.1s1.5,0.8,2.5,0.8
	c0.8,0,1.5-0.3,2-0.8s0.7-1.3,0.7-2.1v-8h8.2c1.3,0,2.2,0.3,2.9,0.8c0.7,0.6,1,1.3,1,2.3c0,3.8,1.2,6.3,3.4,7.6
	c0.6,0.3,1.4,0.5,2.1,0.5c1,0,1.8-0.3,2.3-0.9c0.4-0.5,0.6-1,0.6-1.6C398.9,382.2,398.8,381.7,398.6,381.3L398.6,381.3z
	 M391.1,363.7c0,0.9-0.2,1.8-0.5,2.6c-0.3,0.8-0.7,1.4-1.2,1.9c-0.5,0.4-0.9,0.7-1.4,0.7h-9.7v-9.4h9.7c0.5,0,1,0.2,1.4,0.6
	c0.5,0.4,0.9,0.9,1.2,1.5C391,362.3,391.1,363,391.1,363.7z"/>
<path class="st1" d="M417.9,355.7c-0.2-0.6-0.6-1.1-1.1-1.4s-1.1-0.5-1.7-0.5l0,0c-0.7-0.1-1.3,0.1-1.8,0.4
	c-0.5,0.4-0.9,0.9-1.2,1.5l-11.4,26.2c-0.1,0.3-0.2,0.6-0.2,0.9c0,0.8,0.2,1.4,0.7,1.9s1.1,0.7,2,0.7c0.6,0,1.1-0.2,1.6-0.5
	s0.9-0.8,1.1-1.4l2.3-5.2h13.2l2.3,5.1c0.3,0.6,0.6,1.1,1.1,1.4c0.5,0.4,1,0.5,1.7,0.5s1.4-0.3,2-0.8s0.9-1.2,0.9-2.1
	c0-0.4-0.1-0.7-0.3-1.2L417.9,355.7z M419,372.6h-8.2l4.1-9.2L419,372.6z"/>
<path class="st1" d="M447.1,355.7c-0.2-0.6-0.6-1.1-1.1-1.4s-1.1-0.5-1.7-0.5l0,0c-0.7-0.1-1.3,0.1-1.8,0.4
	c-0.5,0.4-0.9,0.9-1.2,1.5l-11.4,26.2c-0.1,0.3-0.1,0.6-0.1,0.9c0,0.8,0.2,1.4,0.7,1.9s1.1,0.7,2,0.7c0.6,0,1.1-0.2,1.6-0.5
	s0.9-0.8,1.1-1.4l2.3-5.2h13.2l2.3,5.1c0.3,0.6,0.6,1.1,1.1,1.4c0.5,0.4,1,0.5,1.7,0.5s1.4-0.3,2-0.8s0.9-1.2,0.9-2.1
	c0-0.4-0.1-0.7-0.3-1.2L447.1,355.7z M448.1,372.6h-8.2l4.1-9.2L448.1,372.6z"/>
<path class="st1" d="M487.4,361.6c-1.1-2.4-2.7-4.3-4.8-5.6c-2.1-1.4-4.6-2.1-7.5-2.1h-10.9c-0.9,0-1.6,0.3-2.2,0.8
	c-0.6,0.6-0.9,1.3-0.9,2.1v25.3c0,0.8,0.3,1.5,0.9,2.1s1.3,0.8,2.2,0.8H475c2.9,0,5.4-0.7,7.5-2.1s3.7-3.3,4.8-5.6
	c1.1-2.3,1.6-5,1.6-7.9S488.4,364,487.4,361.6z M482.5,369.5c0,2.9-0.7,5.3-2,7.2c-1.3,1.8-3.3,2.8-5.9,2.8h-7.2v-20h7.2
	c2.6,0,4.6,0.9,5.9,2.8C481.8,364.2,482.5,366.6,482.5,369.5z"/>
<path class="st1" d="M417.2,314.8l-27.2-7.4c-4.9-1.3-8.2-5.7-8.2-10.8v-8.7c0-5,3.4-9.5,8.2-10.8l27.2-7.4
	c7.1-1.9,14.1,3.4,14.1,10.8V304C431.3,311.3,424.3,316.7,417.2,314.8z"/>
<path class="st1" d="M263.1,246.5c-22.9,0-41.5-18.6-41.5-41.5s18.6-41.5,41.5-41.5s41.5,18.6,41.5,41.5S286,246.5,263.1,246.5z
	 M263.1,171.8c-18.3,0-33.1,14.9-33.1,33.1s14.9,33.1,33.1,33.1s33.1-14.9,33.1-33.1S281.4,171.8,263.1,171.8z"/>
<path class="st1" d="M351.7,246.5c-28.8,0-52.3-23.5-52.3-52.3s23.5-52.3,52.3-52.3s52.3,23.5,52.3,52.3S380.5,246.5,351.7,246.5z
	 M351.7,150.3c-24.2,0-43.9,19.7-43.9,43.9s19.7,43.9,43.9,43.9c24.2,0,43.9-19.7,43.9-43.9S375.9,150.3,351.7,150.3z"/>
<circle class="st1" cx="348.7" cy="199.5" r="8.1"/>
<circle class="st1" cx="263.1" cy="207.5" r="8.1"/>
<path class="st1" d="M404.3,148.2c-1.3,0-2.5-0.6-3.3-1.6c-10.9-14.2-25-21.9-41.7-22.8c-12.7-0.7-22.3,3-22.4,3
	c-2.2,0.8-4.6-0.2-5.4-2.4c-0.8-2.2,0.2-4.6,2.4-5.4c0.4-0.2,11.1-4.3,25.5-3.6c13.4,0.6,32.6,5.7,48.3,26.1
	c1.4,1.8,1.1,4.5-0.8,5.9C406.1,148,405.2,148.2,404.3,148.2z"/>
<path class="st1" d="M346.8,329h-72.7c-13.8,0-24.9-11.2-24.9-24.9v-23.5c0-13.8,11.2-24.9,24.9-24.9h72.7
	c13.8,0,24.9,11.2,24.9,24.9V304C371.8,317.8,360.6,329,346.8,329z"/>
</svg>
