<?xml version="1.0" encoding="utf-8"?>
<!-- Generator: Adobe Illustrator 22.0.1, SVG Export Plug-In . SVG Version: 6.00 Build 0)  -->
<svg version="1.1" id="Laag_1" xmlns="http://www.w3.org/2000/svg" xmlns:xlink="http://www.w3.org/1999/xlink" x="0px" y="0px"
	 viewBox="0 0 200 200" style="enable-background:new 0 0 200 200;" xml:space="preserve">
<style type="text/css">
	.st0{fill:#E51A2F;}
	.st1{fill:#E4222F;}
</style>
<path class="st0" d="M23.9,148h-8.5c-0.2,0-0.4,0.1-0.6,0.2c-0.2,0.2-0.2,0.4-0.2,0.6v14.4c0,0.2,0.1,0.4,0.2,0.6
	c0.2,0.2,0.4,0.2,0.6,0.2c0.2,0,0.4-0.1,0.6-0.2c0.2-0.2,0.2-0.4,0.2-0.6v-6.6h6.6c0.2,0,0.4-0.1,0.6-0.2c0.2-0.1,0.2-0.3,0.2-0.6
	s-0.1-0.4-0.2-0.6c-0.2-0.1-0.4-0.2-0.6-0.2h-6.6v-5.3h7.7c0.2,0,0.4-0.1,0.6-0.2c0.2-0.2,0.2-0.3,0.2-0.6c0-0.2-0.1-0.4-0.2-0.6
	C24.3,148.1,24.1,148,23.9,148z"/>
<path class="st0" d="M28.7,148c-0.3,0-0.5,0.1-0.6,0.2c-0.2,0.2-0.3,0.4-0.3,0.6v14.3c0,0.3,0.1,0.5,0.2,0.6
	c0.2,0.2,0.4,0.2,0.6,0.2c0.2,0,0.4-0.1,0.6-0.2c0.2-0.2,0.3-0.4,0.3-0.6v-14.3c0-0.2-0.1-0.4-0.3-0.6C29.1,148.1,28.9,148,28.7,148
	z"/>
<path class="st0" d="M42.9,162.4h-7.4v-13.6c0-0.2-0.1-0.4-0.3-0.6c-0.2-0.2-0.4-0.2-0.6-0.2c-0.3,0-0.5,0.1-0.6,0.2
	c-0.2,0.2-0.3,0.4-0.3,0.6v14.4c0,0.2,0.1,0.4,0.2,0.6c0.2,0.2,0.4,0.2,0.6,0.2h8.4c0.2,0,0.4-0.1,0.6-0.2c0.2-0.2,0.2-0.4,0.2-0.6
	c0-0.2-0.1-0.4-0.2-0.6C43.3,162.5,43.1,162.4,42.9,162.4z"/>
<path class="st0" d="M60.6,148C60.6,148,60.6,148,60.6,148c-0.3,0-0.6,0.1-0.8,0.4l-6.1,8.7l-6-8.7c-0.1-0.1-0.2-0.2-0.3-0.3
	c-0.4-0.2-0.8-0.1-1,0.2c-0.2,0.2-0.2,0.4-0.2,0.6v14.4c0,0.2,0.1,0.4,0.2,0.6c0.2,0.2,0.4,0.2,0.6,0.2c0.2,0,0.4-0.1,0.6-0.2
	c0.2-0.2,0.2-0.4,0.2-0.6v-11.9l5.2,7.7c0.2,0.2,0.4,0.3,0.6,0.3l0,0c0.3,0,0.5-0.1,0.7-0.3l5.2-7.6v11.9c0,0.2,0.1,0.4,0.3,0.6
	c0.2,0.2,0.4,0.2,0.6,0.2c0.2,0,0.4-0.1,0.6-0.2c0.2-0.2,0.3-0.4,0.3-0.6v-14.4c0-0.2-0.1-0.4-0.2-0.6C61,148.1,60.8,148,60.6,148z"
	/>
<path class="st0" d="M77.5,161.4l-5.1-6.5l5-4.6c0.3-0.3,0.5-0.6,0.5-1c0-0.3-0.1-0.7-0.4-1c-0.3-0.3-0.6-0.5-1-0.5
	c-0.4,0-0.9,0.2-1.3,0.6l-7.3,6.8v-5.8c0-0.4-0.1-0.8-0.4-1.1c-0.3-0.3-0.7-0.4-1.1-0.4c-0.5,0-0.9,0.1-1.2,0.4
	c-0.3,0.3-0.5,0.7-0.5,1.1v13c0,0.4,0.2,0.8,0.5,1.1c0.3,0.3,0.7,0.4,1.1,0.4c0.5,0,0.9-0.1,1.2-0.4c0.3-0.3,0.5-0.7,0.5-1.1V159
	l2.1-1.9l5,6.3c0.1,0.2,0.3,0.3,0.5,0.4c0.2,0.1,0.4,0.1,0.6,0.1c0.5,0,0.9-0.1,1.2-0.4c0.4-0.3,0.5-0.7,0.5-1.1
	c0-0.2,0-0.3-0.1-0.5C77.7,161.7,77.6,161.6,77.5,161.4z"/>
<path class="st0" d="M87.8,148.9c-0.1-0.3-0.3-0.6-0.6-0.7c-0.3-0.2-0.6-0.3-0.8-0.3c0,0,0,0,0,0c-0.3,0-0.7,0-0.9,0.2
	c-0.3,0.2-0.5,0.4-0.6,0.8L79,162.3c-0.1,0.2-0.1,0.3-0.1,0.5c0,0.4,0.1,0.7,0.4,1c0.2,0.2,0.6,0.4,1,0.4c0.3,0,0.6-0.1,0.8-0.3
	c0.3-0.2,0.4-0.4,0.6-0.7l1.2-2.7h6.8l1.2,2.6c0.1,0.3,0.3,0.6,0.6,0.7c0.3,0.2,0.5,0.3,0.8,0.3c0.4,0,0.7-0.1,1-0.4
	c0.3-0.3,0.4-0.6,0.4-1.1c0-0.2,0-0.4-0.1-0.6L87.8,148.9z M88.3,157.6h-4.2l2.1-4.8L88.3,157.6z"/>
<path class="st0" d="M110.9,148.4c-0.3-0.3-0.7-0.4-1.1-0.4c-0.2,0-0.5,0.1-0.7,0.2c-0.2,0.1-0.4,0.3-0.6,0.5l-5.1,7.4l-5-7.4
	c-0.1-0.2-0.3-0.4-0.6-0.5c-0.3-0.1-0.5-0.2-0.8-0.2c-0.4,0-0.8,0.1-1.1,0.4c-0.3,0.3-0.5,0.7-0.5,1.1v13c0,0.4,0.1,0.8,0.4,1.1
	c0.3,0.3,0.6,0.4,1.1,0.4c0.4,0,0.8-0.1,1.1-0.4c0.3-0.3,0.4-0.7,0.4-1.1v-8.8l3.6,5.5c0.2,0.2,0.4,0.4,0.6,0.5
	c0.2,0.1,0.5,0.2,0.7,0.2c0.2,0,0.5,0,0.7-0.2c0.2-0.1,0.4-0.3,0.6-0.5l3.6-5.3v8.6c0,0.4,0.2,0.8,0.5,1.1c0.3,0.3,0.7,0.4,1.2,0.4
	s0.9-0.1,1.2-0.4c0.3-0.3,0.4-0.7,0.4-1.1v-13C111.4,149,111.2,148.7,110.9,148.4L110.9,148.4z"/>
<path class="st0" d="M124,150.9c0.5,0,0.8-0.1,1.1-0.4c0.3-0.3,0.4-0.6,0.4-1c0-0.4-0.2-0.8-0.5-1.1c-0.3-0.3-0.7-0.4-1.1-0.4h-7.9
	c-0.4,0-0.8,0.1-1.1,0.4c-0.3,0.3-0.5,0.7-0.5,1.1v13c0,0.4,0.2,0.8,0.5,1.1c0.3,0.3,0.7,0.4,1.1,0.4h7.9c0.4,0,0.8-0.1,1.1-0.4
	c0.3-0.3,0.5-0.6,0.5-1c0-0.4-0.2-0.7-0.5-1l0,0c-0.3-0.3-0.7-0.4-1.1-0.4h-6.2v-3.9h5.1c0.5,0,0.8-0.1,1.1-0.4
	c0.3-0.3,0.4-0.6,0.4-1c0-0.4-0.2-0.8-0.5-1.1c-0.3-0.3-0.7-0.4-1.1-0.4h-5.1v-3.5H124z"/>
<path class="st0" d="M141.5,162.1c-0.1-0.2-0.3-0.4-0.5-0.5c-0.2-0.1-0.3-0.2-0.3-0.4c-0.1-0.2-0.1-0.5-0.2-1c0-0.2,0-0.5-0.1-0.7
	c-0.1-1.1-0.6-2-1.5-2.6c0.6-0.4,1.1-1,1.5-1.6c0.4-0.7,0.7-1.5,0.7-2.3c0-0.9-0.2-1.8-0.7-2.5c-0.4-0.8-1-1.4-1.8-1.8
	c-0.7-0.4-1.5-0.6-2.4-0.6h-6.7c-0.4,0-0.8,0.1-1.1,0.4c-0.3,0.3-0.5,0.7-0.5,1.1v13c0,0.4,0.2,0.8,0.6,1.1c0.4,0.3,0.8,0.4,1.3,0.4
	c0.4,0,0.8-0.1,1-0.4c0.3-0.3,0.4-0.6,0.4-1.1v-4.2h4.2c0.6,0,1.1,0.1,1.5,0.4c0.3,0.3,0.5,0.7,0.5,1.2c0,1.9,0.6,3.2,1.8,3.9
	c0.3,0.2,0.7,0.3,1.1,0.3c0.5,0,0.9-0.2,1.2-0.5c0.2-0.3,0.3-0.5,0.3-0.8C141.7,162.5,141.6,162.3,141.5,162.1L141.5,162.1z
	 M137.7,153c0,0.5-0.1,0.9-0.2,1.3c-0.2,0.4-0.4,0.7-0.6,1c-0.2,0.2-0.5,0.3-0.7,0.3h-5v-4.8h5c0.2,0,0.5,0.1,0.7,0.3
	c0.2,0.2,0.5,0.5,0.6,0.8C137.6,152.3,137.7,152.6,137.7,153z"/>
<path class="st0" d="M151.5,148.9c-0.1-0.3-0.3-0.6-0.6-0.7c-0.3-0.2-0.6-0.3-0.8-0.3c0,0,0,0,0,0c-0.3,0-0.7,0-0.9,0.2
	c-0.3,0.2-0.5,0.4-0.6,0.8l-5.8,13.5c-0.1,0.2-0.1,0.3-0.1,0.5c0,0.4,0.1,0.7,0.4,1c0.2,0.2,0.6,0.4,1,0.4c0.3,0,0.6-0.1,0.8-0.3
	c0.3-0.2,0.4-0.4,0.6-0.7l1.2-2.7h6.8l1.2,2.6c0.1,0.3,0.3,0.6,0.6,0.7c0.3,0.2,0.5,0.3,0.8,0.3c0.4,0,0.7-0.1,1-0.4
	c0.3-0.3,0.4-0.6,0.4-1.1c0-0.2,0-0.4-0.1-0.6L151.5,148.9z M152,157.6h-4.2l2.1-4.8L152,157.6z"/>
<path class="st0" d="M166.4,148.9c-0.1-0.3-0.3-0.6-0.6-0.7c-0.3-0.2-0.6-0.3-0.8-0.3c0,0,0,0,0,0c-0.3,0-0.7,0-0.9,0.2
	c-0.3,0.2-0.5,0.4-0.6,0.8l-5.8,13.5c-0.1,0.2-0.1,0.3-0.1,0.5c0,0.4,0.1,0.7,0.4,1c0.2,0.2,0.6,0.4,1,0.4c0.3,0,0.6-0.1,0.8-0.3
	c0.3-0.2,0.4-0.4,0.6-0.7l1.2-2.7h6.8l1.2,2.6c0.1,0.3,0.3,0.6,0.6,0.7c0.3,0.2,0.5,0.3,0.8,0.3c0.4,0,0.7-0.1,1-0.4
	c0.3-0.3,0.4-0.6,0.4-1.1c0-0.2,0-0.4-0.1-0.6L166.4,148.9z M167,157.6h-4.2l2.1-4.8L167,157.6z"/>
<path class="st0" d="M187.2,151.9c-0.6-1.2-1.4-2.2-2.5-2.9c-1.1-0.7-2.4-1.1-3.9-1.1h-5.6c-0.4,0-0.8,0.1-1.1,0.4
	c-0.3,0.3-0.5,0.7-0.5,1.1v13c0,0.4,0.2,0.8,0.5,1.1c0.3,0.3,0.7,0.4,1.1,0.4h5.6c1.5,0,2.8-0.4,3.9-1.1c1.1-0.7,1.9-1.7,2.5-2.9
	c0.6-1.2,0.8-2.6,0.8-4.1C188,154.5,187.7,153.2,187.2,151.9z M184.7,156c0,1.5-0.3,2.7-1,3.7c-0.7,1-1.7,1.4-3,1.4h-3.7v-10.3h3.7
	c1.3,0,2.4,0.5,3,1.4C184.3,153.3,184.7,154.5,184.7,156z"/>
<path class="st0" d="M151.1,127.9l-14-3.8c-2.5-0.7-4.2-2.9-4.2-5.5V114c0-2.6,1.7-4.9,4.2-5.5l14-3.8c3.7-1,7.2,1.8,7.2,5.5v12.1
	C158.3,126.1,154.7,128.8,151.1,127.9z"/>
<path class="st0" d="M71.9,92.7c-11.8,0-21.4-9.6-21.4-21.4S60.1,50,71.9,50s21.4,9.6,21.4,21.4S83.7,92.7,71.9,92.7z M71.9,54.3
	c-9.4,0-17,7.6-17,17c0,9.4,7.6,17,17,17s17-7.6,17-17C88.9,62,81.3,54.3,71.9,54.3z"/>
<path class="st0" d="M117.4,92.7c-14.8,0-26.9-12.1-26.9-26.9S102.6,39,117.4,39c14.8,0,26.9,12.1,26.9,26.9S132.2,92.7,117.4,92.7z
	 M117.4,43.3c-12.4,0-22.6,10.1-22.6,22.6s10.1,22.6,22.6,22.6c12.4,0,22.6-10.1,22.6-22.6S129.9,43.3,117.4,43.3z"/>
<circle class="st0" cx="115.9" cy="68.6" r="4.2"/>
<circle class="st0" cx="71.9" cy="72.7" r="4.2"/>
<path class="st0" d="M144.5,42.3c-0.6,0-1.3-0.3-1.7-0.8c-5.6-7.3-12.8-11.3-21.4-11.7c-6.5-0.3-11.5,1.5-11.5,1.6
	c-1.1,0.4-2.4-0.1-2.8-1.2c-0.4-1.1,0.1-2.4,1.2-2.8c0.2-0.1,5.7-2.2,13.1-1.9c6.9,0.3,16.8,2.9,24.8,13.4c0.7,0.9,0.5,2.3-0.4,3
	C145.4,42.1,144.9,42.3,144.5,42.3z"/>
<path class="st1" d="M114.9,135.1H77.5c-7.1,0-12.8-5.7-12.8-12.8v-12.1c0-7.1,5.7-12.8,12.8-12.8h37.4c7.1,0,12.8,5.7,12.8,12.8
	v12.1C127.7,129.4,122,135.1,114.9,135.1z"/>
</svg>
