<?xml version="1.0" encoding="utf-8"?>
<!-- Generator: Adobe Illustrator 22.0.1, SVG Export Plug-In . SVG Version: 6.00 Build 0)  -->
<svg version="1.1" id="Laag_1" xmlns="http://www.w3.org/2000/svg" xmlns:xlink="http://www.w3.org/1999/xlink" x="0px" y="0px"
	 viewBox="0 0 300 300" style="enable-background:new 0 0 300 300;" xml:space="preserve">
<style type="text/css">
	.st0{fill:#FFFFFF;}
	.st1{fill:#E4222F;}
	.st2{font-family:'Quicksand-Bold';}
	.st3{font-size:64.5822px;}
</style>
<path class="st1" d="M261.1,300H38.9C17.4,300,0,282.6,0,261.1V38.9C0,17.4,17.4,0,38.9,0h222.1C282.6,0,300,17.4,300,38.9v222.1
	C300,282.6,282.6,300,261.1,300z"/>
<g>
	<path class="st0" d="M190.9,75.2c-28.2,0-51.6,20.7-55.9,47.7c-7.5-14.5-22.6-24.5-40-24.5c-24.8,0-45,20.2-45,45
		c0,24.8,20.2,45,45,45c21.2,0,39.1-14.8,43.7-34.6c8.6,20.3,28.7,34.6,52.1,34.6c31.2,0,56.6-25.4,56.6-56.6S222.1,75.2,190.9,75.2
		z M95.1,179.2c-19.8,0-35.9-16.1-35.9-35.9c0-19.8,16.1-35.9,35.9-35.9s35.9,16.1,35.9,35.9C130.9,163.1,114.8,179.2,95.1,179.2z
		 M190.9,179.2c-26.2,0-47.5-21.3-47.5-47.5s21.3-47.5,47.5-47.5c26.2,0,47.5,21.3,47.5,47.5S217.1,179.2,190.9,179.2z"/>
	<path class="st0" d="M187.7,128.7c-4.8,0-8.7,3.9-8.7,8.7c0,4.8,3.9,8.7,8.7,8.7c4.8,0,8.7-3.9,8.7-8.7
		C196.5,132.6,192.5,128.7,187.7,128.7z"/>
	
		<ellipse transform="matrix(0.7071 -0.7071 0.7071 0.7071 -75.5421 110.0416)" class="st0" cx="95.1" cy="146.2" rx="8.7" ry="8.7"/>
	<path class="st0" d="M251.5,74.7c-17-22.1-37.8-27.5-52.2-28.2c-15.6-0.7-27.1,3.7-27.6,3.9c-2.3,0.9-3.5,3.5-2.6,5.9
		c0.9,2.3,3.5,3.5,5.9,2.6c0.1,0,10.5-4,24.2-3.3c18.1,1,33.3,9.3,45.1,24.6c0.9,1.2,2.2,1.8,3.6,1.8c1,0,1.9-0.3,2.8-0.9
		C252.6,79.6,253,76.7,251.5,74.7z"/>
</g>
<text transform="matrix(1 0 0 1 59.2866 262.0479)" class="st0 st2 st3">LOGO</text>
</svg>
