<?xml version="1.0" encoding="utf-8"?>
<!-- Generator: Adobe Illustrator 22.0.1, SVG Export Plug-In . SVG Version: 6.00 Build 0)  -->
<svg version="1.1" xmlns="http://www.w3.org/2000/svg" xmlns:xlink="http://www.w3.org/1999/xlink" x="0px" y="0px"
	 viewBox="0 0 656.5 568.4" style="enable-background:new 0 0 656.5 568.4;" xml:space="preserve">
<style type="text/css">
	.st0{fill:#FFFFFF;}
	.st1{fill:#EDEDED;}
	.st2{fill:#FFFFFF;stroke:#9D9D9C;stroke-width:0.501;stroke-miterlimit:10;}
	.st3{fill:none;stroke:#9D9D9C;stroke-width:0.3954;stroke-miterlimit:10;}
	.st4{fill:#E51A2F;}
	.st5{fill:none;stroke:#FFFFFF;stroke-width:19.5428;stroke-miterlimit:10;}
	.st6{fill:#E52330;}
	.st7{fill:none;stroke:#9D9D9C;stroke-width:0.501;stroke-miterlimit:10;}
	.st8{opacity:0.21;fill:#E51A2F;}
</style>
<g id="Laag_4">
	<rect x="0.2" y="0" class="st0" width="656.3" height="568.4"/>
</g>
<g id="Laag_2">
	<path class="st1" d="M602.6,321.9c-29.9,0-54.2-24.3-54.2-54.2s24.3-54.2,54.2-54.2s54.2,24.3,54.2,54.2S632.5,321.9,602.6,321.9z
		 M602.6,224.6c-23.8,0-43.2,19.4-43.2,43.2s19.4,43.2,43.2,43.2s43.2-19.4,43.2-43.2S626.4,224.6,602.6,224.6z"/>
	<path class="st1" d="M54.4,321.9c-29.9,0-54.2-24.3-54.2-54.2s24.3-54.2,54.2-54.2s54.2,24.3,54.2,54.2S84.2,321.9,54.4,321.9z
		 M54.4,224.6c-23.8,0-43.2,19.4-43.2,43.2S30.5,311,54.4,311s43.2-19.4,43.2-43.2S78.2,224.6,54.4,224.6z"/>
	<path class="st1" d="M323.3,108.3c-29.9,0-54.2-24.3-54.2-54.2S293.4,0,323.3,0c29.9,0,54.2,24.3,54.2,54.2
		S353.1,108.3,323.3,108.3z M323.3,10.9c-23.8,0-43.2,19.4-43.2,43.2s19.4,43.2,43.2,43.2c23.8,0,43.2-19.4,43.2-43.2
		S347.1,10.9,323.3,10.9z"/>
	<path class="st1" d="M328.5,568.7c-29.9,0-54.2-24.3-54.2-54.2c0-29.9,24.3-54.2,54.2-54.2c29.9,0,54.2,24.3,54.2,54.2
		C382.6,544.4,358.4,568.7,328.5,568.7z M328.5,471.3c-23.8,0-43.2,19.4-43.2,43.2s19.4,43.2,43.2,43.2c23.8,0,43.2-19.4,43.2-43.2
		S352.3,471.3,328.5,471.3z"/>
</g>
<g id="Laag_3">
	<rect x="108.5" y="108.3" class="st2" width="439.9" height="352"/>
	<rect x="199.8" y="108.3" class="st3" width="274.1" height="352"/>
</g>
<g id="Laag_1">
	<path class="st4" d="M132.3,419.4h-21.6c-0.6,0-1.1,0.2-1.5,0.6c-0.4,0.4-0.6,0.9-0.6,1.5v36.5c0,0.6,0.2,1.1,0.6,1.5
		c0.4,0.4,0.9,0.6,1.6,0.6c0.6,0,1.1-0.2,1.5-0.6c0.4-0.4,0.6-0.9,0.6-1.5v-16.8h16.7c0.6,0,1.1-0.2,1.5-0.6
		c0.4-0.4,0.6-0.9,0.6-1.5s-0.2-1.1-0.6-1.5c-0.4-0.4-0.9-0.6-1.5-0.6h-16.7v-13.6h19.4c0.6,0,1.1-0.2,1.5-0.6
		c0.4-0.4,0.6-0.9,0.6-1.4c0-0.6-0.2-1.1-0.6-1.5C133.4,419.6,132.9,419.4,132.3,419.4z"/>
	<path class="st4" d="M144.4,419.4c-0.6,0-1.2,0.2-1.6,0.6c-0.4,0.4-0.7,0.9-0.7,1.6v36.4c0,0.6,0.2,1.2,0.6,1.6
		c0.4,0.4,0.9,0.6,1.6,0.6c0.6,0,1.1-0.2,1.6-0.6c0.4-0.4,0.7-0.9,0.7-1.5v-36.4c0-0.6-0.2-1.1-0.6-1.5
		C145.6,419.6,145.1,419.4,144.4,419.4z"/>
	<path class="st4" d="M180.4,455.9h-18.9v-34.5c0-0.6-0.2-1.1-0.7-1.5c-0.4-0.4-1-0.6-1.6-0.6c-0.6,0-1.2,0.2-1.6,0.6
		c-0.4,0.4-0.7,0.9-0.7,1.5v36.5c0,0.6,0.2,1.1,0.6,1.5c0.4,0.4,0.9,0.6,1.5,0.6h21.2c0.6,0,1.1-0.2,1.5-0.6
		c0.4-0.4,0.6-0.9,0.6-1.5c0-0.6-0.2-1.1-0.6-1.5C181.5,456.1,181,455.9,180.4,455.9z"/>
	<path class="st4" d="M225.3,419.4C225.3,419.4,225.3,419.4,225.3,419.4c-0.8-0.1-1.4,0.2-2,0.9l-15.4,22l-15.3-22
		c-0.2-0.3-0.5-0.5-0.9-0.7c-1.1-0.4-2-0.2-2.6,0.4c-0.4,0.4-0.6,0.9-0.6,1.5v36.5c0,0.6,0.2,1.1,0.6,1.5c0.4,0.4,0.9,0.6,1.5,0.6
		c0.6,0,1.1-0.2,1.5-0.6c0.4-0.4,0.6-0.9,0.6-1.5v-30.3l13.3,19.5c0.5,0.5,1,0.8,1.6,0.8l0.1,0c0.6,0.1,1.2-0.2,1.7-0.8l13.3-19.3
		v30.2c0,0.6,0.2,1.1,0.7,1.5c0.4,0.4,1,0.6,1.6,0.6c0.6,0,1.1-0.2,1.6-0.6c0.4-0.4,0.7-0.9,0.7-1.5v-36.5c0-0.6-0.2-1.1-0.6-1.5
		C226.3,419.6,225.9,419.4,225.3,419.4z"/>
	<path class="st4" d="M268.2,453.5l-13-16.6l12.7-11.6c0.8-0.8,1.2-1.6,1.2-2.5c0-0.9-0.4-1.7-1-2.5c-0.7-0.8-1.6-1.2-2.6-1.2
		c-1.1,0-2.2,0.5-3.2,1.4l-18.4,17.4v-14.6c0-1.1-0.4-2.1-1.1-2.8c-0.7-0.7-1.7-1.1-2.9-1.1c-1.2,0-2.2,0.4-3,1.1
		c-0.8,0.7-1.2,1.7-1.2,2.8v33c0,1.1,0.4,2,1.2,2.8c0.8,0.7,1.7,1.1,2.9,1.1c1.2,0,2.2-0.4,3-1.1c0.8-0.7,1.2-1.7,1.2-2.8v-8.8
		l5.2-4.8l12.6,16c0.4,0.5,0.8,0.8,1.3,1.1c0.5,0.3,1.1,0.4,1.6,0.4c1.2,0,2.2-0.4,3.1-1.1c0.9-0.8,1.4-1.7,1.4-2.9
		c0-0.4-0.1-0.9-0.3-1.4C268.7,454.2,268.5,453.8,268.2,453.5z"/>
	<path class="st4" d="M294.3,421.6c-0.3-0.8-0.8-1.4-1.5-1.9c-0.7-0.4-1.4-0.7-2.2-0.7c0,0,0,0,0,0c-0.9-0.1-1.7,0.1-2.4,0.6
		c-0.7,0.5-1.2,1.1-1.6,1.9l-14.8,34.1c-0.1,0.4-0.2,0.8-0.2,1.2c0,1,0.3,1.8,0.9,2.4c0.6,0.6,1.5,0.9,2.6,0.9
		c0.7,0,1.5-0.2,2.1-0.7c0.6-0.4,1.1-1.1,1.4-1.8l3-6.7H299l3,6.7c0.3,0.8,0.8,1.4,1.5,1.9c0.6,0.5,1.4,0.7,2.2,0.7
		c1,0,1.8-0.4,2.6-1c0.8-0.7,1.1-1.6,1.1-2.7c0-0.5-0.1-1-0.3-1.5L294.3,421.6z M295.7,443.8H285l5.3-12L295.7,443.8z"/>
	<path class="st4" d="M352.9,420.4c-0.8-0.7-1.8-1.1-2.8-1.1c-0.6,0-1.2,0.2-1.8,0.5c-0.6,0.3-1.1,0.7-1.4,1.2l-13,18.7L321.2,421
		c-0.4-0.5-0.9-0.9-1.5-1.2c-0.6-0.3-1.3-0.5-1.9-0.5c-1.1,0-2.1,0.4-2.9,1.1c-0.8,0.8-1.2,1.7-1.2,2.7v33c0,1.1,0.4,2,1.1,2.7
		c0.7,0.7,1.6,1.1,2.7,1.1c1.1,0,2.1-0.4,2.8-1.1c0.7-0.7,1.1-1.6,1.1-2.8v-22.2l9.1,13.9c0.4,0.5,0.9,0.9,1.5,1.2
		c0.6,0.3,1.2,0.5,1.7,0.4c0.6,0,1.2-0.1,1.8-0.4c0.6-0.3,1-0.7,1.5-1.2l9.1-13.4v21.8c0,1.1,0.4,2.1,1.2,2.8c0.8,0.7,1.8,1.1,3,1.1
		s2.2-0.4,2.9-1.1c0.7-0.7,1.1-1.7,1.1-2.7v-33C354.1,422.1,353.7,421.1,352.9,420.4L352.9,420.4z"/>
	<path class="st4" d="M386.2,426.7c1.2,0,2.1-0.3,2.9-1c0.8-0.7,1.1-1.5,1.1-2.6c0-1.1-0.4-2-1.2-2.7c-0.8-0.7-1.7-1-2.8-1h-19.9
		c-1.1,0-2.1,0.4-2.8,1.1c-0.8,0.7-1.2,1.7-1.2,2.8v33c0,1.1,0.4,2,1.2,2.8c0.8,0.7,1.7,1.1,2.8,1.1h19.9c1.1,0,2.1-0.3,2.8-1
		c0.8-0.7,1.2-1.6,1.2-2.6c0-1-0.4-1.8-1.2-2.6l0,0c-0.8-0.7-1.7-1.1-2.8-1.1h-15.7v-9.8h13.1c1.2,0,2.1-0.3,2.9-1
		c0.8-0.7,1.1-1.5,1.1-2.6c0-1.1-0.4-2-1.2-2.7c-0.8-0.7-1.7-1-2.8-1h-13.1v-8.9H386.2z"/>
	<path class="st4" d="M430.6,455.1c-0.3-0.5-0.8-1-1.4-1.3c-0.5-0.2-0.7-0.5-0.9-0.9c-0.2-0.5-0.3-1.3-0.5-2.4
		c0-0.6-0.1-1.2-0.2-1.8c-0.2-2.7-1.5-5-3.8-6.7c1.5-1.1,2.8-2.4,3.8-4.1c1.1-1.9,1.7-3.8,1.7-5.8c0-2.4-0.6-4.6-1.7-6.5
		c-1.1-1.9-2.6-3.4-4.5-4.5c-1.9-1.1-3.9-1.6-6-1.6H400c-1.1,0-2.1,0.4-2.8,1.1c-0.8,0.7-1.2,1.7-1.2,2.8v33c0,1.1,0.5,2,1.4,2.8
		c0.9,0.7,2,1.1,3.2,1.1c1.1,0,1.9-0.4,2.6-1.1c0.6-0.7,1-1.6,1-2.8v-10.7h10.7c1.6,0,2.9,0.4,3.8,1.1c0.9,0.7,1.3,1.7,1.3,3
		c0,4.9,1.5,8.2,4.5,9.9c0.8,0.4,1.8,0.7,2.8,0.7c1.3,0,2.3-0.4,3-1.2c0.5-0.6,0.8-1.3,0.8-2.1C431.1,456.2,430.9,455.6,430.6,455.1
		L430.6,455.1z M420.9,432.2c0,1.2-0.2,2.3-0.6,3.4c-0.4,1-0.9,1.9-1.6,2.5c-0.6,0.6-1.2,0.9-1.8,0.9h-12.6v-12.2h12.6
		c0.6,0,1.2,0.2,1.8,0.7c0.6,0.5,1.1,1.2,1.6,2C420.7,430.2,420.9,431.2,420.9,432.2z"/>
	<path class="st4" d="M455.8,421.6c-0.3-0.8-0.8-1.4-1.5-1.9c-0.7-0.4-1.4-0.7-2.2-0.7c0,0,0,0,0,0c-0.9-0.1-1.7,0.1-2.4,0.6
		c-0.7,0.5-1.2,1.1-1.6,1.9l-14.8,34.1c-0.1,0.4-0.2,0.8-0.2,1.2c0,1,0.3,1.8,0.9,2.4c0.6,0.6,1.5,0.9,2.6,0.9
		c0.7,0,1.5-0.2,2.1-0.7c0.6-0.4,1.1-1.1,1.4-1.8l3-6.7h17.2l3,6.7c0.3,0.8,0.8,1.4,1.5,1.9c0.6,0.5,1.4,0.7,2.2,0.7
		c1,0,1.8-0.4,2.6-1c0.7-0.7,1.1-1.6,1.1-2.7c0-0.5-0.1-1-0.3-1.5L455.8,421.6z M457.2,443.8h-10.7l5.3-12L457.2,443.8z"/>
	<path class="st4" d="M493.8,421.6c-0.3-0.8-0.8-1.4-1.5-1.9c-0.7-0.4-1.4-0.7-2.2-0.7c0,0,0,0,0,0c-0.9-0.1-1.7,0.1-2.4,0.6
		c-0.7,0.5-1.2,1.1-1.6,1.9l-14.8,34.1c-0.1,0.4-0.2,0.8-0.2,1.2c0,1,0.3,1.8,0.9,2.4c0.6,0.6,1.5,0.9,2.6,0.9
		c0.7,0,1.5-0.2,2.1-0.7c0.6-0.4,1.1-1.1,1.4-1.8l3-6.7h17.2l3,6.7c0.3,0.8,0.8,1.4,1.5,1.9c0.6,0.5,1.4,0.7,2.2,0.7
		c1,0,1.8-0.4,2.6-1c0.8-0.7,1.1-1.6,1.1-2.7c0-0.5-0.1-1-0.3-1.5L493.8,421.6z M495.2,443.8h-10.7l5.3-12L495.2,443.8z"/>
	<path class="st4" d="M546.3,429.4c-1.4-3.1-3.5-5.5-6.3-7.3c-2.7-1.8-6-2.7-9.8-2.7h-14.2c-1.1,0-2.1,0.4-2.8,1.1
		c-0.8,0.7-1.2,1.7-1.2,2.8v33c0,1.1,0.4,2,1.2,2.8c0.8,0.7,1.7,1.1,2.8,1.1h14.2c3.8,0,7.1-0.9,9.8-2.7c2.7-1.8,4.8-4.3,6.3-7.3
		c1.4-3.1,2.1-6.5,2.1-10.3S547.7,432.5,546.3,429.4z M540,439.7c0,3.8-0.9,6.9-2.6,9.4c-1.7,2.4-4.3,3.6-7.7,3.6h-9.4v-26.1h9.4
		c3.4,0,6,1.2,7.7,3.6C539.1,432.8,540,435.9,540,439.7z"/>
	<path class="st4" d="M454.8,368.3l-35.5-9.6c-6.3-1.7-10.7-7.5-10.7-14v-11.3c0-6.6,4.4-12.3,10.7-14l35.5-9.6
		c9.3-2.5,18.4,4.5,18.4,14v30.6C473.2,363.9,464.1,370.8,454.8,368.3z"/>
	<path class="st4" d="M254,279.3c-29.9,0-54.2-24.3-54.2-54.2S224.1,171,254,171s54.2,24.3,54.2,54.2S283.8,279.3,254,279.3z
		 M254,181.9c-23.8,0-43.2,19.4-43.2,43.2s19.4,43.2,43.2,43.2s43.2-19.4,43.2-43.2S277.8,181.9,254,181.9z"/>
	<path class="st4" d="M369.5,279.3c-37.6,0-68.1-30.6-68.1-68.2s30.6-68.1,68.1-68.1c37.6,0,68.1,30.6,68.1,68.1
		S407.1,279.3,369.5,279.3z M369.5,153.9c-31.5,0-57.2,25.7-57.2,57.2s25.7,57.2,57.2,57.2c31.5,0,57.2-25.7,57.2-57.2
		S401,153.9,369.5,153.9z"/>
	<circle class="st4" cx="365.6" cy="218" r="10.5"/>
	<circle class="st4" cx="254" cy="228.5" r="10.5"/>
	<path class="st4" d="M438.1,151.2c-1.6,0-3.3-0.7-4.3-2.1c-14.3-18.6-32.5-28.5-54.3-29.7c-16.5-0.9-29.1,3.9-29.2,4
		c-2.8,1.1-6-0.3-7.1-3.1c-1.1-2.8,0.3-6,3.1-7.1c0.6-0.2,14.5-5.6,33.3-4.7c17.4,0.8,42.5,7.4,62.9,34c1.8,2.4,1.4,5.8-1,7.7
		C440.4,150.9,439.3,151.2,438.1,151.2z"/>
	<path class="st6" d="M363.1,386.8h-94.8c-18,0-32.5-14.6-32.5-32.5v-30.7c0-18,14.6-32.5,32.5-32.5h94.8c18,0,32.5,14.6,32.5,32.5
		v30.7C395.7,372.3,381.1,386.8,363.1,386.8z"/>
</g>
</svg>
