<?xml version="1.0" encoding="utf-8"?>
<!-- Generator: Adobe Illustrator 22.0.1, SVG Export Plug-In . SVG Version: 6.00 Build 0)  -->
<svg version="1.1" id="Laag_1" xmlns="http://www.w3.org/2000/svg" xmlns:xlink="http://www.w3.org/1999/xlink" x="0px" y="0px"
	 viewBox="0 0 860 621" style="enable-background:new 0 0 860 621;" xml:space="preserve">
<style type="text/css">
	.st0{clip-path:url(#SVGID_2_);}
	.st1{clip-path:url(#SVGID_4_);}
	.st2{clip-path:url(#SVGID_8_);}
	.st3{clip-path:url(#SVGID_12_);}
	.st4{clip-path:url(#SVGID_16_);fill:#E4192F;}
	.st5{clip-path:url(#SVGID_16_);fill:#E4222F;}
	.st6{clip-path:url(#SVGID_18_);fill:none;stroke:#E4222F;stroke-width:5.0057;stroke-linecap:round;}
	.st7{clip-path:url(#SVGID_20_);fill:#E4192F;}
	.st8{fill:#E4222F;}
	.st9{font-family:'Quicksand-Bold';}
	.st10{font-size:8.5812px;}
	.st11{fill:#1D1D1B;}
	.st12{font-family:'Raleway-Bold';}
	.st13{font-size:7.151px;}
	.st14{font-family:'Raleway-Light';}
	.st15{fill:none;stroke:#000000;stroke-width:1.0726;stroke-miterlimit:10;}
	.st16{fill:none;stroke:#000000;stroke-width:3.3986;stroke-miterlimit:10;}
	.st17{fill:none;}
	.st18{font-family:'Montserrat-Bold';}
	.st19{font-size:23px;}
</style>
<g>
	<defs>
		<rect id="SVGID_1_" x="189.5" y="63" width="212.4" height="502"/>
	</defs>
	<clipPath id="SVGID_2_">
		<use xlink:href="#SVGID_1_"  style="overflow:visible;"/>
	</clipPath>
	<g class="st0">
		<defs>
			<path id="SVGID_3_" d="M189.4,220.2v67c9.9,12.4,25.1,20.3,42.1,20.3c29.7,0,53.8-24.1,53.8-53.8c0-29.7-24.1-53.8-53.8-53.8
				C214.4,199.8,199.2,207.8,189.4,220.2"/>
		</defs>
		<clipPath id="SVGID_4_">
			<use xlink:href="#SVGID_3_"  style="overflow:visible;"/>
		</clipPath>
		<g class="st1">
			<defs>
				<rect id="SVGID_5_" x="189.4" y="198.3" width="97.5" height="110.7"/>
			</defs>
			<clipPath id="SVGID_6_">
				<use xlink:href="#SVGID_5_"  style="overflow:visible;"/>
			</clipPath>
			<g transform="matrix(1 0 0 1 0 -1.525879e-05)" style="clip-path:url(#SVGID_6_);">
				
					<image style="overflow:visible;" width="285" height="323" xlink:href="3B18691987AF82B.jpg"  transform="matrix(0.342 0 0 0.3426 189.3671 198.317)">
				</image>
			</g>
		</g>
	</g>
	<g class="st0">
		<defs>
			<path id="SVGID_7_" d="M177.3,451.5c0,29.7,24.1,53.8,53.8,53.8s53.8-24.1,53.8-53.8c0-29.7-24.1-53.8-53.8-53.8
				S177.3,421.8,177.3,451.5"/>
		</defs>
		<clipPath id="SVGID_8_">
			<use xlink:href="#SVGID_7_"  style="overflow:visible;"/>
		</clipPath>
		<g class="st2">
			<defs>
				<rect id="SVGID_9_" x="175.9" y="396.1" width="110.7" height="110.9"/>
			</defs>
			<clipPath id="SVGID_10_">
				<use xlink:href="#SVGID_9_"  style="overflow:visible;"/>
			</clipPath>
			<g transform="matrix(1 0 0 1 0 0)" style="clip-path:url(#SVGID_10_);">
				
					<image style="overflow:visible;" width="323" height="324" xlink:href="3B18691987AF82E.jpg"  transform="matrix(0.3426 0 0 0.3422 175.887 396.0674)">
				</image>
			</g>
		</g>
	</g>
	<g class="st0">
		<defs>
			<path id="SVGID_11_" d="M311.5,386.2c0,29.7,24.1,53.8,53.8,53.8s53.8-24.1,53.8-53.8c0-29.7-24.1-53.8-53.8-53.8
				S311.5,356.5,311.5,386.2"/>
		</defs>
		<clipPath id="SVGID_12_">
			<use xlink:href="#SVGID_11_"  style="overflow:visible;"/>
		</clipPath>
		<g class="st3">
			<defs>
				<rect id="SVGID_13_" x="309.9" y="331.9" width="110.8" height="109.7"/>
			</defs>
			<clipPath id="SVGID_14_">
				<use xlink:href="#SVGID_13_"  style="overflow:visible;"/>
			</clipPath>
			<g style="clip-path:url(#SVGID_14_);">
				
					<image style="overflow:visible;" width="422" height="418" xlink:href="3B18691987AF82D.jpg"  transform="matrix(-0.2625 0 0 0.2625 420.7043 331.9485)">
				</image>
			</g>
		</g>
	</g>
	<g class="st0">
		<defs>
			<rect id="SVGID_15_" x="247.8" y="86.4" width="97.3" height="78"/>
		</defs>
		<clipPath id="SVGID_16_">
			<use xlink:href="#SVGID_15_"  style="overflow:visible;"/>
		</clipPath>
		<path class="st4" d="M253.1,155.4h-4.8c-0.1,0-0.3,0-0.3,0.1c-0.1,0.1-0.1,0.2-0.1,0.3v8.1c0,0.1,0,0.2,0.1,0.3
			c0.1,0.1,0.2,0.1,0.4,0.1c0.1,0,0.3,0,0.3-0.1c0.1-0.1,0.1-0.2,0.1-0.3v-3.7h3.7c0.1,0,0.2,0,0.3-0.1c0.1-0.1,0.1-0.2,0.1-0.3
			c0-0.1,0-0.2-0.1-0.3c-0.1-0.1-0.2-0.1-0.3-0.1h-3.7v-3h4.3c0.1,0,0.3,0,0.3-0.1c0.1-0.1,0.1-0.2,0.1-0.3c0-0.1,0-0.2-0.1-0.3
			C253.3,155.4,253.2,155.4,253.1,155.4"/>
		<path class="st4" d="M255.7,155.4c-0.1,0-0.3,0-0.4,0.1c-0.1,0.1-0.1,0.2-0.1,0.3v8c0,0.1,0,0.3,0.1,0.3c0.1,0.1,0.2,0.1,0.4,0.1
			c0.1,0,0.3,0,0.3-0.1c0.1-0.1,0.1-0.2,0.2-0.3v-8c0-0.1,0-0.2-0.1-0.3C256,155.4,255.9,155.4,255.7,155.4"/>
		<path class="st4" d="M263.7,163.5h-4.2v-7.6c0-0.1-0.1-0.2-0.1-0.3c-0.1-0.1-0.2-0.1-0.3-0.1c-0.1,0-0.3,0-0.4,0.1
			c-0.1,0.1-0.1,0.2-0.1,0.3v8.1c0,0.1,0,0.2,0.1,0.3c0.1,0.1,0.2,0.1,0.3,0.1h4.7c0.1,0,0.3,0,0.3-0.1c0.1-0.1,0.1-0.2,0.1-0.3
			c0-0.1,0-0.2-0.1-0.3C263.9,163.5,263.8,163.5,263.7,163.5"/>
		<path class="st4" d="M273.6,155.4L273.6,155.4c-0.2,0-0.3,0-0.4,0.2l-3.4,4.9l-3.4-4.9c0-0.1-0.1-0.1-0.2-0.1
			c-0.2-0.1-0.4-0.1-0.6,0.1c-0.1,0.1-0.1,0.2-0.1,0.3v8.1c0,0.1,0,0.2,0.1,0.3c0.1,0.1,0.2,0.1,0.3,0.1c0.1,0,0.2,0,0.3-0.1
			c0.1-0.1,0.1-0.2,0.1-0.3v-6.7l2.9,4.3c0.1,0.1,0.2,0.2,0.4,0.2h0c0.1,0,0.3-0.1,0.4-0.2l2.9-4.3v6.7c0,0.1,0,0.2,0.1,0.3
			c0.1,0.1,0.2,0.1,0.4,0.1c0.1,0,0.3,0,0.3-0.1c0.1-0.1,0.1-0.2,0.1-0.3v-8.1c0-0.1,0-0.2-0.1-0.3
			C273.9,155.4,273.8,155.4,273.6,155.4"/>
		<path class="st4" d="M283.1,162.9l-2.9-3.7l2.8-2.6c0.2-0.2,0.3-0.4,0.3-0.6c0-0.2-0.1-0.4-0.2-0.6c-0.2-0.2-0.4-0.3-0.6-0.3
			c-0.2,0-0.5,0.1-0.7,0.3l-4.1,3.8v-3.2c0-0.2-0.1-0.5-0.2-0.6c-0.2-0.2-0.4-0.2-0.6-0.2c-0.3,0-0.5,0.1-0.7,0.2
			c-0.2,0.2-0.3,0.4-0.3,0.6v7.3c0,0.2,0.1,0.4,0.3,0.6c0.2,0.2,0.4,0.2,0.6,0.2c0.3,0,0.5-0.1,0.7-0.2c0.2-0.2,0.3-0.4,0.3-0.6
			v-1.9l1.2-1.1l2.8,3.5c0.1,0.1,0.2,0.2,0.3,0.2c0.1,0.1,0.2,0.1,0.4,0.1c0.3,0,0.5-0.1,0.7-0.2c0.2-0.2,0.3-0.4,0.3-0.6
			c0-0.1,0-0.2-0.1-0.3C283.2,163.1,283.2,163,283.1,162.9"/>
		<path class="st4" d="M288.9,155.9c-0.1-0.2-0.2-0.3-0.3-0.4c-0.1-0.1-0.3-0.1-0.5-0.1h0c-0.2,0-0.4,0-0.5,0.1
			c-0.2,0.1-0.3,0.2-0.3,0.4l-3.3,7.6c0,0.1,0,0.2,0,0.3c0,0.2,0.1,0.4,0.2,0.5c0.1,0.1,0.3,0.2,0.6,0.2c0.2,0,0.3,0,0.5-0.1
			c0.1-0.1,0.2-0.2,0.3-0.4l0.7-1.5h3.8l0.7,1.5c0.1,0.2,0.2,0.3,0.3,0.4c0.1,0.1,0.3,0.2,0.5,0.2c0.2,0,0.4-0.1,0.6-0.2
			c0.2-0.2,0.3-0.4,0.3-0.6c0-0.1,0-0.2-0.1-0.3L288.9,155.9z M289.2,160.8h-2.4l1.2-2.7L289.2,160.8z"/>
		<path class="st4" d="M301.8,155.6c-0.2-0.2-0.4-0.2-0.6-0.2c-0.1,0-0.3,0-0.4,0.1c-0.1,0.1-0.2,0.2-0.3,0.3l-2.9,4.1l-2.8-4.1
			c-0.1-0.1-0.2-0.2-0.3-0.3c-0.1-0.1-0.3-0.1-0.4-0.1c-0.2,0-0.5,0.1-0.6,0.2c-0.2,0.2-0.3,0.4-0.3,0.6v7.3c0,0.2,0.1,0.4,0.2,0.6
			c0.2,0.2,0.4,0.2,0.6,0.2c0.3,0,0.5-0.1,0.6-0.2c0.2-0.2,0.2-0.4,0.2-0.6v-4.9l2,3.1c0.1,0.1,0.2,0.2,0.3,0.3
			c0.1,0.1,0.3,0.1,0.4,0.1c0.1,0,0.3,0,0.4-0.1c0.1-0.1,0.2-0.2,0.3-0.3l2-3v4.8c0,0.3,0.1,0.5,0.3,0.6c0.2,0.2,0.4,0.2,0.7,0.2
			c0.3,0,0.5-0.1,0.7-0.2c0.2-0.2,0.2-0.4,0.2-0.6v-7.3C302.1,156,302,155.8,301.8,155.6z"/>
		<path class="st4" d="M309.2,157c0.3,0,0.5-0.1,0.6-0.2c0.2-0.1,0.3-0.3,0.3-0.6c0-0.2-0.1-0.4-0.3-0.6c-0.2-0.2-0.4-0.2-0.6-0.2
			h-4.4c-0.2,0-0.5,0.1-0.6,0.2c-0.2,0.2-0.3,0.4-0.3,0.6v7.3c0,0.2,0.1,0.4,0.3,0.6c0.2,0.2,0.4,0.2,0.6,0.2h4.4
			c0.2,0,0.5-0.1,0.6-0.2c0.2-0.2,0.3-0.3,0.3-0.6c0-0.2-0.1-0.4-0.3-0.6c-0.2-0.2-0.4-0.2-0.6-0.2h-3.5v-2.2h2.9
			c0.3,0,0.5-0.1,0.6-0.2c0.2-0.1,0.3-0.3,0.3-0.6c0-0.2-0.1-0.4-0.3-0.6c-0.2-0.2-0.4-0.2-0.6-0.2h-2.9v-2H309.2z"/>
		<path class="st4" d="M319,163.3c-0.1-0.1-0.2-0.2-0.3-0.3c-0.1,0-0.2-0.1-0.2-0.2c0-0.1-0.1-0.3-0.1-0.5c0-0.1,0-0.3,0-0.4
			c-0.1-0.6-0.3-1.1-0.8-1.5c0.3-0.2,0.6-0.5,0.8-0.9c0.2-0.4,0.4-0.8,0.4-1.3c0-0.5-0.1-1-0.4-1.4c-0.2-0.4-0.6-0.8-1-1
			c-0.4-0.2-0.9-0.4-1.3-0.4h-3.8c-0.2,0-0.5,0.1-0.6,0.2c-0.2,0.2-0.3,0.4-0.3,0.6v7.3c0,0.2,0.1,0.5,0.3,0.6
			c0.2,0.2,0.4,0.2,0.7,0.2c0.2,0,0.4-0.1,0.6-0.2c0.1-0.2,0.2-0.4,0.2-0.6v-2.4h2.4c0.4,0,0.6,0.1,0.8,0.2c0.2,0.2,0.3,0.4,0.3,0.7
			c0,1.1,0.3,1.8,1,2.2c0.2,0.1,0.4,0.1,0.6,0.1c0.3,0,0.5-0.1,0.7-0.3c0.1-0.1,0.2-0.3,0.2-0.5C319.1,163.5,319.1,163.4,319,163.3
			 M316.9,158.2c0,0.3,0,0.5-0.1,0.7c-0.1,0.2-0.2,0.4-0.3,0.5c-0.1,0.1-0.3,0.2-0.4,0.2h-2.8V157h2.8c0.1,0,0.3,0.1,0.4,0.2
			c0.1,0.1,0.3,0.3,0.3,0.4C316.8,157.8,316.9,158,316.9,158.2"/>
		<path class="st4" d="M324.6,155.9c-0.1-0.2-0.2-0.3-0.3-0.4c-0.1-0.1-0.3-0.1-0.5-0.1h0c-0.2,0-0.4,0-0.5,0.1
			c-0.2,0.1-0.3,0.2-0.3,0.4l-3.3,7.6c0,0.1,0,0.2,0,0.3c0,0.2,0.1,0.4,0.2,0.5c0.1,0.1,0.3,0.2,0.6,0.2c0.2,0,0.3,0,0.5-0.1
			c0.1-0.1,0.2-0.2,0.3-0.4l0.7-1.5h3.8l0.7,1.5c0.1,0.2,0.2,0.3,0.3,0.4c0.1,0.1,0.3,0.2,0.5,0.2c0.2,0,0.4-0.1,0.6-0.2
			c0.2-0.2,0.3-0.4,0.3-0.6c0-0.1,0-0.2-0.1-0.3L324.6,155.9z M324.9,160.8h-2.4l1.2-2.7L324.9,160.8z"/>
		<path class="st4" d="M333,155.9c-0.1-0.2-0.2-0.3-0.3-0.4c-0.1-0.1-0.3-0.1-0.5-0.1h0c-0.2,0-0.4,0-0.5,0.1
			c-0.2,0.1-0.3,0.2-0.3,0.4l-3.3,7.6c0,0.1,0,0.2,0,0.3c0,0.2,0.1,0.4,0.2,0.5c0.1,0.1,0.3,0.2,0.6,0.2c0.2,0,0.3,0,0.5-0.1
			c0.1-0.1,0.2-0.2,0.3-0.4l0.7-1.5h3.8l0.7,1.5c0.1,0.2,0.2,0.3,0.3,0.4c0.1,0.1,0.3,0.2,0.5,0.2c0.2,0,0.4-0.1,0.6-0.2
			c0.2-0.2,0.3-0.4,0.3-0.6c0-0.1,0-0.2-0.1-0.3L333,155.9z M333.3,160.8H331l1.2-2.7L333.3,160.8z"/>
		<path class="st4" d="M344.6,157.6c-0.3-0.7-0.8-1.2-1.4-1.6c-0.6-0.4-1.3-0.6-2.2-0.6h-3.1c-0.3,0-0.5,0.1-0.6,0.2
			c-0.2,0.2-0.3,0.4-0.3,0.6v7.3c0,0.2,0.1,0.4,0.3,0.6c0.2,0.2,0.4,0.2,0.6,0.2h3.1c0.8,0,1.6-0.2,2.2-0.6c0.6-0.4,1.1-0.9,1.4-1.6
			c0.3-0.7,0.5-1.4,0.5-2.3C345.1,159.1,345,158.3,344.6,157.6 M343.2,159.9c0,0.8-0.2,1.5-0.6,2.1c-0.4,0.5-0.9,0.8-1.7,0.8h-2.1
			V157h2.1c0.7,0,1.3,0.3,1.7,0.8C343,158.4,343.2,159.1,343.2,159.9"/>
		<path class="st4" d="M324.4,144.1l-7.9-2.1c-1.4-0.4-2.4-1.7-2.4-3.1v-2.5c0-1.5,1-2.7,2.4-3.1l7.9-2.1c2-0.6,4.1,1,4.1,3.1v6.8
			C328.5,143.1,326.4,144.7,324.4,144.1"/>
		<path class="st4" d="M280,124.4c-6.6,0-12-5.4-12-12c0-6.6,5.4-12,12-12c6.6,0,12,5.4,12,12C292,119,286.6,124.4,280,124.4
			 M280,102.9c-5.3,0-9.6,4.3-9.6,9.6c0,5.3,4.3,9.6,9.6,9.6s9.6-4.3,9.6-9.6C289.5,107.2,285.2,102.9,280,102.9"/>
		<path class="st4" d="M305.5,124.4c-8.3,0-15.1-6.8-15.1-15.1c0-8.3,6.8-15.1,15.1-15.1c8.3,0,15.1,6.8,15.1,15.1
			C320.6,117.6,313.8,124.4,305.5,124.4 M305.5,96.7c-7,0-12.7,5.7-12.7,12.7c0,7,5.7,12.7,12.7,12.7c7,0,12.7-5.7,12.7-12.7
			C318.2,102.4,312.5,96.7,305.5,96.7"/>
		<path class="st4" d="M304.7,113.2c-1.3,0-2.3-1-2.3-2.3c0-1.3,1-2.3,2.3-2.3c1.3,0,2.3,1,2.3,2.3
			C307,112.1,305.9,113.2,304.7,113.2"/>
		<path class="st4" d="M280,115.5c-1.3,0-2.3-1-2.3-2.3c0-1.3,1-2.3,2.3-2.3c1.3,0,2.3,1,2.3,2.3C282.3,114.5,281.3,115.5,280,115.5
			"/>
		<path class="st4" d="M320.7,96.1c-0.4,0-0.7-0.2-1-0.5c-3.2-4.1-7.2-6.3-12-6.6c-3.7-0.2-6.4,0.9-6.5,0.9
			c-0.6,0.2-1.3-0.1-1.6-0.7c-0.2-0.6,0.1-1.3,0.7-1.6c0.1-0.1,3.2-1.2,7.4-1c3.9,0.2,9.4,1.6,13.9,7.5c0.4,0.5,0.3,1.3-0.2,1.7
			C321.2,96,321,96.1,320.7,96.1"/>
		<path class="st5" d="M304.1,148.2h-21c-4,0-7.2-3.2-7.2-7.2v-6.8c0-4,3.2-7.2,7.2-7.2h21c4,0,7.2,3.2,7.2,7.2v6.8
			C311.3,145,308.1,148.2,304.1,148.2"/>
	</g>
	<g class="st0">
		<defs>
			<rect id="SVGID_17_" x="177.3" y="81.3" width="241.7" height="485.2"/>
		</defs>
		<clipPath id="SVGID_18_">
			<use xlink:href="#SVGID_17_"  style="overflow:visible;"/>
		</clipPath>
		<path class="st6" d="M266.1,309.8c6.5-3.4,12.3-8.2,17.1-14.4c8.6-11.1,12.3-24.4,11.2-37.4"/>
		<path class="st6" d="M265.3,507.3c6.5-3.3,12.4-8,17.3-14.1c8.8-10.9,12.7-24.2,11.9-37.2"/>
		<path class="st6" d="M302.7,391.6c-1.3-7.2-1.1-14.8,0.8-22.3c3.4-13.6,11.7-24.7,22.6-31.9"/>
	</g>
	<g class="st0">
		<defs>
			<rect id="SVGID_19_" x="304.2" y="502.8" width="97.7" height="63.6"/>
		</defs>
		<clipPath id="SVGID_20_">
			<use xlink:href="#SVGID_19_"  style="overflow:visible;"/>
		</clipPath>
		<path class="st7" d="M327.7,577.3c-13,0-23.5-10.5-23.5-23.5c0-13,10.5-23.5,23.5-23.5s23.5,10.5,23.5,23.5
			C351.2,566.8,340.7,577.3,327.7,577.3 M327.7,535.1c-10.3,0-18.8,8.4-18.8,18.8c0,10.3,8.4,18.8,18.8,18.8s18.8-8.4,18.8-18.8
			C346.5,543.5,338.1,535.1,327.7,535.1"/>
		<path class="st7" d="M377.9,577.3c-16.3,0-29.6-13.3-29.6-29.6c0-16.3,13.3-29.6,29.6-29.6c16.3,0,29.6,13.3,29.6,29.6
			C407.4,564.1,394.2,577.3,377.9,577.3 M377.9,522.9c-13.7,0-24.8,11.1-24.8,24.8c0,13.7,11.1,24.8,24.8,24.8s24.8-11.1,24.8-24.8
			C402.7,534.1,391.6,522.9,377.9,522.9"/>
		<path class="st7" d="M376.2,555.3c-2.5,0-4.6-2-4.6-4.6c0-2.5,2-4.6,4.6-4.6s4.6,2,4.6,4.6C380.7,553.3,378.7,555.3,376.2,555.3"
			/>
		<path class="st7" d="M327.7,559.9c-2.5,0-4.6-2-4.6-4.6c0-2.5,2-4.6,4.6-4.6c2.5,0,4.6,2,4.6,4.6
			C332.3,557.8,330.2,559.9,327.7,559.9"/>
		<path class="st7" d="M407.6,521.8c-0.7,0-1.4-0.3-1.9-0.9c-6.2-8.1-14.1-12.4-23.6-12.9c-7.2-0.4-12.6,1.7-12.7,1.7
			c-1.2,0.5-2.6-0.1-3.1-1.4c-0.5-1.2,0.1-2.6,1.3-3.1c0.3-0.1,6.3-2.4,14.4-2c7.6,0.4,18.4,3.2,27.3,14.8c0.8,1,0.6,2.5-0.4,3.3
			C408.7,521.6,408.1,521.8,407.6,521.8"/>
	</g>
	<g class="st0">
		<text transform="matrix(1 0 0 1 304.5615 262.3374)"><tspan x="0" y="0" class="st8 st9 st10">DE BUU</tspan><tspan x="31.2" y="0" class="st8 st9 st10">R</tspan><tspan x="36.9" y="0" class="st8 st9 st10">TSPION</tspan></text>
	</g>
	<g class="st0">
		<text transform="matrix(1 0 0 1 304.5615 273.7788)"><tspan x="0" y="0" class="st11 st12 st13">A</tspan><tspan x="4.6" y="0" class="st11 st12 st13">UGU</tspan><tspan x="20.5" y="0" class="st11 st12 st13">S</tspan><tspan x="24.9" y="0" class="st11 st12 st13">TUS</tspan></text>
	</g>
	<g class="st0">
		<text transform="matrix(1 0 0 1 304.5615 283.792)" class="st11 st14 st13">9, 12, 13, 16, 19, 20, 23, </text>
	</g>
	<g class="st0">
		<text transform="matrix(1 0 0 1 304.5615 293.8027)"><tspan x="0" y="0" class="st11 st14 st13">26, 2</tspan><tspan x="15.1" y="0" class="st11 st14 st13">7</tspan><tspan x="18.4" y="0" class="st11 st14 st13">, 30</tspan></text>
	</g>
	<g class="st0">
		<text transform="matrix(1 0 0 1 304.5615 305.2451)" class="st11 st12 st13">SEPTEMBER</text>
	</g>
	<g class="st0">
		<text transform="matrix(1 0 0 1 304.5615 315.2559)" class="st11 st14 st13">2, 3, 6, 9, 10</text>
	</g>
	<g class="st0">
		<text transform="matrix(1 0 0 1 304.2363 460.1787)"><tspan x="0" y="0" class="st8 st9 st10">R</tspan><tspan x="5.8" y="0" class="st8 st9 st10">OSIE &amp; MO</tspan><tspan x="49.2" y="0" class="st8 st9 st10">U</tspan><tspan x="55.1" y="0" class="st8 st9 st10">SSA</tspan></text>
	</g>
	<g class="st0">
		<text transform="matrix(1 0 0 1 304.2363 471.6211)"><tspan x="0" y="0" class="st11 st12 st13">A</tspan><tspan x="4.6" y="0" class="st11 st12 st13">UGU</tspan><tspan x="20.5" y="0" class="st11 st12 st13">S</tspan><tspan x="24.9" y="0" class="st11 st12 st13">TUS</tspan></text>
	</g>
	<g class="st0">
		<text transform="matrix(1 0 0 1 304.2363 481.6318)" class="st11 st14 st13">16, 18, 20, 23, 26, </text>
	</g>
	<g class="st0">
		<text transform="matrix(1 0 0 1 304.2363 491.6426)" class="st11 st14 st13">28, 30</text>
	</g>
	<g class="st0">
		<text transform="matrix(1 0 0 1 304.2363 503.085)" class="st11 st12 st13">SEPTEMBER</text>
	</g>
	<g class="st0">
		<text transform="matrix(1 0 0 1 304.2363 513.0957)" class="st11 st14 st13">2, 4, 6, 10, 15</text>
	</g>
	<g class="st0">
		<text transform="matrix(1 0 0 1 228.1787 339.0215)"><tspan x="0" y="0" class="st8 st9 st10">RI</tspan><tspan x="8.3" y="0" class="st8 st9 st10">T</tspan><tspan x="13.2" y="0" class="st8 st9 st10">A K</tspan><tspan x="26.7" y="0" class="st8 st9 st10">R</tspan><tspan x="32.5" y="0" class="st8 st9 st10">O</tspan><tspan x="39" y="0" class="st8 st9 st10">K</tspan><tspan x="44.4" y="0" class="st8 st9 st10">ODIL</tspan></text>
	</g>
	<g class="st0">
		<text transform="matrix(1 0 0 1 253.3848 350.4639)"><tspan x="0" y="0" class="st11 st12 st13">A</tspan><tspan x="4.6" y="0" class="st11 st12 st13">UGU</tspan><tspan x="20.5" y="0" class="st11 st12 st13">S</tspan><tspan x="24.9" y="0" class="st11 st12 st13">TUS</tspan></text>
	</g>
	<g class="st0">
		<text transform="matrix(1 0 0 1 219.7812 360.4746)" class="st11 st14 st13">10, 11, 14, 16, 19, 20, 25, </text>
	</g>
	<g class="st0">
		<text transform="matrix(1 0 0 1 261.4004 370.4854)" class="st11 st14 st13">26, 28, 30</text>
	</g>
	<g class="st0">
		<text transform="matrix(1 0 0 1 250.4385 381.9277)" class="st11 st12 st13">SEPTEMBER</text>
	</g>
	<g class="st0">
		<text transform="matrix(1 0 0 1 267.0361 391.9385)" class="st11 st14 st13">1, 3, 5, 9</text>
	</g>
	<g class="st0">
		<text transform="matrix(1 0 0 1 304.5615 198.7632)" class="st8 st9 st10">JEUGDFILM </text>
	</g>
	<g class="st0">
		<text transform="matrix(1 0 0 1 304.5615 209.062)"><tspan x="0" y="0" class="st8 st9 st10">V</tspan><tspan x="5.7" y="0" class="st8 st9 st10">OOR-</tspan></text>
	</g>
	<g class="st0">
		<text transform="matrix(1 0 0 1 304.5615 219.3579)" class="st8 st9 st10">STELLINGEN</text>
	</g>
	<g class="st0">
		<text transform="matrix(1 0 0 1 304.5615 239.3784)"><tspan x="0" y="0" class="st11 st12 st10">IN</tspan><tspan x="9" y="0" class="st11 st12 st10">K</tspan><tspan x="14.4" y="0" class="st11 st12 st10">OM €6,50</tspan></text>
	</g>
	<g class="st0">
		<text transform="matrix(1 0 0 1 359.0186 239.3784)" class="st8 st9 st10">  </text>
	</g>
</g>
<rect x="189.5" y="63" class="st15" width="212.4" height="502"/>
<polyline class="st16" points="297,290 541,290 541,531 365.6,531 "/>
<rect x="558.9" y="379.8" class="st17" width="159.2" height="81.2"/>
<text transform="matrix(1 0 0 1 558.8682 396.8447)"><tspan x="0" y="0" class="st18 st19">ZELFDE </tspan><tspan x="0" y="27.6" class="st18 st19">BREEDTE</tspan></text>
</svg>
